<svg width="1200px" height="400px" viewBox="110 0 990 370" version="1.1" xmlns="http://www.w3.org/2000/svg" xmlns:xlink="http://www.w3.org/1999/xlink">
    <g>
        <g>
            <path
                d="M991.43,180.812 L1028.81,264.858 L1066.19,180.812 L1097.53,180.812 C1091.16,195.062 1023.29,346.731 1023.22,346.885 C1014.87,365.587 992.867,374.049 974.215,365.727 L974.215,365.727 L964.276,361.294 L964.229,361.272 L964.226,361.271 L975.81,335.275 L979.927,337.112 C987.617,340.543 996.69,337.055 1000.13,329.344 C1000.16,329.277 1013.14,300.062 1013.14,300.062 L1013.14,300.062 L960.084,180.812 L991.43,180.812 Z M857.975,122.429 L857.975,192.528 C868.611,185.086 881.537,180.704 895.477,180.704 C931.646,180.704 961.063,210.121 961.063,246.289 C961.063,282.458 931.646,311.875 895.477,311.875 C881.537,311.875 868.611,307.492 857.975,300.051 L857.975,300.051 L857.975,311.685 L829.224,311.685 L829.224,122.429 L857.975,122.429 Z M692.267,180.696 C728.435,180.696 757.852,210.113 757.852,246.281 C757.852,282.449 728.435,311.867 692.267,311.867 C656.098,311.867 626.681,282.449 626.681,246.281 C626.681,210.113 656.098,180.696 692.267,180.696 Z M391.796,122.407 L391.796,311.685 L363.874,311.685 C311.736,311.685 269.235,269.184 269.235,217.046 C269.235,164.908 311.736,122.407 363.874,122.407 L391.796,122.407 Z M150.484,122.407 C202.621,122.407 245.122,164.908 245.122,217.046 C245.122,269.184 202.621,311.685 150.484,311.685 L122.561,311.685 L122.561,122.407 L150.484,122.407 Z M517.477,122.395 C569.663,122.395 612.12,164.852 612.12,217.04 C612.12,269.227 569.663,311.685 517.477,311.685 L517.477,311.685 L449.113,311.685 L449.113,122.395 Z M805.111,122.429 L805.111,311.685 L776.418,311.685 L776.418,122.429 L805.111,122.429 Z M895.477,206.504 C878.101,206.504 863.225,217.802 857.975,233.564 C856.668,237.488 855.933,241.676 855.933,246.048 C855.933,250.396 856.668,254.577 857.975,258.504 C863.19,274.171 877.932,285.593 895.477,285.593 C917.178,285.593 935.021,267.99 935.021,246.048 C935.021,224.347 917.178,206.504 895.477,206.504 Z M692.267,206.496 C670.566,206.496 652.723,224.098 652.723,246.04 C652.723,267.741 670.324,285.584 692.267,285.584 C713.968,285.584 731.811,267.982 731.811,246.04 C731.811,224.339 713.968,206.496 692.267,206.496 Z M517.476,151.093 L477.81,151.093 L477.81,282.987 L517.476,282.987 C553.808,282.987 583.423,253.371 583.423,217.04 C583.423,180.709 553.808,151.093 517.476,151.093 L517.476,151.093 Z">
            </path>
        </g>
    </g>
</svg>