<?xml version="1.0" encoding="UTF-8"?>
<svg id="Layer_1" data-name="Layer 1" xmlns="http://www.w3.org/2000/svg" width="360" height="320" viewBox="0 0 360 320">
  <defs>
    <style>
      .cls-1 {
        fill: #fff;
      }

      .cls-2 {
        fill: #ff9d00;
      }

      .cls-3 {
        fill: #ffad03;
      }

      .cls-3, .cls-4, .cls-5 {
        fill-rule: evenodd;
      }

      .cls-6 {
        fill: #ff323d;
      }

      .cls-4 {
        fill: #32343d;
      }

      .cls-5 {
        fill: #ffd21e;
      }
    </style>
  </defs>
  <path class="cls-1" d="M267.36,198.4c-.46-1.73-1.2-3.37-2.2-4.86.21-.78.38-1.58.49-2.38.71-5.1-1.06-9.78-4.4-13.39-1.81-1.97-3.74-3.28-5.79-4.08,1.35-5.76,2.03-11.65,2.03-17.57,0-2.7-.15-5.35-.41-7.96-.13-1.3-.29-2.6-.48-3.9-.59-3.82-1.46-7.59-2.61-11.28-.75-2.43-1.62-4.81-2.61-7.15-1.48-3.47-3.2-6.82-5.16-10.04-1.28-2.14-2.68-4.21-4.19-6.2-.74-1.01-1.51-1.99-2.31-2.94-2.37-2.88-4.95-5.59-7.72-8.1-.92-.84-1.86-1.66-2.83-2.44-.95-.8-1.93-1.57-2.92-2.31-2-1.49-4.07-2.89-6.2-4.19-11.77-7.15-25.58-11.25-40.33-11.25-42.96,0-77.78,34.82-77.78,77.78,0,5.99.69,11.96,2.07,17.79-1.85.8-3.61,2.05-5.25,3.86-3.33,3.61-5.1,8.27-4.4,13.38.11.81.27,1.61.48,2.4-1,1.49-1.74,3.13-2.2,4.86-1.03,3.9-.69,7.41.62,10.49-1.42,4.02-1.06,8.31.78,12.03,1.34,2.72,3.26,4.83,5.63,6.71,2.81,2.24,6.33,4.14,10.58,5.96,5.07,2.16,11.25,4.19,14.07,4.94,7.27,1.88,14.23,3.07,21.29,3.13,10.06.09,18.72-2.27,24.93-8.33,3.05.37,6.11.56,9.18.56,3.24,0,6.48-.21,9.7-.61,6.19,6.09,14.88,8.48,24.98,8.38,7.06-.06,14.03-1.25,21.27-3.13,2.83-.74,9.01-2.78,14.08-4.94,4.25-1.83,7.77-3.73,10.6-5.96,2.35-1.88,4.27-3.99,5.61-6.71,1.86-3.73,2.2-8.01.8-12.03,1.29-3.08,1.63-6.6.6-10.49ZM260.15,208.63c1.43,2.71,1.52,5.77.26,8.62-1.91,4.32-6.65,7.72-15.87,11.38-5.73,2.27-10.98,3.73-11.02,3.74-7.58,1.97-14.43,2.96-20.37,2.96-9.83,0-17.14-2.71-21.77-8.07-7.84,1.34-15.85,1.38-23.7.13-4.64,5.27-11.91,7.93-21.65,7.93-5.93,0-12.79-1-20.37-2.96-.05-.01-5.29-1.47-11.02-3.74-9.21-3.65-13.96-7.05-15.87-11.38-1.26-2.85-1.17-5.91.26-8.62.13-.25.27-.5.42-.73-.86-1.28-1.43-2.74-1.68-4.26-.25-1.52-.18-3.08.21-4.57.57-2.16,1.74-3.95,3.33-5.23-.77-1.26-1.27-2.66-1.48-4.12-.46-3.17.6-6.34,2.96-8.92,1.85-2.01,4.45-3.12,7.34-3.12h.08c-2.18-6.98-3.28-14.25-3.27-21.56,0-39.87,32.32-72.19,72.19-72.19s72.19,32.32,72.19,72.19c0,7.33-1.11,14.62-3.3,21.61.35-.03.69-.05,1.03-.05,2.89,0,5.5,1.11,7.34,3.12,2.37,2.58,3.42,5.75,2.96,8.92-.21,1.46-.71,2.86-1.48,4.12,1.59,1.29,2.76,3.08,3.33,5.23.39,1.49.46,3.05.21,4.58-.25,1.52-.83,2.97-1.68,4.26.15.23.29.48.42.73Z"/>
  <path class="cls-2" d="M259.73,207.9c.86-1.28,1.43-2.74,1.68-4.26.25-1.52.18-3.08-.21-4.58-.57-2.16-1.74-3.95-3.33-5.23.77-1.26,1.27-2.66,1.48-4.12.46-3.17-.59-6.34-2.96-8.92-1.84-2.01-4.45-3.12-7.34-3.12-.34,0-.68.02-1.03.05,2.19-6.99,3.3-14.28,3.29-21.61,0-39.87-32.32-72.19-72.19-72.19s-72.19,32.32-72.19,72.19c0,7.31,1.1,14.58,3.27,21.56h-.08c-2.89,0-5.5,1.11-7.34,3.12-2.37,2.58-3.42,5.75-2.96,8.92.21,1.46.71,2.86,1.48,4.12-1.59,1.29-2.76,3.08-3.33,5.23-.39,1.49-.46,3.05-.21,4.58.25,1.52.83,2.97,1.68,4.26-.15.24-.29.48-.42.73-1.43,2.71-1.52,5.77-.26,8.62,1.91,4.32,6.65,7.72,15.87,11.38,5.73,2.27,10.98,3.73,11.02,3.74,7.58,1.97,14.43,2.96,20.37,2.96,9.74,0,17.01-2.67,21.66-7.93,7.86,1.25,15.86,1.2,23.7-.13,4.64,5.35,11.95,8.07,21.77,8.07,5.93,0,12.79-1,20.37-2.96.05-.01,5.29-1.47,11.02-3.74,9.21-3.65,13.96-7.06,15.87-11.38,1.26-2.85,1.17-5.91-.26-8.62-.13-.25-.27-.5-.42-.73ZM164.36,219.16c-.4.7-.83,1.38-1.28,2.04-1.2,1.76-2.78,3.1-4.61,4.1-3.5,1.91-7.94,2.58-12.44,2.58-7.11,0-14.41-1.66-18.5-2.72-.2-.05-25.06-7.07-21.91-13.05.53-1.01,1.4-1.41,2.5-1.41,4.43,0,12.5,6.6,15.97,6.6.77,0,1.32-.33,1.54-1.13,1.48-5.3-22.46-7.53-20.44-15.2.36-1.36,1.32-1.91,2.68-1.91,5.86,0,19.01,10.3,21.76,10.3.21,0,.36-.06.44-.19.01-.02.02-.04.04-.06,1.29-2.13.55-3.68-8.29-9.1l-.85-.52c-9.73-5.89-16.56-9.43-12.68-13.66.45-.49,1.08-.7,1.85-.7.91,0,2.02.3,3.23.82,5.14,2.17,12.26,8.08,15.24,10.65.47.41.93.82,1.39,1.23,0,0,3.77,3.92,6.04,3.92.52,0,.97-.21,1.27-.72,1.62-2.72-15-15.32-15.94-20.51-.64-3.52.45-5.3,2.44-5.3.95,0,2.11.4,3.39,1.22,3.97,2.52,11.64,15.7,14.45,20.83.94,1.72,2.55,2.44,4,2.44,2.87,0,5.12-2.86.26-6.48-7.3-5.46-4.74-14.38-1.25-14.93.15-.02.3-.04.45-.04,3.17,0,4.56,5.46,4.56,5.46,0,0,4.1,10.28,11.13,17.31,6.38,6.38,7.27,11.62,3.56,18.15ZM187.11,220.36l-.36.04-.62.07c-.33.03-.66.07-.98.1l-.32.03-.29.02-.42.03-.46.03-.46.03h-.1c-.12.01-.24.02-.36.03h-.15c-.14.02-.28.02-.43.03l-.5.02-.45.02h-.3s-.15,0-.15,0c-.09,0-.19,0-.28,0h-.15c-.09,0-.19,0-.28,0h-.38s-.53,0-.53,0c-.42,0-.84,0-1.25-.01h-.34c-.1,0-.19-.01-.29-.02h-.36s-.45-.03-.45-.03l-.4-.02h-.1s-.38-.02-.38-.02c-.11,0-.21-.01-.32-.02h-.25c-.31-.03-.62-.06-.93-.08l-.32-.03c-.14-.01-.27-.02-.41-.04-.16-.01-.32-.03-.48-.04-.27-.02-.53-.05-.8-.08h-.01c3.9-8.71,1.93-16.84-5.96-24.72-5.17-5.17-8.62-12.8-9.33-14.47-1.45-4.96-5.27-10.47-11.62-10.47-.54,0-1.07.04-1.6.13-2.78.44-5.22,2.04-6.95,4.45-1.88-2.33-3.7-4.19-5.35-5.23-2.49-1.58-4.97-2.38-7.38-2.38-3.02,0-5.71,1.24-7.59,3.49l-.05.06c-.04-.15-.07-.3-.11-.44v-.02c-.36-1.53-.66-3.07-.9-4.62,0-.01,0-.02,0-.03-.02-.12-.04-.23-.05-.35-.05-.35-.1-.69-.15-1.04-.02-.16-.04-.32-.06-.47l-.06-.47c-.02-.16-.03-.3-.05-.45v-.04c-.07-.62-.13-1.23-.18-1.85l-.02-.24-.03-.4c0-.11-.02-.22-.02-.33,0-.03,0-.05,0-.08-.02-.31-.04-.62-.06-.93,0-.16-.02-.32-.02-.48l-.02-.42v-.13s-.02-.39-.02-.39v-.33c0-.13-.02-.26-.02-.4,0-.13,0-.28,0-.42,0-.14,0-.28,0-.42,0-.14,0-.28,0-.42,0-35.75,28.98-64.74,64.74-64.74s64.74,28.98,64.74,64.74v.84c0,.14,0,.28,0,.42,0,.12,0,.23,0,.35,0,.1,0,.21,0,.3,0,.13,0,.26-.01.39h0s-.02.46-.02.46c0,.13-.01.27-.02.4v.09s-.03.42-.03.42c-.05.91-.12,1.81-.21,2.72h0c-.01.16-.03.31-.05.46l-.04.35-.08.69-.04.35-.05.41c-.02.15-.04.3-.06.45-.02.17-.05.33-.07.5l-.06.39-.07.44c-.02.15-.05.29-.08.44-.03.15-.05.29-.08.44-.05.29-.11.59-.16.88-.09.44-.17.88-.26,1.31l-.09.43c-.03.14-.06.29-.1.43-1.82-1.77-4.24-2.74-6.9-2.74-2.41,0-4.9.8-7.38,2.37-1.65,1.05-3.47,2.9-5.35,5.23-1.74-2.41-4.17-4.01-6.95-4.45-.53-.08-1.07-.13-1.6-.13-6.35,0-10.18,5.51-11.62,10.47-.72,1.68-4.16,9.3-9.34,14.48-7.88,7.86-9.87,15.95-6.03,24.63ZM253.94,202.93l-.03.08c-.06.17-.14.34-.22.5-.06.12-.13.24-.21.35-.14.21-.3.42-.47.61-.04.04-.08.09-.12.13-.06.07-.12.13-.19.19-1.15,1.14-2.9,2.14-4.88,3.06-.22.1-.45.2-.68.31l-.23.1c-.15.07-.31.13-.47.2-.15.07-.31.13-.47.2l-.48.2c-1.11.46-2.26.9-3.37,1.33l-.48.19-.47.18c-.31.12-.62.24-.93.37l-.45.18-.45.18-.22.09c-.15.06-.29.12-.43.18-3.28,1.41-5.64,2.84-5.14,4.61.01.05.03.1.05.15.04.13.11.26.18.37.04.07.1.13.15.19.58.61,1.64.51,2.98.03.19-.07.37-.14.56-.22l.12-.05c.31-.13.63-.28.96-.43.08-.04.17-.08.25-.12,1.63-.8,3.49-1.88,5.33-2.86.74-.4,1.48-.77,2.24-1.13,1.74-.82,3.38-1.4,4.69-1.4.62,0,1.16.13,1.62.42l.08.05c.29.2.52.46.7.76.04.06.07.12.1.18.65,1.23.11,2.51-1.17,3.77-1.22,1.2-3.12,2.38-5.29,3.47-.16.08-.32.16-.48.24-6.43,3.16-14.86,5.54-14.97,5.57-2.24.58-5.45,1.35-9.07,1.92l-.53.08h-.09c-.4.07-.81.13-1.22.18-.41.06-.83.11-1.25.15h-.08c-1.52.18-3.05.3-4.58.36h-.02c-.55.02-1.11.03-1.66.03h-.64c-.84-.01-1.69-.05-2.53-.11-.02,0-.04,0-.06,0-.3-.02-.6-.05-.9-.08-.31-.03-.62-.07-.93-.11-.2-.03-.41-.06-.61-.09-.21-.03-.41-.07-.62-.1l-.28-.05h-.02c-.3-.06-.59-.12-.88-.19-.17-.04-.34-.08-.51-.12l-.1-.03c-.08-.02-.16-.04-.25-.06h-.05s-.26-.09-.26-.09c-.1-.03-.19-.06-.29-.08h-.03s-.25-.09-.25-.09c-.09-.03-.19-.06-.28-.09l-.23-.08-.17-.06c-.16-.06-.32-.12-.48-.18l-.15-.06-.13-.05c-.24-.1-.48-.2-.72-.31l-.16-.08h-.03c-.06-.04-.11-.06-.17-.09-.11-.05-.22-.11-.33-.16l-.03-.02-.16-.08c-.28-.15-.55-.3-.82-.47l-.15-.09c-.07-.05-.15-.09-.22-.14l-.19-.13-.21-.14-.12-.09c-.13-.09-.26-.19-.38-.29l-.2-.15c-.08-.06-.16-.13-.24-.19-.07-.05-.13-.11-.19-.17h0c-.07-.06-.14-.13-.2-.19-.07-.06-.13-.12-.2-.18h0c-.07-.07-.13-.14-.2-.21-.07-.07-.13-.13-.2-.2-.06-.07-.13-.14-.19-.21-.06-.07-.12-.13-.18-.2l-.02-.02c-.06-.07-.12-.13-.17-.2-.12-.15-.24-.3-.36-.45-.12-.15-.23-.31-.34-.47l-.11-.16c-.14-.21-.28-.41-.41-.62-.1-.15-.2-.3-.29-.46-.06-.1-.12-.19-.18-.29l-.02-.04c-.06-.09-.11-.19-.16-.28-.03-.05-.06-.1-.09-.15-.03-.05-.06-.11-.09-.16l-.05-.08-.03-.05c-.06-.1-.11-.21-.17-.31-.03-.05-.05-.09-.08-.14l-.08-.15-.08-.15c-.19-.38-.37-.77-.54-1.17l-.06-.14c-.04-.1-.08-.19-.12-.29-.02-.05-.04-.09-.05-.14-.09-.24-.18-.48-.26-.72-.03-.09-.06-.17-.08-.26-.06-.19-.12-.39-.17-.59-.06-.23-.11-.46-.16-.69,0-.05-.02-.09-.03-.14-.04-.23-.08-.46-.11-.69,0-.05-.01-.09-.02-.14v-.14c-.03-.18-.05-.36-.06-.54,0-.05,0-.09,0-.14,0-.09,0-.18,0-.27-.05-3.65,1.8-7.16,5.75-11.11,7.03-7.03,11.13-17.31,11.13-17.31,0,0,.11-.43.34-1.05.03-.09.06-.18.1-.27.13-.35.28-.69.45-1.02l.03-.06c.14-.28.3-.56.46-.83.04-.06.08-.12.12-.19.13-.19.26-.37.4-.54.08-.09.16-.19.24-.28.03-.04.07-.07.1-.11.41-.42.87-.76,1.4-.95l.07-.02s.09-.03.13-.04c.05-.01.1-.03.16-.04h.02c.11-.03.22-.04.34-.05h0c.06,0,.12,0,.18,0,.08,0,.15,0,.22,0,.08,0,.15.02.23.03.63.1,1.24.48,1.76,1.06.2.22.37.46.53.71.1.16.2.34.29.52.04.08.07.15.11.22.09.19.17.39.24.59.17.47.29.95.38,1.45.07.43.11.87.13,1.3,0,.23,0,.47,0,.71-.05,1.11-.27,2.2-.67,3.24-.04.09-.08.19-.11.29-.08.19-.16.38-.26.57-.07.14-.14.28-.22.42-.05.09-.11.19-.16.28-.14.23-.29.47-.45.7l-.1.14c-.38.53-.8,1.02-1.26,1.48-.45.45-.94.87-1.45,1.26-.51.38-1,.8-1.44,1.26-1.28,1.35-1.58,2.54-1.29,3.44.05.14.11.28.18.41.09.15.19.29.3.41l.05.05.05.05s.09.09.15.13l.05.04c.12.1.26.18.39.26.04.02.08.04.12.06.15.07.3.13.46.19.04.01.09.03.13.04h.06s.08.04.08.04l.07.02.07.02h.07s.07.03.07.03c.05,0,.1.02.15.02h.05s.09.02.09.02h.05s.09.01.09.01h.15s.3,0,.3,0h.08s.1-.01.1-.01h.12s.11-.02.11-.02c.03,0,.05,0,.08-.01.34-.05.68-.14,1-.27l.14-.06c.08-.03.15-.07.22-.11.15-.08.3-.16.44-.25.2-.13.38-.27.55-.43.04-.04.08-.08.12-.11.02-.02.04-.04.06-.06.04-.04.08-.08.11-.12.27-.3.51-.63.7-.99,1.67-3.04,3.42-6.04,5.25-8.98l.25-.4.25-.4c.13-.2.25-.4.38-.6l.13-.2c.43-.67.86-1.33,1.3-1.99l.26-.39c.52-.77,1.04-1.53,1.56-2.24l.26-.35c.56-.77,1.15-1.53,1.75-2.27l.24-.29s.08-.1.12-.14c.08-.09.16-.19.24-.27.04-.05.08-.09.12-.13l.23-.26.11-.13c.12-.12.23-.24.34-.36.08-.08.15-.15.22-.22.43-.44.91-.84,1.43-1.18l.12-.08c.11-.08.23-.15.35-.21,2.02-1.15,3.69-1.23,4.65-.27.58.58.91,1.55.89,2.89,0,.06,0,.12,0,.18v.07c0,.06,0,.12-.01.19,0,.08,0,.15-.02.23,0,.08-.01.13-.02.2,0,.02,0,.04,0,.06,0,.06-.01.12-.02.18,0,.02,0,.04,0,.06,0,.08-.02.16-.04.24,0,.08-.02.15-.04.22l-.02.13c-.02.12-.05.24-.09.36-.07.22-.15.44-.24.65-.13.29-.28.57-.44.84-.09.15-.18.3-.28.45-.1.15-.2.31-.31.46-.27.39-.55.76-.84,1.13l-.13.17c-.47.59-.97,1.17-1.47,1.74l-.16.18c-.22.24-.43.48-.66.72l-.17.18c-.11.12-.23.24-.34.37-.11.12-.23.25-.35.37l-.35.37-.36.37-.36.37c-.24.25-.48.5-.73.75-3.46,3.55-7.11,7.09-8.35,9.3-.08.14-.16.29-.22.44-.18.4-.25.74-.2,1.02.02.09.05.18.09.26.07.12.15.23.25.33.05.04.09.09.14.12.25.18.56.27.87.27h.2s.1-.02.1-.02h.08s.02-.02.03-.02h.08s.02-.02.02-.02l.08-.02h.03s.06-.02.09-.03c.03,0,.07-.02.11-.03.15-.05.3-.1.44-.16.08-.03.15-.06.22-.1.04-.02.08-.04.11-.05l.11-.06c.27-.14.54-.3.8-.46l.11-.08s.08-.05.11-.08l.11-.08.06-.04.16-.12c.15-.11.3-.21.44-.32h.01s.23-.19.23-.19c.31-.25.61-.5.88-.73l.18-.16.02-.02.09-.08c.22-.2.42-.38.58-.53l.07-.07c.06-.06.11-.11.16-.15l.1-.09.03-.03h0s.1-.11.1-.11l.06-.07h0s.03-.03.03-.03l.04-.03h.01s.03-.04.03-.04l.17-.15.1-.09c.05-.05.1-.09.15-.14l.12-.1s.04-.04.06-.05l.12-.11.18-.16.1-.08c.37-.32.82-.71,1.34-1.15l.21-.18.35-.29.36-.3c.47-.39.98-.8,1.51-1.23l.35-.28c.3-.24.61-.48.92-.73.13-.1.25-.2.38-.29.32-.25.64-.49.96-.73.73-.55,1.49-1.11,2.25-1.65l.33-.23c.23-.16.46-.32.69-.47l.21-.14c.41-.28.82-.55,1.24-.81l.21-.13.21-.13c.21-.13.41-.25.62-.38l.2-.12.41-.24.4-.23.08-.04.32-.17c.13-.07.26-.14.4-.21l.2-.1.19-.1c.07-.03.13-.06.2-.1.43-.21.87-.41,1.31-.58.12-.05.24-.1.36-.14l.35-.12c.11-.04.21-.07.31-.1h.03c.05-.03.11-.04.16-.06h.02c.11-.04.22-.06.32-.09h0c.3-.07.61-.12.92-.16.14-.01.29-.02.43-.02h.07c.1,0,.19,0,.28.02.04,0,.08,0,.12.01h.02s.08.01.12.02c.04,0,.08.01.12.02h.01s.08.02.12.03c.22.06.42.15.61.28.09.06.18.13.26.21l.02.02s.03.03.04.04l.04.05c.34.36.63.77.84,1.22l.03.08c.07.17.13.35.17.53.12.55.07,1.13-.13,1.65-.08.21-.18.42-.29.61-.27.45-.58.86-.94,1.24l-.08.08c-.11.12-.23.24-.36.36-.05.05-.11.11-.17.16l-.18.16-.09.08c-.22.2-.45.39-.68.57-.14.11-.28.22-.42.33-.5.38-1.01.75-1.53,1.11-.31.22-.63.43-.95.63-.79.52-1.58,1.02-2.38,1.51-1.68,1.03-3.54,2.14-5.53,3.34l-.51.31c-.56.34-1.09.67-1.59.98l-.25.16-.48.31c-.32.2-.63.41-.95.61l-.25.17c-.12.08-.25.16-.37.24l-.12.08-.37.25-.2.13-.23.16-.21.15c-.36.25-.69.49-.99.72l-.11.09c-.18.14-.36.27-.53.42-.26.21-.5.42-.72.61l-.11.1c-.06.06-.12.11-.18.17-.04.04-.08.08-.12.11l-.05.05c-.12.12-.24.25-.36.38l-.06.06c-.13.15-.23.28-.33.42l-.04.06c-.08.11-.14.22-.21.34-.02.03-.03.06-.05.09l-.04.09-.03.06-.02.04v.04s-.03.05-.03.05c-.05.14-.09.29-.11.45v.05s-.01.05-.01.05v.27s0,.04,0,.07v.04s0,.04.01.07c0,.02,0,.06.02.09h0s.01.06.02.09.02.06.02.09c.02.06.04.12.06.18.01.04.03.07.04.11,0,0,0,.01,0,.02l.03.07.04.09c.05.1.1.19.15.29l.06.1.06.1s.02.03.04.05l.02.02.02.02.02.02s.07.04.1.05c.02,0,.04.01.06.02.49.11,1.51-.3,2.85-1.01.08-.04.16-.08.24-.13l.41-.22.2-.11c.14-.08.29-.16.44-.25l.27-.15c1.78-1.02,3.9-2.34,6.1-3.62.21-.12.41-.24.62-.36l.42-.27c.48-.28.97-.55,1.45-.82.61-.34,1.23-.66,1.85-.98l.41-.21c.27-.13.54-.26.8-.39.51-.24,1.03-.47,1.55-.69l.29-.12h.03c1.52-.61,2.89-.98,4-.98.24,0,.48.02.72.06h0c.08.01.15.03.22.05h.01c.18.05.36.11.53.2.23.12.45.28.62.48.08.09.15.19.22.29.12.18.21.38.28.59.03.08.05.16.08.25.18.65.16,1.33-.05,1.97Z"/>
  <path class="cls-5" d="M243.86,156.53v-.42c0-35.75-28.97-64.73-64.73-64.73s-64.74,28.98-64.74,64.73v.14c0,.09,0,.19,0,.28,0,.14,0,.28,0,.42v.31s0,.11,0,.11c0,.05,0,.1,0,.15,0,.08,0,.16,0,.24v.33s.02.39.02.39v.13s.02.4.02.4v.02c0,.16.02.32.02.47h0c0,.17.02.33.03.5,0,.15.02.3.03.45v.03c0,.13.02.26.03.38v.03s.03.37.03.37v.02c0,.07.01.14.02.21.05.62.11,1.23.18,1.85v.04s.06.45.06.45l.06.47.04.32.02.15c.05.35.09.7.15,1.04v.02s.05.33.05.33c.24,1.56.55,3.12.91,4.66v.02s.03.12.03.12l.08.33.05-.06c1.88-2.25,4.58-3.49,7.59-3.49,2.42,0,4.9.8,7.38,2.38,1.65,1.05,3.47,2.9,5.35,5.23,1.74-2.41,4.17-4.01,6.95-4.45.53-.08,1.07-.13,1.6-.13,6.35,0,10.18,5.51,11.62,10.47.71,1.68,4.16,9.3,9.35,14.47,7.89,7.88,9.86,16.01,5.96,24.72h.01c.27.03.53.06.8.08.16.02.32.03.48.04h.06s.35.04.35.04l.32.03c.31.02.62.05.93.07h.25s.2.03.2.03h.12s.38.03.38.03h.1s.4.02.4.02l.45.02h.36s.06.01.06.01c.08,0,.15,0,.23,0h.08c.5.01,1.01.02,1.51.02h.92c.09,0,.19,0,.28,0h.28c.05,0,.1,0,.15,0h.45s.45-.02.45-.02l.5-.02c.14,0,.29-.01.43-.02h.15s.23-.02.23-.02h.13s.1-.01.1-.01l.46-.03.46-.03.42-.03.29-.02.32-.03c.54-.05,1.07-.1,1.61-.17l.36-.04c-3.84-8.67-1.85-16.77,6-24.62,5.18-5.17,8.62-12.8,9.34-14.48,1.45-4.96,5.27-10.47,11.62-10.47.54,0,1.07.04,1.61.13,2.78.44,5.21,2.04,6.95,4.45,1.88-2.33,3.7-4.19,5.35-5.24,2.48-1.58,4.97-2.37,7.38-2.37,2.66,0,5.07.97,6.9,2.74.03-.14.07-.29.1-.43l.09-.43c.03-.16.07-.32.1-.47.06-.28.11-.56.17-.84.06-.29.11-.59.16-.88l.03-.16c.02-.09.03-.19.05-.28.03-.15.05-.29.08-.44v-.06s.07-.39.07-.39l.06-.39h0c.04-.29.08-.58.12-.87v-.07s.06-.41.06-.41l.04-.35.08-.69.03-.28v-.08c.02-.15.04-.3.05-.45h0c.01-.13.02-.25.03-.37.06-.67.11-1.35.15-2.03,0-.11.01-.22.02-.33h0s.02-.42.02-.42v-.09c.02-.28.03-.57.04-.85h0s0-.12,0-.12c0-.09,0-.19,0-.28v-.04c0-.09,0-.18,0-.27v-.08c0-.09,0-.18,0-.27v-.08c0-.11,0-.23,0-.34v-.42ZM163.08,221.2c5.13-7.52,4.76-13.16-2.27-20.19-7.04-7.03-11.13-17.31-11.13-17.31,0,0-1.53-5.97-5.01-5.42s-6.04,9.47,1.26,14.94c7.3,5.46-1.45,9.17-4.26,4.04-2.81-5.13-10.48-18.3-14.45-20.83-3.98-2.52-6.77-1.11-5.83,4.09.47,2.58,4.79,6.98,8.84,11.09,4.1,4.17,7.91,8.05,7.1,9.42-1.62,2.72-7.31-3.2-7.31-3.2,0,0-17.83-16.23-21.71-12-3.58,3.9,1.94,7.21,10.44,12.32.72.43,1.47.88,2.23,1.34,9.73,5.89,10.49,7.44,9.11,9.67-.51.82-3.77-1.13-7.77-3.54-6.83-4.1-15.83-9.51-17.11-4.67-1.1,4.19,5.52,6.75,11.53,9.08,5.01,1.94,9.58,3.71,8.91,6.12-.7,2.5-4.48.41-8.62-1.86-4.64-2.55-9.73-5.35-11.39-2.2-3.15,5.97,21.71,13,21.91,13.05,8.03,2.08,28.42,6.5,35.55-3.95ZM196.11,221.2c-5.13-7.52-4.76-13.16,2.27-20.19,7.03-7.03,11.13-17.31,11.13-17.31,0,0,1.53-5.97,5.01-5.42,3.49.55,6.04,9.47-1.25,14.94-7.3,5.46,1.45,9.17,4.26,4.04,2.81-5.13,10.47-18.3,14.45-20.83s6.77-1.11,5.84,4.09c-.46,2.58-4.79,6.98-8.84,11.09-4.1,4.17-7.91,8.05-7.1,9.42,1.62,2.72,7.32-3.2,7.32-3.2,0,0,17.83-16.23,21.71-12,3.58,3.9-1.94,7.21-10.45,12.32-.74.45-1.49.89-2.23,1.34-9.73,5.89-10.49,7.44-9.11,9.67.51.82,3.77-1.13,7.77-3.54,6.83-4.1,15.84-9.51,17.11-4.67,1.1,4.19-5.53,6.75-11.53,9.08-5.01,1.94-9.58,3.71-8.91,6.12.7,2.5,4.48.41,8.61-1.86,4.64-2.55,9.73-5.36,11.39-2.19,3.15,5.97-21.71,13-21.91,13.05-8.03,2.09-28.42,6.5-35.55-3.94Z"/>
  <path class="cls-4" d="M200.16,138.49c1.01.36,1.76,1.44,2.47,2.48.97,1.4,1.86,2.7,3.24,1.97,1.63-.87,2.96-2.19,3.83-3.82.87-1.62,1.24-3.47,1.07-5.3-.13-1.37-.57-2.7-1.27-3.88-.71-1.18-1.66-2.2-2.81-2.96-1.14-.77-2.44-1.27-3.81-1.48-1.36-.2-2.75-.11-4.07.29-1.32.4-2.53,1.08-3.56,2-1.02.92-1.83,2.06-2.36,3.33s-.77,2.64-.71,4.02c.06,1.38.43,2.72,1.08,3.94.64,1.2,2.06.63,3.55.04,1.17-.47,2.4-.96,3.33-.63ZM156.27,138.49c-1.01.36-1.76,1.44-2.47,2.48-.97,1.4-1.86,2.7-3.24,1.97-2.05-1.08-3.61-2.89-4.4-5.07-.79-2.18-.73-4.57.15-6.71s2.53-3.88,4.62-4.87c2.09-.99,4.48-1.17,6.69-.5,1.76.53,3.33,1.57,4.5,2.99,1.17,1.42,1.9,3.16,2.08,4.99.18,1.83-.18,3.68-1.04,5.31-.64,1.2-2.06.63-3.55.04-1.17-.47-2.39-.96-3.33-.63ZM193.37,178.43c6.96-5.48,9.51-14.43,9.51-19.94,0-4.36-2.93-2.99-7.62-.66l-.26.13c-4.31,2.13-10.04,4.97-16.33,4.97s-12.03-2.84-16.33-4.97c-4.84-2.4-7.88-3.9-7.88.53,0,5.69,2.72,15.02,10.18,20.44.98-2,2.37-3.77,4.07-5.21,1.7-1.44,3.68-2.51,5.81-3.15.74-.22,1.51,1.06,2.3,2.37.76,1.27,1.53,2.56,2.32,2.56.84,0,1.66-1.28,2.47-2.52.84-1.3,1.66-2.57,2.46-2.32,3.99,1.28,7.33,4.06,9.32,7.76Z"/>
  <path class="cls-6" d="M193.37,178.43c-3.62,2.85-8.44,4.77-14.71,4.77-5.89,0-10.5-1.69-14.04-4.26.98-2,2.37-3.77,4.07-5.21,1.7-1.44,3.68-2.51,5.81-3.15,1.46-.44,3.01,4.93,4.62,4.93,1.72,0,3.37-5.34,4.93-4.84,3.99,1.28,7.33,4.06,9.32,7.76Z"/>
  <path class="cls-3" d="M139.64,146.24c-.83.55-1.78.89-2.77.99-.99.1-1.99-.05-2.91-.43-.74-.3-1.4-.75-1.97-1.31-.56-.56-1.01-1.23-1.31-1.97-.38-.92-.53-1.92-.43-2.91.1-.99.44-1.94.99-2.77.67-1,1.61-1.77,2.72-2.23s2.32-.58,3.5-.34c1.17.23,2.25.81,3.1,1.66.85.85,1.42,1.93,1.66,3.1.23,1.17.11,2.39-.34,3.5-.46,1.11-1.24,2.05-2.23,2.72ZM226.27,146.24c-.83.55-1.78.89-2.77.99-.99.1-1.99-.05-2.91-.43-.74-.3-1.4-.75-1.97-1.31-.56-.56-1.01-1.23-1.31-1.97-.38-.92-.53-1.92-.43-2.91.1-.99.44-1.94.99-2.77.5-.74,1.15-1.37,1.92-1.83.77-.46,1.63-.74,2.52-.83.89-.09,1.79.02,2.63.33.84.3,1.61.79,2.24,1.42.85.85,1.42,1.93,1.66,3.1.23,1.17.11,2.39-.35,3.5s-1.23,2.05-2.23,2.72Z"/>
</svg>