<svg width="200" height="80" viewBox="0 0 100 40" xmlns="http://www.w3.org/2000/svg"
    xmlns:xlink="http://www.w3.org/1999/xlink">
    <g fill="none" fill-rule="evenodd">
        <path fill="#0058AB" d="M99.986 40H0V0h100v40z" />
        <path d="M2 20c0 9.833 20.116 18 48.007 18S98 29.833 98 20 77.884 2 50.007 2C22.131 2 2 10.167 2 20z"
            fill="#FBD914" />
        <path
            d="M46.448 26.005c.315.447.66.867 1.06 1.245h-10.82c0-.42-.416-1.273-.875-1.945a2119.01 2119.01 0 01-2.938-4.35v5.05c0 .42 0 .825.215 1.245h-9.015c.215-.42.215-.826.215-1.245V14c0-.42 0-.826-.215-1.245h9.015c-.215.42-.215.825-.215 1.245v5.246s2.88-3.665 3.54-4.519c.502-.643 1.118-1.553 1.118-1.972h9.402c-.645.42-1.361 1.175-1.949 1.874l-3.44 4.1s4.329 6.45 4.902 7.275zM49.286 14v12.004c0 .42 0 .825-.215 1.245h17.4v-4.03c-.43.21-.846.21-1.276.21h-7.324v-1.902h7.037v-3.05h-7.037V16.56h7.324c.43 0 .846 0 1.276.196v-4.015h-17.4c.215.433.215.84.215 1.259zm41.292 12.004c.144.461.387.881.703 1.245H81.85c.043-.42-.115-.826-.287-1.245 0 0-.143-.336-.344-.826l-.086-.21h-5.432l-.086.224s-.158.406-.301.826c-.143.42-.301.825-.244 1.245h-7.438a3.64 3.64 0 00.673-1.245l4.458-12.004c.157-.42.315-.826.258-1.245h12.57c-.115.42.114.825.272 1.245.372.91 4.4 11.178 4.715 11.99zm-10.635-4.1l-1.318-3.357a7.288 7.288 0 01-.287-.952 5.501 5.501 0 01-.258.952c-.043.14-.602 1.609-1.247 3.357h3.11zm-60.14-9.15H10c.215.42.215.826.215 1.246v12.004c0 .42 0 .825-.215 1.245h9.804c-.215-.42-.215-.826-.215-1.245V14c0-.42 0-.826.215-1.245zm67.765 1.148c-.043-1.021.774-1.875 1.82-1.903h.13c1.06-.014 1.934.798 1.949 1.833v.07c.028 1.05-.817 1.93-1.906 1.959-1.075.028-1.978-.798-2.007-1.861.014-.028.014-.07.014-.098zm.387 0c0 .84.703 1.525 1.563 1.525s1.562-.686 1.562-1.525c0-.84-.702-1.525-1.562-1.525-.832-.028-1.534.602-1.563 1.413v.112zm1.176 1.133h-.344v-2.294h.874a.74.74 0 01.73.741c0 .28-.157.532-.415.672l.502.881h-.387l-.459-.811h-.501v.811zm0-1.133h.473c.229.014.43-.154.43-.378s-.158-.42-.387-.42h-.516v.798z"
            fill="#0058A3" fill-rule="nonzero" />
    </g>
</svg>