<svg xmlns="http://www.w3.org/2000/svg" viewBox="0 0 1320 226" xml:space="preserve" fill="#000000" role="img" width="176" height="30.13"><title>MillerKnoll Home</title><path d="M373.1 3h35.4v218.6h-35.4zm-62.3 0h35.4v218.6h-35.4zM176.5 3l-64.8 146.7L46.5 3H0v218.7h35.3V123c0-20.9 0-40.9-1.6-63.1h1.6c7.2 22.2 13.4 36.2 23.1 55.3l52.5 108.7 52.5-108.7c9.7-19.1 15.3-33.1 23.4-55.3h1.6c-2.2 22.2-2.2 42.2-2.2 63.1v98.7h35.6V3h-45.3zm72.1 54.6H284v164h-35.4zM266.3 0c-4.2 0-8.3 1.2-11.8 3.6-3.5 2.3-6.2 5.7-7.8 9.6-1.6 3.9-2 8.2-1.2 12.3.8 4.1 2.9 7.9 5.8 10.9 3 3 6.8 5 10.9 5.8 4.1.8 8.4.4 12.3-1.2 3.9-1.6 7.2-4.3 9.6-7.8 2.3-3.5 3.6-7.6 3.6-11.8 0-5.6-2.3-11.1-6.2-15.1-4.2-4-9.6-6.3-15.2-6.3zm698.2 53.1c-19.9 0-37 7-48.4 19.6V57.6h-35.4v164H916V129c0-27.6 16-45.4 40.8-45.4 22.8 0 33 11.2 33 36.3v101.7h35.4V116.9c0-41.2-21.6-63.8-60.7-63.8zM1222.4 3h35.4v218.6h-35.4zm62.2 0h35.4v218.6h-35.4zm-160.8 49.9c-49.2 0-83.5 35.6-83.5 86.6 0 51 34.3 86.6 83.5 86.6s83.5-35.6 83.5-86.6c0-51-34.3-86.6-83.5-86.6zm48.1 86.5c0 38.7-24.2 56-48.1 56-23.9 0-48.1-17.3-48.1-56s24.2-56 48.1-56 48.2 17.3 48.1 56zM506.2 52.9c-47.4 0-80.5 35.6-80.5 86.6 0 51 33.7 86.6 82 86.6 44.2 0 67.3-26.3 74.3-50.8l1.1-4h-37.9l-.5 2.4c-1.9 8.7-11.9 23.3-37 23.3-27.8 0-44.2-22-46.4-43.8h123.8V147c.2-13.2-1.6-26.4-5.3-39.2-11.2-35.4-37.4-54.9-73.6-54.9zm-44.9 71.3c2-21 16.5-42.3 44.9-42.3 25.1 0 40.7 15.4 43.3 42.3h-88.2zM637.8 76V57.6h-35.4v164h35.4v-97.2c0-24.4 10.4-36.3 31.8-36.3h18.9V54.6h-11.3c-17.9 0-31.5 9.5-39.4 21.4zM875.5 3H833l-93.3 106.4 97 112.2h43.6l-96.5-112.3zM704.4 3v218.6h35.3V3z"></path></svg>