<?xml version="1.0" encoding="UTF-8"?>
<svg id="Layer_1" data-name="Layer 1" xmlns="http://www.w3.org/2000/svg" width="360" height="320" viewBox="0 0 360 320">
  <path d="M318.13,55.14c-4.86-6.22-13.36-1.24-17.1.93-26.64,15.7-30.57,43.34-39.85,59.21-7.31,12.7-19.27,22.04-30.08,22.76-8.01.57-16.68-.97-25.29-4.72-21.07-9.11-32.42-20.89-35.18-22.97-5.67-4.31-49.32-46.82-84.89-48.55,0,0-4.34-8.75-5.42-8.9-2.59-.3-5.26,5.26-7.19,5.84-1.75.61-4.81-5.97-6.59-5.69-1.78.24-3.52,6.83-6.99,10.23-2.56,2.48-5.67,2.32-7.43,5.4-.61,1.12-.4,3.09-1.08,4.9-1.48,3.74-6.43,4.13-6.47,8.13,0,4.44,4.16,5.29,7.8,8.38,2.89,2.48,3.09,4.23,6.47,5.39,3,1.03,7.37-2.18,11.24-1.03,3.22.95,6.33,1.63,7.02,4.93.63,2.99,0,7.67-3.98,7.15-1.29-.17-6.96-2.03-13.97-1.28-8.45.9-18.11,3.6-19.05,12.94-.48,5.22,5.99,11.32,12.3,10.11,4.33-.83,2.29-5.91,4.65-8.36,3.12-3.15,20.67,11.01,36.99,11.01,6.92,0,12.03-1.75,17.11-7.06.45-.33,1.08-1.18,1.81-1.27.66.09,1.89.75,2.27,1.02,13.19,10.45,23.13,31.48,71.49,31.73,6.79.08,14.57,3.25,20.94,9.06,5.6,5.05,8.91,13.13,12.1,21.28,4.87,12.28,13.54,24.13,26.73,37.36.69.79,11.55,9.1,12.36,9.71.15.12.98,1.95.62,2.97-.23,8.05-1.43,31.14,15.92,32.11,4.26.23,3.2-2.7,3.2-4.78-.06-3.98-.75-7.99,1.32-12.13,2.96-5.58-6.13-8.27-5.93-20.48.22-9.14-7.53-7.59-11.48-14.57-2.22-4.01-4.29-6.21-4.08-11.04.85-27.76-6.03-46.04-9.39-50.46-2.65-3.42-4.94-4.7-2.41-6.29,14.47-9.52,17.78-18.37,17.78-18.37,7.7-17.97,14.65-34.34,24.2-41.62,1.94-1.41,6.86-5.13,9.93-6.53,8.9-4.23,13.68-6.74,16.19-9.19,4.15-3.94,7.41-12.29,3.43-17.26,0,0,0,0,0,0Z"/>
</svg>