<svg class="nav-StoreLogo-svg" viewBox="0 0 1299.3 285" style="display:inline-block;vertical-align:middle" width="400px"
    height="100px" xmlns="http://www.w3.org/2000/svg" role="img">
    <title>Wayfair</title>
    <path fill="#7f187f"
        d="M456 69.18h-57.2a9.43 9.43 0 00-9.42 9.42v12.78a6.28 6.28 0 006.29 6.1h9.43a.86.86 0 01.71.36 1.16 1.16 0 01.16 1L383.58 166a1.17 1.17 0 01-1.11.65.82.82 0 01-.86-.65l-33.45-90.82v-.05a6.35 6.35 0 00-5.44-3.93h-20.2a6.36 6.36 0 00-5.52 3.88v.05L283.55 166a.85.85 0 01-.88.71 1.17 1.17 0 01-1.11-.65l-22.4-67.21a1.13 1.13 0 01.18-1 .83.83 0 01.7-.36h9.44a6.28 6.28 0 006.29-6.1V78.6a9.43 9.43 0 00-9.43-9.42h-57.2a6.22 6.22 0 00-5.09 2.62 5.92 5.92 0 00-.9 5.27c.81 2.33 1.77 5.14 2.74 8s1.9 5.61 2.77 8.12a6.18 6.18 0 005.79 4.27h9.63c.22 0 .71 0 1.13.77L269.58 229a6.16 6.16 0 005.79 4.29h13.76a6.2 6.2 0 005.77-4c12.25-35.38 35.62-102.8 36.54-105.1a1.15 1.15 0 011.13-.86 1.12 1.12 0 011.11.78c.94 2.38 24.32 69.8 36.55 105.13a6.22 6.22 0 005.79 4.08h13.75a6.17 6.17 0 005.8-4.3l44.36-130.77c.43-.77.92-.77 1.14-.77h9.63a6.16 6.16 0 005.77-4.23c.87-2.53 1.83-5.35 2.76-8.1 1-2.9 1.95-5.74 2.75-8.06a5.86 5.86 0 00-.89-5.29 6.21 6.21 0 00-5.09-2.62zM1125.6 206.94h-10.42a3 3 0 01-2.94-2.95V75.07a4.19 4.19 0 00-4.33-4.12h-30.26a4.49 4.49 0 00-3.34 1.57c-1.58 2-9.44 11.79-12.58 15.72a4.25 4.25 0 003.14 6.88h3.93a3.16 3.16 0 013 2.95V203.6a4.73 4.73 0 01-.8 2.4c-3.35 4.32-10.62 13.36-14.15 17.88a4.27 4.27 0 003.14 7.08H1113a3.73 3.73 0 003-1.18l12.38-15.53c2.72-3.18.76-7.31-2.78-7.31z">
    </path>
    <circle fill="#7f187f" cx="1091.8" cy="30.85" r="22.8"></circle>
    <path fill="#7f187f"
        d="M1292.45 84.31c0-2.16-1.18-4.32-4.13-4.32H1283v14h2v-5.16h1.77l3.54 5.11h2.36l-3.74-5.31c2.54-.19 3.52-2.36 3.52-4.32zm-7.45 2.55v-5.11h3.54a2.27 2.27 0 012.16 2.56 2.3 2.3 0 01-2.36 2.55z">
    </path>
    <path fill="#7f187f"
        d="M1287.34 74.88a12 12 0 1012 12 12 12 0 00-12-12zm0 22.2a10.15 10.15 0 01-10.22-10.22 10 10 0 0110.22-10.22 10.22 10.22 0 110 20.44zM605.36 207.53c-8.84.39-13.17-3.73-13.17-13.76v-72.32c0-31.64-26.53-51.68-56.4-51.68-46.38 0-63.08 22-65 46.57a4.28 4.28 0 004.32 4.52h22.8a4.26 4.26 0 004.13-3.93c1.18-12.77 9.82-22.2 24.17-22.2 15.92 0 25.55 8 25.55 26.33v15.72h-8.25c-28.5 0-48.15 3.74-61.32 12s-19.85 23.58-19.85 41.47c0 13.16 4.52 24 13.56 32.62s19.65 12.38 33.61 12.38a54.84 54.84 0 0024-5.5 80.09 80.09 0 0020.24-13 3 3 0 014.72.78c6.49 11.4 13.56 15.14 27.12 15.14 12.19 0 18.08-11.4 23.39-18.28 1.88-2.73-.28-7.06-3.62-6.86zm-53.45-11.59h-.2c0 1-1.57 2.35-2.16 2.94a57.57 57.57 0 01-12.19 7.86 29.56 29.56 0 01-12.58 2.36c-6.28 0-12.57-2.36-16.7-6.88a24.3 24.3 0 01-6.29-16.9c0-9.43 3.54-15.72 10.61-20.44S531.07 158 545 158h6.88zM1040.11 207.53c-8.84.39-13.17-3.73-13.17-13.76v-72.32c0-31.64-26.53-51.68-56.4-51.68-46.38 0-63.08 22-65 46.57a4.28 4.28 0 004.33 4.52h22.79a4.26 4.26 0 004.13-3.93c1.18-12.77 9.83-22.2 24.17-22.2 15.92 0 25.55 8 25.55 26.33v15.72h-8.25c-28.5 0-48.15 3.74-61.32 12S897 172.35 897 190.24c0 13.16 4.52 24 13.56 32.62s19.65 12.38 33.61 12.38a54.84 54.84 0 0024-5.5 80.31 80.31 0 0020.25-13 3 3 0 014.71.78c6.49 11.4 13.56 15.14 27.12 15.14 12.19 0 18.08-11.4 23.39-18.28 1.97-2.72-.19-7.05-3.53-6.85zm-53.45-11.59h-.2c0 1-1.57 2.35-2.16 2.94a57.57 57.57 0 01-12.19 7.86 29.54 29.54 0 01-12.57 2.36c-6.29 0-12.58-2.36-16.71-6.88a24.3 24.3 0 01-6.29-16.9c0-9.43 3.54-15.72 10.62-20.44s18.66-6.88 32.62-6.88h6.88zM1255.62 70.38c-2.11-1.12-7.41-1.62-12-1.62-7.45 0-13.31 1-18.44 3.19l-.41.18a32.31 32.31 0 00-5.51 3.17 73.16 73.16 0 00-17.16 14.8s-2.21 1.66-2.59-1.14V74.62a4.3 4.3 0 00-4.24-4.24h-30.45a4 4 0 00-3.13 1.51s-9.55 11.94-12.69 16c-1.86 2.38-.73 6.91 3.34 6.91h3.8a3.05 3.05 0 013 3v106a4.15 4.15 0 01-.7 2.36c-3 3.69-10.61 13.28-14.33 18a4.26 4.26 0 003.26 6.87H1213a4.24 4.24 0 004.24-4.24V211a4.24 4.24 0 00-4.24-4.24h-10.42a3 3 0 01-3-3v-61.68c1.2-29.34 18.7-38.3 27.11-40.92l1.21-.35.33-.09a28.82 28.82 0 017-.93c10 0 13.72 1.5 19.16 2.89 2.26.58 4.24-1.9 4.24-4.24v-24c-.04-1.85-1.53-3.27-3.01-4.06zM898.3 71h-47.64a3 3 0 01-2.95-3V44.41c0-11.39 5.9-22.79 18.08-22.79 13.76 0 15.92 11.59 16.51 20.44a4.43 4.43 0 004.13 4.12h19.65a4.1 4.1 0 003.92-4.12C909.62 12.58 891 0 860.88 0c-18.28 0-30.26 5.7-39.3 16.7S808 39.9 808 61.9v5.9a3 3 0 01-2.95 3l-81.28.2a4.19 4.19 0 00-4.33 4.12V91a4.36 4.36 0 004.33 4.32h8.72a3 3 0 012.75 4.13s-22.4 52.08-31.44 72.91a3 3 0 01-5.5 0c-9.24-21-31.84-72.91-31.84-72.91a3 3 0 012.75-4.13h6.09a4.36 4.36 0 004.35-4.32V75.07a4.19 4.19 0 00-4.33-4.07h-73.5a4.29 4.29 0 00-3.73 6.29c2.16 3.92 7.07 13.16 8.45 15.91a4.31 4.31 0 003.54 2.16h14.15a3 3 0 012.77 1.72s52.27 117.41 54.24 121.54a22.59 22.59 0 01-.05 16.27c-2.4 9.59-18.51 26.76-27.37 23.71-6.14-2.12-6.93-13.18-14.19-14.59a7 7 0 00-4 .47c-1.27.49-13.15 15.76-15.76 18.44a4.54 4.54 0 000 5.7c6.52 6.68 17.44 15.72 33.15 16.31 19.36.79 38.52-1.8 56.15-35.41 0 0 56.3-137.57 63-152.44a3.17 3.17 0 012.83-1.57h29.71a3 3 0 013 2.95v105.73a3.77 3.77 0 01-.78 2.36c-3.54 4.52-10.62 13.36-14.15 17.88a4.21 4.21 0 003.34 6.88h66.42a4.37 4.37 0 004.33-4.32v-15.73a4.37 4.37 0 00-4.33-4.32h-11.4a3 3 0 01-2.94-2.95V98.26a3 3 0 012.94-3h35.06a4.46 4.46 0 003.34-1.57c2.95-3.93 9-11.79 12.19-15.92A4.26 4.26 0 00898.3 71z">
    </path>
    <path
        d="M181.58 121.82l-11.46-43.26a4.2 4.2 0 00-3-3l-43.23-11.44a4.2 4.2 0 00-4 1.09l-29 29 60.65 60.64 29-29a4.17 4.17 0 001.04-4.03z"
        fill="#57c377"></path>
    <path
        d="M.14 187.88l11.47 43.24a4.2 4.2 0 003 3l43.25 11.47a4.22 4.22 0 004-1.09l29-29-60.63-60.67-29 29a4.19 4.19 0 00-1.09 4.05z"
        fill="#ffc600"></path>
    <path
        d="M57.83 64.11L14.58 75.57a4.2 4.2 0 00-3 3L.14 121.79a4.19 4.19 0 001.09 4l29 29L90.87 94.2l-29-29a4.19 4.19 0 00-4.04-1.09z"
        fill="#92da4d"></path>
    <path
        d="M180.09 183.42l-28.57-28.58-60.65 60.64 28.58 28.58a5.22 5.22 0 005 1.36l42.11-11.17a5.2 5.2 0 003.7-3.7l11.17-42.1a5.23 5.23 0 00-1.34-5.03z"
        fill="#a77ad7"></path>
    <path fill="#7f187f" d="M90.87 94.2l-60.64 60.63 60.64 60.65 60.65-60.64L90.87 94.2z"></path>
</svg>