<svg xmlns="http://www.w3.org/2000/svg" width="550" height="400" viewBox="0 0 550 400"><polygon points="355.64 135.98 357.4 258.4 415.97 268.97 481.59 255.32 476.3 135.98 439.75 134.22 418.17 148.31 397.04 135.54 355.64 135.98" style="fill:#e0ded8"/><path d="M131.45,106.71,49.13,154.24V249.3l82.32,47.53,82.32-47.53V154.24L188,139.36l-2.26-.33-29.43-16.2-.08-1.81Z" style="fill:#bb464b"/><polygon points="213.77 154.24 188.01 139.36 163.22 153.68 188.99 168.55 213.77 154.24" style="fill:#e0684b"/><polygon points="73.91 168.55 156.24 121.02 131.45 106.71 49.13 154.24 73.91 168.55" style="fill:#e0684b"/><polygon points="105.68 216.65 131.45 231.52 157.22 216.65 131.45 201.77 105.68 216.65" style="fill:#e0684b"/><polygon points="157.22 186.89 157.22 216.65 131.45 231.52 105.68 216.65 105.68 186.89 73.91 168.55 73.91 234.99 131.45 268.21 188.99 234.99 188.99 168.55 157.22 186.89" style="fill:#e0ded8"/><polygon points="156.24 121.02 188.01 139.36 163.22 153.68 188.99 168.55 157.22 186.89 131.45 172.02 105.68 186.89 73.91 168.55 156.24 121.02" style="fill:#fff"/><text transform="translate(250.19 219.14)" style="font-size:60px;fill:#fff;font-family:AcuminProWide-Bold, Acumin Pro Wide;font-weight:700">+</text><path d="M389.59,128.84a37.52,37.52,0,0,1,23.23,8l1.49,1.24,3,2.59,3-2.59A37.55,37.55,0,0,1,443,128.89l2,0h33.6a5.94,5.94,0,0,1,5.88,5.12l.05.81v6h5.89a5.93,5.93,0,0,1,5.88,5.12l.05.81V269.15A5.92,5.92,0,0,1,491.2,275l-.81.06H344.16a5.94,5.94,0,0,1-5.88-5.13l0-.8V146.66a5.94,5.94,0,0,1,5.12-5.88l.81-.05h5.92v-6a5.93,5.93,0,0,1,5.12-5.88l.8,0Zm0,11.85H361.94V251.41h27.63a37.58,37.58,0,0,1,23.23,8l1.49,1.24,3,2.59,3-2.59A37.61,37.61,0,0,1,443,251.46l1.95-.05h27.66V140.73h0v0H445A25.69,25.69,0,0,0,429.36,146l-1.31,1.07-4.85,4.23V245.4a5.93,5.93,0,0,1-11.8.81l0-.81V151.29l-4.85-4.24a25.69,25.69,0,0,0-15.22-6.3Z" style="fill:#afaca7"/><polygon points="73.91 168.55 105.68 186.89 105.68 216.65 131.45 231.52 131.45 268.21 73.91 234.99 73.91 168.55" style="fill:#d5d2ca"/></svg>