<svg xmlns="http://www.w3.org/2000/svg" viewBox="0 0 32.32 32.61"><defs><style>.cls-1{fill:#fff;}.cls-2{fill:#fff9ae;}.cls-3{fill:#00aeef;}.cls-4{fill:#00a94f;}.cls-5{fill:#f15d22;}.cls-6{fill:#e31b23;}</style></defs><title>DiscourseIcon</title><g id="Layer_2" data-name="Layer 2"><g id="Footer_Logos" data-name="Footer Logos"><path class="cls-1" d="M16.3,0A16.26,16.26,0,0,0,0,16V32.61H16.29A16.3,16.3,0,0,0,16.3,0Z"/><path class="cls-2" d="M16.45,6.2a9.94,9.94,0,0,0-9.93,9.94,10.09,10.09,0,0,0,1.2,4.72L5.93,26.64l6.45-1.45A9.93,9.93,0,0,0,26,18.77a9.85,9.85,0,0,1-1.29-8.14A10,10,0,0,0,16.46,6.2Z"/><path class="cls-3" d="M24.33,10.09A9.92,9.92,0,0,1,12.38,25.17L5.93,26.65l6.56-.78A9.93,9.93,0,0,0,24.33,10.09Z"/><path class="cls-4" d="M22.5,8.26A9.93,9.93,0,0,1,12.19,24.51L5.93,26.65l6.45-1.46A9.93,9.93,0,0,0,22.5,8.26Z"/><path class="cls-5" d="M8.32,21.08a9.93,9.93,0,0,1,16-11A9.93,9.93,0,0,0,7.72,20.86L5.93,26.64Z"/><path class="cls-6" d="M7.72,20.86A9.93,9.93,0,0,1,22.5,8.26,9.93,9.93,0,0,0,7.11,20.71L5.93,26.65Z"/></g></g></svg>