<?xml version="1.0" encoding="UTF-8"?><svg id="Layer_1" xmlns="http://www.w3.org/2000/svg" width="450" height="300" xmlns:xlink="http://www.w3.org/1999/xlink" viewBox="0 0 450 300"><defs><style>.cls-1{fill:#fff;}.cls-2{fill:#e0684b;}.cls-3{fill:#f24e1e;}.cls-4{fill:#a259ff;}.cls-5{fill:#ff7262;}.cls-6{fill:#1abcfe;}.cls-7{fill:#e0ded8;}.cls-8{fill:#d5d2ca;}.cls-9{fill:url(#linear-gradient);}.cls-10{fill:#0acf83;}.cls-11{fill:#bb464b;}</style><linearGradient id="linear-gradient" x1="177.14" y1="150.07" x2="262.37" y2="150.07" gradientUnits="userSpaceOnUse"><stop offset=".17" stop-color="#1abcfe"/><stop offset=".29" stop-color="#45a9d7"/><stop offset=".5" stop-color="#878d9b"/><stop offset=".67" stop-color="#b7796f"/><stop offset=".8" stop-color="#d46c55"/><stop offset=".87" stop-color="#e0684b"/></linearGradient></defs><circle class="cls-6" cx="127.7" cy="150" r="23.29"/><path class="cls-4" d="m81.11,126.71c-12.86,0-23.29,10.43-23.29,23.29s10.43,23.29,23.29,23.29h23.29v-46.58h-23.29Z"/><path class="cls-10" d="m81.11,173.29c-12.86,0-23.29,10.43-23.29,23.29s10.43,23.29,23.29,23.29,23.29-10.43,23.29-23.29v-23.29h-23.29Z"/><path class="cls-3" d="m81.11,80.12c-12.86,0-23.29,10.43-23.29,23.29s10.43,23.29,23.29,23.29h23.29v-46.58h-23.29Z"/><path class="cls-5" d="m127.7,80.12c12.86,0,23.29,10.43,23.29,23.29s-10.43,23.29-23.29,23.29h-23.29v-46.58h23.29Z"/><polygon class="cls-1" points="339.94 89.62 392.18 119.78 339.94 210.26 287.7 119.78 339.94 89.62"/><polygon class="cls-2" points="392.18 119.78 375.83 110.34 360.1 119.42 376.45 128.86 392.18 119.78"/><polygon class="cls-2" points="303.43 128.86 355.67 98.7 339.94 89.62 287.7 119.78 303.43 128.86"/><polygon class="cls-2" points="323.59 159.38 339.94 168.82 356.29 159.38 339.94 149.94 323.59 159.38"/><polygon class="cls-11" points="376.45 128.86 376.45 171.02 339.94 192.1 303.43 171.02 303.43 128.86 287.7 119.78 287.7 180.1 339.94 210.26 392.18 180.1 392.18 119.78 376.45 128.86"/><polygon class="cls-11" points="339.94 131.06 323.59 140.5 323.59 159.38 339.94 149.94 356.29 159.38 356.29 140.5 339.94 131.06"/><polygon class="cls-7" points="376.45 128.86 356.29 140.5 356.29 159.38 339.94 168.82 339.94 192.1 376.45 171.02 376.45 128.86"/><polygon class="cls-8" points="303.43 128.86 323.59 140.5 323.59 159.38 339.94 168.82 339.94 192.1 303.43 171.02 303.43 128.86"/><path class="cls-9" d="m243.94,172.08h-65.01c-1.34,0-2.2-1.43-1.57-2.61l9.82-18.57c.28-.52.28-1.14,0-1.66l-9.82-18.57c-.63-1.19.23-2.61,1.57-2.61h65.01c.53,0,1.04.24,1.37.65l16.65,20.23c.54.66.54,1.61,0,2.26l-16.65,20.23c-.34.41-.84.65-1.37.65Z"/></svg>