<?xml version="1.0" encoding="UTF-8"?><svg id="Layer_1" xmlns="http://www.w3.org/2000/svg" width="273.47" height="90.66" xmlns:xlink="http://www.w3.org/1999/xlink" viewBox="0 0 273.47 90.66"><defs><style>.cls-1{fill:url(#linear-gradient-2);}.cls-2{fill:#fdb913;}.cls-3{fill:url(#linear-gradient-6);}.cls-4{fill:url(#linear-gradient-5);}.cls-5{fill:url(#linear-gradient-7);}.cls-6{fill:url(#linear-gradient-9);}.cls-7{fill:url(#linear-gradient-3);}.cls-8{fill:url(#linear-gradient);}.cls-9{fill:#231f20;}.cls-10{fill:url(#linear-gradient-4);}.cls-11{fill:url(#linear-gradient-8);}</style><linearGradient id="linear-gradient" x1="132.86" y1="51.48" x2="147.45" y2="51.48" gradientUnits="userSpaceOnUse"><stop offset="0" stop-color="#e6e6e6"/><stop offset="1" stop-color="#f8f8f8"/></linearGradient><linearGradient id="linear-gradient-2" x1="185.8" y1="87.15" x2="180.05" y2="76.4" gradientUnits="userSpaceOnUse"><stop offset="0" stop-color="#777"/><stop offset="1" stop-color="#000"/></linearGradient><linearGradient id="linear-gradient-3" x1="139.96" y1="23.51" x2="153.47" y2="23.51" gradientUnits="userSpaceOnUse"><stop offset="0" stop-color="#404040"/><stop offset="1" stop-color="#9e9e9e"/></linearGradient><linearGradient id="linear-gradient-4" x1="154.22" y1="80.31" x2="156.16" y2="69.84" gradientUnits="userSpaceOnUse"><stop offset="0" stop-color="#ebebeb"/><stop offset="1" stop-color="#d1d1d1"/></linearGradient><linearGradient id="linear-gradient-5" x1="152.27" y1="14.16" x2="168.7" y2="14.16" gradientUnits="userSpaceOnUse"><stop offset="0" stop-color="#e6e7e8"/><stop offset="1" stop-color="#fff"/></linearGradient><linearGradient id="linear-gradient-6" x1="221.34" y1="36.04" x2="195.68" y2="20.88" gradientUnits="userSpaceOnUse"><stop offset="0" stop-color="#000"/><stop offset="1" stop-color="#717171"/></linearGradient><linearGradient id="linear-gradient-7" x1="139.96" y1="34.46" x2="147.45" y2="34.46" gradientUnits="userSpaceOnUse"><stop offset="0" stop-color="#bababa"/><stop offset="1" stop-color="#2e2e2e"/></linearGradient><linearGradient id="linear-gradient-8" x1="173.2" y1="12.1" x2="202.24" y2="12.1" gradientUnits="userSpaceOnUse"><stop offset="0" stop-color="#f0f0f0"/><stop offset="1" stop-color="#bcbec0"/></linearGradient><linearGradient id="linear-gradient-9" x1="217.73" y1="68.54" x2="203.99" y2="42.85" gradientUnits="userSpaceOnUse"><stop offset="0" stop-color="#000"/><stop offset="1" stop-color="#8a8a8a"/></linearGradient></defs><path class="cls-9" d="m204.53,45.2c0,15.33-12.42,27.75-27.75,27.75s-27.75-12.43-27.75-27.75,12.42-27.75,27.75-27.75,27.75,12.42,27.75,27.75Z"/><path class="cls-2" d="m217.39,35.97c-7.99-7.99-15.7-12.11-22.29-14.11,1.33-7.64,3.84-11.79,3.84-11.79-11.3,0-19.66,2.53-25.74,5.78-4.46-6.35-5.63-11.06-5.63-11.06-7.99,7.99-12.11,15.7-14.11,22.29-7.64-1.33-11.8-3.84-11.8-3.84,0,11.31,2.53,19.67,5.78,25.74-6.35,4.46-11.05,5.63-11.05,5.63,7.99,7.99,15.7,12.11,22.29,14.11-1.33,7.64-3.84,11.79-3.84,11.79,11.3,0,19.67-2.53,25.74-5.78,4.46,6.35,5.63,11.05,5.63,11.05,7.99-7.99,12.11-15.7,14.11-22.29,7.64,1.33,11.79,3.84,11.79,3.84,0-11.3-2.53-19.66-5.78-25.73,6.35-4.46,11.05-5.63,11.05-5.63Zm-40.49,36.4c-14.97,0-27.09-12.13-27.09-27.09s12.13-27.09,27.09-27.09,27.09,12.13,27.09,27.09-12.13,27.09-27.09,27.09Z"/><path class="cls-2" d="m176.91,48.17c-1.6,0-2.91-1.3-2.91-2.91s1.3-2.91,2.91-2.91,2.9,1.3,2.9,2.91-1.3,2.91-2.9,2.91Zm0-20.17c-9.53,0-17.26,7.73-17.26,17.27s7.73,17.27,17.26,17.27,17.27-7.73,17.27-17.27-7.73-17.27-17.27-17.27Z"/><path class="cls-8" d="m145.13,48.35c-.14.1-.44.3-.44.3-.3.2-.61.39-.93.58-3.34,1.96-7.15,3.32-10.9,4.25l3.54,1.12c3.29-.86,6.47-2.62,9.31-4.46.39-.25.77-.5,1.15-.76,0,0,.39-.27.59-.41l-2.33-.62"/><path class="cls-9" d="m173.53,13.07c-2.34-3.49-3.81-7.77-4.83-11.83l-1.12,3.54c1.04,3.96,3.3,7.73,5.63,11.06l.62-2.33c-.1-.14-.2-.29-.3-.44"/><path class="cls-9" d="m217.39,35.97c-3.51.95-6.87,2.83-9.88,4.83-.39.26-.78.53-1.17.8l2.33.62c.29-.21.59-.4.9-.59,3.44-2.14,7.46-3.54,11.37-4.54l-3.54-1.12"/><path class="cls-1" d="m186.15,85.56c-1.14-3.89-3.27-7.53-5.57-10.84l-.62,2.33c2.56,3.52,4.07,8.08,5.13,12.27l1.12-3.54s-.02-.07-.06-.21"/><path class="cls-7" d="m152.27,24.98c-4.3-.72-8.6-2.81-12.3-5.04l1.71,3.29c3.5,2.09,7.83,3.14,11.8,3.84l-1.21-2.09"/><path class="cls-9" d="m198.94,10.06c-1.5,2.59-2.42,5.58-3.14,8.47-.27,1.1-.5,2.21-.7,3.33l2.09-1.21c.16-.9.39-1.78.65-2.66,1.03-3.36,2.58-6.64,4.39-9.64l-3.29,1.71"/><path class="cls-10" d="m156.6,69.92c-.73,4.33-2.84,8.54-5.04,12.3l3.29-1.71c2.08-3.52,3.12-7.81,3.84-11.79l-2.09,1.21"/><path class="cls-9" d="m212.12,67.33c-3.52-2.07-7.81-3.15-11.79-3.84l1.21,2.09c4.3.73,8.6,2.8,12.3,5.05l-1.71-3.3"/><path class="cls-4" d="m168.21,1.74s-.32.33-.48.49c0,0-.32.33-.47.49,0,0-.31.32-.46.48-.45.47-.9.95-1.34,1.43,0,0-.29.31-.43.47,0,0-.28.31-.42.46-.41.45-.81.91-1.21,1.37,0,0-.52.6-.77.89-2.89,3.44-5.64,7.08-7.78,11.04-1.05,1.95-1.95,3.99-2.58,6.12,0,0,.87,1.52,1.21,2.09,2-6.58,5.62-12.57,10.01-17.83.1-.12.31-.37.31-.37.31-.38.64-.74.97-1.11.11-.12.33-.37.33-.37.11-.12.34-.37.34-.37.34-.38.7-.75,1.05-1.12.12-.12.36-.37.36-.37.12-.12.37-.37.37-.37.12-.13.25-.25.37-.38l1.12-3.54c-.17.17-.33.33-.49.49"/><path class="cls-9" d="m158.06,68.52c-8.33-2.67-15.49-7.83-21.66-13.92l-3.54-1.12c3.62,3.62,7.46,7.03,11.62,10.03,3.71,2.65,7.73,5.08,12.12,6.41l2.09-1.21c-.2-.06-.41-.13-.62-.19"/><path class="cls-3" d="m220.44,36.6c-6.59-6.47-14.25-13.17-23.25-15.95l-2.09,1.21c8.56,2.58,16,7.87,22.29,14.11l3.54,1.12c-.16-.17-.33-.33-.49-.49"/><path class="cls-9" d="m200.32,63.49c-.13.42-.26.83-.4,1.25-1.95,5.81-5.16,11.1-9,15.84-.4.5-.82.99-1.24,1.47-1.11,1.28-2.27,2.52-3.47,3.72l-1.12,3.54c1.55-1.54,3.05-3.14,4.51-4.77.53-.6,1.05-1.2,1.57-1.8,4.06-4.81,7.96-10.17,10.04-16.17.11-.33.22-.66.32-.99l-1.21-2.09"/><path class="cls-5" d="m147.15,48.4c-3.99-7.74-5.48-16.52-5.48-25.16l-1.71-3.29c0,4.96.28,9.92,1.05,14.82.72,4.64,1.85,9.44,4.12,13.59l2.33.62c-.1-.19-.2-.38-.3-.58"/><path class="cls-11" d="m201.54,8.35c-4.8.02-9.62.33-14.37,1.09-4.58.73-9.23,1.88-13.34,4.08l-.62,2.33c7.9-4.19,16.86-5.78,25.74-5.78l3.29-1.71c-.23,0-.47,0-.7,0"/><path class="cls-6" d="m213.83,69.93c0-.46,0-.91-.02-1.37,0-.44-.02-.89-.03-1.33-.01-.43-.03-.86-.04-1.29-.33-7.95-1.27-16.59-5.07-23.72l-2.33-.62c3.64,6.8,5.29,14.47,5.69,22.13.02.34.03.67.04,1.01.01.34.02.69.03,1.03.01.52.02,1.04.02,1.57l1.71,3.3c0-.23,0-.47,0-.7"/><path class="cls-9" d="m180.01,75.03c-1.66.85-3.36,1.58-5.1,2.23-.23.08-.7.25-.7.25-.24.08-1.45.48-1.45.48-.25.08-1.77.52-2.28.65-.4.1-.79.2-1.19.3-.27.06-1.64.36-1.64.36-.14.03-1.71.32-1.71.32-.29.05-1.47.23-1.77.27-3.09.42-6.19.62-9.31.62l-3.29,1.71c3.92,0,7.84-.2,11.74-.63.35-.04,1.74-.22,2.08-.27,0,0,1.16-.17,1.48-.23,0,0,2.01-.36,2.31-.42.43-.09.86-.18,1.29-.28.54-.12,1.09-.25,1.62-.39,0,0,2.68-.78,2.9-.85,1.71-.57,3.38-1.24,4.97-2.09l.62-2.33c-.19.1-.38.2-.58.3"/><path id="havok" class="cls-2" d="m142.23,25.49h-17.3l-7.37,25.3-7.39-25.3h-17.29l2.35,6.07h-11.34v3.57c-2.71-3.21-7.15-4.78-11.36-4.78-8.87,0-15.49,6.01-17.62,13.94-1.78-9.07-7.76-14.75-18.17-14.75-6.9,0-11.85,2.53-15.93,7.96h-.19v-18.52H2.94v52.3h17.68v-15.81c0-5.83,2.23-11.85,9.23-11.85s7.97,6.03,7.97,11.85v15.81h17.68v-14.11c2.62,7.06,8.99,12.24,17.19,12.24,4.29,0,8.78-1.64,11.06-5.29h.15v4.08h12.99v-32.36l13.65,35.24h14.03l17.66-45.59Zm74.27,45.59h16.14l-.36-19.11h.36c.36,1.87,1.82,3.57,2.79,5.32l7.86,13.79h19.23l-15.78-23.4,14.27-22.19h-18.08l-7.98,14.63c-.91,1.63-1.93,3.27-2.3,5.14h-.36l.36-19.77h-16.14v45.59Zm-140.52-12.96c-5.28,0-8.36-3.57-8.36-8.21s3.07-8.28,8.36-8.28,8.35,3.79,8.35,8.28-3.07,8.21-8.35,8.21Z"/><path class="cls-2" d="m268.36,25.33c1.97,0,3.55,1.6,3.55,3.59s-1.57,3.62-3.56,3.62-3.59-1.6-3.59-3.62,1.61-3.59,3.59-3.59h.02Zm-.02.65c-1.54,0-2.8,1.32-2.8,2.95s1.25,2.96,2.82,2.96c1.55.02,2.8-1.31,2.8-2.96s-1.24-2.95-2.8-2.95h-.02Zm-.64,5.04h-.75v-4.01c.33-.05.66-.11,1.21-.11.65,0,1.06.12,1.32.31.23.18.36.46.36.85,0,.49-.34.83-.77.95v.03c.35.06.58.38.66.98.08.62.17.86.23.99h-.78c-.1-.14-.18-.5-.26-1.03-.07-.46-.33-.65-.81-.65h-.41v1.69Zm0-2.27h.42c.52,0,.93-.17.93-.62,0-.34-.25-.64-.89-.64-.21,0-.35,0-.46.02v1.24Z"/></svg>