<?xml version="1.0" encoding="UTF-8"?><svg id="Layer_1" xmlns="http://www.w3.org/2000/svg" width="256" height="256" viewBox="0 0 256 256"><defs><style>.cls-1{opacity:.4;}.cls-1,.cls-2,.cls-3,.cls-4{fill:#d70000;}.cls-5{fill:#fff;}.cls-6{fill:#a5a5a5;}.cls-2{opacity:.2;}.cls-4{opacity:.3;}</style></defs><path class="cls-6" d="m128,223.82c-52.84,0-95.82-42.99-95.82-95.82s42.99-95.82,95.82-95.82,95.82,42.99,95.82,95.82-42.99,95.82-95.82,95.82Zm0-184.76c-49.04,0-88.94,39.9-88.94,88.94s39.9,88.94,88.94,88.94,88.94-39.9,88.94-88.94-39.9-88.94-88.94-88.94Z"/><rect class="cls-5" x="162.42" y="56.68" width="7.05" height=".69" transform="translate(37.36 176.43) rotate(-61.85)"/><rect class="cls-5" x="169.19" y="60.75" width="7.06" height=".69" transform="translate(25.94 170.73) rotate(-56.24)"/><rect class="cls-5" x="140.19" y="48.73" width="7.05" height=".69" transform="translate(67.53 180.44) rotate(-78.74)"/><rect class="cls-5" x="147.86" y="50.65" width="7.05" height=".69" transform="translate(58.64 181.05) rotate(-73.12)"/><rect class="cls-5" x="82.96" y="57.55" width=".69" height="7.06" transform="translate(-19.89 56.56) rotate(-33.74)"/><rect class="cls-5" x="89.74" y="53.49" width=".69" height="7.05" transform="translate(-16.24 49.16) rotate(-28.11)"/><rect class="cls-5" x="104.3" y="47.46" width=".69" height="7.05" transform="translate(-10.29 32.56) rotate(-16.87)"/><rect class="cls-5" x="111.97" y="45.54" width=".69" height="7.05" transform="translate(-7.41 22.83) rotate(-11.24)"/><rect class="cls-5" x="119.79" y="44.38" width=".69" height="7.06" transform="translate(-4.11 11.98) rotate(-5.61)"/><rect class="cls-5" x="132.37" y="47.57" width="7.06" height=".69" transform="translate(74.93 178.48) rotate(-84.39)"/><rect class="cls-5" x="191.39" y="82.96" width="7.06" height=".69" transform="translate(-13.42 122.38) rotate(-33.76)"/><rect class="cls-5" x="195.46" y="89.74" width="7.05" height=".69" transform="translate(-18.98 104.33) rotate(-28.1)"/><rect class="cls-5" x="201.49" y="104.3" width="7.05" height=".69" transform="translate(-21.52 63.85) rotate(-16.83)"/><rect class="cls-5" x="203.41" y="111.97" width="7.05" height=".69" transform="translate(-17.95 42.56) rotate(-11.26)"/><rect class="cls-5" x="175.54" y="65.46" width="7.06" height=".69" transform="translate(14.61 162.5) rotate(-50.63)"/><rect class="cls-5" x="186.68" y="76.61" width="7.06" height=".69" transform="translate(-5.66 138.08) rotate(-39.36)"/><rect class="cls-5" x="65.46" y="73.4" width=".69" height="7.06" transform="translate(-35.41 78.97) rotate(-50.61)"/><rect class="cls-5" x="76.61" y="62.26" width=".69" height="7.06" transform="translate(-24.27 63.74) rotate(-39.37)"/><polygon class="cls-5" points="192.7 181.58 187.24 177.09 187.68 176.56 193.14 181.04 192.7 181.58"/><polygon class="cls-5" points="63.29 181.56 62.85 181.02 68.3 176.54 68.74 177.08 63.29 181.56"/><rect class="cls-5" x="206.58" y="140.19" width=".69" height="7.05" transform="translate(25.58 318.6) rotate(-78.74)"/><polygon class="cls-5" points="208.28 152.74 201.54 150.69 201.74 150.03 208.48 152.07 208.28 152.74"/><rect class="cls-5" x="198.62" y="162.42" width=".69" height="7.05" transform="translate(-41.17 263.19) rotate(-61.87)"/><rect class="cls-5" x="194.56" y="169.19" width=".69" height="7.06" transform="translate(-57 238.79) rotate(-56.24)"/><rect class="cls-5" x="204.56" y="119.79" width="7.06" height=".69" transform="translate(-10.84 21.13) rotate(-5.66)"/><rect class="cls-5" x="207.74" y="132.36" width=".69" height="7.06" transform="translate(52.43 329.64) rotate(-84.37)"/><rect class="cls-5" x="48.73" y="108.76" width=".69" height="7.05" transform="translate(-70.63 138.49) rotate(-78.74)"/><polygon class="cls-5" points="54.26 105.97 47.52 103.93 47.72 103.26 54.46 105.31 54.26 105.97"/><rect class="cls-5" x="56.68" y="86.53" width=".69" height="7.05" transform="translate(-49.28 97.89) rotate(-61.87)"/><rect class="cls-5" x="60.75" y="79.75" width=".69" height="7.06" transform="translate(-42.09 87.8) rotate(-56.24)"/><polygon class="cls-5" points="44.44 136.56 44.37 135.87 51.39 135.18 51.46 135.87 44.44 136.56"/><rect class="cls-5" x="47.57" y="116.58" width=".69" height="7.06" transform="translate(-76.31 156.01) rotate(-84.37)"/><rect class="cls-5" x="57.56" y="172.36" width="7.06" height=".69" transform="translate(-85.68 63.08) rotate(-33.76)"/><rect class="cls-5" x="53.5" y="165.59" width="7.05" height=".69" transform="translate(-71.43 46.41) rotate(-28.1)"/><polygon class="cls-5" points="47.71 152.71 47.51 152.05 54.26 150 54.46 150.66 47.71 152.71"/><rect class="cls-5" x="45.54" y="143.34" width="7.05" height=".69" transform="translate(-27.11 12.34) rotate(-11.26)"/><rect class="cls-5" x="96.83" y="49.99" width="2.08" height="10.54" transform="translate(-13.7 41.66) rotate(-22.5)"/><rect class="cls-5" x="126.96" y="44" width="2.08" height="10.55"/><rect class="cls-5" x="152.86" y="54.22" width="10.54" height="2.08" transform="translate(46.56 180.2) rotate(-67.5)"/><rect class="cls-5" x="178.39" y="71.29" width="10.55" height="2.08" transform="translate(2.67 151.11) rotate(-45.02)"/><rect class="cls-5" x="195.47" y="96.83" width="10.54" height="2.08" transform="translate(-22.17 84.28) rotate(-22.5)"/><rect class="cls-5" x="201.45" y="126.96" width="10.55" height="2.08"/><rect class="cls-5" x="199.7" y="152.86" width="2.08" height="10.54" transform="translate(-22.17 283.08) rotate(-67.5)"/><rect class="cls-5" x="182.63" y="178.39" width="2.08" height="10.55" transform="translate(-76.08 183.67) rotate(-45)"/><rect class="cls-5" x="67.06" y="182.63" width="10.55" height="2.08" transform="translate(-108.69 104.94) rotate(-45)"/><rect class="cls-5" x="54.22" y="92.6" width="2.08" height="10.54" transform="translate(-56.31 111.47) rotate(-67.5)"/><rect class="cls-5" x="71.29" y="67.06" width="2.08" height="10.55" transform="translate(-29.96 72.33) rotate(-45)"/><rect class="cls-5" x="49.99" y="157.09" width="10.54" height="2.08" transform="translate(-56.31 33.19) rotate(-22.5)"/><rect class="cls-5" x="44" y="126.96" width="10.55" height="2.08"/><path class="cls-5" d="m86.05,180.15c-1.15,0-2.02-.3-2.6-.89-.58-.59-.87-1.39-.87-2.4v-5.27c0-1.03.29-1.83.88-2.42.58-.58,1.45-.88,2.59-.88s2.01.29,2.59.87.87,1.39.87,2.42v5.27c0,1.03-.29,1.83-.88,2.42-.59.58-1.45.88-2.59.88Zm0-2.1c.46,0,.79-.16.98-.47s.3-.74.3-1.28v-4.15c0-.55-.1-.97-.3-1.28s-.53-.46-.98-.46-.78.15-.98.46c-.2.31-.3.74-.3,1.28v4.15c0,.54.1.97.3,1.28.2.31.53.47.98.47Z"/><path class="cls-5" d="m66.92,150.82v5.79h-1.09v-4.51l-.71.27v-1.16l.86-.39h.93Z"/><path class="cls-5" d="m69.8,156.67c-.58,0-1.01-.15-1.3-.44-.29-.3-.43-.7-.43-1.2v-2.63c0-.51.15-.92.44-1.21.29-.29.72-.44,1.3-.44s1.01.15,1.3.44c.29.29.44.69.44,1.21v2.63c0,.51-.15.92-.44,1.21-.29.29-.72.44-1.3.44Zm0-1.05c.23,0,.39-.08.49-.23.1-.15.15-.37.15-.64v-2.08c0-.27-.05-.49-.15-.64s-.26-.23-.49-.23-.39.08-.49.23c-.1.15-.15.37-.15.64v2.08c0,.27.05.48.15.64.1.16.26.23.49.23Z"/><path class="cls-5" d="m66.44,104.55c-.35,0-.66-.06-.93-.19-.27-.13-.49-.31-.65-.55-.16-.24-.25-.53-.27-.88h1.13c.03.18.09.32.2.41.11.1.24.15.41.15.21,0,.37-.06.48-.17.11-.12.17-.28.17-.49v-.14c0-.22-.05-.39-.14-.51s-.22-.18-.39-.18h-.49v-1.05h.49c.14,0,.24-.05.32-.16.08-.1.11-.25.11-.44v-.1c0-.18-.04-.32-.13-.41-.08-.1-.2-.15-.35-.15s-.28.06-.38.17c-.1.11-.18.27-.21.47h-1.12c.05-.54.24-.96.56-1.26s.73-.45,1.2-.45c.51,0,.91.13,1.19.39.28.26.42.63.42,1.11v.18c0,.27-.07.5-.2.7s-.33.35-.58.45c.28.06.49.21.65.44.15.23.23.52.23.87v.18c0,.51-.15.9-.45,1.18-.3.28-.72.42-1.26.42Z"/><path class="cls-5" d="m70.7,104.55c-.58,0-1.01-.15-1.3-.44-.29-.3-.43-.7-.43-1.2v-2.63c0-.51.15-.92.44-1.21.29-.29.72-.44,1.3-.44s1.01.15,1.3.44c.29.29.44.69.44,1.21v2.63c0,.51-.15.92-.44,1.21-.29.29-.72.44-1.3.44Zm0-1.05c.23,0,.39-.08.49-.23.1-.15.15-.37.15-.64v-2.08c0-.27-.05-.49-.15-.64s-.26-.23-.49-.23-.39.08-.49.23c-.1.15-.15.37-.15.64v2.08c0,.27.05.48.15.64.1.16.26.23.49.23Z"/><path class="cls-5" d="m102.03,70.23c-.46,0-.85-.15-1.17-.45s-.49-.73-.53-1.28h0s1.09,0,1.09,0h0c.02.22.09.38.2.5.11.12.25.18.43.18.19,0,.34-.06.44-.19.1-.13.16-.3.16-.53v-.49c0-.23-.05-.4-.14-.53-.09-.12-.23-.18-.4-.18-.16,0-.29.04-.4.12-.11.08-.19.19-.23.33h-1.02v-3.33h3.11v1.05h-2.02v1.02c.09-.08.2-.15.34-.19.14-.05.28-.07.42-.07.45,0,.81.15,1.05.46.25.31.37.75.37,1.31v.49c0,.57-.15,1-.45,1.31-.3.31-.72.46-1.26.46Z"/><path class="cls-5" d="m106.35,70.23c-.58,0-1.01-.15-1.3-.44-.29-.3-.43-.7-.43-1.2v-2.63c0-.51.15-.92.44-1.21.29-.29.72-.44,1.3-.44s1.01.15,1.3.44c.29.29.44.69.44,1.21v2.63c0,.51-.15.92-.44,1.21-.29.29-.72.44-1.3.44Zm0-1.05c.23,0,.39-.08.49-.23.1-.15.15-.37.15-.64v-2.08c0-.27-.05-.49-.15-.64s-.26-.23-.49-.23-.39.08-.49.23c-.1.15-.15.37-.15.64v2.08c0,.27.05.48.15.64.1.16.26.23.49.23Z"/><path class="cls-5" d="m152.26,64.37v.73l-1.3,5.07h-1.18l1.26-4.74h-1v.87h-1.09v-1.92h3.31Z"/><path class="cls-5" d="m154.79,70.23c-.58,0-1.01-.15-1.3-.44-.29-.3-.43-.7-.43-1.2v-2.63c0-.51.15-.92.44-1.21.29-.29.72-.44,1.3-.44s1.01.15,1.3.44c.29.29.44.69.44,1.21v2.63c0,.51-.15.92-.44,1.21-.29.29-.72.44-1.3.44Zm0-1.05c.23,0,.39-.08.49-.23.1-.15.15-.37.15-.64v-2.08c0-.27-.05-.49-.15-.64s-.26-.23-.49-.23-.39.08-.49.23c-.1.15-.15.37-.15.64v2.08c0,.27.05.48.15.64.1.16.26.23.49.23Z"/><path class="cls-5" d="m184.14,105.36l1.26-2.88.2.14c-.07.13-.17.22-.31.27s-.29.08-.47.08c-.44,0-.8-.15-1.07-.46-.27-.31-.4-.72-.4-1.23h0c0-.57.15-1,.44-1.31.3-.31.71-.46,1.25-.46s.96.16,1.25.47c.29.31.44.75.44,1.33h0c0,.24-.04.49-.12.76-.08.27-.17.54-.29.82l-1.04,2.48h-1.16Zm.9-3.4c.19,0,.34-.06.44-.19.1-.12.16-.3.16-.52h0c0-.22-.05-.39-.16-.51-.11-.12-.25-.18-.44-.18s-.34.06-.45.18c-.11.12-.16.29-.16.51h0c0,.23.05.4.16.53.1.12.25.18.45.18Z"/><path class="cls-5" d="m189.23,105.42c-.58,0-1.01-.15-1.3-.44-.29-.3-.43-.7-.43-1.2v-2.63c0-.51.15-.92.44-1.21.29-.29.72-.44,1.3-.44s1.01.15,1.3.44c.29.29.44.69.44,1.21v2.63c0,.51-.15.92-.44,1.21-.29.29-.72.44-1.3.44Zm0-1.05c.23,0,.39-.08.49-.23.1-.15.15-.37.15-.64v-2.08c0-.27-.05-.49-.15-.64s-.26-.23-.49-.23-.39.08-.49.23c-.1.15-.15.37-.15.64v2.08c0,.27.05.48.15.64.1.16.26.23.49.23Z"/><path class="cls-5" d="m185.21,150.43v5.79h-1.09v-4.51l-.71.27v-1.16l.86-.39h.93Z"/><path class="cls-5" d="m187.76,150.43v5.79h-1.09v-4.51l-.71.27v-1.16l.86-.39h.93Z"/><path class="cls-5" d="m190.48,156.28c-.58,0-1.01-.15-1.3-.44-.29-.3-.43-.7-.43-1.2v-2.63c0-.51.15-.92.44-1.21.29-.29.72-.44,1.3-.44s1.01.15,1.3.44c.29.29.44.69.44,1.21v2.63c0,.51-.15.92-.44,1.21-.29.29-.72.44-1.3.44Zm0-1.05c.23,0,.39-.08.49-.23.1-.15.15-.37.15-.64v-2.08c0-.27-.05-.49-.15-.64s-.26-.23-.49-.23-.39.08-.49.23c-.1.15-.15.37-.15.64v2.08c0,.27.05.48.15.64.1.16.26.23.49.23Z"/><path class="cls-5" d="m58.42,132.71v-1.97l3.98-5.23c.18-.23.32-.47.42-.72s.15-.48.15-.69v-.02c0-.31-.1-.56-.3-.73s-.49-.26-.86-.26-.65.12-.87.35-.36.57-.41,1.01h0s-2.24,0-2.24,0h0c.07-1.11.43-1.96,1.06-2.57s1.45-.91,2.45-.91c1.09,0,1.93.26,2.53.79s.9,1.27.9,2.23h0c0,.53-.09,1.06-.27,1.57s-.44.99-.77,1.41l-2.85,3.6h3.96v2.1h-6.85Z"/><path class="cls-5" d="m70.16,132.83c-1.15,0-2.02-.3-2.6-.89-.58-.59-.87-1.39-.87-2.4v-5.27c0-1.03.29-1.83.88-2.42.58-.58,1.45-.88,2.59-.88s2.01.29,2.59.87.87,1.39.87,2.42v5.27c0,1.03-.29,1.83-.88,2.42-.59.58-1.45.88-2.59.88Zm0-2.1c.46,0,.78-.16.98-.47s.3-.74.3-1.28v-4.15c0-.55-.1-.97-.3-1.28s-.53-.46-.98-.46-.78.15-.98.46c-.2.31-.3.74-.3,1.28v4.15c0,.54.1.97.3,1.28.2.31.53.47.98.47Z"/><path class="cls-5" d="m76.53,87.26v-2.01l3.57-7.8h2.47l-3.48,7.7h5.2v2.1h-7.77Zm4.68,1.79v-6.82h2.18v6.82h-2.18Z"/><path class="cls-5" d="m89.44,89.16c-1.15,0-2.02-.3-2.6-.89-.58-.59-.87-1.39-.87-2.4v-5.27c0-1.03.29-1.83.88-2.42.58-.58,1.45-.88,2.59-.88s2.01.29,2.59.87.87,1.39.87,2.42v5.27c0,1.03-.29,1.83-.88,2.42-.59.58-1.45.88-2.59.88Zm0-2.1c.46,0,.79-.16.98-.47s.3-.74.3-1.28v-4.15c0-.55-.1-.97-.3-1.28s-.53-.46-.98-.46-.78.15-.98.46c-.2.31-.3.74-.3,1.28v4.15c0,.54.1.97.3,1.28.2.31.53.47.98.47Z"/><path class="cls-5" d="m123.23,70.65c-1.07,0-1.91-.31-2.5-.92-.59-.61-.89-1.47-.89-2.58h0c0-.51.07-1.03.22-1.59s.34-1.1.59-1.63l2.35-4.99h2.47l-2.79,5.78-.55-.29c.28-.53.77-.79,1.47-.79.96,0,1.71.3,2.23.9s.79,1.45.79,2.55h0c0,1.13-.3,2-.89,2.62-.59.62-1.43.93-2.51.93Zm0-2.1c.39,0,.69-.11.9-.34s.31-.55.31-.96h0c0-.48-.1-.85-.31-1.11s-.51-.39-.9-.39-.68.13-.89.39c-.21.26-.31.63-.31,1.1h0c0,.42.11.74.31.96.21.22.51.33.89.33Z"/><path class="cls-5" d="m131.6,70.65c-1.15,0-2.02-.3-2.6-.89-.58-.59-.87-1.39-.87-2.4v-5.27c0-1.03.29-1.83.88-2.42.58-.58,1.45-.88,2.59-.88s2.01.29,2.59.87.87,1.39.87,2.42v5.27c0,1.03-.29,1.83-.88,2.42-.59.58-1.45.88-2.59.88Zm0-2.1c.46,0,.79-.16.98-.47s.3-.74.3-1.28v-4.15c0-.55-.1-.97-.3-1.28s-.53-.46-.98-.46-.78.15-.98.46c-.2.31-.3.74-.3,1.28v4.15c0,.54.1.97.3,1.28.2.31.53.47.98.47Z"/><path class="cls-5" d="m164.14,89.62c-.74,0-1.38-.13-1.93-.4s-.98-.64-1.28-1.12c-.31-.48-.46-1.05-.46-1.7v-.19c0-.58.16-1.12.48-1.63s.74-.9,1.28-1.16c-.45-.22-.82-.54-1.1-.96s-.42-.86-.42-1.32v-.3c0-.92.31-1.66.94-2.21.63-.56,1.46-.83,2.49-.83s1.87.28,2.49.83c.63.56.94,1.29.94,2.21v.3c0,.48-.14.92-.42,1.34-.28.41-.65.73-1.12.94.54.26.97.65,1.29,1.16.32.51.49,1.05.49,1.63v.19c0,.65-.15,1.21-.46,1.7-.31.48-.73.86-1.28,1.12s-1.19.4-1.93.4Zm0-2.1c.45,0,.81-.13,1.08-.39.27-.26.41-.61.41-1.04v-.11c0-.39-.14-.71-.41-.95-.27-.24-.63-.36-1.08-.36s-.81.12-1.08.36c-.27.24-.41.56-.41.96v.12c0,.42.14.77.41,1.03.27.26.63.39,1.08.39Zm0-4.97c.38,0,.68-.12.91-.36.23-.24.34-.56.34-.96v-.11c0-.37-.11-.66-.34-.88-.23-.22-.53-.33-.91-.33s-.67.11-.9.33-.35.52-.35.89v.12c0,.39.12.7.35.94s.53.36.9.36Z"/><path class="cls-5" d="m172.58,89.62c-1.15,0-2.02-.3-2.6-.89-.58-.59-.87-1.39-.87-2.4v-5.27c0-1.03.29-1.83.88-2.42.58-.58,1.45-.88,2.59-.88s2.01.29,2.59.87.87,1.39.87,2.42v5.27c0,1.03-.29,1.83-.88,2.42-.59.58-1.45.88-2.59.88Zm0-2.1c.46,0,.79-.16.98-.47s.3-.74.3-1.28v-4.15c0-.55-.1-.97-.3-1.28s-.53-.46-.98-.46-.78.15-.98.46c-.2.31-.3.74-.3,1.28v4.15c0,.54.1.97.3,1.28.2.31.53.47.98.47Z"/><path class="cls-5" d="m180.12,122.66v11.59h-2.18v-9.02l-1.41.53v-2.32l1.73-.78h1.87Z"/><path class="cls-5" d="m185.57,134.37c-1.15,0-2.02-.3-2.6-.89-.58-.59-.87-1.39-.87-2.4v-5.27c0-1.03.29-1.83.88-2.42.58-.58,1.45-.88,2.59-.88s2.01.29,2.59.87.87,1.39.87,2.42v5.27c0,1.03-.29,1.83-.88,2.42-.59.58-1.45.88-2.59.88Zm0-2.1c.46,0,.79-.16.98-.47s.3-.74.3-1.28v-4.15c0-.55-.1-.97-.3-1.28s-.53-.46-.98-.46-.78.15-.98.46c-.2.31-.3.74-.3,1.28v4.15c0,.54.1.97.3,1.28.2.31.53.47.98.47Z"/><path class="cls-5" d="m194.26,134.37c-1.15,0-2.02-.3-2.6-.89-.58-.59-.87-1.39-.87-2.4v-5.27c0-1.03.29-1.83.88-2.42.58-.58,1.45-.88,2.59-.88s2.01.29,2.59.87.87,1.39.87,2.42v5.27c0,1.03-.29,1.83-.88,2.42-.59.58-1.45.88-2.59.88Zm0-2.1c.46,0,.79-.16.98-.47s.3-.74.3-1.28v-4.15c0-.55-.1-.97-.3-1.28s-.53-.46-.98-.46-.78.15-.98.46c-.2.31-.3.74-.3,1.28v4.15c0,.54.1.97.3,1.28.2.31.53.47.98.47Z"/><path class="cls-5" d="m162.08,166.15v11.59h-2.18v-9.02l-1.41.53v-2.32l1.73-.78h1.87Z"/><path class="cls-5" d="m163.89,177.74v-1.97l3.98-5.23c.18-.23.32-.47.42-.72.1-.25.15-.48.15-.69v-.02c0-.31-.1-.56-.3-.73-.2-.17-.49-.26-.86-.26s-.65.12-.87.35c-.23.24-.36.57-.41,1.01h0s-2.24,0-2.24,0h0c.07-1.11.43-1.96,1.06-2.57s1.45-.91,2.45-.91c1.09,0,1.93.26,2.53.79s.9,1.27.9,2.23h0c0,.53-.09,1.06-.27,1.57s-.44.99-.77,1.41l-2.85,3.6h3.96v2.1h-6.85Z"/><path class="cls-5" d="m175.96,177.86c-1.15,0-2.02-.3-2.6-.89-.58-.59-.87-1.39-.87-2.4v-5.27c0-1.03.29-1.83.88-2.42.58-.58,1.45-.88,2.59-.88s2.01.29,2.59.87.87,1.39.87,2.42v5.27c0,1.03-.29,1.83-.88,2.42-.59.58-1.45.88-2.59.88Zm0-2.1c.46,0,.79-.16.98-.47s.3-.74.3-1.28v-4.15c0-.55-.1-.97-.3-1.28s-.53-.46-.98-.46-.78.15-.98.46c-.2.31-.3.74-.3,1.28v4.15c0,.54.1.97.3,1.28.2.31.53.47.98.47Z"/><path class="cls-5" d="m110.8,199.17v-15.07h2.84v15.07h-2.84Zm1.04-12.33v-2.74h8.86v2.74h-8.86Zm0,6.35v-2.74h7.72v2.74h-7.72Z"/><path class="cls-5" d="m122.87,199.17v-15.07h2.84v15.07h-2.84Zm1.3-5.84v-2.74h4.82c.51,0,.93-.17,1.24-.51.32-.34.48-.79.48-1.35s-.16-1.03-.47-1.37c-.31-.34-.73-.51-1.25-.51h-4.82v-2.74h4.75c.95,0,1.78.19,2.49.58.71.38,1.26.92,1.65,1.61s.59,1.5.59,2.44-.2,1.73-.59,2.42-.95,1.23-1.66,1.61c-.71.38-1.54.57-2.49.57h-4.75Z"/><path class="cls-5" d="m140.18,199.32c-.72,0-1.42-.07-2.11-.22-.69-.15-1.33-.36-1.93-.64-.6-.28-1.14-.62-1.63-1.01l1.32-2.34c.58.48,1.25.84,2.01,1.1.76.26,1.54.39,2.34.39.93,0,1.64-.16,2.16-.47.51-.31.77-.76.77-1.33h0c0-.45-.13-.78-.38-1.01-.26-.23-.59-.4-1.01-.51-.42-.11-.87-.2-1.36-.28-.59-.09-1.18-.2-1.78-.34-.6-.13-1.15-.35-1.66-.64-.5-.29-.91-.71-1.22-1.26-.31-.55-.46-1.27-.46-2.19h0c0-1.48.48-2.62,1.45-3.42.97-.81,2.34-1.21,4.1-1.21.82,0,1.64.14,2.49.41.84.27,1.63.66,2.35,1.17l-1.2,2.4c-.58-.41-1.19-.72-1.82-.94-.63-.22-1.24-.33-1.82-.33-.87,0-1.54.14-2.02.43-.48.29-.71.69-.71,1.21h0c0,.49.14.86.42,1.11.28.25.65.43,1.11.55.46.12.95.23,1.47.34.58.11,1.16.25,1.73.41.57.16,1.1.4,1.58.7s.86.72,1.14,1.25c.28.53.42,1.22.42,2.07v.02c0,1.45-.5,2.57-1.5,3.37-1,.8-2.41,1.2-4.24,1.2Z"/><path class="cls-3" d="m153.94,144.91l-2.01-4.64-14.21-10.3c.13-.63.2-1.29.2-1.96,0-5.48-4.44-9.92-9.92-9.92s-9.92,4.44-9.92,9.92,4.44,9.92,9.92,9.92c1.74,0,3.37-.45,4.79-1.24l14.25,10.33,5.04.46,40.03,27.76.72-.99-38.89-29.34Z"/><path class="cls-1" d="m156.21,140.77l-2.69-4.29-15.61-8.03c.03-.65,0-1.3-.1-1.97-.83-5.42-5.9-9.13-11.31-8.3-5.42.83-9.13,5.9-8.3,11.31.83,5.42,5.9,9.13,11.31,8.3,1.72-.26,3.26-.96,4.55-1.95l15.65,8.05,5.05-.31,43.78,21.37.56-1.09-42.89-23.1Z"/><path class="cls-4" d="m158.33,134.23l-3.57-3.59-17-4.39c-.11-.64-.29-1.27-.54-1.89-2.01-5.1-7.77-7.61-12.87-5.6-5.1,2.01-7.61,7.77-5.6,12.87s7.77,7.61,12.87,5.6c1.62-.64,2.97-1.65,4.01-2.91l17.04,4.4,4.86-1.41,47.42,11.18.31-1.19-46.93-13.07Z"/><path class="cls-2" d="m158.91,126.06l-4.38-2.53-17.55.23c-.28-.58-.61-1.15-1.01-1.69-3.27-4.39-9.49-5.3-13.88-2.03s-5.3,9.49-2.03,13.88,9.49,5.3,13.88,2.03c1.39-1.04,2.43-2.38,3.1-3.85l17.6-.23,4.32-2.64,48.69-1.66-.02-1.23-48.72-.29Z"/></svg>