<?xml version="1.0" encoding="UTF-8"?><svg id="Layer_1" xmlns="http://www.w3.org/2000/svg" width="256" height="200" viewBox="0 0 256 200"><defs><style>.cls-1{fill:#937055;}</style></defs><path class="cls-1" d="m198.54,32.04H57.46c-5.41,0-9.81,4.4-9.81,9.81v93.37c0,5.41,4.4,9.81,9.81,9.81h61.85v15.99h-3.46s-.09,0-.14,0l-27.19,3.4c-.56.07-.97.54-.97,1.1v3.97c0,.61.5,1.11,1.11,1.11h78.68c.61,0,1.11-.5,1.11-1.11v-3.97c0-.56-.42-1.03-.97-1.1l-27.19-3.4s-.09,0-.14,0h-3.46v-15.99h61.85c5.41,0,9.81-4.4,9.81-9.81V41.85c0-5.41-4.4-9.81-9.81-9.81Zm3.13,103.18c0,1.73-1.41,3.13-3.13,3.13H57.46c-1.73,0-3.13-1.41-3.13-3.13V41.85c0-1.73,1.41-3.13,3.13-3.13h141.08c1.73,0,3.13,1.41,3.13,3.13v93.37Z"/><path class="cls-1" d="m117.84,115.58c-1.28,0-2.51-.56-3.37-1.59l-8.68-10.39h-13.82c-2.44,0-4.42-1.98-4.42-4.42v-20.51c0-2.44,1.98-4.42,4.42-4.42h13.82l8.68-10.39c1.21-1.44,3.13-1.96,4.9-1.32,1.77.64,2.91,2.27,2.91,4.16v44.47c0,1.88-1.14,3.51-2.91,4.16-.5.18-1.02.27-1.53.27Zm-23.85-18.43h12.74c1.31,0,2.55.58,3.39,1.58l5.71,6.84v-33.31l-5.71,6.84c-.85,1.01-2.08,1.59-3.39,1.59h-12.74v16.46Z"/><path class="cls-1" d="m131.81,105.07c-1.14,0-2.24-.6-2.83-1.67-.86-1.56-.29-3.52,1.27-4.38,1.58-.87,4.84-4.56,4.84-10.45s-3.26-9.58-4.84-10.45c-1.56-.86-2.13-2.82-1.27-4.38.86-1.56,2.81-2.13,4.38-1.27,3.29,1.81,8.18,7.59,8.18,16.1s-4.89,14.29-8.18,16.1c-.49.27-1.02.4-1.55.4Z"/><path class="cls-1" d="m139.95,114.21c-1.09,0-2.14-.55-2.75-1.54-.93-1.52-.45-3.5,1.06-4.43,6.97-4.27,10.35-10.7,10.35-19.66s-3.39-15.39-10.35-19.66c-1.52-.93-2-2.91-1.06-4.43.93-1.52,2.91-1.99,4.43-1.07,8.91,5.46,13.43,13.92,13.43,25.16s-4.52,19.7-13.43,25.16c-.53.32-1.11.47-1.68.47Z"/><path class="cls-1" d="m149.84,122.47c-1.08,0-2.13-.54-2.74-1.52-.94-1.51-.48-3.5,1.04-4.44,11.47-7.13,13.88-19.13,13.88-27.93s-2.41-20.81-13.88-27.94c-1.51-.94-1.98-2.93-1.04-4.44.94-1.51,2.93-1.98,4.44-1.04,10.91,6.78,16.92,18.65,16.92,33.41s-6.01,26.63-16.92,33.41c-.53.33-1.12.49-1.7.49Z"/></svg>