<svg xmlns="http://www.w3.org/2000/svg" viewBox="0 0 27.06 29.3"><defs><style>.cls-1{fill:#fff;}</style></defs><title>Asset 5</title><g id="Layer_2" data-name="Layer 2"><g id="Intro_and_Links" data-name="Intro and Links"><path class="cls-1" d="M26.79,11.34a3.45,3.45,0,0,0-.74-1.09A3.33,3.33,0,0,0,25,9.51a3.67,3.67,0,0,0-1.37-.26,3.57,3.57,0,0,0-1.32.26,3,3,0,0,0-1.13.74l-1.08,1.08V5L10,0,0,5V18.25l8.77,4.37-.12.12L7,29.3l6.56-1.63L26.05,15.15A3.19,3.19,0,0,0,26.8,14a3.57,3.57,0,0,0,.26-1.32A3.4,3.4,0,0,0,26.79,11.34ZM10,2.49l6.42,3.2L10,8.89,3.6,5.69Zm-7.79,5,6.68,3.34V20.2L2.23,16.88ZM11.14,20.2V10.82l6.68-3.34v6.08l-6.59,6.6Zm13.33-6.61-12,12.06-2.35.59.59-2.35,12-12.08a1.12,1.12,0,0,1,.4-.25,1.5,1.5,0,0,1,.47-.08,1.25,1.25,0,0,1,.9.34,1.19,1.19,0,0,1,.35.88A1.23,1.23,0,0,1,24.47,13.59Z"/></g></g></svg>