<?xml version="1.0" encoding="UTF-8"?>
<svg width="20px" height="20px" viewBox="0 0 20 20" version="1.1" xmlns="http://www.w3.org/2000/svg" xmlns:xlink="http://www.w3.org/1999/xlink">
    <!-- Generator: Sketch 53.2 (72643) - https://sketchapp.com -->
    <title>Path</title>
    <desc>Created with Sketch.</desc>
    <g id="Design" stroke="none" stroke-width="1" fill="none" fill-rule="evenodd">
        <g id="Add-Plan-Empty-4-concept-2" transform="translate(-148.000000, -553.000000)">
            <rect fill="#3B0B54" x="0" y="0" width="375" height="812"></rect>
            <path d="M168,557.894013 C167.264064,558.215252 166.473362,558.432397 165.643364,558.53003 C166.490472,558.030138 167.141095,557.238578 167.447501,556.295321 C166.654573,556.758259 165.776528,557.094379 164.841842,557.275493 C164.093406,556.490471 163.026963,556 161.84677,556 C159.58072,556 157.743575,557.808416 157.743575,560.039088 C157.743575,560.355673 157.779864,560.663953 157.849825,560.959619 C154.439675,560.791117 151.416204,559.183081 149.392458,556.739263 C149.039256,557.335826 148.836873,558.029676 148.836873,558.769939 C148.836873,560.171328 149.561247,561.407676 150.66226,562.13202 C149.989645,562.111024 149.35695,561.929333 148.803787,561.626783 C148.803397,561.643625 148.803397,561.660545 148.803397,561.677579 C148.803397,563.634618 150.217808,565.26711 152.094836,565.638261 C151.750579,565.73051 151.38804,565.780038 151.013822,565.780038 C150.749409,565.780038 150.492378,565.754659 150.241792,565.707438 C150.763979,567.312091 152.279289,568.480069 154.074832,568.512562 C152.670538,569.59602 150.901283,570.241688 148.978826,570.241688 C148.647616,570.241688 148.321015,570.222615 148,570.185123 C149.815856,571.331299 151.972688,572 154.289871,572 C161.83716,572 165.964379,565.845101 165.964379,560.507409 C165.964379,560.332293 165.960316,560.1581 165.952465,559.98483 C166.75426,559.415376 167.449923,558.703992 168,557.894013 Z" id="Path" fill="#C4C4C4" fill-rule="nonzero"></path>
        </g>
    </g>
</svg>