{
  "accessors": [
    {
      "bufferView": 0,
      "componentType": 5126,
      "count": 4,
      "type": "VEC3",
      "max": [
        -0.5,
        -0.5,
        0.0
      ],
      "min": [
        0.5,
        0.5,
        0.0
      ],
      "name": "Positions Accessor"
    },
    {
      "bufferView": 1,
      "componentType": 5125,
      "count": 6,
      "type": "SCALAR",
      "name": "Indices Accessor"
    },
    {
      "bufferView": 2,
      "componentType": 5126,
      "count": 4,
      "type": "VEC4",
      "name": "Colors Accessor"
    },
    {
      "bufferView": 3,
      "componentType": 5126,
      "count": 4,
      "type": "VEC2",
      "name": "UV Accessor 0"
    }
  ],
  "asset": {
    "generator": "glTF Asset Generator",
    "version": "2.0",
    "extras": {
      "Attributes": "VertexColor_Vector4_Float - VertexUV0_Float"
    }
  },
  "buffers": [
    {
      "uri": "Primitive_Attribute_12.bin",
      "byteLength": 168
    }
  ],
  "bufferViews": [
    {
      "buffer": 0,
      "byteLength": 48,
      "name": "Positions"
    },
    {
      "buffer": 0,
      "byteOffset": 48,
      "byteLength": 24,
      "name": "Indices"
    },
    {
      "buffer": 0,
      "byteOffset": 72,
      "byteLength": 64,
      "name": "Colors"
    },
    {
      "buffer": 0,
      "byteOffset": 136,
      "byteLength": 32,
      "name": "Texture Coords 0"
    }
  ],
  "materials": [
    {}
  ],
  "meshes": [
    {
      "primitives": [
        {
          "attributes": {
            "POSITION": 0,
            "COLOR_0": 2,
            "TEXCOORD_0": 3
          },
          "indices": 1,
          "material": 0
        }
      ]
    }
  ],
  "nodes": [
    {
      "mesh": 0
    }
  ],
  "scene": 0,
  "scenes": [
    {
      "nodes": [
        0
      ]
    }
  ]
}