{
  "accessors": [
    {
      "bufferView": 0,
      "componentType": 5126,
      "count": 4,
      "type": "VEC3",
      "max": [
        0.5,
        0.5,
        0.0
      ],
      "min": [
        -0.5,
        -0.5,
        0.0
      ],
      "name": "Positions Accessor"
    },
    {
      "bufferView": 1,
      "componentType": 5126,
      "count": 4,
      "type": "VEC3",
      "name": "Normals Accessor"
    },
    {
      "bufferView": 2,
      "componentType": 5126,
      "count": 4,
      "type": "VEC4",
      "name": "Tangents Accessor"
    },
    {
      "bufferView": 3,
      "componentType": 5126,
      "count": 4,
      "type": "VEC4",
      "name": "Colors Accessor"
    },
    {
      "bufferView": 4,
      "componentType": 5126,
      "count": 4,
      "type": "VEC2",
      "name": "UV Accessor 0"
    },
    {
      "bufferView": 5,
      "componentType": 5126,
      "count": 4,
      "type": "VEC2",
      "name": "UV Accessor 1"
    },
    {
      "bufferView": 6,
      "componentType": 5125,
      "count": 6,
      "type": "SCALAR",
      "name": "Indices Accessor"
    }
  ],
  "asset": {
    "generator": "glTF Asset Generator",
    "version": "2.0",
    "extras": {
      "Attributes": "VertexNormal - VertexTangent - VertexUV0_Float - VertexUV1_Float - VertexColor_Vector4_Float - NormalTexture - BaseColorTexture"
    }
  },
  "buffers": [
    {
      "uri": "Primitive_Attribute_01.bin",
      "byteLength": 312
    }
  ],
  "bufferViews": [
    {
      "buffer": 0,
      "byteLength": 48,
      "name": "Positions"
    },
    {
      "buffer": 0,
      "byteOffset": 48,
      "byteLength": 48,
      "name": "Normals"
    },
    {
      "buffer": 0,
      "byteOffset": 96,
      "byteLength": 64,
      "name": "Tangents"
    },
    {
      "buffer": 0,
      "byteOffset": 160,
      "byteLength": 64,
      "name": "Colors"
    },
    {
      "buffer": 0,
      "byteOffset": 224,
      "byteLength": 32,
      "name": "Texture Coords 0"
    },
    {
      "buffer": 0,
      "byteOffset": 256,
      "byteLength": 32,
      "name": "Texture Coords 1"
    },
    {
      "buffer": 0,
      "byteOffset": 288,
      "byteLength": 24,
      "name": "Indices"
    }
  ],
  "images": [
    {
      "uri": "Texture_baseColor.png"
    },
    {
      "uri": "Texture_normal.png"
    }
  ],
  "materials": [
    {
      "pbrMetallicRoughness": {
        "baseColorTexture": {
          "index": 0,
          "texCoord": 1
        }
      },
      "normalTexture": {
        "index": 1,
        "texCoord": 1
      }
    }
  ],
  "meshes": [
    {
      "primitives": [
        {
          "attributes": {
            "POSITION": 0,
            "NORMAL": 1,
            "TANGENT": 2,
            "COLOR_0": 3,
            "TEXCOORD_0": 4,
            "TEXCOORD_1": 5
          },
          "indices": 6,
          "material": 0
        }
      ]
    }
  ],
  "nodes": [
    {
      "mesh": 0
    }
  ],
  "scene": 0,
  "scenes": [
    {
      "nodes": [
        0
      ]
    }
  ],
  "textures": [
    {
      "source": 0
    },
    {
      "source": 1
    }
  ]
}