<svg xmlns="http://www.w3.org/2000/svg" width="48" height="48" viewBox="0 0 48 48"><path d="M24,9,11,16.5v15L24,39l13-7.5v-15l-4.07-2.35-.35-.05-4.65-2.56v-.28Z" style="fill:#bb464b"/><polygon points="36.99 16.5 32.92 14.15 29.01 16.41 33.08 18.76 36.99 16.5" style="fill:#e0684b"/><polygon points="14.92 18.76 27.91 11.26 24 9 11.01 16.5 14.92 18.76" style="fill:#e0684b"/><polygon points="19.93 26.35 24 28.7 28.07 26.35 24 24 19.93 26.35" style="fill:#e0684b"/><polygon points="33.08 18.76 28.07 21.65 28.07 26.35 24 28.7 24 34.48 33.08 29.24 33.08 18.76" style="fill:#e0ded8"/><polygon points="14.92 18.76 19.93 21.65 19.93 26.35 24 28.7 24 34.48 14.92 29.24 14.92 18.76" style="fill:#d5d2ca"/><polygon points="27.91 11.26 32.92 14.15 29.01 16.41 33.08 18.76 28.07 21.65 24 19.3 19.93 21.65 14.92 18.76 27.91 11.26" style="fill:#fff"/></svg>