{
  "accessors": [
    {
      "bufferView": 0,
      "componentType": 5126,
      "count": 3,
      "type": "VEC3",
      "max": [
        0.5,
        0.5,
        0.0
      ],
      "min": [
        -0.5,
        -0.5,
        0.0
      ],
      "name": "Positions Accessor"
    },
    {
      "bufferView": 1,
      "componentType": 5125,
      "count": 3,
      "type": "SCALAR",
      "name": "Indices Accessor"
    },
    {
      "bufferView": 2,
      "componentType": 5126,
      "count": 3,
      "type": "VEC3",
      "max": [
        0.5,
        0.5,
        0.0
      ],
      "min": [
        -0.5,
        -0.5,
        0.0
      ],
      "name": "Positions Accessor"
    },
    {
      "bufferView": 3,
      "componentType": 5126,
      "count": 3,
      "type": "VEC3",
      "name": "Normals Accessor"
    },
    {
      "bufferView": 4,
      "componentType": 5125,
      "count": 3,
      "type": "SCALAR",
      "name": "Indices Accessor"
    },
    {
      "bufferView": 5,
      "componentType": 5126,
      "count": 3,
      "type": "VEC3",
      "max": [
        0.5,
        -0.5,
        0.0
      ],
      "min": [
        -0.5,
        -1.5,
        0.0
      ],
      "name": "Positions Accessor"
    },
    {
      "bufferView": 6,
      "componentType": 5126,
      "count": 3,
      "type": "VEC3",
      "name": "Normals Accessor"
    },
    {
      "bufferView": 7,
      "componentType": 5125,
      "count": 3,
      "type": "SCALAR",
      "name": "Indices Accessor"
    }
  ],
  "asset": {
    "generator": "glTF Asset Generator",
    "version": "2.0",
    "extras": {
      "Attributes": "Primitives_Split4"
    }
  },
  "buffers": [
    {
      "uri": "NoNormalsTop.bin",
      "byteLength": 216
    }
  ],
  "bufferViews": [
    {
      "buffer": 0,
      "byteLength": 36,
      "name": "Positions"
    },
    {
      "buffer": 0,
      "byteOffset": 36,
      "byteLength": 12,
      "name": "Indices"
    },
    {
      "buffer": 0,
      "byteOffset": 48,
      "byteLength": 36,
      "name": "Positions"
    },
    {
      "buffer": 0,
      "byteOffset": 84,
      "byteLength": 36,
      "name": "Normals"
    },
    {
      "buffer": 0,
      "byteOffset": 120,
      "byteLength": 12,
      "name": "Indices"
    },
    {
      "buffer": 0,
      "byteOffset": 132,
      "byteLength": 36,
      "name": "Positions"
    },
    {
      "buffer": 0,
      "byteOffset": 168,
      "byteLength": 36,
      "name": "Normals"
    },
    {
      "buffer": 0,
      "byteOffset": 204,
      "byteLength": 12,
      "name": "Indices"
    }
  ],
  "meshes": [
    {
      "primitives": [
        {
          "attributes": {
            "POSITION": 0
          },
          "indices": 1
        },
        {
          "attributes": {
            "POSITION": 2,
            "NORMAL": 3
          },
          "indices": 4
        },
        {
          "attributes": {
            "POSITION": 5,
            "NORMAL": 6
          },
          "indices": 7
        }
      ]
    }
  ],
  "nodes": [
    {
      "mesh": 0
    }
  ],
  "scene": 0,
  "scenes": [
    {
      "nodes": [
        0
      ]
    }
  ]
}