<svg id="Layer_1" data-name="Layer 1" xmlns="http://www.w3.org/2000/svg" viewBox="0 0 1620 436"><defs><style>.cls-1{fill:#fff;}.cls-2{fill:#e0684b;}.cls-3{fill:#bb464b;}.cls-4{fill:#e0ded8;}.cls-5{fill:#d5d2ca;}</style></defs><title>babylonNative_identity_dark</title><path class="cls-1" d="M238.24,89.38l-110.85,64v128l110.85,64,110.85-64v-128Z"/><polygon class="cls-2" points="349.09 153.38 314.39 133.35 281.02 152.62 315.71 172.65 349.09 153.38"/><polygon class="cls-2" points="160.77 172.65 271.62 108.65 238.24 89.38 127.39 153.38 160.77 172.65"/><polygon class="cls-2" points="203.55 237.41 238.24 257.44 272.94 237.41 238.24 217.38 203.55 237.41"/><polygon class="cls-3" points="315.71 172.65 315.71 262.1 238.24 306.83 160.77 262.1 160.77 172.65 127.39 153.38 127.39 281.37 238.24 345.37 349.09 281.37 349.09 153.38 315.71 172.65"/><polygon class="cls-3" points="238.24 177.31 203.55 197.34 203.55 237.41 238.24 217.38 272.94 237.41 272.94 197.34 238.24 177.31"/><polygon class="cls-4" points="315.71 172.65 272.94 197.34 272.94 237.41 238.24 257.44 238.24 306.83 315.71 262.1 315.71 172.65"/><polygon class="cls-5" points="160.77 172.65 203.55 197.34 203.55 237.41 238.24 257.44 238.24 306.83 160.77 262.1 160.77 172.65"/><polygon class="cls-1" points="271.62 108.65 314.39 133.35 281.02 152.62 315.71 172.65 272.94 197.34 238.24 177.31 203.55 197.34 160.77 172.65 271.62 108.65"/><path class="cls-5" d="M390.24,153.3H412V202c3.86-6.48,11.57-12.79,26.81-12.79,23.82,0,36.79,19.62,36.79,45.37,0,26.46-13.49,48.88-39.25,48.88-13.66,0-20.14-4.55-24.52-11.74a67.36,67.36,0,0,1-.88,9.64H390.06c.18-9.81.18-19.8.18-29.78Zm42.22,53.6c-15.77,0-21.55,10.52-21.55,29.79,0,16.46,5.08,29.25,21.2,29.25,13.66,0,21.2-12.26,21.2-30.83C453.31,218.64,446.65,206.9,432.46,206.9Z"/><path class="cls-5" d="M564.2,259.29c0,8.4.7,19.79,1.23,22.07H544.58c-.7-1.93-1.23-6.48-1.4-9.81-3.16,5.43-9.64,11.91-26.11,11.91-21.54,0-30.65-14.19-30.65-28,0-20.32,16.29-29.78,42.74-29.78h13.67v-6.13c0-7-2.28-14.37-15.77-14.37-11.91,0-14.36,5.43-15.59,12.09H490.62c1.23-14.72,10.51-28.2,37.32-28,23.47.18,36.26,9.46,36.26,30.48Zm-21.2-20H531.26c-15.94,0-22.94,4.73-22.94,14.89,0,7.36,4.9,13.32,14.54,13.32,17.86,0,20.14-12.26,20.14-25.58Z"/><path class="cls-5" d="M583.82,153.3h21.72V202c3.86-6.48,11.57-12.79,26.81-12.79,23.82,0,36.79,19.62,36.79,45.37,0,26.46-13.49,48.88-39.24,48.88-13.67,0-20.15-4.55-24.53-11.74a67.36,67.36,0,0,1-.88,9.64H583.65c.17-9.81.17-19.8.17-29.78ZM626,206.9c-15.76,0-21.55,10.52-21.55,29.79,0,16.46,5.08,29.25,21.2,29.25,13.67,0,21.2-12.26,21.2-30.83C646.89,218.64,640.23,206.9,626,206.9Z"/><path class="cls-5" d="M696.47,191.31c11.21,35.22,19.27,61.49,21,70.25h.17c2.28-9.46,7.89-29.78,20-70.25h21.72l-31,93.2c-8.76,26.1-15.77,33.46-36.26,33.46a93.92,93.92,0,0,1-11-.7V299.4c1.93.18,4.56.35,6.83.35,9.81,0,14.37-3.68,18.4-15.41l-33.11-93Z"/><path class="cls-5" d="M769,281.36V153.3h21.72V281.36Z"/><path class="cls-5" d="M893.55,236.16c0,26.8-15.76,47.3-44,47.3-27.33,0-43.27-20-43.27-46.95,0-27.33,16.29-47.3,44.32-47.3C876.74,189.21,893.55,208,893.55,236.16Zm-65.17.18c0,18.21,8.24,29.78,21.73,29.78,13.66,0,21.19-11.39,21.19-29.61,0-19.44-7.53-30-21.54-30C836.44,206.55,828.38,216.71,828.38,236.34Z"/><path class="cls-5" d="M909.32,213.91c0-7.71,0-15.77-.17-22.6h21a98.33,98.33,0,0,1,.87,12.62c3.16-6.31,10.51-14.72,26.81-14.72,17.69,0,29.95,11.56,29.95,34.69v57.46H966.08v-55c0-11.21-4-19.27-15.94-19.27-12.79,0-19.1,8.23-19.1,24.88v49.4H909.32Z"/><path class="cls-5" d="M1008.48,281.36V252.28h23.3v29.08Z"/><path class="cls-5" d="M1054.38,215.49c0-7.71,0-15.42-.18-22.25h11.39a156.77,156.77,0,0,1,.52,15.77c3.68-8.41,10.87-17.87,28.56-17.87,16.12,0,29.61,9.28,29.61,33.28v56.94h-11.74V226c0-14.54-6-24.18-20.5-24.18-18.92,0-25.93,15.25-25.93,33.81v45.73h-11.73Z"/><path class="cls-5" d="M1209.94,263.49a114.75,114.75,0,0,0,1.23,17.87H1200c-.7-2.1-1.23-6.13-1.4-12.61-3.16,6.13-10.51,14.71-28.21,14.71-20.67,0-29.43-13.31-29.43-26.63,0-19.62,15.24-28.38,41.52-28.38h15.94V220c0-8.41-2.63-19.09-21-19.09-16.47,0-18.92,8.41-20.67,15.41h-11.57c1.06-10.68,7.71-25.22,32.59-25.22,20.67,0,32.23,8.58,32.23,28.2Zm-11.38-26.1h-15.94c-18.58,0-29.61,4.9-29.61,18.74,0,10.34,7.18,17.52,18.92,17.52,23.47,0,26.63-15.59,26.63-33.28Z"/><path class="cls-5" d="M1216.78,193.24h15.94v-26.8h11.74v26.8h20.32V203.4h-20.32v54.66c0,9.28,2.1,14.36,10.33,14.36a35.16,35.16,0,0,0,8.41-.87V281c-3.33,1.22-7.88,1.57-11.91,1.57-12.44,0-18.57-6.3-18.57-20.67V203.4h-15.94Z"/><path class="cls-5" d="M1282.12,170.47V152.42h11.74v18.05Zm0,22.77h11.74v88.12h-11.74Z"/><path class="cls-5" d="M1320,193.24c13.14,38.37,22.42,65.69,25.58,76.73h.17c1.93-8.06,11.57-34.34,27-76.73h12.09l-32.94,88.12h-13.31l-31.18-88.12Z"/><path class="cls-5" d="M1398.09,239.14c0,20.5,10.34,34,26.46,34,15.41,0,20.49-8.41,23.47-15.25h11.91c-3.68,11.57-13,25.58-35.73,25.58-27.33,0-38-22.77-38-45.37,0-25.58,12.79-47,38.89-47,27.86,0,36.79,23.12,36.79,40.64,0,2.63,0,5.08-.17,7.36Zm51.68-9.11c-.17-16.12-8.58-28.91-24.87-28.91-17,0-24.53,11.74-26.28,28.91Z"/></svg>