<?xml version="1.0" encoding="UTF-8"?>
<svg width="20px" height="20px" viewBox="0 0 20 20" version="1.1" xmlns="http://www.w3.org/2000/svg" xmlns:xlink="http://www.w3.org/1999/xlink">
    <!-- Generator: Sketch 52.5 (67469) - http://www.bohemiancoding.com/sketch -->
    <title>Instagram</title>
    <desc>Created with Sketch.</desc>
    <g id="Page-1" stroke="none" stroke-width="1" fill="none" fill-rule="evenodd">
        <path d="M5.71428571,1.78571429 C3.54459563,1.78571429 1.78571429,3.54459563 1.78571429,5.71428571 L1.78571429,14.2857143 C1.78571429,16.4554044 3.54459563,18.2142857 5.71428571,18.2142857 L14.2857143,18.2142857 C16.4554044,18.2142857 18.2142857,16.4554044 18.2142857,14.2857143 L18.2142857,5.71428571 C18.2142857,3.54459563 16.4554044,1.78571429 14.2857143,1.78571429 L5.71428571,1.78571429 Z M5.71428571,0 L14.2857143,0 C17.4416271,0 20,2.55837286 20,5.71428571 L20,14.2857143 C20,17.4416271 17.4416271,20 14.2857143,20 L5.71428571,20 C2.55837286,20 0,17.4416271 0,14.2857143 L0,5.71428571 C0,2.55837286 2.55837286,0 5.71428571,0 Z M10,15.1785714 C7.13995397,15.1785714 4.82142857,12.860046 4.82142857,10 C4.82142857,7.13995397 7.13995397,4.82142857 10,4.82142857 C12.860046,4.82142857 15.1785714,7.13995397 15.1785714,10 C15.1785714,12.860046 12.860046,15.1785714 10,15.1785714 Z M10,13.3928571 C11.8738233,13.3928571 13.3928571,11.8738233 13.3928571,10 C13.3928571,8.12617674 11.8738233,6.60714286 10,6.60714286 C8.12617674,6.60714286 6.60714286,8.12617674 6.60714286,10 C6.60714286,11.8738233 8.12617674,13.3928571 10,13.3928571 Z M15,5.71428571 C14.2110218,5.71428571 13.5714286,5.0746925 13.5714286,4.28571429 C13.5714286,3.49673607 14.2110218,2.85714286 15,2.85714286 C15.7889782,2.85714286 16.4285714,3.49673607 16.4285714,4.28571429 C16.4285714,5.0746925 15.7889782,5.71428571 15,5.71428571 Z" id="Instagram" fill="#D8D8D8" fill-rule="nonzero"></path>
    </g>
</svg>