<?xml version="1.0" encoding="UTF-8"?>
<svg width="20px" height="20px" viewBox="0 0 20 20" version="1.1" xmlns="http://www.w3.org/2000/svg" xmlns:xlink="http://www.w3.org/1999/xlink">
    <!-- Generator: Sketch 53.2 (72643) - https://sketchapp.com -->
    <title>twitch</title>
    <desc>Created with Sketch.</desc>
    <g id="Design" stroke="none" stroke-width="1" fill="none" fill-rule="evenodd">
        <g id="Add-Plan-Empty-4-concept-2" transform="translate(-141.000000, -554.000000)">
            <rect fill="#3B0B54" x="0" y="0" width="375" height="812"></rect>
            <g id="twitch" transform="translate(141.000000, 554.000000)" fill="#C4C4C4">
                <path d="M5.32,19.6296296 L5.32,17.4074074 L0,17.4074074 L0,3.33333333 L1.9,0 L19,0 L19,11.8518519 L13.3,17.4074074 L9.5,17.4074074 L7.22,19.6296296 L5.32,19.6296296 Z M3.8,2.59259259 L15.96,2.59259259 L15.96,10.3703704 L13.3,12.962963 L9.88,12.962963 L7.98,14.8148148 L7.98,12.962963 L3.8,12.962963 L3.8,2.59259259 Z M8.36,4.81481481 L9.88,4.81481481 L9.88,10 L8.36,10 L8.36,4.81481481 Z M13.68,4.81481481 L12.16,4.81481481 L12.16,10 L13.68,10 L13.68,4.81481481 Z" id="Shape"></path>
            </g>
        </g>
    </g>
</svg>