<svg xmlns="http://www.w3.org/2000/svg" viewBox="0 0 34.8 40.18"><defs><style>.cls-1{fill:#e0684b;}.cls-2{fill:#bb464b;}.cls-3{fill:#e0ded8;}.cls-4{fill:#d5d2ca;}.cls-5{fill:#fff;}</style></defs><title>BabylonLogoSmall</title><g id="Layer_2" data-name="Layer 2"><g id="Header_Bar" data-name="Header Bar"><polygon class="cls-1" points="34.8 10.04 29.35 6.9 24.11 9.93 29.56 13.07 34.8 10.04"/><polygon class="cls-1" points="5.24 13.07 22.64 3.02 17.4 0 0 10.04 5.24 13.07"/><polygon class="cls-1" points="11.95 23.23 17.4 26.38 22.84 23.23 17.4 20.09 11.95 23.23"/><polygon class="cls-2" points="29.56 13.07 29.56 27.11 17.4 34.13 5.24 27.11 5.24 13.07 0 10.04 0 30.13 17.4 40.18 34.8 30.13 34.8 10.04 29.56 13.07"/><polygon class="cls-2" points="17.4 13.8 11.95 16.95 11.95 23.23 17.4 20.09 22.84 23.23 22.84 16.95 17.4 13.8"/><polygon class="cls-3" points="29.56 13.07 22.84 16.95 22.84 23.23 17.4 26.38 17.4 34.13 29.56 27.11 29.56 13.07"/><polygon class="cls-4" points="5.24 13.07 11.95 16.95 11.95 23.23 17.4 26.38 17.4 34.13 5.24 27.11 5.24 13.07"/><polygon class="cls-5" points="22.64 3.02 29.35 6.9 24.11 9.93 29.56 13.07 22.84 16.95 17.4 13.8 11.95 16.95 5.24 13.07 22.64 3.02"/></g></g></svg>