<svg xmlns="http://www.w3.org/2000/svg" viewBox="0 0 117.23 34.13"><defs><style>.cls-1{fill:#fff;}</style></defs><title>MixerIcon</title><g id="Layer_2" data-name="Layer 2"><g id="Footer_Logos" data-name="Footer Logos"><path class="cls-1" d="M41.56,10a2.79,2.79,0,0,0-2.8,2.79V32.82l.73.74h4.13l.73-.74V12.74A2.78,2.78,0,0,0,41.56,10"/><path class="cls-1" d="M26.61,10a8.35,8.35,0,0,0-7.55,4.13C16.72,8.56,8.75,8.68,5.44,13.77A4.87,4.87,0,0,0,.7,10H0V32.82a.73.73,0,0,1,.73.74H4.86a.74.74,0,0,1,.74-.74V20.64c0-3.07,1.46-6,4.5-6,2.83,0,4.2,1.81,4.2,5.53V32.8a.74.74,0,0,1,.73.74h4.13a.74.74,0,0,1,.73-.74V20.64c0-2.92,1.64-6,4.5-6,3.54,0,4.25,2.39,4.25,6V32.82a.74.74,0,0,1,.74.74h4.14a.74.74,0,0,1,.73-.74V19.38c0-5.7-2-9.42-7.64-9.42"/><path class="cls-1" d="M53.92,11a2.79,2.79,0,0,0-4.12-.39,2.89,2.89,0,0,0-.29,3.84L55.12,22l-5.65,7.59a2.88,2.88,0,0,0,.29,3.84A2.8,2.8,0,0,0,53.89,33l7.88-10.59a.74.74,0,0,0,0-.87Z"/><path class="cls-1" d="M71.22,11a2.8,2.8,0,0,1,4.13-.39,2.89,2.89,0,0,1,.29,3.84L70,22l5.64,7.59a2.87,2.87,0,0,1-.29,3.84A2.79,2.79,0,0,1,71.26,33L63.39,22.4a.74.74,0,0,1,0-.87Z"/><path class="cls-1" d="M86.25,15.9a4.72,4.72,0,0,1,3.43-1.47A4.33,4.33,0,0,1,93,15.76a5.6,5.6,0,0,1,1.19,3.69H84.46a6.76,6.76,0,0,1,1.79-3.55m9.06,13.31a.65.65,0,0,0-.72-.23h0c-2.91,1-9.65,1.61-10.15-5.22h12.9a2.48,2.48,0,0,0,2.49-2.49c0-3.08-.56-6.07-2.66-8.37C92,7.22,78.71,9.37,78.71,22.25c0,13.35,12.49,13.06,18.15,10.47a.71.71,0,0,0,.27-1.09Z"/><path class="cls-1" d="M116.7,10.3h0a9,9,0,0,0-3.1-.1,6.71,6.71,0,0,0-4.35,4A4.87,4.87,0,0,0,104.42,10h-.72V32.82a.74.74,0,0,0,.74.74h4.12a.74.74,0,0,0,.74-.74v-11c0-4.57,2.57-7.78,6.94-6.16a.73.73,0,0,0,1-.68V11a.74.74,0,0,0-.53-.72"/><path class="cls-1" d="M38.57,3a3,3,0,1,0,3-3,3,3,0,0,0-3,3"/></g></g></svg>