<svg xmlns="http://www.w3.org/2000/svg" viewBox="0 0 56 56"><defs><style>.cls-1{fill:none;}.cls-2{fill:#fff;}</style></defs><title>TestIcon</title><g id="Layer_2" data-name="Layer 2"><g id="Intro_and_Links" data-name="Intro and Links"><rect class="cls-1" width="56" height="56"/><path class="cls-2" d="M44.77,26.57a3.61,3.61,0,0,0-.74-1.1,3.51,3.51,0,0,0-1.11-.73,3.62,3.62,0,0,0-1.36-.26,3.78,3.78,0,0,0-1.33.25,3.41,3.41,0,0,0-1.13.74L38,26.55V20.22l-10-5-10,5V33.48l8.76,4.37-.11.12L25,44.53l6.56-1.64L44,30.38a3.49,3.49,0,0,0,.75-1.13A3.57,3.57,0,0,0,45,27.93,3.4,3.4,0,0,0,44.77,26.57ZM28,17.72l6.42,3.2L28,24.12l-6.42-3.2Zm-7.8,5,6.69,3.34v9.38L20.2,32.11Zm8.91,12.72V26.05l6.69-3.34v6.07l-6.6,6.61Zm13.33-6.62-12,12.06-2.35.6.59-2.35L40.69,27a.94.94,0,0,1,.4-.25,1.36,1.36,0,0,1,1.36.26,1.15,1.15,0,0,1,.36.88A1.18,1.18,0,0,1,42.44,28.81Z"/></g></g></svg>