<svg xmlns="http://www.w3.org/2000/svg" viewBox="0 0 56 56"><defs><style>.cls-1{fill:none;}.cls-2{fill:#fff;}</style></defs><title>TryIcon</title><g id="Layer_2" data-name="Layer 2"><g id="Intro_and_Links" data-name="Intro and Links"><rect class="cls-1" width="56" height="56"/><path class="cls-2" d="M40.38,19a4.28,4.28,0,0,1-.32,1.61A4,4,0,0,1,39.14,22L22.52,38.66l-8,2,2-8L33.15,16.05a4.09,4.09,0,0,1,1.39-.93,4.27,4.27,0,0,1,1.61-.31,4.11,4.11,0,0,1,1.64.33,4.52,4.52,0,0,1,1.35.91A4.31,4.31,0,0,1,40,17.4,4,4,0,0,1,40.38,19ZM16.76,38.43l4.15-1a4.15,4.15,0,0,0-.41-1.1,4,4,0,0,0-.69-.92,4.18,4.18,0,0,0-.92-.69,4,4,0,0,0-1.1-.41Zm1.89-5.6A5.63,5.63,0,0,1,21,34.24a5.73,5.73,0,0,1,1.41,2.3L36,22.89l-3.7-3.7Zm18.5-11.09.6-.6a4,4,0,0,0,.52-.58,2.89,2.89,0,0,0,.36-.67,2.39,2.39,0,0,0,.13-.84,2.69,2.69,0,0,0-.2-1A2.79,2.79,0,0,0,38,17.2a2.71,2.71,0,0,0-.84-.57,2.44,2.44,0,0,0-1-.21,2.38,2.38,0,0,0-.84.14,2.89,2.89,0,0,0-.67.36,4.69,4.69,0,0,0-.59.51c-.18.2-.38.4-.59.61Z"/></g></g></svg>