<svg xmlns="http://www.w3.org/2000/svg" xmlns:xlink="http://www.w3.org/1999/xlink" viewBox="0 0 35.43 24.96"><defs><style>.cls-1{fill:none;}.cls-2{clip-path:url(#clip-path);}.cls-3{fill:#fff;}</style><clipPath id="clip-path" transform="translate(-1.61 -6.84)"><rect class="cls-1" width="38.65" height="38.65"/></clipPath></defs><title>YouTubeIcon</title><g id="Layer_2" data-name="Layer 2"><g id="Footer_Logos" data-name="Footer Logos"><g class="cls-2"><g class="cls-2"><path class="cls-3" d="M36.3,10.74a4.46,4.46,0,0,0-3.14-3.15c-2.76-.75-13.84-.75-13.84-.75s-11.07,0-13.84.75a4.46,4.46,0,0,0-3.13,3.15c-.74,2.78-.74,8.58-.74,8.58a46.84,46.84,0,0,0,.74,8.59,4.46,4.46,0,0,0,3.13,3.15c2.77.74,13.84.74,13.84.74s11.08,0,13.84-.74a4.46,4.46,0,0,0,3.14-3.15A46.84,46.84,0,0,0,37,19.32s0-5.8-.74-8.58M15.7,24.59V14.06L25,19.32Z" transform="translate(-1.61 -6.84)"/></g></g></g></g></svg>