{
  "accessors": [
    {
      "bufferView": 0,
      "componentType": 5126,
      "count": 4,
      "type": "VEC3",
      "max": [
        -0.5,
        -0.5,
        0.0
      ],
      "min": [
        0.5,
        0.5,
        0.0
      ],
      "name": "Positions Accessor"
    },
    {
      "bufferView": 1,
      "componentType": 5126,
      "count": 4,
      "type": "VEC3",
      "name": "Normals Accessor"
    },
    {
      "bufferView": 2,
      "componentType": 5125,
      "count": 6,
      "type": "SCALAR",
      "name": "Indices Accessor"
    },
    {
      "bufferView": 3,
      "componentType": 5126,
      "count": 4,
      "type": "VEC2",
      "name": "UV Accessor 0"
    }
  ],
  "asset": {
    "generator": "glTF Asset Generator",
    "version": "2.0",
    "extras": {
      "Attributes": "NormalTexture - Scale"
    }
  },
  "buffers": [
    {
      "uri": "Material_05.bin",
      "byteLength": 152
    }
  ],
  "bufferViews": [
    {
      "buffer": 0,
      "byteLength": 48,
      "name": "Positions"
    },
    {
      "buffer": 0,
      "byteOffset": 48,
      "byteLength": 48,
      "name": "Normals"
    },
    {
      "buffer": 0,
      "byteOffset": 96,
      "byteLength": 24,
      "name": "Indices"
    },
    {
      "buffer": 0,
      "byteOffset": 120,
      "byteLength": 32,
      "name": "Texture Coords 0"
    }
  ],
  "images": [
    {
      "uri": "panel_normal.png"
    }
  ],
  "materials": [
    {
      "pbrMetallicRoughness": {
        "baseColorFactor": [
          0.2,
          0.2,
          0.2,
          1.0
        ],
        "metallicFactor": 0.0
      },
      "normalTexture": {
        "index": 0,
        "scale": 10.0
      }
    }
  ],
  "meshes": [
    {
      "primitives": [
        {
          "attributes": {
            "POSITION": 0,
            "NORMAL": 1,
            "TEXCOORD_0": 3
          },
          "indices": 2,
          "material": 0
        }
      ]
    }
  ],
  "nodes": [
    {
      "mesh": 0
    }
  ],
  "scene": 0,
  "scenes": [
    {
      "nodes": [
        0
      ]
    }
  ],
  "textures": [
    {
      "source": 0
    }
  ]
}