<svg fill="#FFFFFF" xmlns="http://www.w3.org/2000/svg" xmlns:xlink="http://www.w3.org/1999/xlink" viewBox="0 0 84 84" version="1.1" x="0px" y="0px"><title>vr10</title><desc>Created with Sketch.</desc><g stroke="none" stroke-width="1" fill="none" fill-rule="evenodd"><g fill="#FFFFFF"><path d="M78,34 L78,36.5039297 C78,37.8824713 76.8903379,39 75.5,39 L74.8668036,39 C74.8075232,39.5730331 74.7327607,40.1161784 74.6421297,40.6185156 L74.2438095,42.8262716 C73.6634484,46.0430197 70.5863409,48.6592084 67.3100651,48.7315972 C67.1368029,49.0832487 66.9534663,49.4121738 66.7616365,49.7117001 L57.5464441,64.1004618 C55.4597343,67.3586868 50.6761779,70.5254765 46.8714749,71.1720865 L44.9543802,71.4978971 C43.3227034,71.7752009 40.6728869,71.7744623 39.0455559,71.4978971 L37.1284611,71.1720865 C33.3195482,70.524761 28.5377078,67.3547927 26.4534919,64.1004618 L17.2382995,49.7117001 C17.0466538,49.4124612 16.8634472,49.0834999 16.6902739,48.7315873 C13.4236116,48.6589333 10.3363776,46.0403537 9.75649747,42.8262716 L9.35817728,40.6185156 C8.6721014,36.8158258 8.89549921,30.6938773 9.85498064,26.9532195 L10.9879942,22.5360249 C11.8100397,19.3311782 15.1616278,16.6421864 18.4687875,16.5301694 L20.9267659,16.446915 C25.2578298,10.7575333 32.1115175,7 39.4702594,7 L44.5296767,7 C51.8854433,7 58.7409034,10.7563586 63.0731752,16.4469026 L65.5315195,16.5301694 C68.841002,16.6422651 72.1908823,19.3335761 73.0123127,22.5360249 L74.1453263,26.9532195 C74.2303228,27.2845888 74.3095293,27.6346039 74.3828302,28 L75.5,28 C76.8807119,28 78,29.1152735 78,30.4960703 L78,32 C80.7614237,32 83,34.2385763 83,37 L83,71.5 C83,72.0522847 82.5522847,72.5 82,72.5 C81.4477153,72.5 81,72.0522847 81,71.5 L81,37 C81,35.3431458 79.6568542,34 78,34 L78,34 Z M62.6383313,48.7331367 L54.1780373,61.9431868 C52.6996299,64.2515979 48.8962765,66.7706161 46.2012838,67.2286306 L44.2841891,67.5544413 C43.0977404,67.7560784 40.9010803,67.7558889 39.7157469,67.5544413 L37.7986522,67.2286306 C35.1027534,66.7704621 31.2996216,64.2505289 29.8218987,61.9431868 L21.3616048,48.7331367 L62.6383313,48.7331367 L62.6383313,48.7331367 Z M57.5176989,16.2587326 C54.0204099,13.0210969 49.3938991,11 44.5296767,11 L39.4702594,11 C34.6052821,11 29.9789529,13.0212256 26.4819557,16.2587547 L29.007659,16.1732064 C36.1832156,15.9301626 47.8154671,15.9301076 54.992648,16.1732064 L57.5176989,16.2587326 L57.5176989,16.2587326 Z M13.6929432,42.1160636 C13.9375498,43.4718368 15.4474598,44.7331367 16.8294525,44.7331367 L67.1708545,44.7331367 C68.5598044,44.7331367 70.0617195,43.4775879 70.3073638,42.1160636 L70.705684,39.9083077 C71.2888343,36.6761 71.0877134,31.1320629 70.2707552,27.9470498 L69.1377416,23.5298552 C68.7574616,22.0472862 66.9300255,20.5798321 65.3961128,20.5278768 L54.8572413,20.1709139 C47.7708686,19.9308908 36.22894,19.9309077 29.1430657,20.1709139 L18.6041942,20.5278768 C17.0706101,20.579821 15.2429649,22.0468203 14.8625654,23.5298552 L13.7295518,27.9470498 C12.912567,31.1321665 12.7108989,36.6729197 13.294623,39.9083077 L13.6929432,42.1160636 L13.6929432,42.1160636 Z M42.0000003,60.9999997 C45.5559393,60.9999997 48.9806675,59.6112156 51.5459418,57.0459412 C52.1317283,56.4601548 52.1317283,55.5104073 51.5459418,54.9246209 C50.9601554,54.3388345 50.0104079,54.3388345 49.4246215,54.9246209 C47.4277392,56.9215032 44.7681773,57.9999997 42.0000003,57.9999997 C39.2318232,57.9999997 36.5722614,56.9215032 34.5753791,54.9246209 C33.9895926,54.3388345 33.0398452,54.3388345 32.4540587,54.9246209 C31.8682723,55.5104073 31.8682723,56.4601548 32.4540587,57.0459412 C35.019333,59.6112156 38.4440612,60.9999997 42.0000003,60.9999997 L42.0000003,60.9999997 Z M24.7297871,25.6844262 C25.1203114,25.2939019 25.1203113,24.660737 24.729787,24.2702127 C24.3392627,23.8796884 23.7060978,23.8796884 23.3155735,24.2702127 L17.7928932,29.7928932 C17.4023689,30.1834175 17.4023689,30.8165825 17.7928932,31.2071068 C18.1834175,31.5976311 18.8165825,31.5976311 19.2071068,31.2071068 L24.7297871,25.6844262 L24.7297871,25.6844262 Z M31.7297871,26.6844263 C32.1203114,26.293902 32.1203114,25.660737 31.7297871,25.2702127 C31.3392628,24.8796884 30.7060978,24.8796884 30.3155735,25.2702127 L18.7928932,36.7928932 C18.4023689,37.1834175 18.4023689,37.8165825 18.7928932,38.2071068 C19.1834175,38.5976311 19.8165825,38.5976311 20.2071068,38.2071068 L31.7297871,26.6844263 L31.7297871,26.6844263 Z"/></g></g></svg>