{"asset":{"version":"2.0","generator":"babylon.js glTF exporter for maya 2018 v1.2.30"},"scene":0,"scenes":[{"nodes":[0],"extensions":{}}],"nodes":[{"mesh":0,"translation":[0.0,0.0,0.0],"rotation":[0.0,0.0,0.0,1.0],"scale":[1.0,1.0,1.0],"name":"evergreen2_low"}],"meshes":[{"primitives":[{"attributes":{"POSITION":1,"NORMAL":2,"TEXCOORD_0":3},"indices":0,"mode":4,"material":0}],"name":"evergreen2_low"}],"accessors":[{"bufferView":0,"componentType":5123,"count":1308,"type":"SCALAR","name":"accessorIndices"},{"bufferView":1,"componentType":5126,"count":919,"max":[5.16411829,16.7655487,4.44892073],"min":[-4.031206,-2.525704,-5.16537857],"type":"VEC3","name":"accessorPositions"},{"bufferView":1,"byteOffset":11028,"componentType":5126,"count":919,"type":"VEC3","name":"accessorNormals"},{"bufferView":2,"componentType":5126,"count":919,"type":"VEC2","name":"accessorUVs"}],"bufferViews":[{"buffer":0,"byteLength":2616,"name":"bufferViewScalar"},{"buffer":0,"byteOffset":2616,"byteLength":22056,"byteStride":12,"name":"bufferViewFloatVec3"},{"buffer":0,"byteOffset":24672,"byteLength":7352,"byteStride":8,"name":"bufferViewFloatVec2"}],"buffers":[{"uri":"evergreen2.bin","byteLength":32024}],"materials":[{"pbrMetallicRoughness":{"baseColorFactor":[1.0,1.0,1.0,1.0],"baseColorTexture":{"index":0,"texCoord":0},"metallicFactor":0.0,"roughnessFactor":0.6853147},"emissiveFactor":[0.0,0.0,0.0],"alphaMode":"OPAQUE","name":"evergreenMat"}],"textures":[{"sampler":0,"source":0,"name":"evergreen_baseColor.png"}],"images":[{"uri":"evergreen_baseColor.png"}],"samplers":[{"magFilter":9729,"minFilter":9987,"wrapS":10497,"wrapT":10497}]}