<svg width="304px" height="122px" viewBox="-30 0 274 122" version="1.1" xmlns="http://www.w3.org/2000/svg" xmlns:xlink="http://www.w3.org/1999/xlink">
                            <title>evian logo</title>
                            <defs>
                                <polygon id="path-1" points="3.81581209e-05 0.12312 43.4124765 0.12312 43.4124765 50.4 3.81581209e-05 50.4"></polygon>
                                <polygon id="path-3" points="0.549796452 0.4056 63.9361965 0.4056 63.9361965 49.40538 0.549796452 49.40538"></polygon>
                                <polygon id="path-5" points="5.06503645 0.9858 1.01683645 0.591 0.448036452 0.537"></polygon>
                                <polygon id="path-7" points="0.101716452 0.14622 6.91303645 0.14622 6.91303645 7.09422 0.101716452 7.09422"></polygon>
                            </defs>
                            <g id="Symbols" stroke="none" stroke-width="1" fill="none" fill-rule="evenodd">
                                <polygon id="Fill-1" class="non-sticky paths logo-v" fill="#EC174F" points="43.5367965 70.01412 62.8765965 118.95192 69.5893965 118.95192 89.0209965 70.01412 80.5177965 70.01412 66.6907965 105.84732 53.7487965 70.01412"></polygon>
                                <g id="Group-22" transform="translate(0.000000, 0.194400)">
                                    <g id="Group-4" transform="translate(0.000000, 69.600000)">
                                        <mask id="mask-2" fill="white">
                                            <use xlink:href="#path-1"></use>
                                        </mask>
                                        <g id="Clip-3"></g>
                                        <path class="e-sticky paths" d="M33.7410765,19.69332 L9.75427645,19.69092 C10.7298765,11.83452 15.1752765,7.35792 22.2888765,7.35792 C28.8450765,7.35792 33.2394765,12.32232 33.7410765,19.69332 M9.45307645,26.67312 L43.4064765,26.65032 L43.4124765,26.54352 C43.4124765,9.19512 34.1202765,0.12312 22.3080765,0.12312 C9.09667645,0.12312 -0.0215235482,10.48032 3.8158119e-05,24.69732 C0.00727645175,39.17832 7.02067645,50.39832 22.9620765,50.4001356 C31.0608765,50.40732 36.5388765,47.92332 42.2826765,44.15712 L42.2826765,35.15652 C37.0050765,39.27912 30.3198765,43.06572 24.5664765,43.06572 C15.4320765,43.06572 9.45307645,37.14432 9.45307645,26.67312" id="Fill-2" fill="#EC174F" mask="url(#mask-2)"></path>
                                    </g>
                                    <polygon id="Fill-5" class="non-sticky paths logo-i" fill="#EC174F" points="102.854776 118.75602 102.864976 69.81942 94.3323765 69.81942 94.2993765 118.75602"></polygon>
                                    <polygon id="Fill-7" class="non-sticky paths logo-i-dot" fill="#EC174F" points="102.854776 65.17146 102.864976 56.66826 94.3323765 56.66826 94.2993765 65.17146"></polygon>
                                    <path class="non-sticky paths logo-n" d="M201.497296,118.73844 L201.528496,89.36064 C201.528496,83.31144 199.892896,78.09624 196.761496,74.37864 C193.644496,70.66164 189.027496,68.50344 183.256696,68.50344 C178.160896,68.50344 173.690896,70.50864 170.479096,73.89324 L170.479096,69.71304 L161.959696,69.71304 L161.959696,118.75764 L170.743696,118.75764 L170.743696,88.89264 C170.768896,82.05024 175.560496,76.98924 182.192296,76.97004 C189.157096,77.01264 192.767896,81.94944 192.820096,89.07444 L192.820096,118.73244 L192.809896,118.73244 L201.497296,118.73844" id="Fill-9" fill="#EC174F"></path>
                                    <path class="non-sticky paths logo-a" d="M119.665276,107.0619 C119.353876,106.4697 119.135476,105.8157 119.042476,105.0801 L119.042476,105.0375 L119.030476,104.9349 C119.002276,104.7147 118.992076,104.4591 118.980076,104.1819 C119.046676,100.4649 120.813076,97.1733 130.728676,96.4497 C135.441076,96.1089 140.189476,95.6073 143.493076,93.5913 C143.653276,93.4905 143.799076,93.3957 143.955076,93.2955 L144.102676,93.1947 L144.102676,99.4563 C144.078076,100.4883 143.955076,101.4537 143.733076,102.3243 C143.626876,102.7233 143.493076,103.1079 143.359276,103.4853 L143.319076,103.6035 C142.736476,105.0975 141.832276,106.3479 140.708476,107.3673 L140.470276,107.5977 L140.255476,107.7663 C137.455276,110.0493 133.424476,111.0999 129.190276,111.0999 C124.726276,111.0927 121.074676,109.7997 119.665276,107.0619 M153.828676,117.6495 C153.178276,115.9695 152.571076,112.6485 152.530276,110.3229 L152.530276,83.6541 C152.530276,79.0791 150.897076,75.1899 147.686476,72.5037 C144.462676,69.8019 139.700476,68.3085 133.477276,68.3085 L133.424476,68.3085 L133.397476,68.3043 C123.433276,68.3085 116.282476,72.7863 113.906476,80.0667 L113.819476,80.3685 L113.688076,80.7573 L123.286276,80.7573 L123.433276,80.5425 C125.610076,77.4675 129.840676,76.5771 133.341076,76.5771 L133.368676,76.5771 C141.064276,76.6239 144.091276,79.3449 144.102676,82.7721 L144.102676,82.7913 C144.091276,84.4551 143.334076,85.7325 141.132076,86.7519 C138.916276,87.7779 135.267076,88.4511 129.697276,88.7247 C117.784276,89.3127 110.475676,93.9993 110.475676,104.1063 L110.463676,104.1759 L110.475676,104.1759 L110.475676,104.2191 C110.496676,114.8757 119.348476,119.4663 128.911876,119.4699 L128.927476,119.4723 L128.953876,119.4723 C135.531676,119.4723 140.708476,117.4149 144.143476,113.7945 L144.288676,113.6415 L144.303676,113.8425 C144.501676,115.4955 144.886276,116.9079 145.402876,118.0533 L145.456876,118.1697 L145.523476,118.3491 L154.105276,118.3491 L153.828676,117.6495" id="Fill-11" fill="#EC174F"></path>
                                    <path class="hills paths" d="M69.1480965,10.84218 L58.1104965,18.63498 L53.3902965,26.13318 L48.0880965,27.53238 L40.1854965,33.74838 L31.3354965,44.81178 L24.1714965,50.20638 L35.0854965,50.68098 L47.2948965,45.13278 L54.9712965,49.59558 L68.6182965,49.33818 L73.0558965,51.51918 L73.0648965,51.51918 L76.8460965,49.78878 L74.4874965,48.64338 L73.8196965,42.03858 L68.2966965,31.61778 L69.8548965,28.39578 L68.2078965,23.66418 L69.5200965,19.50378 L69.1480965,10.84218 L69.3346965,15.17478 L69.1480965,10.84218 Z M76.8460965,49.78878 L75.6676965,49.21398 L76.8460965,49.78878 Z" id="Fill-13" fill="#4C4B52"></path>
                                    <g id="Group-17" transform="translate(72.600000, 0.000000)">
                                        <mask id="mask-4" fill="white">
                                            <use xlink:href="#path-3"></use>
                                        </mask>
                                        <g id="Clip-16"></g>
                                        <polygon class="hills paths" id="Fill-15" fill="#4C4B52" mask="url(#mask-4)" points="23.4859965 4.26618 19.2361965 12.22578 14.7697965 12.00498 10.0735965 17.81238 3.15079645 25.20438 0.549796452 28.80798 12.5347965 27.47898 25.8499965 31.89438 30.4153965 40.37658 40.7665965 47.01378 47.5879965 46.96338 40.7665965 47.01198 54.4537965 46.91538 63.9361965 49.40538 52.3135965 42.10098 52.0909965 38.65758 47.3929965 33.28758 47.1757965 27.69558 39.1255965 16.09038 37.3393965 10.49778 34.1521965 7.43418 30.6361965 4.04958 30.6361965 0.40518"></polygon>
                                    </g>
                                    <path class="hills paths" d="M160.818,18.8056 L160.7988,18.8056 L157.9482,20.4214 L160.818,18.8056 L154.2324,22.5178 L148.6338,28.1212 L139.107,29.4586 L132,32.9866 L134.781,36.8314 L146.2986,43.237 L154.0056,50.4262 L160.818,51.088 L169.0908,55.5658 L160.818,51.088 L171.6996,56.9704 L186.6558,56.9704 C186.4278,56.7964 179.136,50.9158 178.7262,50.641 C178.3116,50.3716 172.8312,48.247 172.8312,48.247 L170.1144,35.392 L163.5348,25.786 L160.818,18.8056 Z M186.5772,56.9032 C185.7504,56.2372 179.1204,50.902 178.7262,50.641 C179.1204,50.902 185.7504,56.2372 186.5772,56.9032 L186.5772,56.9032 Z" id="Fill-18" fill="#4C4B52"></path>
                                    <polygon id="Fill-20" fill="#231F20" points="149.848096 46.7373 154.465096 47.1861 150.416896 46.7913"></polygon>
                                </g>
                                <g id="Group-25" transform="translate(149.400000, 46.394400)">
                                    <mask id="mask-6" fill="white">
                                        <use xlink:href="#path-5"></use>
                                    </mask>
                                    <g id="Clip-24"></g>
                                    <polygon id="Fill-23" fill="#231F20" mask="url(#mask-6)" points="0.448036452 0.9858 5.06743645 0.9858 5.06743645 0.537 0.448036452 0.537"></polygon>
                                </g>
                                <g id="Group-32" transform="translate(206.400000, 112.394400)">
                                    <g id="Group-29">
                                        <mask id="mask-8" fill="white">
                                            <use xlink:href="#path-7"></use>
                                        </mask>
                                        <g id="Clip-28"></g>
                                        <path class="non-sticky paths logo-dot" d="M3.50551645,0.75642 C2.03491645,0.75642 0.846316452,2.04342 0.846316452,3.62382 C0.846316452,5.21082 2.03491645,6.49422 3.50551645,6.49422 C4.98211645,6.49422 6.16831645,5.21082 6.16831645,3.62382 C6.16831645,2.04342 4.98211645,0.75642 3.50551645,0.75642 M6.91351645,3.62382 C6.91351645,5.54562 5.38891645,7.09422 3.50551645,7.09422 C1.63411645,7.09422 0.101716452,5.54562 0.101716452,3.62382 C0.101716452,1.70442 1.63411645,0.14622 3.50551645,0.14622 C5.38891645,0.14622 6.91351645,1.70442 6.91351645,3.62382" id="Fill-27" fill="#EC174F" mask="url(#mask-8)"></path>
                                    </g>
                                    <path class="non-sticky paths logo-dot" d="M3.88111645,3.40896 L2.83591645,3.42876 L2.83051645,3.42876 L2.83051645,2.30196 L2.83591645,2.30196 L3.59071645,2.30196 L3.89311645,2.31576 L4.15171645,2.38956 L4.25671645,2.45916 L4.35331645,2.54076 L4.40371645,2.67036 L4.42471645,2.91996 L4.38991645,3.08436 L4.31851645,3.20796 L4.16551645,3.33396 L4.09051645,3.36276 L4.03171645,3.37416 L3.88111645,3.40896 Z M4.06531645,3.91656 L4.26811645,3.88536 L4.45771645,3.82716 L4.63771645,3.73656 L4.77871645,3.63396 L4.78891645,3.61476 L4.86211645,3.53136 L4.91971645,3.44016 L4.95691645,3.38196 L5.01871645,3.18876 L5.04031645,3.06876 L5.04751645,2.83056 L5.04031645,2.65056 L5.01871645,2.52876 L4.99711645,2.44176 L4.94191645,2.30616 L4.89151645,2.22276 L4.82131645,2.13816 L4.75171645,2.07156 L4.65331645,1.98696 L4.54831645,1.93296 L4.44271645,1.89216 L4.36831645,1.86336 L3.98551645,1.77996 L3.65851645,1.76256 L2.20531645,1.76256 L2.20531645,5.61336 L2.83051645,5.61336 L2.83051645,3.96456 L2.83591645,3.96456 L3.42991645,3.96456 L4.42051645,5.61336 L5.13511645,5.61336 L4.06531645,3.91656 Z" id="Fill-30" fill="#EC174F"></path>
                                </g>
                            </g>
                        </svg>