<?xml version="1.0" encoding="UTF-8"?>
<svg id="Layer_1" data-name="Layer 1" xmlns="http://www.w3.org/2000/svg" width="360" height="75" viewBox="0 0 360 75">
  <defs>
    <style>
      .cls-1 {
        fill: #e22d00;
      }
    </style>
  </defs>
  <path class="cls-1" d="M64.74,54.59s-7.03-2.51-18.1-2.51-18.09,2.51-18.09,2.51V20.41h.5s3.01,30.16,17.59,30.16,17.59-30.16,17.59-30.16h.5v34.18ZM46.64,4.66c-18.09,0-32.67,14.74-32.67,32.84s14.74,32.84,32.84,32.84,32.84-14.74,32.84-32.84S64.74,4.66,46.64,4.66h0ZM346.02,30.97c-.59-.22-1.21-.34-1.84-.33-2.34,0-4.19,1.34-5.53,3.35v-.33c0-1.34-.34-2.01-.84-2.85l-4.19,1.17c.5,1.34.67,2.85.67,5.36v15.25h4.69v-14.24c.17-1.17.5-1.68,1.34-2.35.84-.84,1.84-1,2.85-1,.5,0,.84.17,1.34.33l1.51-4.36ZM330.61,42.86v-.84c0-4.69-1-7.37-2.68-9.05-1.51-1.51-3.69-2.34-6.2-2.34-2.68,0-4.86,1-6.7,2.85-1.68,1.84-2.68,4.52-2.68,8.21,0,6.87,3.85,11.22,10.05,11.22,2.85,0,5.7-1,7.87-2.85l-1.84-2.68c-1.67,1.34-3.52,2.01-5.53,2.01s-3.69-.84-4.69-2.18c-.67-1-1-2.51-1-4.02v-.33h13.4ZM310.85,52.41l-.84-2.68c-.67.16-1.17,0-1.51-.33-.33-.5-.5-1.34-.5-3.35v-18.43c0-2.68,0-4.69-.33-6.03l-4.69,1c.34,1.68.5,3.18.5,6.2v18.43c0,2.34.5,3.52,1,4.36.67,1,2.01,1.51,3.52,1.51,1.01-.17,1.84-.33,2.85-.67h0ZM287.89,24.93c0-1.67-1.34-3.01-3.18-3.01-1.68,0-3.18,1.34-3.18,3.01s1.51,3.02,3.02,3.02c2.01,0,3.35-1.34,3.35-3.02ZM300.12,52.41l-.84-2.68h-.5c-.84,0-1.51-.5-1.51-2.01v-20.11c0-2.68,0-4.69-.33-6.03l-4.69,1c.33,1.68.5,3.18.5,6.2v19.26c0,3.18,1.84,5.03,4.52,5.03,1.17-.17,2.01-.33,2.85-.67h0ZM287.05,52.41v-21.78l-4.69.67v20.94h4.69v.17ZM277.67,52.41l-2.51-29.15h-6.53l-5.86,21.44-5.86-21.27h-6.7l-2.85,29.15h4.36l2.01-24.46,6.87,24.46h3.52l6.87-23.96,2.01,23.96h4.69s0-.17,0-.17ZM242.15,52.41v-15.75c0-4.02-2.34-5.87-5.86-5.87-2.34,0-4.19.84-6.7,2.85,0-1-.33-2.01-.84-2.85l-4.19,1.17c.67,1.51.67,2.51.67,5.03v15.75h4.53v-15.41c1.51-1.51,3.52-2.51,5.03-2.51,1.84,0,2.51.84,2.51,3.85v14.07h4.86v-.33h0ZM221.55,50.4c-1.51-1-2.01-1.84-2.01-4.36v-.67l.17-6.37v-1.34c0-2.18-.17-2.85-.33-3.69-.84-2.34-3.18-3.52-6.54-3.52-2.01,0-3.85.33-5.86,1.17-1.17.5-2.34,1-3.52,1.67l2.01,3.19c.84-.67,1.51-1.01,2.68-1.51,1.51-.67,2.85-1,4.02-1,1.34,0,2.01.33,2.51,1s.67,1.34.67,2.85v1.51h-1.51c-7.2,0-11.06,2.51-11.06,7.54,0,1.67.5,3.52,1.68,4.52,1.34,1.17,2.85,1.68,5.53,1.68,1.66.02,3.29-.45,4.69-1.34.5-.33.67-.67,1.34-1.34.5,1.34,1.67,2.34,3.01,2.85,0,0,2.51-2.85,2.51-2.85ZM198.93,52.41v-15.58c0-2.35-.5-3.85-1.67-4.86-.84-.84-2.51-1.34-4.02-1.34-2.34,0-4.86,1.17-6.7,3.18-1-2.01-2.85-3.18-5.19-3.18-2.01,0-4.36,1.17-5.86,2.68-.15-.93-.43-1.83-.84-2.68l-4.19,1c.67,1.34.84,2.18.84,5.19v15.41h4.52v-15.75c1.84-1.51,3.35-2.18,4.69-2.18,1.84,0,2.51,1,2.51,3.35v14.58h4.52v-15.41c1.84-1.84,3.52-2.68,4.86-2.68,1.67,0,2.34.84,2.34,3.02v14.91h4.19v.33ZM169.11,30.97c-.59-.22-1.21-.34-1.84-.33-2.34,0-4.02,1.34-5.53,3.35v-.33c0-1.34-.33-2.01-.84-2.85l-4.36,1.17c.5,1.34.67,2.85.67,5.36v15.25h4.69v-14.24c.17-1.17.5-1.68,1.34-2.35.84-.84,1.84-1,2.85-1,.5,0,.84.17,1.34.33l1.67-4.36h0ZM153.87,42.86v-.84c0-4.69-1-7.37-2.68-9.05-1.51-1.51-3.69-2.34-6.03-2.34-2.85,0-5.03,1-6.7,2.85-1.67,1.84-2.68,4.52-2.68,8.21,0,6.87,3.85,11.22,10.05,11.22,3.02,0,5.7-1,7.88-2.85l-1.85-2.68c-1.67,1.34-3.52,2.01-5.53,2.01s-3.68-.84-4.69-2.18c-.67-1-.84-2.51-.84-4.02v-.33h13.07,0ZM131.92,52.41v-28.98h-4.69v11.73h-10.89v-11.73h-4.69v29.15h4.69v-13.57h10.89v13.57l4.69-.17h0ZM325.75,39.68h-8.21c.17-3.69,1.51-5.7,4.19-5.7,2.51,0,4.02,2.18,4.02,5.7ZM215.18,42.36l-.17,5.02c-.84,1.51-2.51,2.34-4.19,2.34-2.01,0-3.18-1.17-3.18-3.35,0-1.34.33-2.18,1.17-2.85.84-.84,2.51-1.34,5.36-1.34.33.17.67.17,1,.17ZM149.01,39.68h-8.38c0-3.69,1.68-5.7,4.19-5.7,2.68,0,4.19,2.18,4.19,5.7Z"/>
</svg>