<svg class="nav__logo__svg" version="1.1" x="0px" y="0px" viewBox="0 0 720 90" xml:space="preserve" width="720px" height="90px" xmlns="http://www.w3.org/2000/svg">
    <g id="Layer_1">
        <g>
            <g>
                <path class="st2"
                    d="M93.1,85.4h26.3l14.1-80.7h-26.3L102,33.6H79.2l5.2-28.9H58.1L44,85.4h26.3l5.3-30.2h22.8L93.1,85.4z"
                    fill="#000000"></path>
            </g>
            <g>
                <path class="st2" d="M148.4,4.6l-8,44.9c-0.7,3.5-1,6.9-1,10.1c0,23.8,20.8,27.4,33.3,27.4c26.2,0,37.5-8.7,41.6-32.2l8.8-50.3
				h-26.3l-7.5,42.2c-2.4,13.2-4.1,20.1-13.9,20.1c-6.4,0-9.5-3.4-9.5-10.4c0-2.7,0.4-6,1.2-10.1l7.6-41.8H148.4z"
                    fill="#000000"></path>
            </g>
            <g>
                <path class="st2" d="M362.1,85.4h26.3l3.7-20.8h12.4c22.9,0,35.6-12.4,35.6-35c0-15.9-11-25-30.3-25h-33.6L362.1,85.4z
				 M403.1,44.7h-7.6l3.5-19h7.1c5.8,0,8.9,2.9,8.9,8.2C415,40.6,410.5,44.7,403.1,44.7z" fill="#000000"></path>
            </g>
            <g>
                <path class="st2" d="M491.2,2.9c-28.6,0-45.7,18.5-45.7,49.6c0,21.6,13.6,34.6,36.4,34.6c28.6,0,45.7-18.5,45.7-49.6
				C527.7,15.8,514.1,2.9,491.2,2.9z M483.5,66.2c-6.8,0-10.8-4.9-10.8-13.1c0-3.1,0.3-5.8,0.9-8.9c2-10.6,5.4-20.3,16.1-20.3
				c6.8,0,10.8,4.9,10.8,13.1c0,3.1-0.3,5.8-0.9,8.9C497.6,56.4,494.2,66.2,483.5,66.2z" fill="#000000"></path>
            </g>
            <g>
                <path class="st2" d="M619.1,85.4h26.3l10.4-59.1h19.8l3.8-21.6h-67.3l-3.8,21.6h21L619.1,85.4z"
                    fill="#000000"></path>
            </g>
            <path class="st2" d="M575.5,34.5c-8.3-2.6-11.7-3.7-11.7-7.6c0-2.6,1.7-5.7,6.7-5.7c3.7,0,6.8,2.1,8,5.2l23.2-6.3
			c-2.7-11.4-12.5-17.2-29.4-17.2c-31.8,0-34.3,21.3-34.3,27.8c0,13.2,7,21.3,22.2,25.5c4,1.1,8.6,2.3,8.6,6.7
			c0,3.5-2.6,5.7-7.1,5.7c-4.1,0-8.5-2.4-10-6.6l-22.9,6.2c2.5,12,13.8,18.8,31.5,18.8c13.5,0,36.1-3.6,36.1-28
			C596.5,46.8,589.6,38.8,575.5,34.5z" fill="#000000"></path>
            <g>
                <path class="st3" d="M29.3,85.4L43.5,4.7H0v80.7L29.3,85.4z" fill="#0dbe98"></path>
            </g>
            <g>
                <path class="st3" d="M690.7,4.7l-14.1,80.7l43.5,0V4.7L690.7,4.7z" fill="#0dbe98"></path>
            </g>
            <polygon class="st2" points="238.1,4.6 224,85.4 250.3,85.4 254.5,61.6 276.6,61.6 280.2,41.3 258.1,41.3 260.6,26.3 291.5,26.3
			295.3,4.6 		" fill="#000000"></polygon>
            <polygon class="st2" points="307.1,4.6 293,85.4 319.3,85.4 323.4,61.6 345.6,61.6 349.2,41.3 327.1,41.3 329.6,26.3 360.5,26.3
			364.3,4.6 		" fill="#000000"></polygon>
        </g>
    </g>
</svg>