<svg width="354" height="66" viewBox="0 0 354 66" fill="none" xmlns="http://www.w3.org/2000/svg">
<path d="M6.55 52.13C7.4044 53.212 8.4356 54.1418 9.6 54.88C10.5358 55.4435 11.6076 55.7409 12.7 55.74C13.5185 55.8191 14.3431 55.6748 15.0862 55.3227C15.8292 54.9705 16.463 54.4236 16.92 53.74C17.74 52.4067 18.15 49.96 18.15 46.4V0.669983H28.28V49.73C28.28 55.0633 27.1067 58.98 24.76 61.48C22.4133 63.98 18.7467 65.23 13.76 65.23C11.1821 65.2682 8.62884 64.7247 6.29 63.64C3.88993 62.4257 1.75258 60.7504 0 58.71L6.54 52.13H6.55Z" fill="#016A78"/>
<path d="M96.29 32.92C96.3004 29.8846 95.7231 26.876 94.59 24.06C93.4692 21.2716 91.8072 18.7327 89.7 16.59C87.6703 14.4448 85.219 12.7425 82.5 11.59C78.3877 9.83112 73.837 9.36743 69.4545 10.2607C65.0719 11.154 61.0658 13.3619 57.97 16.59C55.8604 18.7058 54.2005 21.2263 53.09 24C51.9662 26.832 51.3959 29.8532 51.41 32.9C51.3939 35.9243 51.9644 38.923 53.09 41.73C54.2219 44.5085 55.8904 47.0367 58 49.17C60.0533 51.3148 62.5241 53.0164 65.26 54.17C67.9982 55.3195 70.9403 55.9045 73.91 55.89C76.8435 55.8985 79.7484 55.3134 82.45 54.17C85.1838 53.0018 87.6583 51.3023 89.73 49.17C91.8368 47.0347 93.499 44.5024 94.62 41.72C95.754 38.9253 96.3315 35.936 96.32 32.92H96.29ZM106.71 32.92C106.743 37.1742 105.908 41.3903 104.255 45.3106C102.603 49.2309 100.168 52.7729 97.1 55.72C94.0121 58.7188 90.376 61.0953 86.39 62.72C82.4197 64.3435 78.1694 65.1725 73.88 65.16C69.5407 65.176 65.2401 64.3437 61.22 62.71C57.2445 61.0991 53.6256 58.7205 50.57 55.71C47.5077 52.7765 45.0779 49.2474 43.43 45.34C40.1766 37.3727 40.1766 28.4473 43.43 20.48C45.0735 16.538 47.5029 12.9721 50.57 10C53.6247 6.98371 57.2481 4.60432 61.23 3.00001C65.254 1.39833 69.549 0.586882 73.88 0.610008C78.1849 0.588654 82.4533 1.40023 86.45 3.00001C90.4237 4.59956 94.0425 6.96795 97.0988 9.96931C100.155 12.9707 102.589 16.5459 104.26 20.49C105.898 24.4072 106.732 28.6141 106.71 32.86V32.92Z" fill="#016A78"/>
<path d="M130.88 65.17V35.65L109.17 0.649994H120.17L133.69 22.54C134.03 23.1 134.43 23.84 134.91 24.75C135.39 25.66 135.91 26.64 136.39 27.75C136.79 26.75 137.23 25.75 137.68 24.83C138.117 23.9691 138.597 23.1314 139.12 22.32L153 0.669991H163.48L141.26 35.67V65.19L130.88 65.17Z" fill="#016A78"/>
<path d="M180.77 27.9H184.77C189.77 27.9 193.3 27.23 195.37 25.9C197.44 24.57 198.47 22.23 198.47 18.99C198.47 15.47 197.517 12.9933 195.61 11.56C193.7 10.13 190.09 9.43001 184.77 9.43001H180.77V27.9ZM180.77 56.4H184.38C187.133 56.45 189.887 56.3063 192.62 55.97C194.152 55.7736 195.623 55.2446 196.93 54.42C198.223 53.5699 199.26 52.3842 199.93 50.99C200.628 49.4989 200.971 47.866 200.93 46.22C200.977 44.3493 200.536 42.4986 199.65 40.85C198.81 39.3299 197.541 38.0915 196 37.29C194.919 36.7551 193.768 36.3779 192.58 36.17C190.899 35.9173 189.2 35.8036 187.5 35.83H180.72V56.4H180.77ZM170.5 65.17V0.670007H186.75C190.197 0.571528 193.644 0.822813 197.04 1.42001C199.078 1.8363 201.006 2.67425 202.7 3.88001C204.717 5.37612 206.316 7.36676 207.34 9.66001C208.463 12.1336 209.03 14.8235 209 17.54C209.109 20.5893 208.278 23.5984 206.62 26.16C204.945 28.5278 202.499 30.239 199.7 31C201.447 31.2229 203.132 31.7902 204.658 32.6691C206.184 33.548 207.521 34.7209 208.59 36.12C210.832 39.2377 211.971 43.0128 211.83 46.85C211.846 49.3942 211.382 51.9185 210.46 54.29C209.618 56.5481 208.294 58.5956 206.58 60.29C204.767 62.1112 202.503 63.419 200.02 64.08C197.4 64.82 193.007 65.1867 186.84 65.18L170.5 65.17Z" fill="#016A78"/>
<path d="M222.67 65.17V0.669983H233.15V65.17H222.67Z" fill="#016A78"/>
<path d="M258.7 28.16H260.6C266.147 28.16 269.813 27.5133 271.6 26.22C273.42 24.92 274.34 22.64 274.34 19.35C274.34 15.7967 273.363 13.2933 271.41 11.84C269.457 10.3867 265.853 9.66 260.6 9.66H258.7V28.16ZM258 36.31V65.17H248.18V0.670003H262.8C266.154 0.583115 269.507 0.864804 272.8 1.51C275.166 1.99262 277.378 3.04812 279.242 4.58405C281.106 6.11998 282.564 8.08947 283.49 10.32C284.589 12.8809 285.141 15.6433 285.11 18.43C285.11 23.5833 283.863 27.63 281.37 30.57C278.87 33.48 275.17 35.24 270.3 35.83L292.51 65.17H280.69L259.23 36.31H258Z" fill="#016A78"/>
<path d="M309.24 55.7H318.05C321.71 55.8086 325.37 55.4729 328.95 54.7C331.281 54.1011 333.447 52.9871 335.29 51.44C337.728 49.3381 339.607 46.6652 340.76 43.66C342.043 40.2001 342.664 36.5295 342.59 32.84C342.664 29.1505 342.043 25.4801 340.76 22.02C339.607 19.0176 337.728 16.3479 335.29 14.25C333.376 12.6924 331.138 11.5821 328.74 11C324.817 10.2215 320.818 9.88609 316.82 9.99998H309.24V55.7ZM298.76 65.17V0.669983H312.89C322.09 0.669983 328.563 1.12998 332.31 2.04998C335.88 2.90037 339.235 4.48389 342.16 6.69999C345.896 9.56609 348.819 13.3577 350.64 17.7C352.642 22.5479 353.626 27.7558 353.53 33C353.631 38.2219 352.647 43.4079 350.64 48.23C348.8 52.5612 345.88 56.3483 342.16 59.23C339.299 61.4176 336.022 62.9997 332.53 63.88C328.92 64.79 323.33 65.26 315.72 65.26H298.72L298.76 65.17Z" fill="#016A78"/>
</svg>
