<?xml version="1.0" encoding="UTF-8"?><svg id="Layer_1" xmlns="http://www.w3.org/2000/svg" width="366.89" height="61.02" viewBox="0 0 366.89 61.02"><defs><style>.cls-1{fill:#fff;}.cls-2{fill:#0f6cb1;}.cls-3{fill:#231f20;}</style></defs><path class="cls-3" d="m361.03,17.08v-1.25h.83c.43,0,.88.09.88.6,0,.62-.46.66-.98.66h-.73Zm0,.52h.7l1.07,1.76h.69l-1.15-1.79c.59-.07,1.05-.39,1.05-1.11,0-.8-.47-1.15-1.43-1.15h-1.55v4.05h.62v-1.76Zm.74,3.24c1.91,0,3.55-1.49,3.55-3.52s-1.64-3.51-3.55-3.51-3.57,1.49-3.57,3.51,1.63,3.52,3.57,3.52h0Zm-2.86-3.52c0-1.66,1.25-2.92,2.86-2.92s2.84,1.25,2.84,2.92-1.25,2.94-2.84,2.94-2.86-1.25-2.86-2.94M24.98,37.22c-.22.84-.54,1-1.05,1h-15.67v-21.43c0-.56.14-.86.97-1.07l.27-.08v-1.32H2.03v1.32l.28.08c.82.22.97.52.97,1.07v23.3c0,.55-.15.85-.97,1.08l-.28.07v1.33h21.91c.55,0,.83.13,1.05,1l.07.28h1.31v-6.9h-1.3l-.07.28m52.2-6.13h-8.87c.34-.88,3.76-9.51,4.32-10.92.58,1.4,4.18,10.04,4.55,10.92h0Zm7.88,7.03l-.05-.12s-8.84-20.94-8.84-20.94c-.28-.65-.3-.76-.3-.85,0-.22,0-.33.62-.5l.26-.08v-1.32h-7.92v1.33l.29.08c.6.14.6.25.6.41,0,.14-.07.32-.31.94l-8.73,21.72c-.9,2.13-1.12,2.24-1.86,2.37l-.31.05v1.35h7.11v-1.36l-.31-.05c-.75-.11-.75-.25-.75-.41,0-.2,0-.22.27-.89,0,0,1.38-3.48,1.75-4.42h12.39c.17.41,1.75,4.14,1.75,4.14.26.61.38.91.38,1.09,0,.11,0,.4-.74.49l-.33.04v1.37h7.6v-1.33l-.28-.07q-1.16-.28-2.28-3.04"/><path class="cls-2" d="m175.78,7.13c6.19,8.9-3.26,26.33-21.1,38.91-17.84,12.58-37.32,15.57-43.51,6.66-6.19-8.9,3.25-26.32,21.09-38.9,17.84-12.59,37.32-15.57,43.51-6.67"/><path class="cls-1" d="m158.88,36.94h-1.37l-.08.28c-.24.85-.6,1-1.22,1h-16.14c.96-1.15,18.76-22.82,18.76-22.82v-1.09h-24.37c-.71,0-.99-.23-1.22-1.01l-.05-.15c-.31.22-.62.43-.93.65-.16.11-.31.22-.47.34v5.79h1.38l.08-.27c.24-.85.6-1.01,1.22-1.01h15.01c-.96,1.16-18.44,22.38-18.44,22.38v1.54h25.18c.73,0,.99.21,1.22,1l.08.28h.14c.42-.33.83-.65,1.23-.98v-5.93"/><path class="cls-3" d="m221.88,24.84c-.93.55-1.99.73-4.38.73h-10.73v-6.92h10.73c2.49,0,3.49.16,4.37.73.86.52,1.35,1.51,1.35,2.73s-.49,2.22-1.34,2.73h0Zm-15.1,5.07h10.68c4.59,0,6.46,1.2,6.46,4.16s-1.93,4.16-6.46,4.16h-10.68v-8.32Zm17.93-2.26c2.47-1.18,3.6-2.98,3.6-5.74,0-2.4-1.02-4.58-2.74-5.83-1.75-1.25-3.99-1.76-7.74-1.76h-17.23v1.28l.28.07c.85.22.99.48.99.99v23.63c0,.41-.08.71-.99.95l-.28.06v1.25h17.49c3.95,0,6.13-.53,8.07-1.93,2-1.44,3.02-3.56,3.02-6.28,0-3.28-1.51-5.51-4.46-6.71m52.5,10.95c-6.41,0-10.56-3.98-10.56-10.15s4.18-10.17,10.4-10.17c3.53,0,6.02.95,8.08,3.07,1.75,1.84,2.63,4.24,2.63,7.11,0,6.07-4.24,10.15-10.55,10.15Zm10.33-21.57h0c-2.75-2.13-6.16-3.21-10.14-3.21-4.4,0-7.64.99-10.54,3.21-3.37,2.6-5.46,6.98-5.46,11.43s2.04,8.71,5.46,11.39c2.73,2.17,6.11,3.22,10.34,3.22s7.6-1.05,10.34-3.22c3.42-2.72,5.47-6.98,5.47-11.39s-2.04-8.74-5.47-11.42m66.77-2.72h-8.27v1.33l.28.07c.58.15.58.23.58.33,0,.28-.26.75-.8,1.47,0,0-5.15,7.24-6.46,9.07-.54-.76-6.36-8.73-6.36-8.73-.61-.83-.88-1.36-.88-1.72,0-.21,0-.27.65-.41l.29-.07v-1.34h-8.89v1.35l.3.06c.98.18.99.19,3.14,2.92,0,0,8.27,11.29,9.01,12.29v9.16c0,.55-.15.85-.99,1.08l-.28.07v1.33h7.62v-1.33l-.27-.07c-.85-.22-1-.53-1-1.08v-9.16c3.04-4.1,6.07-8.2,9.1-12.3,2.01-2.52,2.32-2.8,3.26-2.9l.33-.04v-1.37h-.37"/></svg>