<svg width="480px" height="300px"
    viewBox="0 6 24 13" color="brand" aria-hidden="true" role="presentation" alt="Lowe's Home Improvement Logo"
    name="lowes-fill" xmlns="http://www.w3.org/2000/svg">
    <path fill-rule="evenodd"
        d="M12.0013 6.4l6.198 2.6507h3.865v1.0813H24V17.4H0v-7.268h1.9367V9.0507H5.803L12.0013 6.4zM19.9 11.71c-.5574 0-.9796.202-1.2546.6007-.231.3276-.2565.8461-.0602 1.233.2525.4374.6572.62 1.0489.7968.1613.0725.3284.1484.4847.241l.0016.001c.1769.1061.267.2682.2296.4122-.0386.1493-.2097.2497-.4259.2497a.6447.6447 0 01-.0887-.0057l-.0105-.0013c-.4158-.0578-1.259-.3712-1.2673-.3746l-.027-.01v.9766l.0139.0047c.0077.0027.824.2725 1.5484.2725h.0002c.3954 0 .6939-.0796.8869-.236.0047-.0033.4474-.3587.4669-.9632.0054-.167-.0326-.3383-.113-.508l.0005.0002-.0067-.0141-.0066-.013-.0133-.0263c-.1738-.348-.563-.6386-1.1897-.889l-.0222-.0084c-.124-.0487-.5015-.196-.5435-.4356-.0115-.0671.0158-.1725.0907-.2366.079-.0802.2-.1215.3597-.1215.2555 0 .546.1044.6966.1665.317.1312.595.2483.5977.25l.0276.0114v-.8907l-.0091-.0057c-.006-.004-.6055-.3813-1.2109-.4679A2.376 2.376 0 0019.9 11.71zm-16.0716-.7265h-1.097v4.9577h2.7943v-.9535H3.8284v-4.0042zm13.6538.8771h-2.611v4.0807h2.611v-.9548h-1.5087v-.6222h1.5087v-.9192h-1.5087v-.6256h1.5087v-.9589zm-8.8725.0001H6.4908a.5214.5214 0 00-.5217.5212v3.0383c0 .2877.2336.5212.5217.5212h2.119a.5217.5217 0 00.522-.5212V12.382a.5215.5215 0 00-.522-.5212zm2.2458.0001h-1.099V15.42c0 .288.2337.5215.5222.5215h1.299c.2188 0 .4225-.151.4225-.3695 0 .2185.2037.3695.4226.3695h1.2993a.5217.5217 0 00.5217-.5215v-3.5592h-1.099v3.127h-.6622v-3.127h-.9648v3.127h-.6623v-3.127zm-2.8226.9588v2.163H7.068v-2.163h.9648zm13.9757-1.1273c-.274 0-.5055.213-.5055.502 0 .291.2315.5049.5055.5049.271 0 .503-.214.503-.505 0-.289-.232-.5019-.503-.5019zm0 .0842c.225 0 .4023.1795.4023.4177 0 .2429-.1773.4208-.4023.4208-.228 0-.4053-.178-.4053-.4208 0-.2382.1774-.4177.4053-.4177zm.0266.1288h-.2185v.58h.0867v-.2515h.1002l.1513.2514h.0972l-.1628-.255c.0842-.0106.1478-.0557.1478-.1597 0-.1145-.0672-.1652-.202-.1652zm-3.3907-.9213l-.9198-.0003-.0003 1.175.7614.0013.1587-1.176z">
    </path>
</svg>