<?xml version="1.0" encoding="utf-8"?>
<svg xmlns="http://www.w3.org/2000/svg" version="1.1" width="616" height="144">
<path fill="#DD1E36" transform="translate(86.3125,34.7890625)" d="M0 0 C3.43104332 2.46209127 5.38089264 5.75102647 7.6875 9.2109375 C8.1 8.75203125 8.5125 8.293125 8.9375 7.8203125 C14.53759356 1.87021309 20.61011371 -2.23463428 28.9140625 -2.9921875 C36.08475487 -3.13233132 42.952022 -2.621234 48.8359375 1.83984375 C52.94973213 5.99561587 54.22231562 9.17073794 54.72694397 14.93824768 C54.63822593 22.29923681 52.70212437 29.49730699 51.13671875 36.66015625 C50.75770724 38.44487386 50.37994614 40.22985742 50.00337219 42.01509094 C49.01295201 46.69234409 48.00434836 51.36549676 46.9921875 56.03808594 C46.1702948 59.84714246 45.36138346 63.6588995 44.55314922 67.47087383 C43.58525538 72.03487615 42.61190386 76.59770684 41.63671875 81.16015625 C41.45229406 82.02325598 41.26786938 82.88635571 41.07785606 83.77560997 C40.55175985 86.23083649 40.02204363 88.68525085 39.4909668 91.1394043 C39.26095222 92.21420296 39.26095222 92.21420296 39.02629089 93.31071472 C38.07451424 97.68524169 36.9218548 101.89069571 35.6875 106.2109375 C25.4575 106.2109375 15.2275 106.2109375 4.6875 106.2109375 C6.93592515 92.72038661 6.93592515 92.72038661 8.10791016 87.37597656 C8.36802887 86.1814386 8.62814758 84.98690063 8.89614868 83.75616455 C9.17018524 82.50889587 9.4442218 81.2616272 9.7265625 79.9765625 C10.01565231 78.64534857 10.30424695 77.31402703 10.59237671 75.98260498 C11.80246976 70.39266572 13.01724534 64.80377667 14.24316406 59.21728516 C14.99821396 55.77496982 15.74513381 52.3309727 16.48701096 48.88579559 C16.90428576 46.95920253 17.33041054 45.03453299 17.75674438 43.10992432 C19.06587474 37.01373909 20.03144418 31.44843782 19.6875 25.2109375 C18.09436815 23.86776059 18.09436815 23.86776059 15.6875 23.2109375 C12.65896433 23.95478837 11.08733671 24.39529006 8.6875 26.2109375 C5.05181756 33.79428886 3.82840292 42.29853255 2.1484375 50.48828125 C1.81947869 52.06642731 1.48984743 53.64443333 1.15957642 55.2223053 C0.29651138 59.35206559 -0.55963686 63.48322452 -1.41363525 67.61486816 C-2.78604201 74.2522449 -4.16583181 80.88806938 -5.55170822 87.52264595 C-6.03428283 89.84032575 -6.51191697 92.15898655 -6.98916626 94.47776794 C-7.28246581 95.88748013 -7.57594343 97.29715528 -7.86962891 98.70678711 C-8.12483307 99.94174423 -8.38003723 101.17670135 -8.64297485 102.44908142 C-9.3125 105.2109375 -9.3125 105.2109375 -10.3125 106.2109375 C-12.60401417 106.29884725 -14.89822524 106.31787788 -17.19140625 106.30859375 C-18.22139992 106.30647133 -18.22139992 106.30647133 -19.27220154 106.30430603 C-21.47317801 106.29869229 -23.67405409 106.28613757 -25.875 106.2734375 C-27.36393083 106.26842426 -28.85286324 106.26386105 -30.34179688 106.25976562 C-33.99873075 106.24871843 -37.65560558 106.23144463 -41.3125 106.2109375 C-40.69241989 103.02242032 -40.06704778 99.83509391 -39.4375 96.6484375 C-39.22843018 95.58882813 -39.01936035 94.52921875 -38.80395508 93.4375 C-37.19968937 85.40794445 -35.49660405 77.4029856 -33.75390625 69.40234375 C-33.29726093 67.29567648 -32.84071883 65.18898683 -32.38427734 63.08227539 C-31.69575053 59.90529412 -31.00403553 56.72918457 -30.30206299 53.55514526 C-29.63451004 50.53590033 -28.97845718 47.51434135 -28.32421875 44.4921875 C-28.01986656 43.13855858 -28.01986656 43.13855858 -27.70936584 41.75758362 C-26.50232152 36.12025606 -26.12455623 30.97697929 -26.3125 25.2109375 C-29.50082091 23.32597415 -30.03143517 23.14683499 -33.875 24.0234375 C-37.12508056 25.63923385 -37.30835167 26.20089363 -38.80395508 29.82202148 C-40.96382584 36.96848374 -42.37170892 44.31728325 -43.88671875 51.62109375 C-44.21827279 53.20016522 -44.55029652 54.77913814 -44.88276672 56.35801697 C-45.7504952 60.48498312 -46.61189545 64.61324463 -47.47192383 68.74182129 C-48.35306868 72.96606146 -49.24027588 77.18902767 -50.12695312 81.41210938 C-51.86135958 89.67716196 -53.58851098 97.94370568 -55.3125 106.2109375 C-65.5425 106.2109375 -75.7725 106.2109375 -86.3125 106.2109375 C-85.63457896 99.43172706 -84.80901662 93.08353939 -83.37890625 86.47851562 C-83.1852951 85.56343231 -82.99168396 84.648349 -82.79220581 83.70553589 C-82.15838676 80.71660872 -81.51688033 77.72939293 -80.875 74.7421875 C-80.43002734 72.65385152 -79.98545352 70.56543051 -79.54125977 68.47692871 C-78.61320776 64.11898819 -77.6815507 59.76183994 -76.74707031 55.40527344 C-75.54769131 49.81314582 -74.35555576 44.21950496 -73.16584778 38.62531281 C-72.25014851 34.32187116 -71.33160076 30.01904174 -70.41207886 25.71641541 C-69.97123668 23.65280869 -69.53106976 21.5890576 -69.09158325 19.52516174 C-68.47918307 16.65224203 -67.86318035 13.78011934 -67.24609375 10.90820312 C-67.0642453 10.0521347 -66.88239685 9.19606628 -66.69503784 8.3140564 C-65.42697771 2.43989293 -65.42697771 2.43989293 -64.3125 0.2109375 C-54.7425 0.2109375 -45.1725 0.2109375 -35.3125 0.2109375 C-35.6425 3.1809375 -35.9725 6.1509375 -36.3125 9.2109375 C-35.79042969 8.67984375 -35.26835938 8.14875 -34.73046875 7.6015625 C-25.26027058 -1.4871741 -12.33091606 -7.01072244 0 0 Z"/>
<path fill="#DD1E36" transform="translate(226,38)" d="M0 0 C4.8275283 4.5126895 6.52818396 8.57178329 7 15 C6.11874341 32.17803431 1.17779279 49.24452628 -2.55566406 65.98706055 C-3.31333281 69.38804252 -4.05963143 72.79137062 -4.79951096 76.19626427 C-5.21402892 78.08735137 -5.64143935 79.97559812 -6.06924438 81.86372375 C-6.32305878 83.03251572 -6.57687317 84.20130768 -6.83837891 85.40551758 C-7.0632901 86.41649002 -7.28820129 87.42746246 -7.51992798 88.46907043 C-8.17283136 93.27117458 -8 98.1537141 -8 103 C-18.23 103 -28.46 103 -39 103 C-39.495 99.535 -39.495 99.535 -40 96 C-40.556875 96.47050781 -41.11375 96.94101563 -41.6875 97.42578125 C-42.450625 98.04839844 -43.21375 98.67101562 -44 99.3125 C-45.11375 100.23482422 -45.11375 100.23482422 -46.25 101.17578125 C-52.55867446 105.36065479 -58.51607779 106.50774159 -66 106.4375 C-66.75539062 106.45748047 -67.51078125 106.47746094 -68.2890625 106.49804688 C-73.96135505 106.49317377 -78.25220774 105.12900528 -83 102 C-87.81351908 97.05980937 -89.29680545 92.31856443 -89.375 85.5 C-89.18803314 74.34041564 -86.04642364 64.68433325 -79 56 C-78.49855469 55.37480469 -77.99710938 54.74960938 -77.48046875 54.10546875 C-69.12446269 44.77357877 -56.92215249 41.81039212 -45.2734375 38.62304688 C-38.26416034 36.64278361 -31.7358081 34.33426613 -27 28.5625 C-25.78238817 25.44236967 -25.5757449 23.32333164 -26 20 C-26.90235835 17.51894806 -26.90235835 17.51894806 -29 16 C-34.51318445 15.28532794 -36.03981129 16.02388677 -41 19 C-42.65 22.96 -44.3 26.92 -46 31 C-56.23 31 -66.46 31 -77 31 C-75.86891386 21.95131086 -75.86891386 21.95131086 -73.1875 16.8125 C-72.68605469 15.82894531 -72.18460938 14.84539063 -71.66796875 13.83203125 C-65.91811887 4.06940557 -57.58232028 -0.93032331 -46.95703125 -4.2734375 C-32.79686182 -7.75268653 -12.48846551 -8.60001148 0 0 Z M-51.3203125 62.7734375 C-55.05377824 66.76955913 -56.84612661 71.53236562 -57 77 C-55.7440328 80.68940364 -54.65378155 81.64339188 -51.25 83.5 C-46.88751515 84.17115151 -44.7979883 83.18032662 -41 81 C-34.14261781 73.62702516 -32.65664386 62.65648987 -31 53 C-37.35047943 53 -46.32367785 58.95446084 -51.3203125 62.7734375 Z"/>
<path fill="#DD1E36" transform="translate(313,35)" d="M0 0 C10.23 0 20.46 0 31 0 C30.38170869 5.56462182 29.77321372 10.59174577 28.60131836 15.98510742 C28.46462234 16.62051956 28.32792633 17.2559317 28.18708801 17.91059875 C27.89384974 19.27119057 27.59861877 20.63135425 27.30152702 21.99110985 C26.83067736 24.14744783 26.36582952 26.30500541 25.90248108 28.46296692 C24.58535078 34.59158997 23.25667316 40.71769944 21.92651367 46.84350586 C21.10973999 50.60696568 20.29896169 54.37167926 19.49160957 58.13717079 C19.03545865 60.25528758 18.57224735 62.37178111 18.10887146 64.48832703 C17.82862587 65.79316096 17.54874511 67.09807333 17.26928711 68.40307617 C17.02359482 69.53508957 16.77790253 70.66710297 16.52476501 71.8334198 C15.54420431 77.55469473 15.54420431 77.55469473 17 83 C22.37571407 83.32038389 22.37571407 83.32038389 27 81 C29.26030232 76.29648019 30.63638827 71.86565148 31.70166016 66.73535156 C31.8467955 66.04664474 31.99193085 65.35793793 32.14146423 64.64836121 C32.61417216 62.39715067 33.0766131 60.14396303 33.5390625 57.890625 C33.86799233 56.31583461 34.19762396 54.74119066 34.52792358 53.16668701 C35.39200959 49.03953054 36.24763038 44.91066697 37.10113525 40.78131104 C38.47184089 34.15807032 39.85644929 27.53771692 41.23920822 20.91698456 C41.72056414 18.60691169 42.19891167 16.29623265 42.67666626 13.9854126 C42.97012252 12.57262534 43.26360845 11.15984424 43.55712891 9.74707031 C43.93993515 7.89677216 43.93993515 7.89677216 44.33047485 6.00909424 C45 3 45 3 46 0 C56.23 0 66.46 0 77 0 C75.87499118 9.00007059 75.87499118 9.00007059 75.12719727 12.50372314 C74.95898468 13.2998703 74.79077209 14.09601746 74.61746216 14.91629028 C74.34468948 16.18217484 74.34468948 16.18217484 74.06640625 17.47363281 C73.8727951 18.38521149 73.67918396 19.29679016 73.47970581 20.23599243 C72.84385918 23.2257334 72.2032438 26.21443009 71.5625 29.203125 C71.1176465 31.28955354 70.67307064 33.37604129 70.22875977 35.46258545 C69.29938443 39.82379859 68.36785943 44.18454462 67.43457031 48.54492188 C66.23802374 54.13526414 65.04500203 59.72635062 63.85334778 65.31773758 C62.71581332 70.65476428 61.57681442 75.99147803 60.4375 81.328125 C60.22022247 82.34619484 60.00294495 83.36426468 59.77908325 84.41318512 C59.16471263 87.29027535 58.54933426 90.16714799 57.93359375 93.04394531 C57.7517453 93.89596527 57.56989685 94.74798523 57.38253784 95.62582397 C57.21432526 96.41069183 57.04611267 97.19555969 56.87280273 98.00421143 C56.72753647 98.68332203 56.5822702 99.36243263 56.43260193 100.06212234 C55.98899585 102.04929404 55.49382288 104.02470846 55 106 C45.43 106 35.86 106 26 106 C26.33 103.03 26.66 100.06 27 97 C26.525625 97.70125 26.05125 98.4025 25.5625 99.125 C21.59790316 103.57308426 16.67887641 107.1070412 11 109 C8.4020878 109.14877911 5.84856851 109.23103235 3.25 109.25 C2.5590625 109.270625 1.868125 109.29125 1.15625 109.3125 C-5.1859339 109.36018559 -9.63512152 107.73424422 -14.8125 103.9375 C-18.20918404 99.37623858 -19.19888956 94.1791235 -18.84384155 88.50390625 C-18.43096974 85.90123539 -17.90526506 83.35157851 -17.32421875 80.78125 C-17.12358322 79.82041 -16.92294769 78.85957001 -16.7162323 77.86961365 C-16.05847528 74.74215364 -15.37333262 71.62141157 -14.6875 68.5 C-14.22564363 66.33052765 -13.76554016 64.16068144 -13.30712891 61.99047852 C-12.12650602 56.42295737 -10.92319226 50.86060001 -9.7144165 45.2991333 C-8.56987261 40.01369708 -7.44739935 34.72360324 -6.32421875 29.43359375 C-4.23705353 19.61780799 -2.12474928 9.80771949 0 0 Z"/>
<path fill="#DD1E36" transform="translate(463.5,36.8125)" d="M0 0 C5.92843412 5.18737986 9.09802266 9.70521336 9.68359375 17.69140625 C9.8439731 24.32356407 9.12720822 30.7499317 7.5 37.1875 C6.5 38.1875 6.5 38.1875 3.72436523 38.30102539 C2.51466064 38.29578857 1.30495605 38.29055176 0.05859375 38.28515625 C-1.24658203 38.28193359 -2.55175781 38.27871094 -3.89648438 38.27539062 C-5.2851569 38.26703401 -6.67382877 38.25856905 -8.0625 38.25 C-9.45507656 38.24498666 -10.84765481 38.24042347 -12.24023438 38.23632812 C-15.6601987 38.22449434 -19.08007844 38.2080088 -22.5 38.1875 C-22.40460938 37.15109375 -22.30921875 36.1146875 -22.2109375 35.046875 C-22.09835594 33.67713271 -21.98641012 32.30733807 -21.875 30.9375 C-21.81054688 30.25558594 -21.74609375 29.57367188 -21.6796875 28.87109375 C-21.38405265 25.0647951 -21.32438608 22.40940154 -23.5 19.1875 C-27.60273875 18.78527071 -29.7906253 18.70383543 -33.25 21.0625 C-37.99932518 27.65878497 -39.13935843 36.51059097 -40.83203125 44.359375 C-41.03229416 45.28542542 -41.23255707 46.21147583 -41.43888855 47.16558838 C-41.85552649 49.10449234 -42.26967053 51.04393376 -42.68139648 52.98388672 C-43.31451509 55.94693076 -43.9687461 58.90485285 -44.62304688 61.86328125 C-45.02735565 63.75753252 -45.43039542 65.65205519 -45.83203125 67.546875 C-46.02980667 68.42510925 -46.22758209 69.30334351 -46.43135071 70.20819092 C-47.45461174 75.17392504 -47.69923154 78.41269264 -45.5 83.1875 C-40.54189546 84.35437118 -40.54189546 84.35437118 -35.8125 82.875 C-30.46679426 76.66242306 -29.24781242 69.05265587 -27.5 61.1875 C-17.6 61.1875 -7.7 61.1875 2.5 61.1875 C0.63778919 76.0851865 -3.34764663 89.70182028 -15.3125 99.5 C-25.04333078 106.31536786 -35.07944089 107.39860457 -46.625 107.5 C-48.24148438 107.54350586 -48.24148438 107.54350586 -49.890625 107.58789062 C-58.64893833 107.65647983 -65.82606085 105.87252888 -73.4375 101.5 C-78.9949014 95.26897418 -79.99050687 88.90307396 -79.88549805 80.73583984 C-79.31601216 71.66812002 -76.99501057 62.73256967 -75.02001953 53.89111328 C-74.24943227 50.43495369 -73.50396469 46.97406336 -72.76171875 43.51171875 C-72.27490733 41.28353253 -71.78667459 39.05565627 -71.296875 36.828125 C-71.07690857 35.80809387 -70.85694214 34.78806274 -70.63031006 33.73712158 C-67.68479869 20.67722215 -63.04641563 9.38610822 -51.7421875 1.46875 C-36.86564764 -7.03212992 -15.30423502 -7.92540742 0 0 Z"/>
<path fill="#DD1E36" transform="translate(552.5625,37.75)" d="M0 0 C4.73184272 4.02306459 7.83869725 8.96257117 8.4375 15.25 C8.88611799 22.37000158 8.67665967 30.77168067 5.4375 37.25 C-4.1325 37.25 -13.7025 37.25 -23.5625 37.25 C-23.5 28.3125 -23.5 28.3125 -23.47241211 25.49243164 C-23.46991455 24.76403076 -23.46741699 24.03562988 -23.46484375 23.28515625 C-23.45960693 22.5362915 -23.45437012 21.78742676 -23.44897461 21.01586914 C-23.36908248 19.22332261 -23.36908248 19.22332261 -24.5625 18.25 C-29.97929906 17.54568868 -29.97929906 17.54568868 -34.5703125 19.86865234 C-37.01330989 22.78887251 -37.63979513 25.08397696 -38.54296875 28.77734375 C-38.78505318 29.7515049 -38.78505318 29.7515049 -39.0320282 30.74534607 C-39.56150261 32.90946251 -40.06500783 35.07831755 -40.5625 37.25 C-40.73928284 38.0141925 -40.91606567 38.77838501 -41.09820557 39.56573486 C-42.22314519 44.46357604 -43.29563192 49.37113858 -44.3371582 54.28735352 C-44.88150918 56.84306036 -45.44167785 59.39500863 -46.00195312 61.94726562 C-46.35253323 63.59093909 -46.70217781 65.23481243 -47.05078125 66.87890625 C-47.21838455 67.63208633 -47.38598785 68.38526642 -47.55867004 69.16127014 C-48.45020554 73.46927668 -48.83921526 77.00212159 -47.5625 81.25 C-44.68655164 83.57877362 -44.68655164 83.57877362 -41.125 83.1875 C-36.78372704 82.04505975 -36.02411737 80.91730751 -33.5625 77.25 C-32.27760795 74.06203947 -32.27760795 74.06203947 -31.375 70.6875 C-31.05144531 69.57246094 -30.72789062 68.45742187 -30.39453125 67.30859375 C-29.75646052 64.96300981 -29.15206107 62.60824426 -28.5625 60.25 C-18.6625 60.25 -8.7625 60.25 1.4375 60.25 C-1.1907146 74.70518032 -4.29607309 89.00070119 -16.21484375 98.71484375 C-26.19910404 105.24365289 -36.08656695 106.46061827 -47.6875 106.5625 C-49.30398438 106.60600586 -49.30398438 106.60600586 -50.953125 106.65039062 C-59.69856701 106.71887903 -66.95441888 104.99523982 -74.5 100.5 C-80.2180222 94.2621576 -81.15467522 88.37152157 -80.94360352 80.03198242 C-80.40719215 70.888757 -78.12687989 61.90111291 -76.13745117 52.98803711 C-75.37515633 49.56320235 -74.64199745 46.13304238 -73.91210938 42.70117188 C-66.72761163 9.50280837 -66.72761163 9.50280837 -52.6640625 0.3671875 C-37.90508324 -7.48656239 -14.49503393 -9.9836882 0 0 Z"/>
<path fill="#DD1E36" transform="translate(302,32)" d="M0 0 C-0.51522087 7.91993224 -1.79238443 15.45749952 -3.5625 23.1875 C-3.91344727 24.75854492 -3.91344727 24.75854492 -4.27148438 26.36132812 C-4.84151233 28.9090041 -5.41774836 31.45509518 -6 34 C-10.15703665 35.13172976 -13.86181754 34.94746226 -18.1484375 34.7421875 C-21.77301541 35.06988906 -23.91307102 36.07148334 -27 38 C-28.47909355 40.66166457 -28.47909355 40.66166457 -29.1887207 43.83105469 C-29.50096588 44.99616577 -29.81321106 46.16127686 -30.13491821 47.36169434 C-31.50578713 53.12720719 -32.80210992 58.89497554 -33.98046875 64.703125 C-34.23878983 65.94753357 -34.4971109 67.19194214 -34.76325989 68.47406006 C-35.43951673 71.73431449 -36.11087536 74.99548426 -36.77911377 78.25738525 C-37.7287416 82.89084807 -38.68384188 87.523162 -39.64387512 92.15447998 C-40.15305981 94.61204813 -40.65844761 97.07040655 -41.15971375 99.52960205 C-41.38697647 100.62874939 -41.6142392 101.72789673 -41.84838867 102.86035156 C-42.04728195 103.83151917 -42.24617523 104.80268677 -42.45109558 105.80328369 C-43 108 -43 108 -44 109 C-46.29151417 109.08790975 -48.58572524 109.10694038 -50.87890625 109.09765625 C-51.90889992 109.09553383 -51.90889992 109.09553383 -52.95970154 109.09336853 C-55.16067801 109.08775479 -57.36155409 109.07520007 -59.5625 109.0625 C-61.05143083 109.05748676 -62.54036324 109.05292355 -64.02929688 109.04882812 C-67.68623075 109.03778093 -71.34310558 109.02050713 -75 109 C-71.01279501 88.61926298 -66.72819446 68.3029037 -62.41455078 47.98925781 C-61.43029168 43.35324728 -60.45095832 38.71620964 -59.47264481 34.07894135 C-58.71340469 30.4840768 -57.95082331 26.88992724 -57.18727875 23.29597473 C-56.82401249 21.58333891 -56.46198944 19.8704389 -56.10123444 18.15727234 C-55.60259341 15.79093161 -55.09927853 13.42563321 -54.59472656 11.06054688 C-54.44721451 10.35535919 -54.29970245 9.65017151 -54.14772034 8.9236145 C-53.1141512 4.1141512 -53.1141512 4.1141512 -52 3 C-49.92737924 2.91232888 -47.85179706 2.89304127 -45.77734375 2.90234375 C-44.51728516 2.90556641 -43.25722656 2.90878906 -41.95898438 2.91210938 C-40.61848891 2.92046597 -39.27799412 2.92893093 -37.9375 2.9375 C-36.59310058 2.9425134 -35.2486994 2.94707658 -33.90429688 2.95117188 C-30.60282059 2.96300512 -27.30143197 2.97949029 -24 3 C-24.33 6.63 -24.66 10.26 -25 14 C-23.96875 12.7625 -22.9375 11.525 -21.875 10.25 C-15.74817532 3.28658079 -9.41072988 -0.19304061 0 0 Z"/>
<path fill="#DD1E36" transform="translate(578,35)" d="M0 0 C10.23 0 20.46 0 31 0 C29.76871667 7.38769997 28.50944589 14.68250941 26.93701172 21.99121094 C26.74164825 22.90979889 26.54628479 23.82838684 26.34500122 24.77481079 C25.70907544 27.76187413 25.06942247 30.74812538 24.4296875 33.734375 C23.9839087 35.82467784 23.53836607 37.91503106 23.0930481 40.00543213 C21.92819226 45.470393 20.76015769 50.9346696 19.59143066 56.39880371 C18.39625033 61.98941297 17.2041178 67.580672 16.01171875 73.171875 C13.67743978 84.11521728 11.3395161 95.05777614 9 106 C-1.23 106 -11.46 106 -22 106 C-20.87498329 95.87484965 -20.87498329 95.87484965 -20.12719727 92.36929321 C-19.95898468 91.57032623 -19.79077209 90.77135925 -19.61746216 89.94818115 C-19.43561371 89.10628235 -19.25376526 88.26438354 -19.06640625 87.39697266 C-18.8727951 86.48364166 -18.67918396 85.57031067 -18.47970581 84.62930298 C-17.84487457 81.63996947 -17.20381126 78.65201193 -16.5625 75.6640625 C-16.1175869 73.57668025 -15.67301205 71.48922587 -15.22875977 69.40170288 C-14.30004637 65.04212633 -13.3684544 60.68317882 -12.43457031 56.32470703 C-11.23660905 50.73347248 -10.04402777 45.14110802 -8.85334778 39.54831886 C-7.93690563 35.24499391 -7.01857907 30.942073 -6.09957886 26.63929367 C-5.65904194 24.57644832 -5.21887528 22.51352385 -4.77908325 20.45051956 C-4.16569893 17.5755156 -3.55000585 14.70101625 -2.93359375 11.82666016 C-2.7517453 10.97261597 -2.56989685 10.11857178 -2.38253784 9.23864746 C-1.70753651 6.100455 -1.01597134 3.04791401 0 0 Z"/>
<path fill="#DD1E36" transform="translate(585,0)" d="M0 0 C10.23 0 20.46 0 31 0 C29.875 10.125 29.875 10.125 29.02734375 13.59765625 C28.86741943 14.26547119 28.70749512 14.93328613 28.54272461 15.62133789 C28.24313843 16.82971313 28.24313843 16.82971313 27.9375 18.0625 C27.298125 20.681875 26.65875 23.30125 26 26 C15.77 26 5.54 26 -5 26 C-3.54910197 17.2946118 -1.84919231 8.62956411 0 0 Z"/>
<path fill="#DD1E36" transform="translate(608,128)" d="M0 0 C1.625 3.3125 1.625 3.3125 2 7 C0.69868726 9.99301929 -0.06482987 11.53241494 -3 13 C-6.54231061 13.38503376 -8.36257342 13.41935959 -11.375 11.4375 C-13.5996142 8.1005787 -13.50030235 5.93094707 -13 2 C-9.51868399 -2.97330859 -5.11249711 -2.23090783 0 0 Z M-3 2 C-3.67958603 4.39719432 -3.67958603 4.39719432 -4 7 C-3.34 7.66 -2.68 8.32 -2 9 C-0.70366379 7.93354885 -0.70366379 7.93354885 -0.9375 5.4375 C-0.958125 4.633125 -0.97875 3.82875 -1 3 C-1.66 2.67 -2.32 2.34 -3 2 Z M-10 3 C-10.6814823 4.89179203 -10.6814823 4.89179203 -11 7 C-10.34 7.66 -9.68 8.32 -9 9 C-9 7.02 -9 5.04 -9 3 C-9.33 3 -9.66 3 -10 3 Z M-7 7 C-7 8.32 -7 9.64 -7 11 C-6.01 10.67 -5.02 10.34 -4 10 C-4.99 9.01 -5.98 8.02 -7 7 Z"/>
</svg>