<svg xmlns="http://www.w3.org/2000/svg" width="306px" height="65px" viewBox="0 0 306 65" enable-background="new 0 0 306 65">
  <path fill="#737373"
    d="M126.711 12.999v39.001h-6.772v-30.57h-.109l-12.103 30.57h-4.487l-12.402-30.57h-.082v30.57h-6.256v-39.001h9.709l11.206 28.911h.163l11.831-28.911h9.302zm5.664 2.965c0-1.088.394-1.999 1.183-2.734.789-.734 1.727-1.102 2.815-1.102 1.16 0 2.122.377 2.883 1.129.762.752 1.143 1.655 1.143 2.707 0 1.07-.39 1.967-1.17 2.692-.78.725-1.732 1.088-2.856 1.088-1.124 0-2.072-.367-2.842-1.101-.771-.735-1.156-1.628-1.156-2.679zm7.261 8.077v27.959h-6.581v-27.959h6.581zm19.964 23.172c.979 0 2.057-.226 3.236-.68 1.178-.454 2.266-1.051 3.264-1.795v6.119c-1.051.599-2.244 1.052-3.577 1.36-1.332.308-2.797.462-4.392.462-4.116 0-7.461-1.3-10.035-3.903-2.575-2.602-3.862-5.924-3.862-9.968 0-4.497 1.315-8.2 3.944-11.111 2.629-2.91 6.355-4.365 11.178-4.365 1.233 0 2.479.159 3.74.476 1.26.317 2.261.684 3.005 1.101v6.31c-1.016-.744-2.053-1.319-3.114-1.727-1.06-.408-2.144-.612-3.25-.612-2.593 0-4.687.843-6.282 2.529-1.596 1.686-2.394 3.962-2.394 6.826 0 2.828.766 5.032 2.298 6.609 1.531 1.581 3.612 2.369 6.241 2.369zm25.238-23.634c.526 0 .997.036 1.415.109.417.072.771.163 1.061.272v6.663c-.345-.254-.848-.494-1.509-.72-.662-.227-1.465-.34-2.407-.34-1.614 0-2.979.68-4.093 2.04s-1.673 3.454-1.673 6.282v14.115h-6.582v-27.959h6.582v4.406h.109c.599-1.523 1.505-2.715 2.72-3.577 1.214-.86 2.673-1.291 4.377-1.291zm2.832 14.849c0-4.624 1.305-8.286 3.916-10.988 2.611-2.702 6.237-4.053 10.879-4.053 4.37 0 7.783 1.301 10.24 3.903 2.457 2.602 3.685 6.115 3.685 10.539 0 4.533-1.306 8.141-3.916 10.824-2.611 2.684-6.165 4.025-10.662 4.025-4.334 0-7.774-1.273-10.321-3.821-2.547-2.545-3.821-6.022-3.821-10.429zm6.854-.217c0 2.92.661 5.149 1.985 6.691 1.323 1.541 3.218 2.311 5.684 2.311 2.394 0 4.216-.77 5.467-2.311 1.251-1.541 1.877-3.826 1.877-6.854 0-3.009-.648-5.281-1.945-6.813-1.296-1.532-3.114-2.298-5.453-2.298-2.412 0-4.284.802-5.617 2.407-1.332 1.604-1.998 3.893-1.998 6.867zm31.657-6.826c0 .943.299 1.681.898 2.217.598.535 1.921 1.21 3.971 2.026 2.629 1.052 4.474 2.235 5.534 3.55 1.061 1.315 1.591 2.906 1.591 4.773 0 2.629-1.011 4.742-3.033 6.337-2.022 1.596-4.755 2.393-8.2 2.393-1.16 0-2.443-.14-3.848-.421-1.405-.281-2.597-.639-3.577-1.074v-6.473c1.197.834 2.484 1.496 3.862 1.985 1.378.49 2.629.735 3.753.735 1.487 0 2.584-.209 3.291-.626s1.06-1.116 1.06-2.094c0-.907-.367-1.673-1.101-2.298-.734-.626-2.126-1.347-4.175-2.163-2.43-1.015-4.152-2.158-5.168-3.426-1.016-1.269-1.523-2.883-1.523-4.842 0-2.52 1.002-4.592 3.006-6.215 2.003-1.622 4.601-2.434 7.792-2.434.979 0 2.076.109 3.291.326 1.215.218 2.23.499 3.046.844v6.255c-.871-.58-1.886-1.078-3.046-1.496-1.161-.417-2.312-.626-3.454-.626-1.251 0-2.226.245-2.924.734-.697.489-1.046 1.16-1.046 2.013zm14.822 7.043c0-4.624 1.305-8.286 3.916-10.988 2.611-2.702 6.237-4.053 10.879-4.053 4.37 0 7.783 1.301 10.24 3.903 2.457 2.602 3.685 6.115 3.685 10.539 0 4.533-1.306 8.141-3.916 10.824-2.611 2.684-6.165 4.025-10.662 4.025-4.334 0-7.774-1.273-10.321-3.821-2.547-2.545-3.821-6.022-3.821-10.429zm6.854-.217c0 2.92.661 5.149 1.985 6.691 1.323 1.541 3.218 2.311 5.684 2.311 2.394 0 4.216-.77 5.467-2.311 1.251-1.541 1.877-3.826 1.877-6.854 0-3.009-.648-5.281-1.945-6.813-1.296-1.532-3.114-2.298-5.453-2.298-2.412 0-4.284.802-5.617 2.407-1.332 1.604-1.998 3.893-1.998 6.867zm43.702-8.785h-9.802v22.574h-6.663v-22.574h-4.678v-5.385h4.678v-3.889c0-2.938.956-5.345 2.869-7.221 1.913-1.877 4.365-2.815 7.357-2.815.798 0 1.505.041 2.122.122.616.082 1.16.204 1.632.367v5.684c-.218-.127-.599-.281-1.143-.462s-1.17-.272-1.876-.272c-1.379 0-2.439.431-3.183 1.292-.744.861-1.115 2.135-1.115 3.821v3.373h9.802v-6.283l6.609-2.012v8.296h6.664v5.385h-6.664v13.082c0 1.723.313 2.938.938 3.644.626.707 1.609 1.061 2.951 1.061.381 0 .839-.09 1.374-.272.535-.181 1.001-.398 1.401-.653v5.44c-.418.236-1.111.453-2.081.653s-1.926.299-2.869.299c-2.774 0-4.855-.738-6.242-2.216-1.388-1.478-2.081-3.703-2.081-6.678v-14.361z" />
  <path fill="#F25022" d="M0 0h31v31h-31z" />
  <path fill="#7FBA00" d="M65 31h-31l.107-31h30.893z" />
  <path fill="#00A4EF" d="M0 34h31v31h-31z" />
  <path fill="#FFB900" d="M34 34h31v31h-31z" />
</svg>