<?xml version="1.0" encoding="UTF-8"?>
<svg width="175px" height="100px" viewBox="-20 15 155 85" version="1.1" xmlns="http://www.w3.org/2000/svg"
    xmlns:xlink="http://www.w3.org/1999/xlink">
    <title>Global/Logos/Logo White 115x116</title>
    <g id="Global/Logos/Logo-White-115x116" stroke="none" stroke-width="1" fill="none" fill-rule="evenodd">
        <g id="Nissan-Brand-Logo-RGB-W-w_R" transform="translate(8.000000, 16.000000)" fill="#000000"
            fill-rule="nonzero">
            <path
                d="M13.8555723,28.7495995 C18.9690317,13.9030062 33.1008869,3.92852947 49,3.92852947 C64.8991131,3.92852947 79.0309683,13.9030062 84.1444277,28.7495995 L84.1878849,28.8729443 L95.375,28.8729443 L95.375,27.5387655 L90.7209449,27.0001602 C87.8527722,26.6671294 87.2402332,25.411069 86.462143,23.819922 L86.2717593,23.4354977 C79.5483155,9.19534921 64.9177376,0 49,0 C33.0822624,0 18.4516845,9.20151645 11.7282407,23.4354977 L11.537857,23.819922 C10.7618362,25.411069 10.1472278,26.6671294 7.27905511,27.0001602 L2.625,27.5387655 L2.625,28.875 L13.8121151,28.875 L13.8555723,28.7495995 Z"
                id="Path"></path>
            <path
                d="M84.1894551,53.381165 L84.145996,53.5044659 C79.0323084,68.3437211 64.91017,78.3146484 49.0020695,78.3146484 L49.0020695,78.3146484 C33.0939689,78.3146484 18.969761,68.3396111 13.8581429,53.4983008 L13.8167533,53.375 L2.625,53.375 L2.625,54.708704 L7.27719332,55.2491727 C10.1475635,55.5820849 10.7601299,56.8376984 11.5361852,58.4282791 L11.724508,58.8105117 C18.4482518,73.0476479 33.0774131,82.2376699 48.9979305,82.25 L48.9979305,82.25 C64.914309,82.25 79.5455397,73.0538129 86.2692835,58.8228418 L86.4596758,58.4364992 C87.2357312,56.8459184 87.8482976,55.590305 90.7186677,55.2573927 L95.375,54.7189791 L95.375,53.3832201 L84.1894551,53.381165 Z"
                id="Path"></path>
            <rect id="Rectangle" x="20.125" y="35.875" width="2.625" height="11.375"></rect>
            <polygon id="Path"
                points="14 47.25 14 35.875 11.5081301 35.875 11.5081301 44.3523425 3.20731707 35.875 0 35.875 0 47.25 2.49186992 47.25 2.49186992 38.7151562 10.851626 47.25">
            </polygon>
            <path
                d="M70.8564101,35.875 L63.875,47.25 L66.8782779,47.25 L68.119552,45.21897 L76.261503,45.21897 L77.5027771,47.25 L80.5,47.25 L73.5226266,35.875 L70.8564101,35.875 Z M74.9818805,43.0626693 L69.3951378,43.0626693 L72.1925458,38.4913116 L74.9818805,43.0626693 Z"
                id="Shape"></path>
            <path
                d="M56.7665783,44.8823321 C56.6907003,44.8967065 56.3618955,44.9069739 56.2333244,44.9069739 L45.8380347,44.9069739 L45.8380347,47.25 L56.3956191,47.25 C56.4820357,47.25 57.0911676,47.25 57.2387082,47.2335721 C59.3928011,47.046705 60.375,45.301243 60.375,43.7570225 C60.375,42.212802 59.3527544,40.5084097 57.4010029,40.3235961 C57.1209309,40.2957014 56.8394051,40.2840445 56.5579137,40.2886868 L49.6466901,40.2886868 C49.3895838,40.2928802 49.1326605,40.2729378 48.879479,40.2291358 C48.4235226,40.1092804 48.1142082,39.6969451 48.1354528,39.2373027 C48.1350566,38.7790681 48.4463795,38.3760491 48.8984485,38.2495765 C49.1357018,38.1990717 49.3791349,38.1817853 49.6213975,38.1982394 L59.5803884,38.1982394 L59.5803884,35.8757482 L49.4633182,35.8757482 C49.1252891,35.8710837 48.787314,35.8882336 48.4516112,35.9270853 C46.7396514,36.1283766 45.4634487,37.5617955 45.5007991,39.2414096 C45.5007991,40.6501001 46.4092277,42.2949414 48.4052413,42.5762688 C48.7664557,42.613307 49.129687,42.6283951 49.4928264,42.6214455 L56.2143549,42.6214455 C56.342926,42.6214455 56.6358995,42.6214455 56.7033466,42.6378733 C57.3015889,42.6879556 57.752674,43.1890503 57.7255922,43.7734504 C57.7361578,44.3256621 57.3250313,44.7999941 56.7644706,44.8823321"
                id="Path"></path>
            <path
                d="M38.3931852,44.8823321 C38.3194046,44.8967065 37.9905542,44.9069739 37.8598572,44.9069739 L27.4652318,44.9069739 L27.4652318,47.25 L38.0221744,47.25 C38.108603,47.25 38.7178196,47.25 38.8653807,47.2335721 C41.0197727,47.046705 42,45.301243 42,43.7570225 C42,42.212802 40.9797204,40.5084097 39.0255899,40.3235961 C38.7454811,40.2956724 38.4639144,40.2840154 38.1823836,40.2886868 L31.2723081,40.2886868 C31.0151661,40.2928802 30.7582071,40.2729378 30.5049904,40.2291358 C30.0493342,40.1091564 29.7406791,39.6965884 29.7629689,39.2373027 C29.7579768,38.7782496 30.0700867,38.3731489 30.5239626,38.2495765 C30.7612488,38.1990717 31.0047157,38.1817853 31.247012,38.1982394 L41.2073861,38.1982394 L41.2073861,35.8757482 L31.0889108,35.8757482 C30.7508347,35.8710837 30.4128126,35.8882336 30.0770632,35.9270853 C28.3643715,36.1274699 27.0874944,37.5614471 27.1258413,39.2414096 C27.1258413,40.6501001 28.034396,42.2949414 30.0285789,42.5762688 C30.3898463,42.6132699 30.7531256,42.6283579 31.116315,42.6214455 L37.840885,42.6214455 C37.967366,42.6214455 38.2624882,42.6214455 38.3278367,42.6378733 C38.926162,42.6879556 39.3773098,43.1890503 39.3502243,43.7734504 C39.3607913,44.3256621 38.9496077,44.7999941 38.3889691,44.8823321"
                id="Path"></path>
            <polygon id="Path"
                points="98 47.25 98 35.875 95.5081301 35.875 95.5081301 44.3523425 87.2073171 35.875 84 35.875 84 47.25 86.4918699 47.25 86.4918699 38.7151562 94.851626 47.25">
            </polygon>
            <path
                d="M91.4732227,75.2505851 C92.677858,75.270253 93.6398137,76.2602253 93.6248272,77.4648544 C93.6098408,78.6694835 92.6235546,79.6352213 91.4188028,79.6249183 C90.214051,79.6146153 89.2444278,78.6321507 89.2500241,77.4274415 C89.2487588,76.8416528 89.4840825,76.2801637 89.9026488,75.8703178 C90.3212152,75.4604719 90.8875543,75.2370001 91.4732227,75.2505851 Z M91.4732227,79.1949654 C91.9340304,79.1958461 92.3753185,79.008999 92.6953653,78.6774856 C93.0154122,78.3459722 93.1866003,77.8983994 93.169469,77.4379375 C93.1395244,76.5045808 92.3632545,75.7695584 91.4295958,75.7905133 C90.495937,75.8114683 89.7534299,76.5805779 89.7653957,77.5143381 C89.7773616,78.4480983 90.5393335,79.1979308 91.4732227,79.1949654 L91.4732227,79.1949654 Z M90.6334968,78.5652006 L90.6334968,76.3631539 C90.9023198,76.3149971 91.1749289,76.2911101 91.4480309,76.2917678 C91.8406028,76.2917678 92.415815,76.3631539 92.415815,76.9362319 C92.3998854,77.1918445 92.2120972,77.4038505 91.9602637,77.4505326 L91.9602637,77.4862187 C92.1701952,77.5575911 92.2835582,77.7381211 92.3444383,78.0236105 C92.3723566,78.2141004 92.4282408,78.3994266 92.5102842,78.5735974 L92.008548,78.5735974 C91.9256068,78.3996082 91.8690059,78.2142515 91.8406028,78.0236105 C91.7587295,77.6772447 91.5676919,77.6772447 91.1121406,77.6772447 L91.1121406,78.5735974 L90.6334968,78.5652006 Z M91.1247365,77.3224822 C91.4942159,77.3224822 91.9014829,77.3224822 91.9014829,76.9887115 C91.9014829,76.7787929 91.7587295,76.6423458 91.4102433,76.6423458 C91.3145098,76.6393243 91.2187399,76.64707 91.1247365,76.6654368 L91.1247365,77.3224822 Z"
                id="Shape"></path>
        </g>
    </g>
</svg>