<?xml version="1.0" encoding="UTF-8"?>
<svg width="316px" height="128px" viewBox="-15 0 64 32" version="1.1" xmlns="http://www.w3.org/2000/svg" xmlns:xlink="http://www.w3.org/1999/xlink">
    <!-- Generator: Sketch 59.1 (86144) - https://sketch.com -->
    <title>Group</title>
    <desc>Created with Sketch.</desc>
    <g id="Page-1" stroke="none" stroke-width="1" fill="none" fill-rule="evenodd">
        <g id="Group" fill="#010001">
            <path d="M0,11.7337733 C0.0278695815,10.5700725 0.0978400202,7.72195999 0.150910819,6.04355153 C0.219695318,3.89656632 0.643668739,2.58878534 1.4756054,1.80171541 C2.62389145,0.715426207 3.96311379,0.456018576 7.16040706,0.270862824 C14.5686755,-0.158534218 22.1100657,-0.099132714 31.5611151,0.605786197 C32.5442591,0.679090181 32.9166441,0.87625262 33.1102488,1.01812111 C33.527996,1.32334373 33.5813633,1.66585027 33.6919522,3.45295084 C33.7562894,4.47541502 33.8846674,7.20409262 33.9534519,8.70398059 C30.6936003,8.52577608 25.1617848,8.22308118 20.3415332,8.17126285 C15.5218745,8.11944452 11.1831143,8.20222747 10.66812,8.27237179 C9.61470914,8.41550414 9.13143874,8.94000678 8.98942246,9.17002963 L34,14.1107813 L34,18 L0,11.7337733 Z" id="Fill-3"></path>
            <path d="M0,14 L34,20.496686 C33.976581,21.4449497 33.9006914,24.4546296 33.8440707,26.1795751 C33.7752958,28.2479885 33.3507886,29.5071682 32.518968,30.2652924 C31.3711386,31.3112117 30.0321031,31.5603705 26.8349594,31.739558 C19.4277244,32.152693 11.8879792,32.0951949 2.43795175,31.4164729 C1.45494494,31.3461974 1.08350117,31.1563621 0.889034204,31.0194617 C0.471345243,30.7255821 0.417985405,30.3964126 0.307115517,28.6754221 C0.232411743,27.5236331 0.0699606776,24.1245475 0.0171937259,22.9998344 C4.40129738,23.3037533 11.1359019,23.5261405 16.6251471,23.5261405 C18.0033132,23.5261405 21.5870193,23.5708613 22.5403817,23.5708613 C23.2856408,23.5708613 24.2888058,23.3609473 24.7966136,22.5468461 L0,18.2064939 L0,14 Z" id="Fill-5"></path>
        </g>
    </g>
</svg>