<?xml version="1.0" encoding="utf-8"?>
<!-- Generator: Adobe Illustrator 25.2.3, SVG Export Plug-In . SVG Version: 6.00 Build 0)  -->
<svg version="1.1" id="Layer_1" xmlns="http://www.w3.org/2000/svg" xmlns:xlink="http://www.w3.org/1999/xlink" x="0px" y="0px"
	 width="240px" height="120px" viewBox="-25 0 95 60" style="enable-background:new 0 0 45 60;" xml:space="preserve">
<style type="text/css">
	.st0{clip-path:url(#SVGID_2_);fill:#147350;}
	.st1{clip-path:url(#SVGID_2_);fill:#FF6C00;}
	.st2{clip-path:url(#SVGID_2_);fill:#EB0F2A;}
</style>
<g>
	<defs>
		<rect id="SVGID_1_" width="45" height="59.9"/>
	</defs>
	<clipPath id="SVGID_2_">
		<use xlink:href="#SVGID_1_"  style="overflow:visible;"/>
	</clipPath>
	<path class="st0" d="M34.2,45c0.9,0,1.7,0.8,1.7,1.7c0,0.9-0.7,1.7-1.7,1.7c-0.9,0-1.6-0.8-1.6-1.7C32.6,45.8,33.3,45,34.2,45
		 M34.2,48c0.7,0,1.3-0.6,1.3-1.3c0-0.8-0.6-1.3-1.3-1.3c-0.7,0-1.3,0.6-1.3,1.3C32.9,47.5,33.5,48,34.2,48 M34,47.6h-0.3v-1.8h0.6
		c0.4,0,0.6,0.2,0.6,0.6c0,0.3-0.2,0.5-0.4,0.5l0.4,0.7h-0.4l-0.4-0.7H34V47.6z M34.2,46.6c0.2,0,0.3-0.1,0.3-0.3
		c0-0.2-0.1-0.3-0.3-0.3H34v0.5H34.2z"/>
	<path class="st0" d="M42.2,32.3c-0.9,0-1.5,0.4-2.1,0.9l-0.4,0.6l-0.1-0.1l0.5-0.8v-0.5h-3.2v10.6h2.9v-6.7c0-1.1,0.7-1.4,1.2-1.5
		c0.5-0.1,1.1,0.2,1.1,0.8v7.4H45v-7.3C45,33.4,44,32.3,42.2,32.3"/>
	<polygon class="st0" points="9.9,40.6 12.9,40.6 12.9,42.9 7,42.9 7,32.3 9.9,32.3 	"/>
	<polygon class="st0" points="0,42.9 5.9,42.9 5.9,40.8 2.9,40.8 2.9,38.5 5.9,38.5 5.9,36.5 2.9,36.5 2.9,34.5 5.9,34.5 5.9,32.3 
		0,32.3 	"/>
	<polygon class="st0" points="13.9,42.9 19.9,42.9 19.9,40.8 16.8,40.8 16.8,38.5 19.9,38.5 19.9,36.5 16.8,36.5 16.8,34.5 
		19.9,34.5 19.9,32.3 13.9,32.3 	"/>
	<polygon class="st0" points="29.9,42.9 35.9,42.9 35.9,40.8 32.8,40.8 32.8,38.5 35.9,38.5 35.9,36.5 32.8,36.5 32.8,34.5 
		35.9,34.5 35.9,32.3 29.9,32.3 	"/>
	<polygon class="st0" points="26.1,32.3 26.1,32.3 26.1,32.3 25,39 24.9,40.2 24.9,40.3 24.8,40.3 24.8,40.2 24.7,39 23.6,32.3 
		23.6,32.3 20.7,32.3 23.1,42.9 26.7,42.9 29.1,32.3 	"/>
	<path class="st1" d="M37.7,0H0v15h19.9C24.4,8.5,30.5,3.3,37.7,0"/>
	<polygon class="st2" points="15,59.9 30,59.9 30,44.9 15,44.9 	"/>
	<path class="st2" d="M45,15V0C30.7,3.9,19.5,15.4,16.1,30h15.3C33.7,23.3,38.7,17.9,45,15"/>
</g>
</svg>
