<svg id="logo" version="1.1" xmlns="http://www.w3.org/2000/svg" xmlns:xlink="http://www.w3.org/1999/xlink" viewBox="0 0 163 33" width="320px" height="66px">
				<g>
					<g fill="#FF0000">
						<path d="M36.1,8.6c0,0,0.1,1.2-0.4,2c-0.6,1.2-5.5,9.4-7.2,12.2c-1.1,1.8-2.3,2.5-2.3,2.5h10.3c0,0-0.4-0.1-0.1-1.3
							c0.3-1.2,6.5-11.4,6.5-11.4s0.8-1,1.9-1c1.6,0,3.2,0,3.2,0s1.3-0.1,0.7,1.1c-0.5,1-6,10.2-6.7,11c-1.2,1.5-1.9,1.6-1.9,1.6h10.1
							c0,0-0.1-1,0.4-2.1c0.5-1.1,5.2-8.7,5.2-8.7s2-2.9,1.3-4.3c-0.8-1.7-2.4-1.6-2.4-1.6h-6.6c0,0-1.5-0.1-2.2,0.3
							c-1,0.5-1.6,1.3-1.6,1.3l0.6-1.6C44.9,8.6,36.1,8.6,36.1,8.6z"></path>
						<path d="M104.7,18.6c0,0,1-2.1,1.9-2.7c1.3-0.9,2.7-0.9,2.7-0.9h12.2l-2.2,3.6H104.7z"></path>
						<path d="M140.7,8.6c0,0,0.1,1.2-0.4,2.1c-0.6,1.2-5.5,9.4-7.1,12.2c-1.1,1.8-2.3,2.5-2.3,2.5h10.3c0,0-0.4-0.1-0.1-1.3
							c0.3-1.2,6.5-11.4,6.5-11.4s0.8-1,1.9-1c1.6,0,3.2,0,3.2,0s1.3-0.1,0.7,1.1c-0.5,1-6,10.2-6.7,11c-1.2,1.5-1.9,1.6-1.9,1.6h10.1
							c0,0-0.1-1,0.4-2.1c0.5-1.1,5.2-8.7,5.2-8.7s1.9-2.9,1.3-4.3c-0.8-1.7-2.4-1.6-2.4-1.6h-6.6c0,0-1.5-0.1-2.2,0.3
							c-1,0.5-1.6,1.3-1.6,1.3l0.5-1.6h-8.8V8.6z"></path>
						<path d="M30.7,15.9c0,0,1.9-2.9,1.3-4.4c-0.7-1.9-2.4-1.6-2.4-1.6H18c0,0-0.5,0.2-0.7-0.5s0.6-1.6,0.6-1.6s0.3-0.6,0.8-1
							s1.5-0.4,1.5-0.4h1.1h12.5c0,0,0.4-0.1,1.1,0.2c0.4,0.1,0.9,0.8,0.9,0.8l3.8-6.5h-18c0,0-3-0.3-4.6,0.7c-2,1.1-2.4,1.6-3.3,3
							c-0.5,0.7-4.7,8-4.7,8s-0.9,1.2-0.8,2.2c0.1,0.5,0.2,1,0.9,1.3c0.7,0.3,6.9,0.2,6.9,0.2s0.9,0.1,1.3-0.2c0.8-0.6,1.7-1.7,2.5-1.9
							c0.9-0.2,2-0.3,2.9,0.3c0.8,0.6,0.6,0.5,1.3,1.5c0.5,0.8,0.5,1.2,0.5,1.2l-2.1-0.8c0,0-0.7-0.4-1.1-0.2c-0.4,0.1-0.9,0-1.5,1.5
							c-0.4,1.1-0.4,1.9,0.4,2.3c1.1,0.5,3.1,1,3.1,1s-1.1,1-2.6,1.2c-1.3,0.1-2.5-0.4-3-0.9c-0.8-0.8-0.3-0.6-0.9-1
							c-0.7-0.5-2-0.5-2-0.5h-8c0,0-0.4,0.2-1.3-0.2c-0.8-0.3-0.7-0.5-0.7-0.5L1,25.5h18.2c0,0,2.9,0.2,4.7-0.6c2-0.9,3.2-2.9,3.2-2.9
							L30.7,15.9z"></path>
						<path d="M66.2,25.3l0.7-1.8c0,0-1.5,1.2-2.8,1.6c-0.9,0.3-1.4,0.2-1.4,0.2h-7.2c0,0-1.3,0.1-1.8-0.8c-0.6-1-0.5-1.6-0.2-2.3
							c0.5-1.1,2-3.5,2.7-4.7c1.5-2.4,3.1-3.1,4-3.4c1.5-0.4,2.3-0.3,3.4-0.3s6.5,0,6.5,0s1.1,0,1.7-0.2c0.5-0.2,0.7-0.7,0.7-0.7
							l0.2-0.5c0.2-0.9-0.6-0.8-0.6-0.8h-9c0,0-0.6,0-1.4,0.1s-1.5,0.5-1.5,0.5l2.2-3.7h16.4c0,0,1.6-0.2,2.4,1.6
							c0.6,1.4-1.3,4.4-1.3,4.4s-4.8,7.6-5.2,8.7c-0.5,1.1-0.4,2.1-0.4,2.1H66.2z M69.5,17.4h-3c0,0-0.9,0-1.8,0.2
							c-0.6,0.1-2.4,3.4-2.3,3.9c0.1,0.4,0.7,0.4,0.7,0.4h3.1c0,0,0.8,0,1.2-0.5c0.8-0.8,2.3-3.5,2.3-3.5s0,0.2,0-0.2
							C69.9,17.3,69.5,17.4,69.5,17.4z"></path>
						<path d="M82.1,29.4c-0.5,1.1-0.4,2.1-0.4,2.1h-9.5c0,0,0.3-0.5,0.7-1c0.7-0.9,1.2-1.9,1.2-1.9s9.8-16.7,10.4-17.9
							c0.5-0.9,0.4-2.1,0.4-2.1h8.4v1.1c0,0,0.7-0.5,1.2-0.8c0.4-0.2,1.4-0.3,1.4-0.3h7.4c0,0,1.6-0.2,2.4,1.6c0.6,1.4-1.3,4.3-1.3,4.3
							l-4.4,7.6c0,0-1.1,1.6-2.6,2.5c-1.8,1-3.8,0.9-3.8,0.9l-6.5-0.1c0,0-1.2-0.1-1.6-0.7c-0.4-0.6-0.2-0.5-0.2-0.5L82.1,29.4z
							 M94.1,11.6c0,0-0.9-0.1-1.4,0.3s-0.9,0.9-0.9,0.9l-4.6,7.6c0,0-0.5,0.6-0.3,1.1s0.9,0.3,0.9,0.3h3c0,0,0.4,0.1,1-0.2
							c0.6-0.3,1.2-1.2,1.2-1.2l4.4-7.3c0,0,0.5-0.5,0.2-1.1c-0.2-0.4-0.8-0.4-0.8-0.4S94.1,11.6,94.1,11.6z"></path>
						<path d="M111.1,25.4c0,0-1.3,0.1-1.8-0.8c-0.6-1-0.3-1.6-0.1-2.4l1.4-2.5h7.8c0,0-0.3,0.7-0.8,1.6c-0.3,0.5,0.5,0.5,0.5,0.5h3.5
							c0,0,1.6,0.1,2-0.8c0.3-0.6,4.1-7.1,4.1-7.1s0.9-1.2,0.8-1.7c-0.2-0.6-1.2-0.6-1.2-0.6h-2.4c0,0-1.3-0.1-1.6,0.4
							c-0.5,0.7-1.2,1.7-1.2,1.7h-8l1.6-2.4c0,0,0.9-1.2,1.9-1.9c1.3-0.9,2.8-0.9,2.8-0.9h14.3c0,0,1.6-0.2,2.4,1.6
							c0.6,1.4-1.3,4.3-1.3,4.3l-4.5,7.6c0,0-1.2,1.6-2.5,2.4c-1.8,1.1-3.8,0.9-3.8,0.9L111.1,25.4z"></path>
					</g>
					<g fill="#FF0000">
						<path class="st0" d="M157.3,24.2c0-1.2,1-2.2,2.2-2.2s2.2,0.9,2.2,2.2s-1,2.2-2.2,2.2C158.3,26.3,157.3,25.4,157.3,24.2z"></path>
					</g>
					<path fill="#FFFFFF" d="M159.1,25.3h-0.5v-2.2h0.9c0.2,0,0.4,0,0.6,0.1c0.2,0.1,0.3,0.3,0.3,0.6s-0.1,0.5-0.4,0.6l0.4,1h-0.6l-0.3-0.9h-0.4V25.3z
						 M159.1,24.1h0.3c0.1,0,0.2,0,0.3,0c0.1-0.1,0.1-0.2,0.1-0.3s-0.1-0.2-0.1-0.2c-0.1-0.1-0.2,0-0.3,0h-0.3V24.1z"></path>
				</g>
				</svg>