<?xml version="1.0" encoding="UTF-8"?>
<!-- Generator: Adobe Illustrator 18.1.1, SVG Export Plug-In . SVG Version: 6.00 Build 0)  -->
<!DOCTYPE svg PUBLIC "-//W3C//DTD SVG 1.1//EN" "http://www.w3.org/Graphics/SVG/1.1/DTD/svg11.dtd">
<svg width="322px" height="34px" viewBox="0 0 322 34" version="1.1" xmlns:x="http://ns.adobe.com/Extensibility/1.0/" xmlns:i="http://ns.adobe.com/AdobeIllustrator/10.0/" xmlns:graph="http://ns.adobe.com/Graphs/1.0/" xmlns="http://www.w3.org/2000/svg" xmlns:xlink="http://www.w3.org/1999/xlink">
<g>
	<g>
		<g>
			<rect x="225.621" y="11.661" fill="#ED1C24" width="10.634" height="5.565"/>
			<rect x="186.931" y="11.661" fill="#ED1C24" width="10.634" height="5.565"/>
		</g>
		<g>
			<g>
				<path fill="#000000" d="M60.301,0H43.348c-5.307,0-7.002,1.436-7.002,7.008v15.625c0,5.572,1.695,7.008,7.002,7.008h5.363v4.057      h6.233V29.64h5.357c5.307,0,7.002-1.436,7.002-7.008V7.008C67.303,1.436,65.607,0,60.301,0z M60.738,24.068h-5.795v-3.18H48.71      v3.18h-5.8V5.087h17.828V24.068z"/>
				<path fill="#000000" d="M94.697,24.068H79.057V0h-6.565v22.632c0,5.572,1.696,7.008,7.002,7.008H94.26      c5.307,0,7.003-1.436,7.003-7.008V0h-6.565V24.068z"/>
				<path fill="#000000" d="M117.949,0l-15.04,29.64h6.18l3.091-6.491h16.843l3.193,6.491h6.954L123.924,0H117.949z M114.808,17.807      l5.923-12.063l5.717,12.063H114.808z"/>
				<path fill="#000000" d="M162.973,18.439c4.322,0,6.346-1.608,6.346-5.744v-6.95c0-4.136-2.024-5.745-6.346-5.745h-21.112v29.64      h6.455V18.439h4.358l10.189,11.201h8.901l-11.322-11.201H162.973z M148.317,13.384V5.112h11.703      c2.024,0,2.954,0.402,2.954,2.355v3.562c0,1.953-0.93,2.355-2.954,2.355H148.317z"/>
				<polygon fill="#000000" points="220.194,5.055 238.68,5.055 238.68,0 213.629,0 213.629,29.64 238.953,29.64 238.953,24.068       220.194,24.068     "/>
				<path fill="#000000" d="M265.715,15.567c0,0.919,0.109,2.642,0.273,5.112C265.004,19.473,248.271,0,248.271,0h-4.486v29.64      h5.909V13.614c0-0.861-0.055-2.413-0.273-4.71c0.766,0.919,17.716,20.736,17.716,20.736h4.486V0h-5.908V15.567z"/>
				<rect x="277.055" y="0" fill="#000000" width="6.564" height="29.64"/>
				<polygon fill="#000000" points="307.574,13.614 319.28,0 312.1,0 303.932,10.052 295.348,0 287.076,0 300.03,14.418       287.283,29.64 294.672,29.64 303.725,18.152 313.557,29.64 322.037,29.64     "/>
				<polygon fill="#000000" points="181.504,5.055 199.988,5.055 199.988,0 174.939,0 174.939,29.64 200.262,29.64 200.262,24.068       181.504,24.068     "/>
				<path fill="#000000" d="M0,24.068c0,4.358,2.171,5.572,6.991,5.572h17.606c5.307,0,7.057-1.436,7.057-7.008v-4.078      c0-5.572-1.75-7.008-7.057-7.008H6.982V5.091h18.491v2.724l5.799-0.002V6.491C31.272,1.379,29.303,0,24.269,0H8.24      C2.933,0,1.238,1.436,1.238,7.008v3.274c0,5.572,1.696,7.008,7.002,7.008h17.616v6.777H0z"/>
			</g>
		</g>
	</g>
</g>
</svg>