<?xml version="1.0" encoding="UTF-8"?>
<svg width="378px" height="200px" viewBox="-50 0 328 200" version="1.1" xmlns="http://www.w3.org/2000/svg" xmlns:xlink="http://www.w3.org/1999/xlink">
    <!-- Generator: Sketch 52.6 (67491) - http://www.bohemiancoding.com/sketch -->
    <title>Tata Logo</title>
    <desc>Created with Sketch.</desc>
    <g id="Page-1" stroke="none" stroke-width="1" fill="none" fill-rule="evenodd">
        <g id="2D-stacked" transform="translate(-1.000000, 0.000000)" fill="#000000">
            <g id="Tata-Logo" transform="translate(1.000000, 0.000000)">
                <polyline id="Fill-1" points="0.123 142.563 54.864 142.563 54.864 159.219 39.163 159.219 39.163 199.255 16.352 199.255 16.352 159.219 0.123 159.219 0.123 142.563"></polyline>
                <polyline id="Fill-2" points="82.587 165.469 71.065 199.255 49.157 199.255 70.643 142.563 94.429 142.563 116.43 199.255 94.259 199.255 82.587 165.469"></polyline>
                <polyline id="Fill-3" points="111.201 142.563 165.941 142.563 165.941 159.219 150.241 159.219 150.241 199.255 127.43 199.255 127.43 159.219 111.201 159.219 111.201 142.563"></polyline>
                <polyline id="Fill-4" points="193.666 165.469 182.142 199.255 160.235 199.255 181.721 142.563 205.507 142.563 227.509 199.255 205.338 199.255 193.666 165.469"></polyline>
                <path d="M194.093,38.504 C192.058,34.502 189.37,30.662 186.037,27.064 C178.543,18.973 167.966,12.242 155.448,7.598 C142.835,2.919 128.439,0.446 113.816,0.446 C99.193,0.446 84.797,2.919 72.185,7.598 C59.666,12.242 49.088,18.973 41.594,27.064 C38.261,30.663 35.572,34.505 33.536,38.509 C49.828,34.57 77.699,29.365 103.578,28.818 C106.075,28.765 107.793,29.563 108.925,30.996 C110.305,32.743 110.199,38.973 110.163,41.756 L109.426,113.748 C110.886,113.797 112.35,113.829 113.816,113.829 C115.294,113.829 116.764,113.803 118.223,113.753 L117.487,41.756 C117.45,38.973 117.345,32.743 118.725,30.996 C119.857,29.563 121.574,28.765 124.071,28.818 C149.939,29.365 177.798,34.567 194.093,38.504" id="Fill-5"></path>
                <path d="M197.567,47.864 C173.72,42.473 157.798,41.477 142.082,40.605 C128.387,39.846 128.21,44.736 129.579,54.083 C129.662,54.653 129.774,55.371 129.906,56.192 C134.499,83.402 140.218,106.819 141.203,110.788 C174.596,103.16 198.679,81.997 198.679,57.137 C198.679,54.008 198.297,50.908 197.567,47.864" id="Fill-6"></path>
                <path d="M98.071,54.083 C99.439,44.736 99.263,39.846 85.568,40.605 C69.847,41.477 53.92,42.474 30.064,47.868 C29.335,50.911 28.953,54.009 28.953,57.137 C28.953,67.883 33.324,78.282 41.594,87.212 C49.088,95.302 59.666,102.033 72.185,106.677 C76.721,108.36 81.5,109.735 86.426,110.833 C87.352,107.11 93.205,83.204 97.853,55.508 C97.936,54.975 98.012,54.487 98.071,54.083" id="Fill-7"></path>
            </g>
        </g>
    </g>
</svg>