<?xml version="1.0" encoding="utf-8"?>
<!-- Generator: Adobe Illustrator 26.3.1, SVG Export Plug-In . SVG Version: 6.00 Build 0)  -->
<svg width="212px" height="62px" version="1.1" id="Layer_1" xmlns="http://www.w3.org/2000/svg" xmlns:xlink="http://www.w3.org/1999/xlink" x="0px" y="0px"
	 viewBox="0 0 106 31" style="enable-background:new 0 0 106 31;" xml:space="preserve">
<style type="text/css">
	.st0{fill:#EB0A1E;}
	.st1{fill:#FFFFFF;}
</style>
<g>
	<path d="M96.6,16.4l1.6-4.2l1.6,4.2H96.6z M99.8,9.8h-3.3l-4.7,11.4h2.9l1.1-2.8h4.8l1.1,2.8h2.9L99.8,9.8z M76.3,19.2
		c-1.9,0-3.4-1.7-3.4-3.8s1.5-3.8,3.4-3.8c1.9,0,3.4,1.7,3.4,3.8S78.2,19.2,76.3,19.2 M76.3,9.4c-3.3,0.1-6,2.8-5.9,6.1
		c0.1,3.2,2.7,5.9,5.9,5.9c3.3,0.1,6.1-2.6,6.1-5.9c0.1-3.3-2.6-6.1-5.9-6.1C76.5,9.4,76.4,9.4,76.3,9.4 M52.5,19.2
		c-1.9,0-3.4-1.7-3.4-3.8s1.5-3.8,3.4-3.8c1.9,0,3.4,1.7,3.4,3.8C55.9,17.5,54.4,19.2,52.5,19.2 M52.5,9.4c-3.3,0-6,2.7-6,6
		c0,0,0,0,0,0c0,3.3,2.7,6,6,6c3.3,0,6-2.7,6-6C58.6,12.1,55.9,9.4,52.5,9.4 M67.4,9.8l-3,4.6l-3-4.6h-2.9l4.6,7.2v4.3h2.5v-4.3
		l4.6-7.2L67.4,9.8L67.4,9.8z M92.5,9.8h-9.8V12h3.6v9.2h2.5V12h3.6L92.5,9.8L92.5,9.8z M36.2,12h3.6v9.2h2.5V12H46V9.8h-9.8
		L36.2,12L36.2,12z"/>
	<path class="st0" d="M2,1.8h27.4v27.4H2V1.8z"/>
	<path class="st1" d="M20.3,9.5c-1.3-0.4-2.9-0.6-4.6-0.6s-3.3,0.2-4.6,0.6c-3.4,1.1-5.7,3.3-5.7,6c0,3.7,4.6,6.6,10.3,6.6
		c5.7,0,10.3-3,10.3-6.6C26,12.9,23.6,10.6,20.3,9.5 M15.7,19.3c-0.8,0-1.5-1.7-1.6-3.8c1,0.1,2.1,0.1,3.2,0
		C17.2,17.6,16.5,19.3,15.7,19.3 M14.2,13.9c0.2-1.5,0.8-2.5,1.5-2.5c0.7,0,1.2,1,1.5,2.5C16.2,14,15.2,14,14.2,13.9 M18.1,13.8
		c-0.3-2.3-1.3-4-2.4-4s-2,1.7-2.4,4c-2.1-0.3-3.5-1.1-3.5-1.9c0-1.2,2.6-2.1,5.9-2.1s5.9,0.9,5.9,2.1
		C21.6,12.7,20.1,13.4,18.1,13.8 M6.9,15.2c0-1.1,0.4-2.2,1.2-3.1c0,0.1,0,0.1,0,0.2c0,1.4,2.1,2.6,5.1,3.1c0,0.1,0,0.2,0,0.3
		c0,2.6,0.7,4.9,1.7,5.6C10.4,21.1,6.9,18.4,6.9,15.2 M16.5,21.3c1-0.8,1.7-3,1.7-5.6c0-0.1,0-0.2,0-0.3c3-0.4,5.1-1.6,5.1-3.1
		c0-0.1,0-0.1,0-0.2c0.8,0.9,1.2,2,1.2,3.1C24.5,18.4,20.9,21.1,16.5,21.3"/>
</g>
</svg>
