<?xml version="1.0" encoding="UTF-8"?>
<svg id="Layer_1" data-name="Layer 1" xmlns="http://www.w3.org/2000/svg" width="360" height="75" viewBox="0 0 360 75">
  <defs>
    <style>
      .cls-1 {
        fill: #212121;
      }
    </style>
  </defs>
  <path class="cls-1" d="M115.53,39.81c-.21.62-.31,1.25-.52,1.87-.93,2.49-3.22,6.23-8.31,6.23-6.23,0-10.38-7.79-10.38-13.6,0-5.09,2.08-14.43,10.49-13.91,1.56.1,2.8.42,3.84.93,3.32,1.66,4.05,4.57,4.15,5.09v.1h.31v-2.7c0-.21-.31-.62-.73-1.04-1.25-1.25-4.26-3.11-8.2-3.11h-.42c-8.1.21-14.22,6.96-14.22,14.64,0,4.57,2.08,7.99,4.67,10.59,2.91,2.7,6.23,3.84,9.66,3.84,4.26,0,9.76-2.6,9.76-2.8v-6.13h-.1ZM126.53,47.6v-27.31h-5.92v.21c.21,0,2.39.42,2.39,1.76v25.23c0,.73-.73.93-.93.93v.31h5.29v-.21c-.21-.1-.83-.21-.83-.93ZM331.27,47.6v-27.31h-5.92v.21c.21,0,2.39.42,2.39,1.76v25.23c0,.73-.73.93-.93.93v.31h5.29v-.21c-.1-.1-.83-.21-.83-.93ZM33.3,19.77v.21c1.14,0,1.76.73,1.35,1.56l-8.31,21.08-8.31-20.56c-.62-1.56.42-2.08,1.76-2.08v-.21h-10.28v.21c1.66,0,3.53.73,4.36,2.7l10.07,25.13h1.04l10.28-26.06c.42-1.04,1.66-1.76,2.7-1.76v-.21h-4.67ZM343.94,48.74c-3.32,0-6.44-2.18-6.44-2.28v-3.63h.21c.73,2.49,2.28,5.5,6.44,5.5,1.77,0,3.32-.93,3.32-3.22,0-1.97-1.25-2.6-2.7-3.01l-3.22-1.04c-1.66-.52-4.05-1.35-4.05-4.78,0-2.91,2.49-5.19,5.92-5.19,2.49,0,4.78,1.45,4.78,1.66v3.32c-.73-2.39-1.77-4.46-4.57-4.46-2.6,0-4.15,1.25-4.15,3.11,0,1.66,1.25,2.39,3.63,3.11l3.01.93c2.49.83,4.36,2.18,4.36,4.57,0,2.7-2.39,5.4-6.54,5.4h0ZM260.15,46.77l-10.49-26.27h-.93l-10.59,26.79c-.42,1.04-1.66,1.14-2.08,1.14v.31h4.05v-.21c-.31,0-1.66-.21-1.25-1.35l3.53-9.03h9.86l3.43,8.62c.52,1.35-.93,1.66-1.25,1.66v.31h8.31v-.21c-.73-.1-2.18-.62-2.6-1.76ZM251.74,36.8h-8.72l4.36-11.11,4.36,11.11ZM276.56,30.99c-3.43,0-4.88,2.8-5.4,4.36h-.1v-3.95h-4.36v.21c.21,0,.93.21.93.73v15.37c0,.52-.62.73-.93.73v.31h5.29v-.21c-.21,0-.83-.1-.83-.62v-9.14c0-4.36,2.49-6.96,4.26-6.96.93,0,1.45.62,1.45,1.66v1.87c0,.62.52,1.14,1.66,1.14,1.04,0,1.66-.42,1.66-1.14,0-3.11-1.04-4.36-3.63-4.36ZM55.2,47.49c-.62.42-1.66.42-2.08.31-.83-.21-1.45-.62-1.45-2.08v-9.45c0-2.8-1.76-5.4-6.75-5.4-4.15,0-7.16,2.08-7.16,4.36,0,.93,0,1.66,1.76,1.66,1.04,0,1.56-.62,1.56-1.25v-1.76c0-1.87,1.97-2.39,3.74-2.39,2.7,0,3.43,1.56,3.43,4.05v3.53h-.1c-3.84-.21-10.69.83-10.69,5.71,0,2.6,1.87,3.95,4.46,3.95,2.39,0,4.78-1.14,6.23-2.91v-.21.1c.42,1.87,1.45,3.01,4.05,3.01,1.35,0,2.39-.52,3.11-.93,0,0-.1-.31-.1-.31ZM48.04,44.69c-.52,1.35-1.76,2.39-3.32,2.39-1.97,0-3.74-1.25-3.74-3.74,0-3.32,4.67-3.84,7.37-3.84v3.84c0,.52-.1,1.04-.31,1.35ZM76.49,47.6v-11.42c0-3.63-2.49-5.19-6.13-5.19h-.93c-.21,0-.31,0-.52.1h-.21c-.21,0-.31.1-.52.1h-.21c-.21.1-.31.1-.52.21h-.1c-.73.31-1.45.73-1.97,1.25l-.31.31c-.31.31-.62.73-.83,1.04v.1c-.1.1-.1.21-.21.31v-3.22h-4.88v.21c.1,0,.83.1.83.73v15.57c0,.62-.73.83-.83.83v.21h5.19v-.21c-.1,0-.83-.31-.83-.93v-9.86c0-.21,0-.31.1-.52,0-.1,0-.21.1-.21.83-3.22,3.63-4.88,5.81-4.88,2.6,0,3.22.73,3.43,3.22.1.42.1.93.1,1.45v10.9c0,.73-.73.93-.93.93v.1h5.29v-.21c-.31-.1-.93-.21-.93-.93h0ZM183.74,19.67c-2.39,0-4.67,1.45-6.02,3.22-1.04,1.25-1.87,2.8-1.87,6.44v1.04c-.21.83-1.04,1.97-1.97,1.97,0,0,1.45,0,1.97-.52v15.99c0,.52-.62.73-.83.73v.21h5.19v-.21c-.21,0-.83-.1-.83-.62v-15.37h4.05v-1.04h-4.05v-5.4c0-3.95,1.87-5.81,4.15-5.81,1.04,0,2.28.42,2.28,1.76v2.08c0,.62.52,1.14,1.66,1.14,1.04,0,1.66-.42,1.66-1.14,0-2.39-.93-4.46-5.4-4.46ZM225.27,36.9v-.31h-5.71s-.1,3.63-1.97,6.85c-.1.21-.31.42-.42.62-1.76-1.97-3.11-3.74-4.98-6.02l-1.45-1.76c1.45-.42,2.8-.93,3.95-2.08l.42-.42c0-.1.1-.1.1-.21.21-.31.31-.62.42-.93v-.73c0-2.8-1.97-4.57-5.4-4.57-3.11,0-5.61,2.08-5.61,5.19,0,1.76.93,3.01,1.66,3.84l.52.62c-.1,0-.31.1-.42.1-.21,0-.42.1-.62.21-1.76.52-4.78,2.18-4.78,5.61,0,2.49,1.66,6.44,8.2,6.23,3.22-.1,4.67-1.04,6.02-2.18l.21.21c1.14,1.14,2.39,1.76,4.57,1.76,1.97,0,3.22-.83,4.15-1.66l-.21-.31c-2.28,1.56-4.46-.1-6.64-2.39.73-1.14,1.97-3.22,2.6-3.95,1.56-1.76,3.74-3.74,5.4-3.74h0ZM209.17,34.41c-3.32-3.95-1.45-6.54.31-6.75h.31c2.08,0,3.32,2.18,3.32,4.15-.21,2.39-.93,3.32-2.7,4.05-.42-.52-.83-.93-1.25-1.45ZM214.78,46.77c-.21.1-.42.31-.62.42-.1.1-.21.1-.31.21,0,0-.1,0-.1.1-2.6,1.35-5.19.42-6.75-1.04-1.25-1.45-2.18-3.22-2.18-4.46,0-.73.1-1.35.31-1.87.31-.73.73-1.25,1.25-1.66.42-.31.83-.52,1.25-.73,1.04,1.25,3.22,3.74,7.58,8.82l.1.1c-.31-.1-.42,0-.52.1h0ZM147.61,45c-.52.93-1.04,1.56-1.56,2.08-.83.52-1.76.83-2.8.83-3.32,0-5.92-3.22-6.44-6.85-.1-.73-.21-1.76-.21-2.39h12.67v-.1c0-4.05-2.6-6.54-6.13-7.37h-.1c-.52-.1-1.04-.21-1.56-.21h-.62c-.62,0-1.25.1-1.87.21-3.74.93-6.44,4.78-6.44,8.72,0,5.29,4.05,8.82,8.31,8.82,4.57,0,6.75-2.08,7.79-3.74,0,0-1.04,0-1.04,0ZM138.26,33.69c.73-1.25,1.66-1.87,2.7-1.97h.52c3.11,0,4.26,3.53,4.26,6.23h-8.41c.21-1.76.52-3.22.93-4.26ZM168.06,45c-.52.93-1.04,1.56-1.56,2.08-.83.52-1.76.83-2.8.83-3.32,0-5.92-3.22-6.44-6.85-.1-.73-.21-1.76-.21-2.39h12.67v-.1c0-4.05-2.6-6.54-6.13-7.37h-.1c-.52-.1-1.04-.21-1.56-.21h-.62c-.62,0-1.25.1-1.87.21-3.74.93-6.44,4.78-6.44,8.72,0,5.29,4.05,8.82,8.31,8.82,4.57,0,6.75-2.08,7.79-3.74,0,0-1.04,0-1.04,0ZM158.72,33.69c.73-1.25,1.66-1.87,2.7-1.97h.52c3.11,0,4.26,3.53,4.26,6.23h-8.41c.1-1.76.42-3.22.93-4.26ZM321.2,44.9c-.52.93-1.04,1.56-1.56,2.08-.83.52-1.77.83-2.8.83-3.32,0-5.92-3.22-6.44-6.85-.1-.73-.21-1.76-.21-2.39h12.67v-.1c0-4.05-2.6-6.54-6.13-7.37h-.1c-.52-.1-1.04-.21-1.56-.21h-.62c-.62,0-1.25.1-1.87.21-3.74.93-6.44,4.78-6.44,8.72,0,5.29,4.05,8.82,8.31,8.82,4.57,0,6.75-2.08,7.79-3.74h-1.04,0ZM311.86,33.48c.73-1.25,1.66-1.87,2.7-1.97h.52c3.11,0,4.26,3.53,4.26,6.23h-8.41c.1-1.76.42-3.11.93-4.26ZM299.19,33.79c-1.25-1.45-3.22-2.49-5.09-2.39-2.91,0-4.98,1.45-5.71,2.28v-2.08h-4.26v.21c.21,0,.83,0,.83.62v24.92c0,1.35-2.18,1.76-2.39,1.76v.21h5.92v-12.67s.52,1.04,1.97,1.66c.62.21,1.25.31,1.87.42h.52c4.67,0,8.41-3.74,8.41-8.93,0-2.18-.73-4.46-2.08-6.02ZM291.82,47.81c-.42,0-.73-.1-1.04-.21-.83-.31-1.66-1.04-1.97-2.18-.1-.31-.21-.73-.21-1.04l-.1-8.1v-.52c0-1.97,2.39-3.32,3.74-3.32,1.56,0,2.6.31,3.63,1.56,1.25,1.45,1.77,3.53,1.77,5.5,0,4.05-1.97,8.31-5.81,8.31Z"/>
</svg>