<?xml version="1.0" encoding="UTF-8"?>
<svg id="Layer_1" data-name="Layer 1" xmlns="http://www.w3.org/2000/svg" width="360" height="320" viewBox="0 0 360 320">
  <path d="M180,247.65c-47.91,0-87.3-39.75-87.3-87.65,0-9.94,1.77-19.52,4.97-28.74l51.11,99.36c.7,1.42,1.42,2.48,3.19,2.48s2.48-1.07,3.2-2.48l23.77-52.88c.35-.71.71-1.07,1.07-1.07.71,0,.71.71,1.07,1.07l24.13,52.88c.71,1.42,1.42,2.48,3.2,2.48s2.48-1.07,3.19-2.48l51.11-99.36c3.19,8.87,4.97,18.45,4.97,28.74-.36,47.91-39.75,87.65-87.65,87.65M180,137.29c-.71,0-.71-.71-1.07-1.06l-27.32-58.91c18.35-6.61,38.43-6.61,56.79,0l-27.32,58.91c-.36.35-.36,1.06-1.07,1.06M151.26,201.16c-.71,0-.71-.7-1.07-1.06l-44.71-85.89c7.81-12.77,19.16-23.42,32.29-30.87l31.58,68.13c.71,1.42,1.42,1.78,2.48,1.78h16.33c1.06,0,1.77-.36,2.48-1.78l31.22-68.13c13.13,7.45,24.48,18.1,32.29,30.87l-44.36,85.89c-.36.71-.71,1.06-1.07,1.06-.7,0-.7-.7-1.06-1.06l-17.03-37.62c-.71-1.42-1.42-1.77-2.48-1.77h-16.33c-1.06,0-1.77.36-2.48,1.77l-17.03,37.62c-.36.36-.36,1.06-1.06,1.06M180,259.36c55.01,0,99.36-44.36,99.36-99.36s-44.36-99.36-99.36-99.36-99.36,44.36-99.36,99.36,44.36,99.36,99.36,99.36"/>
</svg>