<?xml version="1.0" encoding="UTF-8"?>
<svg width="244px" height="72px" viewBox="0 0 244 72" version="1.1" xmlns="http://www.w3.org/2000/svg" xmlns:xlink="http://www.w3.org/1999/xlink">
    <title>Logos/XboxLogoWhite</title>
    <g id="00_Reference" stroke="none" stroke-width="1" fill="none" fill-rule="evenodd">
        <g id="Tearsheets_Icons" transform="translate(-624.000000, -160.000000)" fill="#000000">
            <g id="Logos" transform="translate(624.000000, 160.000000)">
                <path d="M36,28.8724 C36.04,28.8724 36.0902,28.907 36.1178,28.931 C46.8838,37.12 65.3186,57.3776 59.6976,63.099 C53.3654,68.6412 45.076,72 36,72 C26.9242,72 18.6348,68.6412 12.3024,63.099 C6.6814,57.3776 25.1146,37.12 35.8806,28.931 C35.9092,28.907 35.9594,28.8724 36,28.8724 Z M185.676036,13.4 C188.820235,13.4 191.702868,13.9191358 194.243344,14.9426774 C196.78502,15.9666171 199.05553,17.5242237 200.991484,19.5721031 C202.907839,21.6599926 204.364654,24.0922475 205.322331,26.8017862 C206.279609,29.5099315 206.764947,32.5712007 206.764947,35.9 C206.764947,39.2289984 206.279609,42.2850921 205.322331,44.9832847 C204.364454,47.6828706 202.907639,50.0999973 200.991884,52.1673841 C199.05573,54.2353681 196.78522,55.8083019 194.243544,56.8421944 C191.702868,57.8758878 188.820435,58.4 185.676036,58.4 C182.491242,58.4 179.588612,57.8758878 177.047936,56.8421944 C174.50626,55.8083019 172.256147,54.2353681 170.359989,52.1675832 C168.424436,50.1199029 166.952024,47.713127 165.984347,45.0135411 C165.01687,42.3153485 164.526533,39.2491029 164.526533,35.9 C164.526533,32.5710016 165.01687,29.5099315 165.984347,26.8015871 C166.952024,24.0920484 168.424436,21.6597935 170.359989,19.5725012 C172.256147,17.5244227 174.50626,15.9668162 177.048136,14.9426774 C179.588612,13.9191358 182.491442,13.4 185.676036,13.4 Z M45.885,19.7804 C56.8658,8.857 60.5944,10.0178 61.1996,10.3296 C61.2594,10.3602 61.3114,10.404 61.3592,10.4514 C67.9288,16.9728 72,26.0096 72,35.9996 C72,44.2008 69.2564,51.7566 64.6388,57.8098 C64.594,57.8674 64.5116,57.9056 64.447,57.8674 C64.385,57.8316 64.3812,57.7514 64.4054,57.6824 C66.7054222,50.5693838 57.2153508,34.9614104 49.8174316,25.0199311 L49.2864809,24.3113386 C48.6717432,23.4966252 48.0742659,22.7246436 47.5023766,22.0038888 L47.0186464,21.3988425 C46.6210836,20.9054219 46.2377899,20.4393758 45.8718,20.0038 C45.8468,19.974 45.8228,19.9404 45.8228,19.8998 C45.8228,19.8484 45.8502,19.8102 45.885,19.7804 Z M10.8004,10.3296 C11.4056,10.0178 15.1342,8.857 26.115,19.7804 C26.1498,19.8102 26.1772,19.8484 26.1772,19.8998 C26.1772,19.9404 26.1534,19.974 26.1282,20.0038 C25.7622101,20.4393758 25.3789164,20.9054219 24.9813536,21.3988425 L24.4976235,22.0038888 C23.9257342,22.7246436 23.3282571,23.4966252 22.7135197,24.3113386 L22.1825692,25.0199311 C14.7846545,34.9614104 5.2946101,50.5693838 7.5948,57.6824 C7.6186,57.7514 7.615,57.8316 7.553,57.8674 C7.4884,57.9056 7.406,57.8674 7.3612,57.8098 C2.7436,51.7566 0,44.2008 0,35.9996 C0,26.0096 4.0712,16.9728 10.641,10.4514 C10.6886,10.404 10.7406,10.3602 10.8004,10.3296 Z M212.563208,14.3650194 L223.956955,29.9749244 L235.350503,14.3650194 L242.715764,14.3650194 L227.639486,35.0203753 L244,57.4347816 L236.634539,57.4347816 L223.956955,40.0658262 L211.278972,57.4347816 L203.913711,57.4347816 L220.274225,35.0203753 L205.197947,14.3650194 L212.563208,14.3650194 Z M146.985369,14.3650194 C151.343614,14.3650194 154.731782,15.4052816 157.055685,17.456943 C159.381589,19.510595 160.561038,22.2458119 160.561038,25.5861564 C160.561038,29.7288922 158.674279,32.8701815 154.952754,34.9248288 C157.354447,35.8490419 159.196412,37.2097829 160.428455,38.9700276 C161.682495,40.7619221 162.318214,42.8539917 162.318214,45.1883115 C162.318214,48.9693641 161.057175,51.9886326 158.570092,54.1623149 C156.085609,56.3338075 152.47327,57.4347816 147.833661,57.4347816 L127.545248,57.4347816 L127.545248,38.2550215 L117.905477,38.2550215 L121.915766,32.7609003 L127.545248,32.7609003 L127.545248,14.3650194 L146.985369,14.3650194 Z M92.6494972,14.3650194 L104.043045,29.9749244 L115.436792,14.3650194 L122.802053,14.3650194 L107.725775,35.0203753 L124.086289,57.4349806 L116.720828,57.4349806 L104.043045,40.0658262 L91.3652609,57.4349806 L84,57.4349806 L100.360514,35.0203753 L85.2842363,14.3650194 L92.6494972,14.3650194 Z M185.676036,19.3165163 C181.392982,19.3165163 177.902427,20.8108233 175.301759,23.7582329 C172.699091,26.7874542 171.379059,30.8728621 171.379059,35.9 C171.379059,40.9669489 172.698891,45.0318541 175.301759,47.9814534 C177.863032,50.9690721 181.353187,52.4834837 185.676036,52.4834837 C189.998685,52.4834837 193.48904,50.9690721 196.049714,47.9822496 L196.050314,47.9814534 C198.612987,45.0716652 199.912621,41.006959 199.912621,35.9 C199.912621,30.793041 198.612987,26.7078322 196.049914,23.7578348 C193.449445,20.8108233 189.95889,19.3165163 185.676036,19.3165163 Z M147.470308,38.2550215 L134.155605,38.2550215 L134.155605,51.7599183 L147.470308,51.7599183 C150.108571,51.7599183 152.15391,51.1762886 153.549532,50.0253517 C154.941555,48.8770025 155.647265,47.2091194 155.647265,45.0678831 C155.647265,42.8060194 154.961752,41.0873772 153.609925,39.9593317 C152.254498,38.8284994 150.188761,38.2550215 147.470308,38.2550215 Z M146.561423,20.0402808 L134.155605,20.0402808 L134.155605,32.7609003 L146.561423,32.7609003 C149.058105,32.7609003 150.955063,32.2031477 152.199705,31.103169 C153.442146,30.0049817 154.071866,28.331525 154.071866,26.1291788 C154.071866,24.227804 153.417149,22.7221509 152.125514,21.65422 C150.830479,20.5833033 148.958518,20.0402808 146.561423,20.0402808 Z M36,0 C43.2652,0 49.2398,1.991 54.7538,5.2676 C54.8184,5.3044 54.8446,5.3796 54.8136,5.446 C54.7838,5.5118 54.7108,5.5248 54.6392,5.508 C47.6684,4.0026 37.0798,10.022 36.0758,10.6262 C36.053,10.6392 36.0306,10.6538 36,10.6538 C35.9696,10.6538 35.947,10.6392 35.9242,10.6262 C34.9202,10.022 24.3316,4.0026 17.3608,5.508 C17.2892,5.5248 17.2164,5.5118 17.1864,5.446 C17.1554,5.3796 17.1818,5.3044 17.2462,5.2676 C22.7602,1.991 28.735,0 36,0 Z" id="Logos/XboxLogoBlack"></path>
            </g>
        </g>
    </g>
</svg>