{"accessors":[{"bufferView":0,"componentType":5125,"count":4608,"type":"SCALAR"},{"bufferView":1,"componentType":5126,"count":912,"max":[0.22918401658535004,0.30892094969749451,0.21569010615348816],"min":[-0.2291528731584549,0,0],"type":"VEC3"},{"bufferView":2,"componentType":5126,"count":912,"type":"VEC3"},{"bufferView":3,"componentType":5126,"count":912,"type":"VEC2"},{"bufferView":4,"componentType":5125,"count":3210,"type":"SCALAR"},{"bufferView":5,"componentType":5126,"count":613,"max":[0.3234134316444397,0.23498895764350891,0.3931824266910553],"min":[-0.32338842749595642,-0.23184037208557129,0],"type":"VEC3"},{"bufferView":6,"componentType":5126,"count":613,"type":"VEC3"},{"bufferView":7,"componentType":5126,"count":613,"type":"VEC2"},{"bufferView":8,"componentType":5125,"count":11844,"type":"SCALAR"},{"bufferView":9,"componentType":5126,"count":2365,"max":[0.34793239831924438,0.91569602489471436,0.097674518823623657],"min":[-0.34805166721343994,0,-0.34328106045722961],"type":"VEC3"},{"bufferView":10,"componentType":5126,"count":2365,"type":"VEC3"},{"bufferView":11,"componentType":5126,"count":2365,"type":"VEC2"},{"bufferView":12,"componentType":5125,"count":70428,"type":"SCALAR"},{"bufferView":13,"componentType":5126,"count":12788,"max":[1,0.48961350321769714,0.32513424754142761],"min":[-1,-0.9156959056854248,-0.3931824266910553],"type":"VEC3"},{"bufferView":14,"componentType":5126,"count":12788,"type":"VEC3"},{"bufferView":15,"componentType":5126,"count":12788,"type":"VEC2"},{"bufferView":16,"componentType":5125,"count":4608,"type":"SCALAR"},{"bufferView":17,"componentType":5126,"count":836,"max":[0.11999651789665222,0.40818080306053162,0.15939906239509583],"min":[-0.11996537446975708,0,0],"type":"VEC3"},{"bufferView":18,"componentType":5126,"count":836,"type":"VEC3"},{"bufferView":19,"componentType":5126,"count":836,"type":"VEC2"},{"bufferView":20,"componentType":5125,"count":10740,"type":"SCALAR"},{"bufferView":21,"componentType":5126,"count":1976,"max":[0.88367480039596558,0,0],"min":[-0.88364368677139282,-0.44973084330558777,-0.31731542944908142],"type":"VEC3"},{"bufferView":22,"componentType":5126,"count":1976,"type":"VEC3"},{"bufferView":23,"componentType":5126,"count":1976,"type":"VEC2"}],"asset":{"generator":"Substance Painter 2017.4.0","version":"2.0"},"bufferViews":[{"buffer":0,"byteLength":18432,"byteOffset":0,"target":34963},{"buffer":0,"byteLength":10944,"byteOffset":18432,"target":34962},{"buffer":0,"byteLength":10944,"byteOffset":29376,"target":34962},{"buffer":0,"byteLength":7296,"byteOffset":40320,"target":34962},{"buffer":0,"byteLength":12840,"byteOffset":47616,"target":34963},{"buffer":0,"byteLength":7356,"byteOffset":60456,"target":34962},{"buffer":0,"byteLength":7356,"byteOffset":67812,"target":34962},{"buffer":0,"byteLength":4904,"byteOffset":75168,"target":34962},{"buffer":0,"byteLength":47376,"byteOffset":80072,"target":34963},{"buffer":0,"byteLength":28380,"byteOffset":127448,"target":34962},{"buffer":0,"byteLength":28380,"byteOffset":155828,"target":34962},{"buffer":0,"byteLength":18920,"byteOffset":184208,"target":34962},{"buffer":0,"byteLength":281712,"byteOffset":203128,"target":34963},{"buffer":0,"byteLength":153456,"byteOffset":484840,"target":34962},{"buffer":0,"byteLength":153456,"byteOffset":638296,"target":34962},{"buffer":0,"byteLength":102304,"byteOffset":791752,"target":34962},{"buffer":0,"byteLength":18432,"byteOffset":894056,"target":34963},{"buffer":0,"byteLength":10032,"byteOffset":912488,"target":34962},{"buffer":0,"byteLength":10032,"byteOffset":922520,"target":34962},{"buffer":0,"byteLength":6688,"byteOffset":932552,"target":34962},{"buffer":0,"byteLength":42960,"byteOffset":939240,"target":34963},{"buffer":0,"byteLength":23712,"byteOffset":982200,"target":34962},{"buffer":0,"byteLength":23712,"byteOffset":1005912,"target":34962},{"buffer":0,"byteLength":15808,"byteOffset":1029624,"target":34962}],"buffers":[{"byteLength":1045432,"uri":"YetiFinal.bin"}],"images":[{"uri":"YetiMat_baseColor.png"},{"uri":"YetiMat_occlusionRoughnessMetallic.png"},{"uri":"YetiMat_normal.png"}],"materials":[{"alphaMode":"OPAQUE","name":"YetiMat","normalTexture":{"index":2},"occlusionTexture":{"index":1},"pbrMetallicRoughness":{"baseColorTexture":{"index":0},"metallicRoughnessTexture":{"index":1}}}],"meshes":[{"name":"YetiTeeth_low","primitives":[{"attributes":{"NORMAL":2,"POSITION":1,"TEXCOORD_0":3},"indices":0,"material":0,"mode":4}]},{"name":"YetiBeard_low","primitives":[{"attributes":{"NORMAL":6,"POSITION":5,"TEXCOORD_0":7},"indices":4,"material":0,"mode":4}]},{"name":"YetiAntlers_low","primitives":[{"attributes":{"NORMAL":10,"POSITION":9,"TEXCOORD_0":11},"indices":8,"material":0,"mode":4}]},{"name":"YetiBody_low","primitives":[{"attributes":{"NORMAL":14,"POSITION":13,"TEXCOORD_0":15},"indices":12,"material":0,"mode":4}]},{"name":"YetiEyes_low","primitives":[{"attributes":{"NORMAL":18,"POSITION":17,"TEXCOORD_0":19},"indices":16,"material":0,"mode":4}]},{"name":"YetiFur_low","primitives":[{"attributes":{"NORMAL":22,"POSITION":21,"TEXCOORD_0":23},"indices":20,"material":0,"mode":4}]}],"nodes":[{"children":[1,3,5,7,9,11],"name":"Yeti_NewUVs.obj","scale":[1.3168175220489502,1.3168175220489502,1.3168175220489502],"translation":[-2.0503997802734375e-05,0.48642045259475708,0.41175949573516846]},{"children":[2],"name":"g YetiTeeth_low"},{"mesh":0,"name":"YetiTeeth_low"},{"children":[4],"name":"g YetiBeard_low"},{"mesh":1,"name":"YetiBeard_low"},{"children":[6],"name":"g YetiAntlers_low"},{"mesh":2,"name":"YetiAntlers_low"},{"children":[8],"name":"g YetiBody_low"},{"mesh":3,"name":"YetiBody_low"},{"children":[10],"name":"g YetiEyes_low"},{"mesh":4,"name":"YetiEyes_low"},{"children":[12],"name":"g YetiFur_low"},{"mesh":5,"name":"YetiFur_low"}],"samplers":[{"magFilter":9729,"minFilter":9985,"wrapS":10497,"wrapT":10497}],"scene":0,"scenes":[{"name":"Scene","nodes":[0]}],"textures":[{"sampler":0,"source":0},{"sampler":0,"source":1},{"sampler":0,"source":2}]}
