<?xml version="1.0" encoding="UTF-8"?>
<svg id="Layer_1" data-name="Layer 1" xmlns="http://www.w3.org/2000/svg" width="1200" height="1200" viewBox="0 0 1200 1200">
  <defs>
    <style>
      .cls-1 {
        fill: #7877a5;
      }
    </style>
  </defs>
  <path class="cls-1" d="M756.4,326.16l-137.9-79.62c-11.45-6.61-25.55-6.61-37,0l-137.9,79.62c-11.45,6.61-18.5,18.82-18.5,32.04v159.23c0,13.22,7.05,25.43,18.5,32.04l137.9,79.62c11.45,6.61,25.55,6.61,37,0l137.9-79.62c11.45-6.61,18.5-18.82,18.5-32.04v-159.23c0-13.22-7.05-25.43-18.5-32.04ZM737.39,366.36c-.6,2.13-1.99,3.89-3.92,4.97l-97.86,54.84c-14.42,8.32-27.35,17.28-27.35,35.26v130.85c0,4.56-3.71,8.27-8.27,8.27s-8.27-3.71-8.27-8.27v-130.85c0-18.34-13.03-27.31-28.77-36.33l-98.96-54.08c-1.94-1.06-3.35-2.81-3.97-4.93-.62-2.12-.38-4.35.68-6.29,1.45-2.66,4.23-4.31,7.26-4.31,1.38,0,2.75.35,3.96,1.01l114.86,62.76c4.14,2.32,8.87,3.54,13.67,3.54s9.51-1.22,13.63-3.53l111.3-62.38c1.23-.69,2.63-1.06,4.04-1.06,2.99,0,5.76,1.62,7.22,4.23,1.08,1.93,1.35,4.16.75,6.28Z"/>
  <path class="cls-1" d="M947.38,650.53l-137.9-79.62c-11.45-6.61-25.55-6.61-37,0l-137.9,79.62c-11.45,6.61-18.5,18.82-18.5,32.04v159.23c0,13.22,7.05,25.43,18.5,32.04l137.9,79.62c11.45,6.61,25.55,6.61,37,0l137.9-79.62c11.45-6.61,18.5-18.82,18.5-32.04v-159.23c0-13.22-7.05-25.43-18.5-32.04ZM928.38,690.74c-.6,2.13-1.99,3.89-3.92,4.97l-97.86,54.84c-14.42,8.32-27.35,17.28-27.35,35.26v130.85c0,4.56-3.71,8.27-8.27,8.27s-8.27-3.71-8.27-8.27v-130.85c0-18.34-13.03-27.31-28.77-36.33l-98.96-54.08c-1.94-1.06-3.35-2.81-3.97-4.93-.62-2.12-.38-4.35.68-6.29,1.45-2.66,4.23-4.31,7.26-4.31,1.38,0,2.75.35,3.96,1.01l114.86,62.76c4.14,2.32,8.87,3.54,13.67,3.54s9.51-1.22,13.63-3.53l111.3-62.38c1.23-.69,2.63-1.06,4.04-1.06,2.99,0,5.76,1.62,7.22,4.23,1.08,1.93,1.35,4.16.75,6.28Z"/>
  <path class="cls-1" d="M565.41,650.53l-137.9-79.62c-11.45-6.61-25.55-6.61-37,0l-137.9,79.62c-11.45,6.61-18.5,18.82-18.5,32.04v159.23c0,13.22,7.05,25.43,18.5,32.04l137.9,79.62c11.45,6.61,25.55,6.61,37,0l137.9-79.62c11.45-6.61,18.5-18.82,18.5-32.04v-159.23c0-13.22-7.05-25.43-18.5-32.04ZM546.41,690.74c-.6,2.13-1.99,3.89-3.92,4.97l-97.86,54.84c-14.42,8.32-27.35,17.28-27.35,35.26v130.85c0,4.56-3.71,8.27-8.27,8.27s-8.27-3.71-8.27-8.27v-130.85c0-18.34-13.03-27.31-28.77-36.33l-98.96-54.08c-1.94-1.06-3.35-2.81-3.97-4.93-.62-2.12-.38-4.35.68-6.29,1.45-2.66,4.23-4.31,7.26-4.31,1.38,0,2.75.35,3.96,1.01l114.86,62.76c4.14,2.32,8.87,3.54,13.67,3.54s9.51-1.22,13.63-3.53l111.3-62.38c1.23-.69,2.63-1.06,4.04-1.06,2.99,0,5.76,1.62,7.22,4.23,1.08,1.93,1.35,4.16.75,6.28Z"/>
</svg>