{"accessors":[{"bufferView":0,"componentType":5125,"count":19626,"type":"SCALAR"},{"bufferView":1,"componentType":5126,"count":3734,"max":[0.58877605199813843,0.88374805450439453,1],"min":[-0.58878970146179199,-0.88374805450439453,-1],"type":"VEC3"},{"bufferView":2,"componentType":5126,"count":3734,"type":"VEC3"},{"bufferView":3,"componentType":5126,"count":3734,"type":"VEC2"},{"bufferView":4,"componentType":5125,"count":576,"type":"SCALAR"},{"bufferView":5,"componentType":5126,"count":114,"max":[0.29642188549041748,0.77425289154052734,0.45965105295181274],"min":[-0.29642125964164734,0,0],"type":"VEC3"},{"bufferView":6,"componentType":5126,"count":114,"type":"VEC3"},{"bufferView":7,"componentType":5126,"count":114,"type":"VEC2"},{"bufferView":8,"componentType":5125,"count":3192,"type":"SCALAR"},{"bufferView":9,"componentType":5126,"count":686,"max":[0.23249976336956024,0.38704490661621094,0.97547215223312378],"min":[-0.23249912261962891,0,0],"type":"VEC3"},{"bufferView":10,"componentType":5126,"count":686,"type":"VEC3"},{"bufferView":11,"componentType":5126,"count":686,"type":"VEC2"},{"bufferView":12,"componentType":5125,"count":1302,"type":"SCALAR"},{"bufferView":13,"componentType":5126,"count":259,"max":[0.18741010129451752,0.39291954040527344,0.69923853874206543],"min":[-0.18739345669746399,0,0],"type":"VEC3"},{"bufferView":14,"componentType":5126,"count":259,"type":"VEC3"},{"bufferView":15,"componentType":5126,"count":259,"type":"VEC2"},{"bufferView":16,"componentType":5125,"count":3192,"type":"SCALAR"},{"bufferView":17,"componentType":5126,"count":686,"max":[0.22322173416614532,0.23860831558704376,0.80968999862670898],"min":[-0.22322112321853638,0,0],"type":"VEC3"},{"bufferView":18,"componentType":5126,"count":686,"type":"VEC3"},{"bufferView":19,"componentType":5126,"count":686,"type":"VEC2"},{"bufferView":20,"componentType":5125,"count":360,"type":"SCALAR"},{"bufferView":21,"componentType":5126,"count":78,"max":[0.19124789535999298,0,0.24770355224609375],"min":[0,-0.24738149344921112,0],"type":"VEC3"},{"bufferView":22,"componentType":5126,"count":78,"type":"VEC3"},{"bufferView":23,"componentType":5126,"count":78,"type":"VEC2"},{"bufferView":24,"componentType":5125,"count":360,"type":"SCALAR"},{"bufferView":25,"componentType":5126,"count":78,"max":[0,0,0.24770355224609375],"min":[-0.19123163819313049,-0.24738641083240509,0],"type":"VEC3"},{"bufferView":26,"componentType":5126,"count":78,"type":"VEC3"},{"bufferView":27,"componentType":5126,"count":78,"type":"VEC2"},{"bufferView":28,"componentType":5125,"count":1056,"type":"SCALAR"},{"bufferView":29,"componentType":5126,"count":223,"max":[0.62771785259246826,0,0.21814361214637756],"min":[0,-0.88034087419509888,-0.23501880466938019],"type":"VEC3"},{"bufferView":30,"componentType":5126,"count":223,"type":"VEC3"},{"bufferView":31,"componentType":5126,"count":223,"type":"VEC2"},{"bufferView":32,"componentType":5125,"count":1056,"type":"SCALAR"},{"bufferView":33,"componentType":5126,"count":223,"max":[0,0,0.21811679005622864],"min":[-0.62771785259246826,-0.88075774908065796,-0.23485194146633148],"type":"VEC3"},{"bufferView":34,"componentType":5126,"count":223,"type":"VEC3"},{"bufferView":35,"componentType":5126,"count":223,"type":"VEC2"}],"asset":{"generator":"Substance Painter 2017.4.0","version":"2.0"},"bufferViews":[{"buffer":0,"byteLength":78504,"byteOffset":0,"target":34963},{"buffer":0,"byteLength":44808,"byteOffset":78504,"target":34962},{"buffer":0,"byteLength":44808,"byteOffset":123312,"target":34962},{"buffer":0,"byteLength":29872,"byteOffset":168120,"target":34962},{"buffer":0,"byteLength":2304,"byteOffset":197992,"target":34963},{"buffer":0,"byteLength":1368,"byteOffset":200296,"target":34962},{"buffer":0,"byteLength":1368,"byteOffset":201664,"target":34962},{"buffer":0,"byteLength":912,"byteOffset":203032,"target":34962},{"buffer":0,"byteLength":12768,"byteOffset":203944,"target":34963},{"buffer":0,"byteLength":8232,"byteOffset":216712,"target":34962},{"buffer":0,"byteLength":8232,"byteOffset":224944,"target":34962},{"buffer":0,"byteLength":5488,"byteOffset":233176,"target":34962},{"buffer":0,"byteLength":5208,"byteOffset":238664,"target":34963},{"buffer":0,"byteLength":3108,"byteOffset":243872,"target":34962},{"buffer":0,"byteLength":3108,"byteOffset":246980,"target":34962},{"buffer":0,"byteLength":2072,"byteOffset":250088,"target":34962},{"buffer":0,"byteLength":12768,"byteOffset":252160,"target":34963},{"buffer":0,"byteLength":8232,"byteOffset":264928,"target":34962},{"buffer":0,"byteLength":8232,"byteOffset":273160,"target":34962},{"buffer":0,"byteLength":5488,"byteOffset":281392,"target":34962},{"buffer":0,"byteLength":1440,"byteOffset":286880,"target":34963},{"buffer":0,"byteLength":936,"byteOffset":288320,"target":34962},{"buffer":0,"byteLength":936,"byteOffset":289256,"target":34962},{"buffer":0,"byteLength":624,"byteOffset":290192,"target":34962},{"buffer":0,"byteLength":1440,"byteOffset":290816,"target":34963},{"buffer":0,"byteLength":936,"byteOffset":292256,"target":34962},{"buffer":0,"byteLength":936,"byteOffset":293192,"target":34962},{"buffer":0,"byteLength":624,"byteOffset":294128,"target":34962},{"buffer":0,"byteLength":4224,"byteOffset":294752,"target":34963},{"buffer":0,"byteLength":2676,"byteOffset":298976,"target":34962},{"buffer":0,"byteLength":2676,"byteOffset":301652,"target":34962},{"buffer":0,"byteLength":1784,"byteOffset":304328,"target":34962},{"buffer":0,"byteLength":4224,"byteOffset":306112,"target":34963},{"buffer":0,"byteLength":2676,"byteOffset":310336,"target":34962},{"buffer":0,"byteLength":2676,"byteOffset":313012,"target":34962},{"buffer":0,"byteLength":1784,"byteOffset":315688,"target":34962}],"buffers":[{"byteLength":317472,"uri":"ChibiRex_Final.bin"}],"images":[{"uri":"ChibiRexMat_baseColor.png"},{"uri":"ChibiRexMat_occlusionRoughnessMetallic.png"},{"uri":"ChibiRexMat_normal.png"}],"materials":[{"alphaMode":"OPAQUE","name":"ChibiRexMat","normalTexture":{"index":2},"occlusionTexture":{"index":1},"pbrMetallicRoughness":{"baseColorTexture":{"index":0},"metallicRoughnessTexture":{"index":1}}}],"meshes":[{"name":"ChibiRex_low","primitives":[{"attributes":{"NORMAL":2,"POSITION":1,"TEXCOORD_0":3},"indices":0,"material":0,"mode":4}]},{"name":"Eyes_low","primitives":[{"attributes":{"NORMAL":6,"POSITION":5,"TEXCOORD_0":7},"indices":4,"material":0,"mode":4}]},{"name":"Teeth_Upper_low","primitives":[{"attributes":{"NORMAL":10,"POSITION":9,"TEXCOORD_0":11},"indices":8,"material":0,"mode":4}]},{"name":"Tongue","primitives":[{"attributes":{"NORMAL":14,"POSITION":13,"TEXCOORD_0":15},"indices":12,"material":0,"mode":4}]},{"name":"Teeth_Lower_low","primitives":[{"attributes":{"NORMAL":18,"POSITION":17,"TEXCOORD_0":19},"indices":16,"material":0,"mode":4}]},{"name":"Talons_L","primitives":[{"attributes":{"NORMAL":22,"POSITION":21,"TEXCOORD_0":23},"indices":20,"material":0,"mode":4}]},{"name":"Talons_R","primitives":[{"attributes":{"NORMAL":26,"POSITION":25,"TEXCOORD_0":27},"indices":24,"material":0,"mode":4}]},{"name":"Claws_L","primitives":[{"attributes":{"NORMAL":30,"POSITION":29,"TEXCOORD_0":31},"indices":28,"material":0,"mode":4}]},{"name":"Claws_R","primitives":[{"attributes":{"NORMAL":34,"POSITION":33,"TEXCOORD_0":35},"indices":32,"material":0,"mode":4}]}],"nodes":[{"children":[1,3,5,7,9,11,13,15,17],"name":"root","scale":[1.8712058067321777,1.8712058067321777,1.8712058067321777],"translation":[-5.9604644775390625e-07,-0.0012433528900146484,-0.00047314167022705078]},{"children":[2],"name":"ChibiRex_low"},{"mesh":0,"name":"ChibiRex_low"},{"children":[4],"name":"Eyes_low"},{"mesh":1,"name":"Eyes_low"},{"children":[6],"name":"Teeth_Upper_low"},{"mesh":2,"name":"Teeth_Upper_low"},{"children":[8],"name":"Tongue"},{"mesh":3,"name":"Tongue"},{"children":[10],"name":"Teeth_Lower_low"},{"mesh":4,"name":"Teeth_Lower_low"},{"children":[12],"name":"Talons_L"},{"mesh":5,"name":"Talons_L"},{"children":[14],"name":"Talons_R"},{"mesh":6,"name":"Talons_R"},{"children":[16],"name":"Claws_L"},{"mesh":7,"name":"Claws_L"},{"children":[18],"name":"Claws_R"},{"mesh":8,"name":"Claws_R"}],"samplers":[{"magFilter":9729,"minFilter":9985,"wrapS":10497,"wrapT":10497}],"scene":0,"scenes":[{"name":"Scene","nodes":[0]}],"textures":[{"sampler":0,"source":0},{"sampler":0,"source":1},{"sampler":0,"source":2}]}
