<?xml version="1.0" encoding="UTF-8"?>
<svg id="Layer_1" data-name="Layer 1" xmlns="http://www.w3.org/2000/svg" width="7.64in" height="5.56in" viewBox="0 0 550 400">
  <defs>
    <style>
      .cls-1 {
        fill: #c8c8c8;
      }

      .cls-1, .cls-2, .cls-3 {
        stroke-width: 0px;
      }

      .cls-2 {
        fill: #45455b;
      }

      .cls-3 {
        fill: #fff;
      }
    </style>
  </defs>
  <g id="Layer_1-2" data-name="Layer 1">
    <g>
      <path class="cls-1" d="M416.4,248.6h-235c-2.8,0-5-2.2-5-5V92.6c0-2.8,2.2-5,5-5h235c2.8,0,5,2.2,5,5v151c0,2.8-2.3,5-5,5Z"/>
      <path class="cls-2" d="M411.4,229.5h-225c-1.1,0-2-.9-2-2V97.5c0-1.1.9-2,2-2h225c1.1,0,2,.9,2,2v130c0,1.1-.9,2-2,2Z"/>
      <rect class="cls-1" x="224" y="273.6" width="153.9" height="9.9"/>
      <polygon class="cls-1" points="320.4 252.2 273.9 252.2 259.6 270 334.6 270 320.4 252.2"/>
    </g>
    <g>
      <path class="cls-3" d="M244.2,286.4H91.2c-2.8,0-5-2.2-5-5v-111c0-2.8,2.2-5,5-5h153c2.8,0,5,2.2,5,5v111c0,2.8-2.3,5-5,5Z"/>
      <path class="cls-2" d="M242.2,280.9H93.2c-1.1,0-2-.9-2-2v-106c0-1.1.9-2,2-2h149c1.1,0,2,.9,2,2v106c0,1.1-.9,2-2,2Z"/>
      <path class="cls-3" d="M251.9,303H83.4c-5.2,0-9.5-4.3-9.5-9.5v-2.7h187.4v2.7c.1,5.3-4.2,9.5-9.4,9.5Z"/>
      <rect class="cls-2" x="146.7" y="290.8" width="41.9" height="5.8"/>
    </g>
    <g>
      <path class="cls-3" d="M442.4,191.7h-82.5c-1.7,0-3,1.3-3,3v113.2c0,1.7,1.3,3,3,3h82.5c1.7,0,3-1.3,3-3v-113.2c0-1.6-1.4-3-3-3Z"/>
      <rect class="cls-2" x="360" y="195.2" width="82.1" height="104.9"/>
      <g>
        <path class="cls-3" d="M336.5,315.3h-42.9c-1.7,0-3-1.3-3-3v-83.3c0-1.7,1.3-3,3-3h42.9c1.7,0,3,1.3,3,3v83.3c0,1.6-1.4,3-3,3Z"/>
        <rect class="cls-2" x="293.3" y="232" width="43.5" height="70.4"/>
        <path class="cls-2" d="M318.7,230.1h-7.4c-.6,0-1-.4-1-1h0c0-.6.4-1,1-1h7.4c.6,0,1,.4,1,1h0c0,.6-.4,1-1,1Z"/>
        <circle class="cls-2" cx="315" cy="308.5" r="3.5"/>
        <circle class="cls-2" cx="401.1" cy="305.8" r="3.5"/>
      </g>
    </g>
  </g>
</svg>