{
  "accessors": [
    {
      "bufferView": 0,
      "componentType": 5126,
      "count": 98,
      "type": "VEC3",
      "max": [
        7.5,
        7.5,
        7.5
      ],
      "min": [
        -7.5,
        -2.5,
        -7.5
      ],
      "name": "Positions Accessor"
    },
    {
      "bufferView": 1,
      "componentType": 5126,
      "count": 98,
      "type": "VEC3",
      "name": "Normals Accessor"
    },
    {
      "bufferView": 2,
      "componentType": 5126,
      "count": 98,
      "type": "VEC4",
      "name": "Tangents Accessor"
    },
    {
      "bufferView": 3,
      "componentType": 5126,
      "count": 98,
      "type": "VEC2",
      "name": "UV Accessor 0"
    },
    {
      "bufferView": 4,
      "componentType": 5125,
      "count": 18,
      "type": "SCALAR",
      "name": "Indices Accessor"
    },
    {
      "bufferView": 5,
      "componentType": 5126,
      "count": 98,
      "type": "VEC3",
      "max": [
        7.5,
        7.5,
        7.5
      ],
      "min": [
        -7.5,
        -2.5,
        -7.5
      ],
      "name": "Positions Accessor"
    },
    {
      "bufferView": 6,
      "componentType": 5126,
      "count": 98,
      "type": "VEC3",
      "name": "Normals Accessor"
    },
    {
      "bufferView": 7,
      "componentType": 5126,
      "count": 98,
      "type": "VEC4",
      "name": "Tangents Accessor"
    },
    {
      "bufferView": 8,
      "componentType": 5126,
      "count": 98,
      "type": "VEC2",
      "name": "UV Accessor 0"
    },
    {
      "bufferView": 9,
      "componentType": 5125,
      "count": 144,
      "type": "SCALAR",
      "name": "Indices Accessor"
    }
  ],
  "asset": {
    "generator": "glTF Asset Generator",
    "version": "2.0",
    "extras": {
      "Attributes": "Scale_X - VertexNormal - VertexTangent"
    }
  },
  "buffers": [
    {
      "uri": "Node_NegativeScale_10.bin",
      "byteLength": 10056
    }
  ],
  "bufferViews": [
    {
      "buffer": 0,
      "byteLength": 1176,
      "name": "Positions"
    },
    {
      "buffer": 0,
      "byteOffset": 1176,
      "byteLength": 1176,
      "name": "Normals"
    },
    {
      "buffer": 0,
      "byteOffset": 2352,
      "byteLength": 1568,
      "name": "Tangents"
    },
    {
      "buffer": 0,
      "byteOffset": 3920,
      "byteLength": 784,
      "name": "Texture Coords 0"
    },
    {
      "buffer": 0,
      "byteOffset": 4704,
      "byteLength": 72,
      "name": "Indices"
    },
    {
      "buffer": 0,
      "byteOffset": 4776,
      "byteLength": 1176,
      "name": "Positions"
    },
    {
      "buffer": 0,
      "byteOffset": 5952,
      "byteLength": 1176,
      "name": "Normals"
    },
    {
      "buffer": 0,
      "byteOffset": 7128,
      "byteLength": 1568,
      "name": "Tangents"
    },
    {
      "buffer": 0,
      "byteOffset": 8696,
      "byteLength": 784,
      "name": "Texture Coords 0"
    },
    {
      "buffer": 0,
      "byteOffset": 9480,
      "byteLength": 576,
      "name": "Indices"
    }
  ],
  "images": [
    {
      "uri": "Textures/BaseColor_Nodes.png"
    },
    {
      "uri": "Textures/MetallicRoughness_Nodes.png"
    },
    {
      "uri": "Textures/Normal_Nodes.png"
    }
  ],
  "materials": [
    {
      "pbrMetallicRoughness": {
        "baseColorTexture": {
          "index": 0
        },
        "metallicRoughnessTexture": {
          "index": 1
        }
      },
      "normalTexture": {
        "index": 2
      }
    },
    {
      "pbrMetallicRoughness": {
        "baseColorTexture": {
          "index": 0
        },
        "metallicRoughnessTexture": {
          "index": 1
        }
      },
      "normalTexture": {
        "index": 2
      }
    }
  ],
  "meshes": [
    {
      "primitives": [
        {
          "attributes": {
            "POSITION": 0,
            "NORMAL": 1,
            "TANGENT": 2,
            "TEXCOORD_0": 3
          },
          "indices": 4,
          "material": 0
        }
      ]
    },
    {
      "primitives": [
        {
          "attributes": {
            "POSITION": 5,
            "NORMAL": 6,
            "TANGENT": 7,
            "TEXCOORD_0": 8
          },
          "indices": 9,
          "material": 1
        }
      ]
    }
  ],
  "nodes": [
    {
      "children": [
        1
      ],
      "mesh": 0,
      "name": "Node0"
    },
    {
      "mesh": 1,
      "scale": [
        -1.0,
        1.0,
        1.0
      ],
      "translation": [
        0.0,
        2.0,
        0.0
      ],
      "name": "Node1"
    }
  ],
  "scene": 0,
  "scenes": [
    {
      "nodes": [
        0
      ]
    }
  ],
  "textures": [
    {
      "source": 0
    },
    {
      "source": 1
    },
    {
      "source": 2
    }
  ]
}