{"accessors":[{"bufferView":0,"componentType":5125,"count":132,"type":"SCALAR"},{"bufferView":1,"componentType":5126,"count":44,"max":[1,0,0.5],"min":[-1,-0.21981506049633026,-0.5],"type":"VEC3"},{"bufferView":2,"componentType":5126,"count":44,"type":"VEC3"},{"bufferView":3,"componentType":5126,"count":44,"type":"VEC2"},{"bufferView":4,"componentType":5125,"count":8520,"type":"SCALAR"},{"bufferView":5,"componentType":5126,"count":1932,"max":[0.82024937868118286,0.21981509029865265,0.12024935334920883],"min":[-0.82024937868118286,-0.19508221745491028,-0.12024935334920883],"type":"VEC3"},{"bufferView":6,"componentType":5126,"count":1932,"type":"VEC3"},{"bufferView":7,"componentType":5126,"count":1932,"type":"VEC2"}],"asset":{"generator":"Substance Painter 2017.4.1","version":"2.0"},"bufferViews":[{"buffer":0,"byteLength":528,"byteOffset":0,"target":34963},{"buffer":0,"byteLength":528,"byteOffset":528,"target":34962},{"buffer":0,"byteLength":528,"byteOffset":1056,"target":34962},{"buffer":0,"byteLength":352,"byteOffset":1584,"target":34962},{"buffer":0,"byteLength":34080,"byteOffset":1936,"target":34963},{"buffer":0,"byteLength":23184,"byteOffset":36016,"target":34962},{"buffer":0,"byteLength":23184,"byteOffset":59200,"target":34962},{"buffer":0,"byteLength":15456,"byteOffset":82384,"target":34962}],"buffers":[{"byteLength":97840,"uri":"EmissiveGlowAsset.bin"}],"images":[{"uri":"LightMat_baseColor.png"},{"uri":"LightMat_occlusionRoughnessMetallic.png"},{"uri":"LightMat_normal.png"},{"uri":"LightMat_emissive.png"},{"uri":"WallMat_baseColor.png"},{"uri":"WallMat_occlusionRoughnessMetallic.png"},{"uri":"WallMat_normal.png"}],"materials":[{"alphaMode":"OPAQUE","emissiveFactor":[1,1,1],"emissiveTexture":{"index":3},"name":"LightMat","normalTexture":{"index":2},"occlusionTexture":{"index":1},"pbrMetallicRoughness":{"baseColorTexture":{"index":0},"metallicRoughnessTexture":{"index":1}}},{"alphaMode":"OPAQUE","name":"WallMat","normalTexture":{"index":6},"occlusionTexture":{"index":5},"pbrMetallicRoughness":{"baseColorTexture":{"index":4},"metallicRoughnessTexture":{"index":5}}}],"meshes":[{"name":"Wall","primitives":[{"attributes":{"NORMAL":2,"POSITION":1,"TEXCOORD_0":3},"indices":0,"material":1,"mode":4}]},{"name":"Light","primitives":[{"attributes":{"NORMAL":6,"POSITION":5,"TEXCOORD_0":7},"indices":4,"material":0,"mode":4}]}],"nodes":[{"children":[1,3],"name":"root","scale":[10,10,10],"translation":[0,2.1952483654022217,0]},{"children":[2],"name":"Wall"},{"mesh":0,"name":"Wall"},{"children":[4],"name":"Light"},{"mesh":1,"name":"Light"}],"samplers":[{"magFilter":9729,"minFilter":9985,"wrapS":10497,"wrapT":10497}],"scene":0,"scenes":[{"name":"Scene","nodes":[0]}],"textures":[{"sampler":0,"source":0},{"sampler":0,"source":1},{"sampler":0,"source":2},{"sampler":0,"source":3},{"sampler":0,"source":4},{"sampler":0,"source":5},{"sampler":0,"source":6}]}
