{"accessors":[{"bufferView":0,"componentType":5125,"count":8928,"type":"SCALAR"},{"bufferView":1,"componentType":5126,"count":1662,"max":[1.6738409996032715,10.272924423217773,2.3283958435058594],"min":[-1.5635228157043457,0,0],"type":"VEC3"},{"bufferView":2,"componentType":5126,"count":1662,"type":"VEC3"},{"bufferView":3,"componentType":5126,"count":1662,"type":"VEC2"},{"bufferView":4,"componentType":5125,"count":16248,"type":"SCALAR"},{"bufferView":5,"componentType":5126,"count":3078,"max":[2.3144831657409668,10.064352035522461,0.53162479400634766],"min":[-2.2064497470855713,0,-1.7723462581634521],"type":"VEC3"},{"bufferView":6,"componentType":5126,"count":3078,"type":"VEC3"},{"bufferView":7,"componentType":5126,"count":3078,"type":"VEC2"},{"bufferView":8,"componentType":5125,"count":2208,"type":"SCALAR"},{"bufferView":9,"componentType":5126,"count":436,"max":[1.6946347951889038,9.8778009414672852,2.417635440826416],"min":[-1.5809484720230103,0,0],"type":"VEC3"},{"bufferView":10,"componentType":5126,"count":436,"type":"VEC3"},{"bufferView":11,"componentType":5126,"count":436,"type":"VEC2"},{"bufferView":12,"componentType":5125,"count":5064,"type":"SCALAR"},{"bufferView":13,"componentType":5126,"count":1042,"max":[2.6095659732818604,8.0592765808105469,3.1745426654815674],"min":[-2.4958748817443848,0,-2.7963893413543701],"type":"VEC3"},{"bufferView":14,"componentType":5126,"count":1042,"type":"VEC3"},{"bufferView":15,"componentType":5126,"count":1042,"type":"VEC2"},{"bufferView":16,"componentType":5125,"count":22038,"type":"SCALAR"},{"bufferView":17,"componentType":5126,"count":4287,"max":[2.2363317012786865,9.9164028167724609,2.8537783622741699],"min":[-2.0421929359436035,0,-2.4209258556365967],"type":"VEC3"},{"bufferView":18,"componentType":5126,"count":4287,"type":"VEC3"},{"bufferView":19,"componentType":5126,"count":4287,"type":"VEC2"},{"bufferView":20,"componentType":5125,"count":104472,"type":"SCALAR"},{"bufferView":21,"componentType":5126,"count":19420,"max":[2.6751811504364014,11.626528739929199,3.0199613571166992],"min":[-2.3752028942108154,0,-2.4971201419830322],"type":"VEC3"},{"bufferView":22,"componentType":5126,"count":19420,"type":"VEC3"},{"bufferView":23,"componentType":5126,"count":19420,"type":"VEC2"},{"bufferView":24,"componentType":5125,"count":42072,"type":"SCALAR"},{"bufferView":25,"componentType":5126,"count":9343,"max":[2.1893668174743652,9.9671916961669922,3.1656591892242432],"min":[-3.0064792633056641,0,-2.3797838687896729],"type":"VEC3"},{"bufferView":26,"componentType":5126,"count":9343,"type":"VEC3"},{"bufferView":27,"componentType":5126,"count":9343,"type":"VEC2"},{"bufferView":28,"componentType":5125,"count":13848,"type":"SCALAR"},{"bufferView":29,"componentType":5126,"count":3300,"max":[1.9848576784133911,10.018205642700195,2.4096522331237793],"min":[-2.5223395824432373,0,-2.4075369834899902],"type":"VEC3"},{"bufferView":30,"componentType":5126,"count":3300,"type":"VEC3"},{"bufferView":31,"componentType":5126,"count":3300,"type":"VEC2"},{"bufferView":32,"componentType":5125,"count":4368,"type":"SCALAR"},{"bufferView":33,"componentType":5126,"count":1023,"max":[0.75647145509719849,9.7962055206298828,2.4056353569030762],"min":[-3.2155420780181885,0,-2.4102067947387695],"type":"VEC3"},{"bufferView":34,"componentType":5126,"count":1023,"type":"VEC3"},{"bufferView":35,"componentType":5126,"count":1023,"type":"VEC2"},{"bufferView":36,"componentType":5125,"count":44976,"type":"SCALAR"},{"bufferView":37,"componentType":5126,"count":7862,"max":[2.0644292831420898,11.843103408813477,1.8494377136230469],"min":[-1.965675950050354,0,-2.359550952911377],"type":"VEC3"},{"bufferView":38,"componentType":5126,"count":7862,"type":"VEC3"},{"bufferView":39,"componentType":5126,"count":7862,"type":"VEC2"},{"bufferView":40,"componentType":5125,"count":5496,"type":"SCALAR"},{"bufferView":41,"componentType":5126,"count":1384,"max":[1.7308822870254517,10.699378967285156,1.9083359241485596],"min":[-1.5878074169158936,0,0],"type":"VEC3"},{"bufferView":42,"componentType":5126,"count":1384,"type":"VEC3"},{"bufferView":43,"componentType":5126,"count":1384,"type":"VEC2"},{"bufferView":44,"componentType":5125,"count":15216,"type":"SCALAR"},{"bufferView":45,"componentType":5126,"count":3288,"max":[1.8689415454864502,11.161401748657227,2.0358588695526123],"min":[-1.7694346904754639,0,-2.5168886184692383],"type":"VEC3"},{"bufferView":46,"componentType":5126,"count":3288,"type":"VEC3"},{"bufferView":47,"componentType":5126,"count":3288,"type":"VEC2"}],"asset":{"generator":"Substance Painter 2017.4.1","version":"2.0"},"bufferViews":[{"buffer":0,"byteLength":35712,"byteOffset":0,"target":34963},{"buffer":0,"byteLength":19944,"byteOffset":35712,"target":34962},{"buffer":0,"byteLength":19944,"byteOffset":55656,"target":34962},{"buffer":0,"byteLength":13296,"byteOffset":75600,"target":34962},{"buffer":0,"byteLength":64992,"byteOffset":88896,"target":34963},{"buffer":0,"byteLength":36936,"byteOffset":153888,"target":34962},{"buffer":0,"byteLength":36936,"byteOffset":190824,"target":34962},{"buffer":0,"byteLength":24624,"byteOffset":227760,"target":34962},{"buffer":0,"byteLength":8832,"byteOffset":252384,"target":34963},{"buffer":0,"byteLength":5232,"byteOffset":261216,"target":34962},{"buffer":0,"byteLength":5232,"byteOffset":266448,"target":34962},{"buffer":0,"byteLength":3488,"byteOffset":271680,"target":34962},{"buffer":0,"byteLength":20256,"byteOffset":275168,"target":34963},{"buffer":0,"byteLength":12504,"byteOffset":295424,"target":34962},{"buffer":0,"byteLength":12504,"byteOffset":307928,"target":34962},{"buffer":0,"byteLength":8336,"byteOffset":320432,"target":34962},{"buffer":0,"byteLength":88152,"byteOffset":328768,"target":34963},{"buffer":0,"byteLength":51444,"byteOffset":416920,"target":34962},{"buffer":0,"byteLength":51444,"byteOffset":468364,"target":34962},{"buffer":0,"byteLength":34296,"byteOffset":519808,"target":34962},{"buffer":0,"byteLength":417888,"byteOffset":554104,"target":34963},{"buffer":0,"byteLength":233040,"byteOffset":971992,"target":34962},{"buffer":0,"byteLength":233040,"byteOffset":1205032,"target":34962},{"buffer":0,"byteLength":155360,"byteOffset":1438072,"target":34962},{"buffer":0,"byteLength":168288,"byteOffset":1593432,"target":34963},{"buffer":0,"byteLength":112116,"byteOffset":1761720,"target":34962},{"buffer":0,"byteLength":112116,"byteOffset":1873836,"target":34962},{"buffer":0,"byteLength":74744,"byteOffset":1985952,"target":34962},{"buffer":0,"byteLength":55392,"byteOffset":2060696,"target":34963},{"buffer":0,"byteLength":39600,"byteOffset":2116088,"target":34962},{"buffer":0,"byteLength":39600,"byteOffset":2155688,"target":34962},{"buffer":0,"byteLength":26400,"byteOffset":2195288,"target":34962},{"buffer":0,"byteLength":17472,"byteOffset":2221688,"target":34963},{"buffer":0,"byteLength":12276,"byteOffset":2239160,"target":34962},{"buffer":0,"byteLength":12276,"byteOffset":2251436,"target":34962},{"buffer":0,"byteLength":8184,"byteOffset":2263712,"target":34962},{"buffer":0,"byteLength":179904,"byteOffset":2271896,"target":34963},{"buffer":0,"byteLength":94344,"byteOffset":2451800,"target":34962},{"buffer":0,"byteLength":94344,"byteOffset":2546144,"target":34962},{"buffer":0,"byteLength":62896,"byteOffset":2640488,"target":34962},{"buffer":0,"byteLength":21984,"byteOffset":2703384,"target":34963},{"buffer":0,"byteLength":16608,"byteOffset":2725368,"target":34962},{"buffer":0,"byteLength":16608,"byteOffset":2741976,"target":34962},{"buffer":0,"byteLength":11072,"byteOffset":2758584,"target":34962},{"buffer":0,"byteLength":60864,"byteOffset":2769656,"target":34963},{"buffer":0,"byteLength":39456,"byteOffset":2830520,"target":34962},{"buffer":0,"byteLength":39456,"byteOffset":2869976,"target":34962},{"buffer":0,"byteLength":26304,"byteOffset":2909432,"target":34962}],"buffers":[{"byteLength":2935736,"uri":"FlightHelmet_Materials.bin"}],"images":[{"uri":"GlassPlasticMat_baseColor.png"},{"uri":"GlassPlasticMat_occlusionRoughnessMetallic.png"},{"uri":"GlassPlasticMat_normal.png"},{"uri":"LeatherPartsMat_baseColor.png"},{"uri":"LeatherPartsMat_occlusionRoughnessMetallic.png"},{"uri":"LeatherPartsMat_normal.png"},{"uri":"LensesMat_baseColor.png"},{"uri":"LensesMat_occlusionRoughnessMetallic.png"},{"uri":"LensesMat_normal.png"},{"uri":"MetalPartsMat_baseColor.png"},{"uri":"MetalPartsMat_occlusionRoughnessMetallic.png"},{"uri":"MetalPartsMat_normal.png"},{"uri":"RubberWoodMat_baseColor.png"},{"uri":"RubberWoodMat_occlusionRoughnessMetallic.png"},{"uri":"RubberWoodMat_normal.png"}],"materials":[{"alphaMode":"OPAQUE","name":"GlassPlasticMat","normalTexture":{"index":2},"occlusionTexture":{"index":1},"pbrMetallicRoughness":{"baseColorTexture":{"index":0},"metallicRoughnessTexture":{"index":1}}},{"alphaMode":"OPAQUE","name":"LeatherPartsMat","normalTexture":{"index":5},"occlusionTexture":{"index":4},"pbrMetallicRoughness":{"baseColorTexture":{"index":3},"metallicRoughnessTexture":{"index":4}}},{"alphaMode":"BLEND","name":"LensesMat","normalTexture":{"index":8},"occlusionTexture":{"index":7},"pbrMetallicRoughness":{"baseColorTexture":{"index":6},"metallicRoughnessTexture":{"index":7}}},{"alphaMode":"OPAQUE","name":"MetalPartsMat","normalTexture":{"index":11},"occlusionTexture":{"index":10},"pbrMetallicRoughness":{"baseColorTexture":{"index":9},"metallicRoughnessTexture":{"index":10}}},{"alphaMode":"OPAQUE","name":"RubberWoodMat","normalTexture":{"index":14},"occlusionTexture":{"index":13},"pbrMetallicRoughness":{"baseColorTexture":{"index":12},"metallicRoughnessTexture":{"index":13}}}],"meshes":[{"name":"MaskPad_low","primitives":[{"attributes":{"NORMAL":2,"POSITION":1,"TEXCOORD_0":3},"indices":0,"material":0,"mode":4}]},{"name":"Headphones_low","primitives":[{"attributes":{"NORMAL":6,"POSITION":5,"TEXCOORD_0":7},"indices":4,"material":0,"mode":4}]},{"name":"Lenses_low","primitives":[{"attributes":{"NORMAL":10,"POSITION":9,"TEXCOORD_0":11},"indices":8,"material":2,"mode":4}]},{"name":"Plastic3_low","primitives":[{"attributes":{"NORMAL":14,"POSITION":13,"TEXCOORD_0":15},"indices":12,"material":4,"mode":4}]},{"name":"Plastic2_low","primitives":[{"attributes":{"NORMAL":18,"POSITION":17,"TEXCOORD_0":19},"indices":16,"material":4,"mode":4}]},{"name":"Plastic1_low","primitives":[{"attributes":{"NORMAL":22,"POSITION":21,"TEXCOORD_0":23},"indices":20,"material":4,"mode":4}]},{"name":"Metal1_low","primitives":[{"attributes":{"NORMAL":26,"POSITION":25,"TEXCOORD_0":27},"indices":24,"material":3,"mode":4}]},{"name":"Metal2_low","primitives":[{"attributes":{"NORMAL":30,"POSITION":29,"TEXCOORD_0":31},"indices":28,"material":3,"mode":4}]},{"name":"Metal3_low","primitives":[{"attributes":{"NORMAL":34,"POSITION":33,"TEXCOORD_0":35},"indices":32,"material":3,"mode":4}]},{"name":"Leather1_low","primitives":[{"attributes":{"NORMAL":38,"POSITION":37,"TEXCOORD_0":39},"indices":36,"material":1,"mode":4}]},{"name":"Leather2_low","primitives":[{"attributes":{"NORMAL":42,"POSITION":41,"TEXCOORD_0":43},"indices":40,"material":1,"mode":4}]},{"name":"Leather3_low","primitives":[{"attributes":{"NORMAL":46,"POSITION":45,"TEXCOORD_0":47},"indices":44,"material":1,"mode":4}]}],"nodes":[{"children":[1,3,5,7,9,11,13,15,17,19,21,23],"name":"root","scale":[3.3466653823852539,3.3466653823852539,3.3466653823852539],"translation":[-0.19023990631103516,-1.0568528175354004,0.13313305377960205]},{"children":[2],"name":"MaskPad_low"},{"mesh":0,"name":"MaskPad_low"},{"children":[4],"name":"Headphones_low"},{"mesh":1,"name":"Headphones_low"},{"children":[6],"name":"Lenses_low"},{"mesh":2,"name":"Lenses_low"},{"children":[8],"name":"Plastic3_low"},{"mesh":3,"name":"Plastic3_low"},{"children":[10],"name":"Plastic2_low"},{"mesh":4,"name":"Plastic2_low"},{"children":[12],"name":"Plastic1_low"},{"mesh":5,"name":"Plastic1_low"},{"children":[14],"name":"Metal1_low"},{"mesh":6,"name":"Metal1_low"},{"children":[16],"name":"Metal2_low"},{"mesh":7,"name":"Metal2_low"},{"children":[18],"name":"Metal3_low"},{"mesh":8,"name":"Metal3_low"},{"children":[20],"name":"Leather1_low"},{"mesh":9,"name":"Leather1_low"},{"children":[22],"name":"Leather2_low"},{"mesh":10,"name":"Leather2_low"},{"children":[24],"name":"Leather3_low"},{"mesh":11,"name":"Leather3_low"}],"samplers":[{"magFilter":9729,"minFilter":9985,"wrapS":10497,"wrapT":10497}],"scene":0,"scenes":[{"name":"Scene","nodes":[0]}],"textures":[{"sampler":0,"source":0},{"sampler":0,"source":1},{"sampler":0,"source":2},{"sampler":0,"source":3},{"sampler":0,"source":4},{"sampler":0,"source":5},{"sampler":0,"source":6},{"sampler":0,"source":7},{"sampler":0,"source":8},{"sampler":0,"source":9},{"sampler":0,"source":10},{"sampler":0,"source":11},{"sampler":0,"source":12},{"sampler":0,"source":13},{"sampler":0,"source":14}]}
