<svg xmlns="http://www.w3.org/2000/svg" xmlns:xlink="http://www.w3.org/1999/xlink" viewBox="0 0 1920 3150"><defs><style>.cls-1{fill:none;}.cls-2{fill:#2a2342;}.cls-3{fill:url(#radial-gradient);}.cls-4{fill:#151221;}.cls-5{fill:#251e3b;}.cls-6{fill:#201936;}.cls-20,.cls-7{fill:#fff;}.cls-8{isolation:isolate;}.cls-9{fill:#3f3461;}.cls-10{fill:#e0684b;}.cls-11{clip-path:url(#clip-path);}.cls-12{clip-path:url(#clip-path-2);}.cls-13{clip-path:url(#clip-path-3);}.cls-14{clip-path:url(#clip-path-4);}.cls-15{clip-path:url(#clip-path-5);}.cls-16{fill:#d5d2ca;}.cls-17{fill:#bb464b;}.cls-18{fill:#e0ded8;}.cls-19{clip-path:url(#clip-path-6);}.cls-20{fill-rule:evenodd;}.cls-21{fill:#fff9ae;}.cls-22{fill:#00aeef;}.cls-23{fill:#00a94f;}.cls-24{fill:#f15d22;}.cls-25{fill:#e31b23;}.cls-26{opacity:0.8;}.cls-27{fill:#0f0f0f;}</style><radialGradient id="radial-gradient" cx="-29.63" cy="-4066.54" fx="-162.19852014631542" fy="-4403.624893574495" r="574.26" gradientTransform="translate(1002.01 8888.72) scale(1.42 1.91)" gradientUnits="userSpaceOnUse"><stop offset="0.2" stop-color="#2d2547"/><stop offset="0.93" stop-color="#2d2547" stop-opacity="0"/></radialGradient><clipPath id="clip-path"><path class="cls-1" d="M1372.14,235.44l-191,110.25v220.5l191,110.25,191-110.25V345.69Z"/></clipPath><clipPath id="clip-path-2"><path class="cls-1" d="M547.77,235.44l-191,110.25v220.5l191,110.25,191-110.25V345.69Z"/></clipPath><clipPath id="clip-path-3"><path class="cls-1" d="M769,345.69v220.5L960,676.44l191-110.25V345.69L960,235.44Z"/></clipPath><clipPath id="clip-path-4"><polygon class="cls-1" points="753.54 592.14 562.58 702.39 562.58 922.89 753.54 1033.14 944.51 922.89 944.51 702.39 753.54 592.14"/></clipPath><clipPath id="clip-path-5"><path class="cls-1" d="M974.77,702.39v220.5l191,110.25,191-110.25V702.39l-191-110.25Z"/></clipPath><clipPath id="clip-path-6"><rect class="cls-1" x="515.66" y="2713.61" width="38.65" height="38.65"/></clipPath></defs><title>CommunityDemoPage</title><g id="Carousel"><rect class="cls-2" width="1920" height="2808.41"/><rect class="cls-3" y="0.82" width="1920" height="2208.88"/><rect class="cls-4" y="2301.34" width="1920" height="510.03"/><polygon class="cls-5" points="260 50.83 260 2301.56 959.96 2705.68 1659.92 2301.56 1659.92 50.83 260 50.83"/><rect class="cls-6" x="260" width="1399.92" height="70"/><path class="cls-7" d="M1162.3,2691.14h9.41v2.16h-6.87v3.76h6.43v2.16h-6.43V2705h-2.54Z"/><path class="cls-7" d="M1175.62,2700.36c0,1.54.78,2.88,2.32,2.88a1.86,1.86,0,0,0,2-1.26h2.51a4.41,4.41,0,0,1-4.61,3.24c-3.32,0-4.74-2.56-4.74-5.24,0-3.18,1.62-5.52,4.86-5.52,3.47,0,4.63,2.58,4.63,5a6.19,6.19,0,0,1,0,.88Zm4.48-1.58c0-1.38-.62-2.5-2.14-2.5s-2.14,1-2.28,2.5Z"/><path class="cls-7" d="M1193.08,2702.46a20.06,20.06,0,0,0,.15,2.52h-2.39a5.17,5.17,0,0,1-.16-1.12c-.36.62-1.1,1.36-3,1.36a3.16,3.16,0,0,1-3.5-3.2c0-2.32,1.86-3.4,4.88-3.4h1.56v-.7c0-.8-.26-1.64-1.8-1.64-1.36,0-1.64.62-1.78,1.38h-2.38c.14-1.68,1.2-3.22,4.26-3.2,2.68,0,4.14,1.08,4.14,3.48Zm-2.42-2.28h-1.34c-1.82,0-2.62.54-2.62,1.7a1.49,1.49,0,0,0,1.66,1.52c2,0,2.3-1.4,2.3-2.92Z"/><path class="cls-7" d="M1194.74,2694.7h1.64v-2.86h2.48v2.86h2.1v1.9h-2.1v5.4c0,.86.24,1.22,1.12,1.22a4.84,4.84,0,0,0,.74,0v1.74a6,6,0,0,1-1.8.2c-1.86,0-2.54-1-2.54-2.76v-5.76h-1.64Z"/><path class="cls-7" d="M1211.55,2702c0,1,0,2.18,0,3h-2.42c-.05-.28-.07-.86-.09-1.3a3,3,0,0,1-2.92,1.54c-2,0-3.42-1.14-3.42-3.8v-6.72h2.48v6.22c0,1.2.36,2.24,1.76,2.24s2.1-.82,2.1-3v-5.44h2.49Z"/><path class="cls-7" d="M1214.46,2697.48c0-1.16,0-2,0-2.78h2.44c0,.24.06,1.2.06,1.9a3.41,3.41,0,0,1,3.36-2.14v2.4c-2.08,0-3.36.72-3.36,3.46V2705h-2.48Z"/><path class="cls-7" d="M1223.94,2700.36c0,1.54.78,2.88,2.32,2.88a1.87,1.87,0,0,0,2-1.26h2.51a4.41,4.41,0,0,1-4.61,3.24c-3.32,0-4.74-2.56-4.74-5.24,0-3.18,1.62-5.52,4.86-5.52,3.47,0,4.63,2.58,4.63,5a6.19,6.19,0,0,1,0,.88Zm4.48-1.58c0-1.38-.62-2.5-2.14-2.5s-2.14,1-2.28,2.5Z"/><path class="cls-7" d="M1234.94,2701.94a2,2,0,0,0,2.14,1.44c1.2,0,1.66-.46,1.66-1.18s-.46-1.1-2.08-1.5c-3.22-.78-3.78-1.78-3.78-3.2s1.06-3,4-3,4,1.64,4.14,3.06h-2.38c-.1-.48-.44-1.28-1.86-1.28-1.12,0-1.46.52-1.46,1.06s.36.88,2.1,1.3c3.32.76,3.86,1.9,3.86,3.42,0,1.72-1.34,3.2-4.28,3.2s-4.26-1.46-4.5-3.28Z"/><path class="cls-7" d="M1162.3,2731.14h5.8c3.21,0,4.51,1.68,4.51,3.52a3.09,3.09,0,0,1-1.84,3,3.35,3.35,0,0,1,2.26,3.2c0,2.46-1.92,4.12-4.74,4.12h-6Zm5.47,5.56c1.62,0,2.26-.68,2.26-1.78s-.8-1.74-2.12-1.74h-3.05v3.52Zm-2.91,6.24h3c1.66,0,2.56-.72,2.56-2.14,0-1.24-.82-2.06-2.7-2.06h-2.81Z"/><path class="cls-7" d="M1175.34,2737.48c0-1.16,0-2,0-2.78h2.44c0,.24.06,1.2.06,1.9a3.41,3.41,0,0,1,3.37-2.14v2.4c-2.09,0-3.37.72-3.37,3.46V2745h-2.48Z"/><path class="cls-7" d="M1191.05,2742.46a20.61,20.61,0,0,0,.14,2.52h-2.39a6,6,0,0,1-.15-1.12c-.37.62-1.11,1.36-3,1.36a3.16,3.16,0,0,1-3.5-3.2c0-2.32,1.86-3.4,4.88-3.4h1.56v-.7c0-.8-.26-1.64-1.8-1.64-1.36,0-1.64.62-1.78,1.38h-2.38c.14-1.68,1.2-3.22,4.26-3.2,2.68,0,4.15,1.08,4.15,3.48Zm-2.42-2.28h-1.35c-1.82,0-2.62.54-2.62,1.7a1.49,1.49,0,0,0,1.66,1.52c2,0,2.31-1.4,2.31-2.92Z"/><path class="cls-7" d="M1194,2737.28c0-.88,0-1.8,0-2.58h2.4a11.1,11.1,0,0,1,.1,1.44,3.15,3.15,0,0,1,3.06-1.68c2,0,3.43,1.32,3.43,4V2745h-2.49v-6.28c0-1.28-.46-2.2-1.82-2.2s-2.18.94-2.18,2.84V2745H1194Z"/><path class="cls-7" d="M1215,2730.36v11.76c0,1,0,1.9,0,2.86h-2.4a10.1,10.1,0,0,1-.11-1.2,3.13,3.13,0,0,1-3,1.44c-2.6,0-4.26-2.1-4.26-5.28s1.76-5.48,4.66-5.48c1.58,0,2.39.6,2.64,1.1v-5.2Zm-4.83,12.84c2.11,0,2.42-1.68,2.42-3.42,0-1.94-.31-3.3-2.34-3.3-1.6,0-2.48,1.26-2.48,3.38S1208.7,2743.2,1210.18,2743.2Z"/><path class="cls-7" d="M1217.88,2732.78v-2.42h2.48v2.42Zm0,1.92h2.48V2745h-2.48Z"/><path class="cls-7" d="M1223.3,2737.28c0-.88,0-1.8,0-2.58h2.4a11.1,11.1,0,0,1,.1,1.44,3.15,3.15,0,0,1,3.06-1.68c2,0,3.43,1.32,3.43,4V2745h-2.49v-6.28c0-1.28-.46-2.2-1.82-2.2s-2.18.94-2.18,2.84V2745h-2.48Z"/><path class="cls-7" d="M1244.23,2743.84c0,3.3-1.29,5.32-5,5.32-3.54,0-4.36-2-4.48-3.22h2.52a1.9,1.9,0,0,0,2.06,1.36c2,0,2.44-1.24,2.44-3.38v-.6a3.05,3.05,0,0,1-3,1.56c-2.64,0-4.26-2.16-4.26-5,0-3.26,1.94-5.4,4.48-5.4,1.84,0,2.6.86,2.78,1.4,0-.34.08-1,.1-1.16h2.37c0,.8,0,2,0,3Zm-4.77-1c1.88,0,2.4-1.3,2.4-3.2s-.4-3.18-2.34-3.18c-1.46,0-2.44,1.16-2.44,3.28C1237.08,2741.66,1238.06,2742.86,1239.46,2742.86Z"/><g class="cls-8"><path class="cls-7" d="M1336.55,2698.84h-6.71v4h7.39l-.32,2.14h-9.61v-13.84h9.55v2.16h-7v3.4h6.71Z"/><path class="cls-7" d="M1348.53,2690.36v11.76c0,1,0,1.9,0,2.86h-2.4a10.1,10.1,0,0,1-.11-1.2,3.13,3.13,0,0,1-3,1.44c-2.6,0-4.26-2.1-4.26-5.28s1.76-5.48,4.66-5.48c1.58,0,2.39.6,2.64,1.1v-5.2Zm-4.83,12.84c2.11,0,2.43-1.68,2.43-3.42,0-1.94-.32-3.3-2.35-3.3-1.6,0-2.48,1.26-2.48,3.38S1342.22,2703.2,1343.7,2703.2Z"/><path class="cls-7" d="M1360.19,2702c0,1,0,2.18,0,3h-2.43c0-.28-.06-.86-.08-1.3a3,3,0,0,1-2.92,1.54c-2,0-3.42-1.14-3.42-3.8v-6.72h2.48v6.22c0,1.2.36,2.24,1.76,2.24s2.1-.82,2.1-3v-5.44h2.49Z"/><path class="cls-7" d="M1371.8,2701.72a4.22,4.22,0,0,1-4.5,3.5c-3.08,0-4.76-2.16-4.76-5.32,0-3,1.78-5.44,4.9-5.44a4,4,0,0,1,4.36,3.58h-2.44a1.83,1.83,0,0,0-2-1.6c-1.48,0-2.3,1.28-2.3,3.38s.84,3.44,2.28,3.44a2,2,0,0,0,2-1.54Z"/><path class="cls-7" d="M1382.15,2702.46a20.61,20.61,0,0,0,.14,2.52h-2.39a5.17,5.17,0,0,1-.16-1.12c-.36.62-1.1,1.36-3,1.36a3.16,3.16,0,0,1-3.5-3.2c0-2.32,1.86-3.4,4.88-3.4h1.56v-.7c0-.8-.26-1.64-1.8-1.64-1.36,0-1.64.62-1.78,1.38h-2.38c.14-1.68,1.2-3.22,4.26-3.2,2.68,0,4.15,1.08,4.15,3.48Zm-2.43-2.28h-1.34c-1.82,0-2.62.54-2.62,1.7a1.49,1.49,0,0,0,1.66,1.52c2,0,2.3-1.4,2.3-2.92Z"/><path class="cls-7" d="M1383.8,2694.7h1.64v-2.86h2.48v2.86h2.1v1.9h-2.1v5.4c0,.86.24,1.22,1.12,1.22a4.84,4.84,0,0,0,.74,0v1.74a6,6,0,0,1-1.8.2c-1.86,0-2.54-1-2.54-2.76v-5.76h-1.64Z"/><path class="cls-7" d="M1391.92,2692.78v-2.42h2.48v2.42Zm0,1.92h2.48V2705h-2.48Z"/><path class="cls-7" d="M1406.65,2699.82c0,3.06-1.81,5.4-5,5.4s-4.94-2.28-4.94-5.36,1.86-5.4,5.06-5.4C1404.72,2694.46,1406.65,2696.6,1406.65,2699.82Zm-7.45,0c0,2.08.94,3.4,2.48,3.4s2.42-1.3,2.42-3.38-.86-3.42-2.46-3.42S1399.2,2697.6,1399.2,2699.84Z"/><path class="cls-7" d="M1408.94,2697.28c0-.88,0-1.8,0-2.58h2.4a11.1,11.1,0,0,1,.1,1.44,3.15,3.15,0,0,1,3.06-1.68c2,0,3.42,1.32,3.42,4V2705h-2.48v-6.28c0-1.28-.46-2.2-1.82-2.2s-2.18.94-2.18,2.84V2705h-2.48Z"/><path class="cls-7" d="M1327.3,2731.14h5.57c2.86,0,4.8,1.6,4.8,4.2,0,2.9-2.16,4.3-4.88,4.3h-2.89V2745h-2.6Zm2.6,6.4h2.6c1.57,0,2.55-.66,2.55-2.14s-1.08-2.16-2.47-2.16h-2.68Z"/><path class="cls-7" d="M1347.71,2742.46a20.61,20.61,0,0,0,.14,2.52h-2.39a6,6,0,0,1-.15-1.12c-.37.62-1.11,1.36-3,1.36a3.16,3.16,0,0,1-3.5-3.2c0-2.32,1.86-3.4,4.88-3.4h1.57v-.7c0-.8-.27-1.64-1.81-1.64-1.36,0-1.64.62-1.78,1.38h-2.38c.14-1.68,1.2-3.22,4.26-3.2,2.69,0,4.15,1.08,4.15,3.48Zm-2.42-2.28h-1.35c-1.82,0-2.62.54-2.62,1.7a1.49,1.49,0,0,0,1.66,1.52c2,0,2.31-1.4,2.31-2.92Z"/><path class="cls-7" d="M1350.64,2737.48c0-1.16,0-2,0-2.78h2.44c0,.24.06,1.2.06,1.9a3.41,3.41,0,0,1,3.36-2.14v2.4c-2.08,0-3.36.72-3.36,3.46V2745h-2.48Z"/><path class="cls-7" d="M1357.8,2734.7h1.64v-2.86h2.48v2.86h2.1v1.9h-2.1v5.4c0,.86.24,1.22,1.12,1.22a4.84,4.84,0,0,0,.74,0v1.74a6,6,0,0,1-1.8.2c-1.86,0-2.54-1-2.54-2.76v-5.76h-1.64Z"/><path class="cls-7" d="M1366,2737.28c0-.88,0-1.8,0-2.58h2.4a11.1,11.1,0,0,1,.1,1.44,3.15,3.15,0,0,1,3.06-1.68c2,0,3.43,1.32,3.43,4V2745h-2.49v-6.28c0-1.28-.46-2.2-1.82-2.2s-2.18.94-2.18,2.84V2745H1366Z"/><path class="cls-7" d="M1379.68,2740.36c0,1.54.78,2.88,2.32,2.88a1.87,1.87,0,0,0,2-1.26h2.5a4.4,4.4,0,0,1-4.6,3.24c-3.32,0-4.74-2.56-4.74-5.24,0-3.18,1.62-5.52,4.86-5.52,3.46,0,4.63,2.58,4.63,5a6.19,6.19,0,0,1,0,.88Zm4.48-1.58c0-1.38-.62-2.5-2.14-2.5s-2.14,1-2.28,2.5Z"/><path class="cls-7" d="M1389,2737.48c0-1.16,0-2,0-2.78h2.44c0,.24.06,1.2.06,1.9a3.41,3.41,0,0,1,3.36-2.14v2.4c-2.08,0-3.36.72-3.36,3.46V2745H1389Z"/><path class="cls-7" d="M1398.44,2741.94a2,2,0,0,0,2.14,1.44c1.2,0,1.66-.46,1.66-1.18s-.46-1.1-2.08-1.5c-3.22-.78-3.78-1.78-3.78-3.2s1.06-3,4-3,4,1.64,4.14,3.06h-2.38c-.1-.48-.44-1.28-1.86-1.28-1.12,0-1.46.52-1.46,1.06s.36.88,2.1,1.3c3.32.76,3.86,1.9,3.86,3.42,0,1.72-1.34,3.2-4.28,3.2s-4.26-1.46-4.5-3.28Z"/></g><g class="cls-8"><path class="cls-7" d="M1503.61,2700.84c-.58,2.5-2.46,4.32-5.8,4.32-4.3,0-6.38-3.1-6.38-7,0-3.78,2.12-7.18,6.5-7.18,3.52,0,5.3,2.06,5.68,4.38H1501a3,3,0,0,0-3.18-2.3c-2.66,0-3.72,2.4-3.72,5,0,2.46,1,5.06,3.8,5.06a3.06,3.06,0,0,0,3.1-2.26Z"/><path class="cls-7" d="M1515.31,2699.82c0,3.06-1.8,5.4-5,5.4s-4.94-2.28-4.94-5.36,1.86-5.4,5.06-5.4C1513.39,2694.46,1515.31,2696.6,1515.31,2699.82Zm-7.44,0c0,2.08.94,3.4,2.48,3.4s2.42-1.3,2.42-3.38-.86-3.42-2.46-3.42S1507.87,2697.6,1507.87,2699.84Z"/><path class="cls-7" d="M1517.61,2697.28c0-.88,0-1.8,0-2.58h2.4a11.1,11.1,0,0,1,.1,1.44,3.15,3.15,0,0,1,3.06-1.68c2,0,3.42,1.32,3.42,4V2705h-2.48v-6.28c0-1.28-.46-2.2-1.82-2.2s-2.18.94-2.18,2.84V2705h-2.48Z"/><path class="cls-7" d="M1528.19,2694.7h1.64v-2.86h2.48v2.86h2.1v1.9h-2.1v5.4c0,.86.24,1.22,1.12,1.22a4.84,4.84,0,0,0,.74,0v1.74a6,6,0,0,1-1.8.2c-1.86,0-2.54-1-2.54-2.76v-5.76h-1.64Z"/><path class="cls-7" d="M1536.33,2697.48c0-1.16,0-2,0-2.78h2.44c0,.24.06,1.2.06,1.9a3.41,3.41,0,0,1,3.36-2.14v2.4c-2.08,0-3.36.72-3.36,3.46V2705h-2.48Z"/><path class="cls-7" d="M1544,2692.78v-2.42h2.48v2.42Zm0,1.92h2.48V2705H1544Z"/><path class="cls-7" d="M1549.43,2690.36h2.48v5.56a3.26,3.26,0,0,1,3.06-1.46c2.72,0,4.2,2.24,4.2,5.18s-1.54,5.58-4.48,5.58a2.86,2.86,0,0,1-2.8-1.34,7.69,7.69,0,0,1-.1,1.1h-2.38c0-1.12,0-2.26,0-3.4Zm4.82,6.12c-1.8,0-2.46,1.2-2.46,3.4,0,1.88.58,3.34,2.42,3.34,1.56,0,2.42-1.4,2.42-3.52C1556.63,2697.82,1555.87,2696.48,1554.25,2696.48Z"/><path class="cls-7" d="M1570.23,2702c0,1,0,2.18,0,3h-2.42c0-.28-.06-.86-.08-1.3a3,3,0,0,1-2.92,1.54c-2,0-3.42-1.14-3.42-3.8v-6.72h2.48v6.22c0,1.2.36,2.24,1.76,2.24s2.1-.82,2.1-3v-5.44h2.48Z"/><path class="cls-7" d="M1572.23,2694.7h1.64v-2.86h2.48v2.86h2.1v1.9h-2.1v5.4c0,.86.24,1.22,1.12,1.22a4.84,4.84,0,0,0,.74,0v1.74a6,6,0,0,1-1.8.2c-1.86,0-2.54-1-2.54-2.76v-5.76h-1.64Z"/><path class="cls-7" d="M1582.17,2700.36c0,1.54.78,2.88,2.32,2.88a1.87,1.87,0,0,0,2-1.26h2.5a4.41,4.41,0,0,1-4.6,3.24c-3.32,0-4.74-2.56-4.74-5.24,0-3.18,1.62-5.52,4.86-5.52,3.46,0,4.62,2.58,4.62,5a6.19,6.19,0,0,1,0,.88Zm4.48-1.58c0-1.38-.62-2.5-2.14-2.5s-2.14,1-2.28,2.5Z"/><path class="cls-7" d="M1503.61,2740.84c-.58,2.5-2.46,4.32-5.8,4.32-4.3,0-6.38-3.1-6.38-7,0-3.78,2.12-7.18,6.5-7.18,3.52,0,5.3,2.06,5.68,4.38H1501a3,3,0,0,0-3.18-2.3c-2.66,0-3.72,2.4-3.72,5,0,2.46,1,5.06,3.8,5.06a3.06,3.06,0,0,0,3.1-2.26Z"/><path class="cls-7" d="M1515.31,2739.82c0,3.06-1.8,5.4-5,5.4s-4.94-2.28-4.94-5.36,1.86-5.4,5.06-5.4C1513.39,2734.46,1515.31,2736.6,1515.31,2739.82Zm-7.44,0c0,2.08.94,3.4,2.48,3.4s2.42-1.3,2.42-3.38-.86-3.42-2.46-3.42S1507.87,2737.6,1507.87,2739.84Z"/><path class="cls-7" d="M1517.61,2737.28c0-.88,0-1.8,0-2.58h2.4a11.1,11.1,0,0,1,.1,1.44,3.15,3.15,0,0,1,3.06-1.68c2,0,3.42,1.32,3.42,4V2745h-2.48v-6.28c0-1.28-.46-2.2-1.82-2.2s-2.18.94-2.18,2.84V2745h-2.48Z"/><path class="cls-7" d="M1528.19,2734.7h1.64v-2.86h2.48v2.86h2.1v1.9h-2.1v5.4c0,.86.24,1.22,1.12,1.22a4.84,4.84,0,0,0,.74,0v1.74a6,6,0,0,1-1.8.2c-1.86,0-2.54-1-2.54-2.76v-5.76h-1.64Z"/><path class="cls-7" d="M1544.59,2742.46a20.61,20.61,0,0,0,.14,2.52h-2.38a5.17,5.17,0,0,1-.16-1.12c-.36.62-1.1,1.36-3,1.36a3.16,3.16,0,0,1-3.5-3.2c0-2.32,1.86-3.4,4.88-3.4h1.56v-.7c0-.8-.26-1.64-1.8-1.64-1.36,0-1.64.62-1.78,1.38h-2.38c.14-1.68,1.2-3.22,4.26-3.2,2.68,0,4.14,1.08,4.14,3.48Zm-2.42-2.28h-1.34c-1.82,0-2.62.54-2.62,1.7a1.49,1.49,0,0,0,1.66,1.52c2,0,2.3-1.4,2.3-2.92Z"/><path class="cls-7" d="M1556.17,2741.72a4.22,4.22,0,0,1-4.5,3.5c-3.08,0-4.76-2.16-4.76-5.32,0-3,1.78-5.44,4.9-5.44a4,4,0,0,1,4.36,3.58h-2.44a1.83,1.83,0,0,0-2-1.6c-1.48,0-2.3,1.28-2.3,3.38s.84,3.44,2.28,3.44a2,2,0,0,0,2-1.54Z"/><path class="cls-7" d="M1557.35,2734.7H1559v-2.86h2.48v2.86h2.1v1.9h-2.1v5.4c0,.86.24,1.22,1.12,1.22a4.84,4.84,0,0,0,.74,0v1.74a6,6,0,0,1-1.8.2c-1.86,0-2.54-1-2.54-2.76v-5.76h-1.64Z"/><path class="cls-7" d="M1573.51,2731.14v8.28c0,2.86,1.52,3.68,3.1,3.68,1.84,0,3.06-.94,3.06-3.68v-8.28h2.6v8.14c0,4.66-2.68,5.88-5.7,5.88s-5.66-1.3-5.66-5.8v-8.22Z"/><path class="cls-7" d="M1586.63,2741.94a2,2,0,0,0,2.14,1.44c1.2,0,1.66-.46,1.66-1.18s-.46-1.1-2.08-1.5c-3.22-.78-3.78-1.78-3.78-3.2s1.06-3,4-3,4,1.64,4.14,3.06h-2.38c-.1-.48-.44-1.28-1.86-1.28-1.12,0-1.46.52-1.46,1.06s.36.88,2.1,1.3c3.32.76,3.86,1.9,3.86,3.42,0,1.72-1.34,3.2-4.28,3.2s-4.26-1.46-4.5-3.28Z"/></g></g><g id="Intro_and_Links" data-name="Intro and Links"><polygon class="cls-9" points="558.58 925.2 558.58 700.08 753.54 587.52 948.51 700.08 948.51 925.2 753.54 1037.76 558.58 925.2"/><path class="cls-10" d="M753.54,592.14l191,110.25v220.5l-191,110.25-191-110.25V702.39l191-110.25m0-9.24-4,2.31-191,110.25-4,2.31V927.51l4,2.31,191,110.25,4,2.31,4-2.31,191-110.25,4-2.31V697.77l-4-2.31-191-110.25-4-2.31Z"/><polygon class="cls-9" points="970.77 925.2 970.77 700.08 1165.73 587.52 1360.69 700.08 1360.69 925.2 1165.73 1037.76 970.77 925.2"/><path class="cls-9" d="M1165.73,592.14l191,110.25v220.5l-191,110.25-191-110.25V702.39l191-110.25m0-9.24-4,2.31-191,110.25-4,2.31V927.51l4,2.31,191,110.25,4,2.31,4-2.31,191-110.25,4-2.31V697.77l-4-2.31-191-110.25-4-2.31Z"/><polygon class="cls-9" points="1177.18 568.5 1177.18 343.38 1372.14 230.82 1567.1 343.38 1567.1 568.5 1372.14 681.06 1177.18 568.5"/><path class="cls-9" d="M1372.14,235.44l191,110.25v220.5l-191,110.25-191-110.25V345.69l191-110.25m0-9.24-4,2.31-191,110.25-4,2.31V570.81l4,2.31,191,110.25,4,2.31,4-2.31,191-110.25,4-2.31V341.07l-4-2.31-191-110.25-4-2.31Z"/><polygon class="cls-9" points="765 568.5 765 343.38 959.96 230.82 1154.92 343.38 1154.92 568.5 959.96 681.06 765 568.5"/><path class="cls-9" d="M960,235.44l191,110.25v220.5L960,676.44,769,566.19V345.69L960,235.44m0-9.24-4,2.31L765,338.76l-4,2.31V570.81l4,2.31L956,683.37l4,2.31,4-2.31,191-110.25,4-2.31V341.07l-4-2.31L964,228.51l-4-2.31Z"/><polygon class="cls-9" points="352.81 568.5 352.81 343.38 547.77 230.82 742.74 343.38 742.74 568.5 547.77 681.06 352.81 568.5"/><path class="cls-9" d="M547.77,235.44l191,110.25v220.5l-191,110.25-191-110.25V345.69l191-110.25m0-9.24-4,2.31-191,110.25-4,2.31V570.81l4,2.31,191,110.25,4,2.31,4-2.31,191-110.25,4-2.31V341.07l-4-2.31-191-110.25-4-2.31Z"/><g class="cls-11"><image width="452" height="352" transform="translate(1045.43 221.71) scale(1.33)" xlink:href="../../../../../../OneDrive%20-%20Microsoft/20190108_BabylonWebRedesign/PNG/Demo3.png"/></g><g class="cls-12"><image width="452" height="352" transform="translate(245.54 211.82) scale(1.39)" xlink:href="../../../../../../OneDrive%20-%20Microsoft/20190108_BabylonWebRedesign/PNG/Demo1.png"/></g><g class="cls-13"><image width="1968" height="1020" transform="translate(554.37 122.79) scale(0.55)" xlink:href="../../../../../../OneDrive%20-%20Microsoft/20190108_BabylonWebRedesign/PNG/shangshouculture.png"/></g><g class="cls-14"><image width="2376" height="1292" transform="translate(378.65 568.33) scale(0.36)" xlink:href="../../../../../../OneDrive%20-%20Microsoft/20190108_BabylonWebRedesign/PNG/snooker.png"/></g><g class="cls-15"><image width="2376" height="1292" transform="translate(711.9 549.63) scale(0.38)" xlink:href="../../../../../../OneDrive%20-%20Microsoft/20190108_BabylonWebRedesign/PNG/gcapsarena.png"/></g><polygon class="cls-9" points="558.58 1638.6 558.58 1413.47 753.54 1300.91 948.51 1413.47 948.51 1638.6 753.54 1751.15 558.58 1638.6"/><path class="cls-9" d="M753.54,1305.53l191,110.25v220.5l-191,110.26-191-110.26v-220.5l191-110.25m0-9.24-4,2.31-191,110.25-4,2.31V1640.9l4,2.31,191,110.25,4,2.31,4-2.31,191-110.25,4-2.31V1411.16l-4-2.31-191-110.25-4-2.31Z"/><polygon class="cls-9" points="970.77 1638.6 970.77 1413.47 1165.73 1300.91 1360.69 1413.47 1360.69 1638.6 1165.73 1751.15 970.77 1638.6"/><path class="cls-9" d="M1165.73,1305.53l191,110.25v220.5l-191,110.26-191-110.26v-220.5l191-110.25m0-9.24-4,2.31-191,110.25-4,2.31V1640.9l4,2.31,191,110.25,4,2.31,4-2.31,191-110.25,4-2.31V1411.16l-4-2.31-191-110.25-4-2.31Z"/><polygon class="cls-9" points="1177.18 1281.9 1177.18 1056.78 1372.14 944.21 1567.1 1056.78 1567.1 1281.9 1372.14 1394.46 1177.18 1281.9"/><path class="cls-9" d="M1372.14,948.83l191,110.25v220.51l-191,110.25-191-110.25V1059.08l191-110.25m0-9.23-4,2.3-191,110.26-4,2.31v229.74l4,2.31,191,110.25,4,2.31,4-2.31,191-110.25,4-2.31V1054.47l-4-2.31-191-110.26-4-2.3Z"/><polygon class="cls-9" points="765 1281.9 765 1056.78 959.96 944.21 1154.92 1056.78 1154.92 1281.9 959.96 1394.46 765 1281.9"/><path class="cls-9" d="M960,948.83l191,110.25v220.51L960,1389.84,769,1279.59V1059.08L960,948.83m0-9.23-4,2.3L765,1052.16l-4,2.31v229.74l4,2.31,191,110.25,4,2.31,4-2.31,191-110.25,4-2.31V1054.47l-4-2.31L964,941.9l-4-2.3Z"/><polygon class="cls-9" points="352.81 1281.9 352.81 1056.78 547.77 944.21 742.74 1056.78 742.74 1281.9 547.77 1394.46 352.81 1281.9"/><path class="cls-9" d="M547.77,948.83l191,110.25v220.51l-191,110.25-191-110.25V1059.08l191-110.25m0-9.23-4,2.3-191,110.26-4,2.31v229.74l4,2.31,191,110.25,4,2.31,4-2.31,191-110.25,4-2.31V1054.47l-4-2.31-191-110.26-4-2.3Z"/><polygon class="cls-9" points="558.58 2352.01 558.58 2126.89 753.54 2014.32 948.51 2126.89 948.51 2352.01 753.54 2464.57 558.58 2352.01"/><path class="cls-9" d="M753.54,2018.94l191,110.25V2349.7L753.54,2460l-191-110.25V2129.19l191-110.25m0-9.23-4,2.31-191,110.25-4,2.31v229.74l4,2.31,191,110.25,4,2.31,4-2.31,191-110.25,4-2.31V2124.58l-4-2.31L757.54,2012l-4-2.31Z"/><polygon class="cls-9" points="970.77 2352.01 970.77 2126.89 1165.73 2014.32 1360.69 2126.89 1360.69 2352.01 1165.73 2464.57 970.77 2352.01"/><path class="cls-9" d="M1165.73,2018.94l191,110.25V2349.7l-191,110.25-191-110.25V2129.19l191-110.25m0-9.23-4,2.31-191,110.25-4,2.31v229.74l4,2.31,191,110.25,4,2.31,4-2.31,191-110.25,4-2.31V2124.58l-4-2.31-191-110.25-4-2.31Z"/><polygon class="cls-9" points="1177.18 1995.31 1177.18 1770.19 1372.14 1657.63 1567.1 1770.19 1567.1 1995.31 1372.14 2107.87 1177.18 1995.31"/><path class="cls-9" d="M1372.14,1662.25l191,110.25V1993l-191,110.25-191-110.25V1772.5l191-110.25m0-9.24-4,2.31-191,110.25-4,2.31v229.74l4,2.31,191,110.25,4,2.31,4-2.31,191-110.25,4-2.31V1767.88l-4-2.31-191-110.25-4-2.31Z"/><polygon class="cls-9" points="765 1995.31 765 1770.19 959.96 1657.63 1154.92 1770.19 1154.92 1995.31 959.96 2107.87 765 1995.31"/><path class="cls-9" d="M960,1662.25l191,110.25V1993L960,2103.25,769,1993V1772.5l191-110.25m0-9.24-4,2.31L765,1765.57l-4,2.31v229.74l4,2.31,191,110.25,4,2.31,4-2.31,191-110.25,4-2.31V1767.88l-4-2.31L964,1655.32l-4-2.31Z"/><polygon class="cls-9" points="352.81 1995.31 352.81 1770.19 547.77 1657.63 742.74 1770.19 742.74 1995.31 547.77 2107.87 352.81 1995.31"/><path class="cls-9" d="M547.77,1662.25l191,110.25V1993l-191,110.25L356.81,1993V1772.5l191-110.25m0-9.24-4,2.31-191,110.25-4,2.31v229.74l4,2.31,191,110.25,4,2.31,4-2.31,191-110.25,4-2.31V1767.88l-4-2.31-191-110.25-4-2.31Z"/><path class="cls-7" d="M382.61,147h7.28c6.56,0,9,3.58,9,9.36v2c0,6.11-1.76,8-4,8.78,2.47.77,4.94,2.92,4.94,8.7V179c0,7.67-2.47,11.38-9.82,11.38h-7.34Zm7.21,18.53c3.9,0,5.07-1.69,5.07-6.89v-2c0-4-1.49-6-5.33-6H386.7V165.5Zm-3.12,21.39h2.93c4.81,0,6-2.35,6-7.93v-3c0-4.87-1.82-7-6-7h-3Z"/><path class="cls-7" d="M409.13,176l-2.21,14.37h-4.16L409.91,147h5.91l7.48,43.43h-4.36L416.6,176Zm6.95-3.83c-1.69-10.08-2.79-17.56-3.18-21.46h-.2c-.13,3.32-1.75,13.2-3,21.46Z"/><path class="cls-7" d="M427.13,147h7.28c6.57,0,9,3.58,9,9.36v2c0,6.11-1.75,8-4,8.78,2.47.77,4.94,2.92,4.94,8.7V179c0,7.67-2.47,11.38-9.81,11.38h-7.35Zm7.22,18.53c3.9,0,5.07-1.69,5.07-6.89v-2c0-4-1.5-6-5.33-6h-2.86V165.5Zm-3.12,21.39h2.92c4.81,0,6.05-2.35,6.05-7.93v-3c0-4.87-1.82-7-6-7h-3Z"/><path class="cls-7" d="M453.65,190.4V174a2.81,2.81,0,0,0-.19-1.1L445.53,147h4.55c2.21,8.06,4.94,17.68,5.72,21.52h.06c.78-4,3.64-13.85,5.72-21.52h4.36l-8,26.14a5.66,5.66,0,0,0-.13,1.23V190.4Z"/><path class="cls-7" d="M469,147h4.16v39.72h10.92l-.52,3.71H469Z"/><path class="cls-7" d="M504.22,157.44v22.23c0,7.48-3.05,11.31-9.29,11.31-6.7,0-9-4.35-9-11.24v-22.3c0-7.15,3.18-11.05,9.23-11.05C501.56,146.39,504.22,150.94,504.22,157.44Zm-14-.13V180c0,5.2,1.89,7.21,4.94,7.21s4.88-2,4.88-7.41V157.37c0-4.87-1.69-7.21-4.94-7.21S490.18,152.37,490.18,157.31Z"/><path class="cls-7" d="M509.75,190.4V147h5l7.74,27.7a77.7,77.7,0,0,1,1.75,7.66h.13c-.26-5.91-.32-12-.32-19.11V147H528V190.4h-4.81l-8.65-31.53c-.58-2.21-.91-3.9-1.1-5.07h-.07c.26,5.2.39,12.41.39,20.28V190.4Z"/><path class="cls-7" d="M533.08,190.4v-8.84h4.16v8.84Z"/><path class="cls-7" d="M550.37,181.82c0,4.74-.45,9.1-6.76,9.1a15.27,15.27,0,0,1-2.66-.2v-3.64a12.62,12.62,0,0,0,2,.13c2.34,0,3.25-.78,3.25-4.75V147h4.16Z"/><path class="cls-7" d="M558.89,178.3v2.48c0,4.29,1.49,6.56,4.68,6.56s4.55-2.21,4.55-7.41-1.11-7.28-5.66-10.79-7-5.79-7-12.16c0-5.46,1.62-10.66,8.19-10.59,6.11.06,7.93,4,7.93,9.68v2h-4.16V156.2c0-3.7-.72-6.17-3.9-6.17s-4,2.79-4,6.3c0,4.3.85,5.79,4.88,8.84,5.91,4.55,7.8,7,7.8,14.18,0,6.11-1.63,11.63-8.78,11.63-6.76,0-8.77-4.48-8.77-10.2V178.3Z"/><path class="cls-7" d="M585.86,147h7.6c9.36,0,10.34,6.05,10.34,12.68v17.23c0,6.69-1,13.52-10.73,13.52h-7.21ZM590,186.76h2.73c5.46,0,6.82-3,6.82-9V159.06c0-5.26-1-8.45-6.76-8.45H590Z"/><path class="cls-7" d="M623.23,169.08h-9.75v17.55h11L624,190.4H609.32V147h14.5v3.84H613.48V165.3h9.75Z"/><path class="cls-7" d="M649.56,171.8c0-8.06.13-16.51.26-21.06h-.07c-1.1,7.22-4.61,26.66-7.08,39.66h-4.1c-1.82-11.12-5.46-32-6.5-39.72h-.13c.13,5.07.33,14.88.33,22.36V190.4h-3.9V147h6.17c2.54,13.26,5.59,30,6.18,35.43h.06c.72-5.27,4.23-23,6.76-35.43h6.05V190.4h-4Z"/><path class="cls-7" d="M677.38,157.44v22.23c0,7.48-3.06,11.31-9.3,11.31-6.69,0-9-4.35-9-11.24v-22.3c0-7.15,3.19-11.05,9.23-11.05C674.71,146.39,677.38,150.94,677.38,157.44Zm-14-.13V180c0,5.2,1.88,7.21,4.94,7.21s4.87-2,4.87-7.41V157.37c0-4.87-1.69-7.21-4.94-7.21S663.34,152.37,663.34,157.31Z"/><path class="cls-7" d="M685.31,178.3v2.48c0,4.29,1.49,6.56,4.68,6.56s4.55-2.21,4.55-7.41-1.11-7.28-5.66-10.79-7-5.79-7-12.16c0-5.46,1.62-10.66,8.19-10.59,6.11.06,7.93,4,7.93,9.68v2h-4.16V156.2c0-3.7-.72-6.17-3.9-6.17s-4,2.79-4,6.3c0,4.3.85,5.79,4.88,8.84,5.91,4.55,7.8,7,7.8,14.18,0,6.11-1.63,11.63-8.78,11.63-6.76,0-8.77-4.48-8.77-10.2V178.3Z"/><image width="382" height="442" transform="translate(356.41 948.89)" xlink:href="../../../../../../OneDrive%20-%20Microsoft/20190108_BabylonWebRedesign/PNG/Demo4.png"/><image width="382" height="442" transform="translate(768.93 948.2)" xlink:href="../../../../../../OneDrive%20-%20Microsoft/20190108_BabylonWebRedesign/PNG/Demo5.png"/><image width="382" height="442" transform="translate(1180.47 948.57)" xlink:href="../../../../../../OneDrive%20-%20Microsoft/20190108_BabylonWebRedesign/PNG/Demo6.png"/><image width="382" height="442" transform="translate(562.8 1304.16)" xlink:href="../../../../../../OneDrive%20-%20Microsoft/20190108_BabylonWebRedesign/PNG/Demo7.png"/><image width="382" height="442" transform="translate(974 1304.57)" xlink:href="../../../../../../OneDrive%20-%20Microsoft/20190108_BabylonWebRedesign/PNG/Demo8.png"/><image width="382" height="442" transform="translate(356.21 1661.62)" xlink:href="../../../../../../OneDrive%20-%20Microsoft/20190108_BabylonWebRedesign/PNG/Demo9.png"/><image width="382" height="442" transform="translate(769.28 1661.28)" xlink:href="../../../../../../OneDrive%20-%20Microsoft/20190108_BabylonWebRedesign/PNG/Demo10.png"/><image width="382" height="442" transform="translate(561.24 2018.94)" xlink:href="../../../../../../OneDrive%20-%20Microsoft/20190108_BabylonWebRedesign/PNG/Demo12.png"/><image width="382" height="442" transform="translate(1181.57 1661.96)" xlink:href="../../../../../../OneDrive%20-%20Microsoft/20190108_BabylonWebRedesign/PNG/Demo13.png"/><image width="382" height="442" transform="translate(974.43 2018.18)" xlink:href="../../../../../../OneDrive%20-%20Microsoft/20190108_BabylonWebRedesign/PNG/Demo14.png"/><path class="cls-9" d="M960,2446l-51.74,29.87v59.74L960,2565.44l51.73-29.87v-59.74Z"/><path class="cls-7" d="M927,2510.47v1.4c0,1.92.63,3,2.1,3s2-1.3,2-3.26c0-2.59-.56-3.5-3.08-5.46s-3.81-3.22-3.81-6.65c0-3,.91-6,4.9-6s4.76,2.77,4.76,5.5v1.15h-3.12v-1.08c0-1.75-.31-2.87-1.68-2.87s-1.71,1.19-1.71,2.87c0,1.85.35,2.69,2.45,4.23,3.39,2.52,4.44,4,4.44,7.88,0,3.29-1.08,6.37-5.25,6.37s-5.14-2.63-5.14-5.71v-1.36Z"/><path class="cls-7" d="M939.64,2493.84v18c0,1.78.6,2.9,2.14,2.9s2.13-1.15,2.13-2.9v-18H947v17.89c0,3.64-1.65,5.81-5.29,5.81s-5.25-1.93-5.25-5.78v-17.92Z"/><path class="cls-7" d="M950.21,2493.84h4.48c3.89,0,5.36,1.89,5.36,5.22v.94c0,3.29-1.09,4.27-2.17,4.73,1.15.38,2.62,1.36,2.62,4.69v1.75c0,4-1.54,6-5.56,6h-4.73Zm4.2,9.66c2.07,0,2.66-.7,2.66-3.18v-1c0-2-.7-2.87-2.55-2.87h-1.26v7Zm-1.15,11.13h1.33c2.24,0,2.83-1.05,2.83-3.53v-1.61c0-2.38-.73-3.4-3-3.4h-1.15Z"/><path class="cls-7" d="M974.75,2508.09c0-4.13.07-8.93.14-11.52h0c-.56,4-2.06,13.79-3.18,20.65h-3c-.84-6-2.38-16.45-2.9-20.68h-.07c.07,2.73.17,8,.17,12v8.64H963v-23.38h4.66c1.08,6.34,2.27,13.83,2.59,17h0c.35-3.15,1.86-11,2.94-17h4.52v23.38h-3Z"/><path class="cls-7" d="M984.2,2493.84v23.38h-3.15v-23.38Z"/><path class="cls-7" d="M989.69,2496.75h-3.78v-2.91h10.68v2.91h-3.78v20.47h-3.12Z"/></g><g id="Header_Bar" data-name="Header Bar"><path class="cls-16" d="M427.1,24.94h3.41v7.65c.61-1,1.82-2,4.21-2,3.74,0,5.78,3.08,5.78,7.13s-2.12,7.67-6.16,7.67c-2.15,0-3.17-.71-3.86-1.84a11.5,11.5,0,0,1-.13,1.51h-3.28c0-1.54,0-3.11,0-4.68Zm6.63,8.42c-2.48,0-3.38,1.65-3.38,4.68,0,2.58.79,4.59,3.32,4.59,2.15,0,3.33-1.93,3.33-4.84C437,35.2,436,33.36,433.73,33.36Z"/><path class="cls-16" d="M454.42,41.59a28.94,28.94,0,0,0,.19,3.46h-3.27a7.26,7.26,0,0,1-.22-1.54c-.5.85-1.51,1.87-4.1,1.87-3.39,0-4.82-2.23-4.82-4.4,0-3.19,2.56-4.68,6.72-4.68h2.14v-1c0-1.1-.35-2.26-2.47-2.26-1.87,0-2.26.86-2.45,1.9h-3.28c.2-2.31,1.66-4.43,5.87-4.4,3.68,0,5.69,1.48,5.69,4.79Zm-3.33-3.14h-1.84c-2.51,0-3.61.74-3.61,2.34a2.05,2.05,0,0,0,2.29,2.09c2.8,0,3.16-1.93,3.16-4Z"/><path class="cls-16" d="M457.5,24.94h3.41v7.65c.61-1,1.82-2,4.21-2,3.75,0,5.78,3.08,5.78,7.13s-2.12,7.67-6.16,7.67c-2.15,0-3.17-.71-3.85-1.84a11.3,11.3,0,0,1-.14,1.51h-3.28c0-1.54,0-3.11,0-4.68Zm6.63,8.42c-2.47,0-3.38,1.65-3.38,4.68,0,2.58.8,4.59,3.33,4.59,2.14,0,3.33-1.93,3.33-4.84C467.41,35.2,466.36,33.36,464.13,33.36Z"/><path class="cls-16" d="M475.19,30.91c1.77,5.53,3,9.66,3.31,11h0c.36-1.48,1.24-4.67,3.14-11h3.41L480.2,45.55c-1.37,4.1-2.47,5.25-5.69,5.25a13.53,13.53,0,0,1-1.74-.11v-2.8c.31,0,.72,0,1.08,0,1.54,0,2.25-.58,2.89-2.42l-5.21-14.61Z"/><path class="cls-16" d="M486.59,45.05V24.94H490V45.05Z"/><path class="cls-16" d="M506.15,38c0,4.21-2.48,7.43-6.91,7.43s-6.79-3.13-6.79-7.37,2.55-7.43,7-7.43C503.51,30.58,506.15,33.52,506.15,38Zm-10.24,0c0,2.86,1.3,4.68,3.41,4.68s3.33-1.79,3.33-4.65c0-3.06-1.18-4.71-3.38-4.71S495.91,34.9,495.91,38Z"/><path class="cls-16" d="M508.62,34.46c0-1.21,0-2.48,0-3.55h3.3a15.64,15.64,0,0,1,.14,2,4.32,4.32,0,0,1,4.21-2.31c2.78,0,4.7,1.81,4.7,5.45v9h-3.41V36.41c0-1.76-.63-3-2.5-3s-3,1.29-3,3.9v7.76h-3.42Z"/><path class="cls-16" d="M524.2,45.05V40.48h3.66v4.57Z"/><path class="cls-16" d="M533.5,31.21V45.79c0,3.77-.91,5-3.61,5l-.85,0V49.12a3.89,3.89,0,0,0,.58,0c1.84,0,2-1,2-3.08V31.21Zm-1.85-3.58V24.8h1.85v2.83Z"/><path class="cls-16" d="M537.68,41.17a3.46,3.46,0,0,0,3.69,2.67c2.25,0,3.16-1,3.16-2.45s-.63-2.14-3.52-2.83c-3.77-.91-4.62-2.07-4.62-3.91s1.46-3.77,4.76-3.77,4.81,2,5,3.94h-1.81a3,3,0,0,0-3.28-2.4c-2.2,0-2.83,1.08-2.83,2.09,0,1.16.6,1.74,3.24,2.37,4,1,5,2.31,5,4.37,0,2.48-2,4.13-5.15,4.13-3.35,0-5.12-1.73-5.47-4.21Z"/><polygon class="cls-10" points="420.62 24.97 415.18 21.83 409.94 24.85 415.38 28 420.62 24.97"/><polygon class="cls-10" points="391.07 28 408.46 17.95 403.23 14.93 385.83 24.97 391.07 28"/><polygon class="cls-10" points="397.78 38.16 403.23 41.3 408.67 38.16 403.23 35.02 397.78 38.16"/><polygon class="cls-17" points="415.38 28 415.38 42.04 403.23 49.06 391.07 42.04 391.07 28 385.83 24.97 385.83 45.06 403.23 55.11 420.62 45.06 420.62 24.97 415.38 28"/><polygon class="cls-17" points="403.23 28.73 397.78 31.87 397.78 38.16 403.23 35.02 408.67 38.16 408.67 31.87 403.23 28.73"/><polygon class="cls-18" points="415.38 28 408.67 31.87 408.67 38.16 403.23 41.3 403.23 49.06 415.38 42.04 415.38 28"/><polygon class="cls-16" points="391.07 28 397.78 31.87 397.78 38.16 403.23 41.3 403.23 49.06 391.07 42.04 391.07 28"/><polygon class="cls-7" points="408.46 17.95 415.18 21.83 409.94 24.85 415.38 28 408.67 31.87 403.23 28.73 397.78 31.87 391.07 28 408.46 17.95"/></g><g id="Icons"><polygon class="cls-7" points="1635.25 33.07 1633.21 30.87 1626.59 37.01 1626.59 20.63 1623.59 20.63 1623.59 36.96 1617.32 31 1615.25 33.17 1625.08 42.51 1635.25 33.07"/><polygon class="cls-7" points="1633.39 45.17 1633.39 46.98 1616.9 46.98 1616.9 45.17 1613.9 45.17 1613.9 49.98 1636.39 49.98 1636.39 45.17 1633.39 45.17"/><rect class="cls-7" x="283.5" y="25.58" width="22.9" height="3.01"/><rect class="cls-7" x="283.5" y="33.53" width="22.9" height="3.01"/><rect class="cls-7" x="283.5" y="41.47" width="22.9" height="3.01"/></g><g id="Footer_Logos" data-name="Footer Logos"><g class="cls-19"><g class="cls-19"><path class="cls-7" d="M552,2724.35a4.41,4.41,0,0,0-3.13-3.15c-2.76-.75-13.84-.75-13.84-.75s-11.08,0-13.84.75a4.45,4.45,0,0,0-3.13,3.15c-.74,2.78-.74,8.58-.74,8.58s0,5.8.74,8.58a4.46,4.46,0,0,0,3.13,3.16c2.76.74,13.84.74,13.84.74s11.08,0,13.84-.74a4.43,4.43,0,0,0,3.13-3.16c.74-2.78.74-8.58.74-8.58s0-5.8-.74-8.58m-20.59,13.85v-10.54l9.26,5.27Z"/></g></g><path class="cls-7" d="M302.79,2747.51c14.21,0,22-11.78,22-22,0-.34,0-.67,0-1a15.78,15.78,0,0,0,3.86-4,15.56,15.56,0,0,1-4.44,1.21,7.76,7.76,0,0,0,3.4-4.27,15.76,15.76,0,0,1-4.91,1.88,7.73,7.73,0,0,0-13.17,7,22,22,0,0,1-15.93-8.07,7.74,7.74,0,0,0,2.4,10.32,7.7,7.7,0,0,1-3.51-1v.1a7.72,7.72,0,0,0,6.2,7.57,7.63,7.63,0,0,1-3.49.13,7.73,7.73,0,0,0,7.22,5.37,15.55,15.55,0,0,1-9.6,3.32,16.22,16.22,0,0,1-1.84-.11,21.93,21.93,0,0,0,11.85,3.46"/><path class="cls-20" d="M366.64,2716a16.26,16.26,0,0,0-5.14,31.69c.81.14,1.11-.35,1.11-.78s0-1.66,0-3c-4.08.75-5.14-1-5.46-1.92a6,6,0,0,0-1.67-2.29c-.57-.31-1.38-1.06,0-1.08a3.24,3.24,0,0,1,2.5,1.67,3.48,3.48,0,0,0,4.74,1.34,3.41,3.41,0,0,1,1-2.18c-3.62-.4-7.4-1.8-7.4-8A6.3,6.3,0,0,1,358,2727a5.88,5.88,0,0,1,.16-4.31s1.37-.43,4.47,1.66a15.57,15.57,0,0,1,8.13,0c3.11-2.11,4.48-1.66,4.48-1.66a5.88,5.88,0,0,1,.16,4.31,6.26,6.26,0,0,1,1.67,4.37c0,6.24-3.81,7.62-7.42,8a3.86,3.86,0,0,1,1.09,3c0,2.18,0,3.93,0,4.47s.31.94,1.12.78a16.27,16.27,0,0,0-5.18-31.69Z"/><path class="cls-7" d="M421.68,2715.77a16.26,16.26,0,0,0-16.3,16v16.59h16.3a16.3,16.3,0,0,0,0-32.6Z"/><path class="cls-21" d="M421.84,2722a10,10,0,0,0-8.74,14.67l-1.79,5.78,6.45-1.46a9.93,9.93,0,1,0,4.08-19Z"/><path class="cls-22" d="M429.71,2725.86a9.92,9.92,0,0,1-11.95,15.08l-6.45,1.48,6.57-.78a9.92,9.92,0,0,0,11.83-15.78Z"/><path class="cls-23" d="M427.89,2724a9.93,9.93,0,0,1-10.32,16.25l-6.26,2.14,6.45-1.46A9.93,9.93,0,0,0,427.89,2724Z"/><path class="cls-24" d="M413.7,2736.85a9.93,9.93,0,0,1,16-11,9.93,9.93,0,0,0-16.62,10.78l-1.79,5.78Z"/><path class="cls-25" d="M413.1,2736.64A9.94,9.94,0,0,1,427.89,2724a9.93,9.93,0,0,0-15.4,12.45l-1.18,5.94Z"/><g id="Monogram"><rect id="Rectangle-path" class="cls-7" x="462.79" y="2716.44" width="30.62" height="30.62"/><path id="Shape" class="cls-4" d="M470.1,2726.68a.84.84,0,0,0-.26-.67l-1.93-2.31v-.35h6l4.61,10.11,4.05-10.11h5.69v.35l-1.64,1.57a.47.47,0,0,0-.19.46v11.57a.46.46,0,0,0,.19.46l1.6,1.58v.35h-8.07v-.35l1.66-1.61c.17-.17.17-.21.17-.46v-9.36l-4.62,11.74h-.63l-5.38-11.74v7.87a1.11,1.11,0,0,0,.3.9l2.16,2.62v.35h-6.12v-.35l2.16-2.62a1.06,1.06,0,0,0,.28-.9Z"/></g><path class="cls-7" d="M579.7,2722.4a2.81,2.81,0,0,0-4.14-.39,2.9,2.9,0,0,0-.29,3.84l5.62,7.53-5.65,7.6a2.89,2.89,0,0,0,.29,3.85,2.8,2.8,0,0,0,4.13-.4l7.89-10.6a.74.74,0,0,0,0-.87Z"/><path class="cls-7" d="M597,2722.4a2.81,2.81,0,0,1,4.14-.39,2.9,2.9,0,0,1,.29,3.84l-5.62,7.53,5.65,7.6a2.89,2.89,0,0,1-.29,3.85,2.8,2.8,0,0,1-4.13-.4l-7.87-10.62a.74.74,0,0,1,0-.87Z"/></g><g id="Pointer"><path class="cls-26" d="M562.58,804.11V922.89l191,110.25,191-110.25V804.11Z"/><path class="cls-7" d="M593.71,831.06h7.78c4,0,6.72,2.24,6.72,5.88,0,4.06-3,6-6.83,6h-4v7.47h-3.64Zm3.64,9H601c2.18,0,3.56-.93,3.56-3s-1.52-3-3.45-3h-3.75Z"/><path class="cls-7" d="M628.12,844.64c-.81,3.5-3.44,6-8.12,6-6,0-8.93-4.34-8.93-9.85,0-5.29,3-10.05,9.1-10.05,4.93,0,7.42,2.88,8,6.13h-3.64a4.18,4.18,0,0,0-4.45-3.22c-3.72,0-5.21,3.36-5.21,7,0,3.44,1.35,7.08,5.32,7.08a4.27,4.27,0,0,0,4.34-3.16Z"/><path class="cls-7" d="M649.54,840.66c0,5.38-3.16,10.05-9.38,10.05-6,0-9.13-4.42-9.13-10s3.42-10,9.38-10C646,830.78,649.54,834.81,649.54,840.66Zm-14.75,0c0,3.92,1.82,7.06,5.51,7.06,4,0,5.46-3.31,5.46-7,0-3.84-1.68-7-5.51-7S634.79,836.77,634.79,840.66Z"/><path class="cls-7" d="M653.57,831.06h3.64v16.38H667l-.42,3h-13Z"/><path class="cls-7" d="M593,864.28h1.94v6.58a3.61,3.61,0,0,1,3.54-1.85c2.82,0,4.58,2.31,4.58,5.61s-1.72,6.08-4.87,6.08a3.26,3.26,0,0,1-3.28-1.74,13.14,13.14,0,0,1-.08,1.47H593c0-1.25,0-2.51,0-3.74Zm5,6.36c-2.38,0-3.21,1.58-3.21,4.25,0,2.33.74,4.18,3.1,4.18,2,0,3.15-1.7,3.15-4.4C601.06,872.25,600,870.64,598,870.64Z"/><path class="cls-7" d="M606.53,869.28c1.81,5.34,2.8,8.29,3.1,9.44h0c.35-1.28,1.14-3.83,3-9.44h1.93l-4,11.66c-1.12,3.28-2,4.09-4.25,4.09a10.92,10.92,0,0,1-1.21-.07v-1.67c.29,0,.62.05.93.05,1.4,0,1.93-.62,2.59-2.47l-4.18-11.59Z"/><path class="cls-7" d="M621.47,878.87l9.33-12h-8.87v-1.74h11.2v1.69L624,878.69h9.46l-.29,1.74H621.47Z"/><path class="cls-7" d="M637.88,864.28v6.65a3.71,3.71,0,0,1,3.48-1.92c1.78,0,3.76,1,3.76,4.29v7.13h-1.94v-6.8c0-1.89-.79-3-2.42-3-2,0-2.88,1.32-2.88,3.66v6.09H636V864.28Z"/><path class="cls-7" d="M649.76,875.2c0,2.26,1.17,3.89,3.06,3.89a2.56,2.56,0,0,0,2.68-1.74h2a4.56,4.56,0,0,1-4.71,3.35c-3.5,0-4.93-2.87-4.93-5.73,0-3.32,1.68-6,5.07-6,3.6,0,4.77,2.88,4.77,5.26,0,.35,0,.64,0,.93Zm5.94-1.35c0-1.85-.94-3.32-2.84-3.32s-2.83,1.36-3,3.32Z"/><path class="cls-7" d="M660.34,872.09c0-1,0-2,0-2.81h1.87a15.84,15.84,0,0,1,.09,1.82,3.51,3.51,0,0,1,3.5-2.09c2.11,0,3.74,1.28,3.74,4.25v7.17h-1.94V873.5c0-1.69-.66-2.82-2.35-2.82-2.11,0-3,1.61-3,3.86v5.89h-1.94Z"/><path class="cls-7" d="M682.21,879.42c0,3.59-1.47,5.61-5.12,5.61-3.39,0-4.43-1.89-4.63-3.41h2a2.56,2.56,0,0,0,2.75,1.87c2.53,0,3.15-1.61,3.15-4.16v-.9a3.42,3.42,0,0,1-3.48,2c-2.75,0-4.62-2.25-4.62-5.52,0-3.64,2.14-5.86,4.82-5.86,2.14,0,3,1,3.28,1.74,0-.51.09-1.25.11-1.47h1.8c0,.63,0,2.15,0,3.21Zm-4.93-.68c2.4,0,3.11-1.63,3.11-4.1s-.66-4-3-4c-2.07,0-3.12,1.74-3.12,4.14S675.46,878.74,677.28,878.74Z"/><path class="cls-7" d="M686.54,869.28c1.59,2.48,2.25,3.54,2.64,4.15h0c.48-.7,1.4-2.15,2.73-4.15h2.15l-3.76,5.36,3.81,5.79h-2.23c-1.36-2.18-2.31-3.67-2.75-4.4h0c-.37.62-1.28,2.11-2.73,4.4h-2.15l3.74-5.56-3.63-5.59Z"/><path class="cls-7" d="M696.22,866.68v-2.4h1.94v2.4Zm0,2.6h1.94v11.15h-1.94Z"/><path class="cls-7" d="M706.45,878.87l9.33-12h-8.86v-1.74h11.2v1.69L709,878.69h9.46l-.28,1.74H706.45Z"/><path class="cls-7" d="M722.87,864.28v6.65a3.69,3.69,0,0,1,3.47-1.92c1.78,0,3.76,1,3.76,4.29v7.13h-1.93v-6.8c0-1.89-.79-3-2.42-3-2,0-2.88,1.32-2.88,3.66v6.09h-1.94V864.28Z"/><path class="cls-7" d="M741.79,878a16.88,16.88,0,0,0,.15,2.44h-1.85a5.62,5.62,0,0,1-.17-1.45,3.56,3.56,0,0,1-3.46,1.72c-2.64,0-3.76-1.72-3.76-3.41,0-2.49,2-3.64,5.28-3.64h1.89v-.94c0-1-.31-2.18-2.4-2.18-1.84,0-2.17.92-2.37,1.78h-1.87c.15-1.54,1.1-3.3,4.31-3.3,2.73,0,4.25,1.12,4.25,3.65Zm-1.9-3h-1.8c-2.22,0-3.41.61-3.41,2.17a2,2,0,0,0,2.18,2c2.68,0,3-1.81,3-3.83Z"/><path class="cls-7" d="M745.33,872.09c0-1,0-2,0-2.81h1.87c.06.33.08,1.49.08,1.82a3.52,3.52,0,0,1,3.5-2.09c2.11,0,3.74,1.28,3.74,4.25v7.17h-1.93V873.5c0-1.69-.66-2.82-2.36-2.82-2.11,0-3,1.61-3,3.86v5.89h-1.93Z"/><path class="cls-7" d="M767.2,879.42c0,3.59-1.48,5.61-5.13,5.61-3.39,0-4.42-1.89-4.62-3.41h2a2.56,2.56,0,0,0,2.75,1.87c2.53,0,3.14-1.61,3.14-4.16v-.9a3.41,3.41,0,0,1-3.47,2c-2.75,0-4.62-2.25-4.62-5.52,0-3.64,2.13-5.86,4.82-5.86,2.13,0,3,1,3.27,1.74,0-.51.09-1.25.11-1.47h1.81c0,.63,0,2.15,0,3.21Zm-4.93-.68c2.4,0,3.1-1.63,3.1-4.1s-.66-4-3-4c-2.06,0-3.12,1.74-3.12,4.14S760.44,878.74,762.27,878.74Z"/><polygon class="cls-7" points="796.03 905.8 794.81 905.8 794.81 888.65 796.03 888.65 796.03 889.87 797.26 889.87 797.26 891.1 798.49 891.1 798.49 892.32 799.71 892.32 799.71 893.55 800.94 893.55 800.94 894.77 802.16 894.77 802.16 896 803.39 896 803.39 897.23 804.61 897.23 804.61 898.45 805.84 898.45 805.84 899.68 807.06 899.68 807.06 900.9 802.16 900.9 802.16 903.35 803.39 903.35 803.39 905.8 804.61 905.8 804.61 908.25 802.16 908.25 802.16 905.8 800.94 905.8 800.94 903.35 799.71 903.35 799.71 902.13 798.49 902.13 798.49 903.35 797.26 903.35 797.26 904.58 796.03 904.58 796.03 905.8"/><polygon class="cls-27" points="900.5 712.5 901.72 712.5 901.72 711.27 900.5 711.27 900.5 710.05 899.27 710.05 899.27 729.66 899.27 730.88 900.5 730.88 901.72 730.88 901.72 729.66 900.5 729.66 900.5 712.5"/><rect class="cls-27" x="901.72" y="712.5" width="1.23" height="1.23"/><rect class="cls-27" x="902.95" y="713.73" width="1.23" height="1.23"/><rect class="cls-27" x="904.17" y="714.95" width="1.23" height="1.23"/><rect class="cls-27" x="905.4" y="716.18" width="1.23" height="1.23"/><rect class="cls-27" x="906.62" y="717.4" width="1.23" height="1.23"/><rect class="cls-27" x="907.85" y="718.63" width="1.23" height="1.23"/><rect class="cls-27" x="909.07" y="719.85" width="1.23" height="1.23"/><rect class="cls-27" x="910.3" y="721.08" width="1.23" height="1.23"/><rect class="cls-27" x="911.53" y="722.3" width="1.23" height="1.23"/><polygon class="cls-27" points="912.75 723.53 912.75 724.76 911.53 724.76 910.3 724.76 909.08 724.76 907.85 724.76 907.85 725.98 907.85 727.21 909.08 727.21 909.08 725.98 910.3 725.98 911.53 725.98 912.75 725.98 913.98 725.98 913.98 724.76 913.98 723.53 912.75 723.53"/><polygon class="cls-27" points="909.08 729.66 910.3 729.66 910.3 728.43 910.3 727.21 909.08 727.21 909.08 728.43 909.08 729.66"/><polygon class="cls-27" points="910.3 732.11 911.53 732.11 911.53 730.88 911.53 729.66 910.3 729.66 910.3 730.88 910.3 732.11"/><polygon class="cls-27" points="907.85 732.11 907.85 733.33 909.08 733.33 910.3 733.33 910.3 732.11 909.08 732.11 907.85 732.11"/><polygon class="cls-27" points="907.85 729.66 906.62 729.66 906.62 730.88 906.62 732.11 907.85 732.11 907.85 730.88 907.85 729.66"/><polygon class="cls-27" points="906.62 727.21 905.4 727.21 905.4 728.43 905.4 729.66 906.62 729.66 906.62 728.43 906.62 727.21"/><rect class="cls-27" x="904.17" y="725.98" width="1.23" height="1.23"/><rect class="cls-27" x="902.95" y="727.21" width="1.23" height="1.23"/><rect class="cls-27" x="901.72" y="728.43" width="1.23" height="1.23"/></g></svg>