<svg xmlns="http://www.w3.org/2000/svg" xmlns:xlink="http://www.w3.org/1999/xlink" viewBox="0 0 1920 3150"><defs><style>.cls-1,.cls-80,.cls-81,.cls-90{fill:none;}.cls-2{fill:#2a2342;}.cls-3{fill:url(#radial-gradient);}.cls-4{fill:#151221;}.cls-5{fill:#251e3b;}.cls-6{fill:#201936;}.cls-14,.cls-21,.cls-7{font-size:20px;}.cls-14,.cls-21,.cls-32,.cls-41,.cls-47,.cls-49,.cls-56,.cls-7{fill:#fff;}.cls-14,.cls-21,.cls-56,.cls-7{font-family:AcuminPro-Semibold, Acumin Pro;}.cls-14,.cls-21,.cls-41,.cls-56,.cls-7{font-weight:600;}.cls-14,.cls-20,.cls-56,.cls-7{letter-spacing:0.01em;}.cls-8{letter-spacing:0em;}.cls-9{letter-spacing:0em;}.cls-10{letter-spacing:0.01em;}.cls-11{letter-spacing:0.01em;}.cls-12{letter-spacing:0em;}.cls-13{letter-spacing:-0.01em;}.cls-14,.cls-21{isolation:isolate;}.cls-15{letter-spacing:0.01em;}.cls-16{letter-spacing:0em;}.cls-17{letter-spacing:0em;}.cls-18{letter-spacing:-0.02em;}.cls-19{letter-spacing:0.03em;}.cls-21{letter-spacing:0.01em;}.cls-22{letter-spacing:0.01em;}.cls-23{letter-spacing:0.02em;}.cls-24{letter-spacing:-0.01em;}.cls-25{fill:#3f3461;}.cls-26{fill:#e0684b;}.cls-27{clip-path:url(#clip-path);}.cls-28{clip-path:url(#clip-path-2);}.cls-29{clip-path:url(#clip-path-3);}.cls-30{clip-path:url(#clip-path-4);}.cls-31{clip-path:url(#clip-path-5);}.cls-32{font-size:65px;font-family:AcuminProExtraCond-Regular, Acumin Pro ExtraCondensed;}.cls-33{letter-spacing:0.01em;}.cls-34{letter-spacing:0em;}.cls-35{letter-spacing:-0.01em;}.cls-36{letter-spacing:0em;}.cls-37{letter-spacing:0.02em;}.cls-38{letter-spacing:0.01em;}.cls-39{letter-spacing:0em;}.cls-40{letter-spacing:0.01em;}.cls-41{font-size:35px;font-family:AcuminProExtraCond-Semibold, Acumin Pro ExtraCondensed;}.cls-42{letter-spacing:0em;}.cls-43{letter-spacing:0em;}.cls-44{fill:#d5d2ca;}.cls-45{fill:#bb464b;}.cls-46{fill:#e0ded8;}.cls-48{clip-path:url(#clip-path-6);}.cls-49{fill-rule:evenodd;}.cls-50{fill:#fff9ae;}.cls-51{fill:#00aeef;}.cls-52{fill:#00a94f;}.cls-53{fill:#f15d22;}.cls-54{fill:#e31b23;}.cls-55{opacity:0.8;}.cls-56{font-size:28px;}.cls-57{font-size:22px;font-weight:400;letter-spacing:0.01em;}.cls-57,.cls-63{font-family:AcuminPro-Regular, Acumin Pro;}.cls-58{letter-spacing:0.02em;}.cls-59{letter-spacing:0.02em;}.cls-60{letter-spacing:0.02em;}.cls-61{letter-spacing:0em;}.cls-62{fill:#0f0f0f;}.cls-63{font-size:10px;}.cls-63,.cls-82{fill:red;}.cls-64{letter-spacing:-0.01em;}.cls-65{letter-spacing:0em;}.cls-66{letter-spacing:-0.02em;}.cls-67{letter-spacing:-0.01em;}.cls-68{letter-spacing:0.03em;}.cls-69{letter-spacing:0.03em;}.cls-70{letter-spacing:-0.02em;}.cls-71{letter-spacing:0em;}.cls-72{letter-spacing:0em;}.cls-73{letter-spacing:0em;}.cls-74{letter-spacing:0.01em;}.cls-75{letter-spacing:-0.01em;}.cls-76{letter-spacing:0em;}.cls-77{letter-spacing:0.01em;}.cls-78{letter-spacing:-0.01em;}.cls-79{letter-spacing:-0.02em;}.cls-80,.cls-81{stroke:red;}.cls-80,.cls-81,.cls-90{stroke-miterlimit:10;}.cls-80{stroke-dasharray:6 12;}.cls-83{letter-spacing:-0.02em;}.cls-84{letter-spacing:0em;}.cls-85{letter-spacing:-0.01em;}.cls-86{letter-spacing:0.01em;}.cls-87{letter-spacing:0.01em;}.cls-88{letter-spacing:0em;}.cls-89{letter-spacing:0.02em;}.cls-90{stroke:#fff;}.cls-91{letter-spacing:0.02em;}</style><radialGradient id="radial-gradient" cx="1255.27" cy="-2317.57" fx="1122.6933239745745" fy="-2654.6611079636823" r="574.26" gradientTransform="translate(-819.83 5541.16) scale(1.42 1.91)" gradientUnits="userSpaceOnUse"><stop offset="0.2" stop-color="#2d2547"/><stop offset="0.93" stop-color="#2d2547" stop-opacity="0"/></radialGradient><clipPath id="clip-path"><path class="cls-1" d="M1372.14,235.44l-191,110.25v220.5l191,110.25,191-110.25V345.69Z"/></clipPath><clipPath id="clip-path-2"><path class="cls-1" d="M547.77,235.44l-191,110.25v220.5l191,110.25,191-110.25V345.69Z"/></clipPath><clipPath id="clip-path-3"><path class="cls-1" d="M769,345.69v220.5L960,676.44l191-110.25V345.69L960,235.44Z"/></clipPath><clipPath id="clip-path-4"><polygon class="cls-1" points="753.54 592.14 562.58 702.39 562.58 922.89 753.54 1033.14 944.51 922.89 944.51 702.39 753.54 592.14"/></clipPath><clipPath id="clip-path-5"><path class="cls-1" d="M974.77,702.39v220.5l191,110.25,191-110.25V702.39l-191-110.25Z"/></clipPath><clipPath id="clip-path-6"><rect class="cls-1" x="515.66" y="2713.61" width="38.65" height="38.65"/></clipPath></defs><title>DemoPageRedLine</title><g id="Carousel"><rect class="cls-2" width="1920" height="2808.41"/><rect class="cls-3" y="0.82" width="1920" height="2208.88"/><rect class="cls-4" y="2301.34" width="1920" height="510.03"/><polygon class="cls-5" points="260 50.83 260 2301.56 959.96 2705.68 1659.92 2301.56 1659.92 50.83 260 50.83"/><rect class="cls-6" x="260" width="1399.92" height="70"/><text class="cls-7" transform="translate(1160.6 2704.98)">Fe<tspan class="cls-8" x="22.88" y="0">a</tspan><tspan class="cls-9" x="33.88" y="0">t</tspan><tspan class="cls-10" x="40.8" y="0">u</tspan><tspan class="cls-8" x="52.5" y="0">r</tspan><tspan class="cls-11" x="60.12" y="0">e</tspan><tspan class="cls-10" x="71.3" y="0">s</tspan><tspan class="cls-12"><tspan x="0" y="40">B</tspan><tspan class="cls-13" x="13.38" y="40">r</tspan><tspan class="cls-10" x="20.84" y="40">anding</tspan></tspan></text><text class="cls-14" transform="translate(1325.6 2704.98)">Ed<tspan class="cls-15" x="24.44" y="0">u</tspan><tspan x="36.2" y="0">c</tspan><tspan class="cls-16" x="46.94" y="0">a</tspan><tspan class="cls-17" x="57.94" y="0">t</tspan><tspan x="64.96" y="0">ion</tspan><tspan class="cls-18"><tspan x="0" y="40">P</tspan><tspan class="cls-10" x="12.5" y="40">a</tspan><tspan class="cls-19" x="23.68" y="40">r</tspan><tspan class="cls-12" x="31.94" y="40">t</tspan><tspan class="cls-10" x="38.98" y="40">n</tspan><tspan class="cls-15" x="50.86" y="40">e</tspan><tspan class="cls-20" x="62" y="40">rs</tspan></tspan></text><text class="cls-21" transform="translate(1490.43 2704.98)">C<tspan class="cls-20" x="14.2" y="0">o</tspan><tspan class="cls-16" x="25.8" y="0">n</tspan><tspan class="cls-12" x="37.5" y="0">t</tspan><tspan class="cls-22" x="44.54" y="0">r</tspan><tspan class="cls-20" x="52.24" y="0">ib</tspan><tspan class="cls-23" x="69.66" y="0">u</tspan><tspan class="cls-8" x="81.54" y="0">t</tspan><tspan class="cls-10" x="88.52" y="0">e</tspan><tspan x="0" y="40">C</tspan><tspan class="cls-20" x="14.2" y="40">o</tspan><tspan class="cls-16" x="25.8" y="40">n</tspan><tspan class="cls-22" x="37.5" y="40">t</tspan><tspan class="cls-20" x="44.56" y="40">a</tspan><tspan class="cls-23" x="55.74" y="40">c</tspan><tspan class="cls-10" x="66.66" y="40">t </tspan><tspan class="cls-24" x="78.94" y="40">U</tspan><tspan class="cls-10" x="93.16" y="40">s</tspan></text></g><g id="Intro_and_Links" data-name="Intro and Links"><polygon class="cls-25" points="558.58 925.2 558.58 700.08 753.54 587.52 948.51 700.08 948.51 925.2 753.54 1037.76 558.58 925.2"/><path class="cls-26" d="M753.54,592.14l191,110.25v220.5l-191,110.25-191-110.25V702.39l191-110.25m0-9.24-4,2.31-191,110.25-4,2.31V927.51l4,2.31,191,110.25,4,2.31,4-2.31,191-110.25,4-2.31V697.77l-4-2.31-191-110.25-4-2.31Z"/><polygon class="cls-25" points="970.77 925.2 970.77 700.08 1165.73 587.52 1360.69 700.08 1360.69 925.2 1165.73 1037.76 970.77 925.2"/><path class="cls-25" d="M1165.73,592.14l191,110.25v220.5l-191,110.25-191-110.25V702.39l191-110.25m0-9.24-4,2.31-191,110.25-4,2.31V927.51l4,2.31,191,110.25,4,2.31,4-2.31,191-110.25,4-2.31V697.77l-4-2.31-191-110.25-4-2.31Z"/><polygon class="cls-25" points="1177.18 568.5 1177.18 343.38 1372.14 230.82 1567.1 343.38 1567.1 568.5 1372.14 681.06 1177.18 568.5"/><path class="cls-25" d="M1372.14,235.44l191,110.25v220.5l-191,110.25-191-110.25V345.69l191-110.25m0-9.24-4,2.31-191,110.25-4,2.31V570.81l4,2.31,191,110.25,4,2.31,4-2.31,191-110.25,4-2.31V341.07l-4-2.31-191-110.25-4-2.31Z"/><polygon class="cls-25" points="765 568.5 765 343.38 959.96 230.82 1154.92 343.38 1154.92 568.5 959.96 681.06 765 568.5"/><path class="cls-25" d="M960,235.44l191,110.25v220.5L960,676.44,769,566.19V345.69L960,235.44m0-9.24-4,2.31L765,338.76l-4,2.31V570.81l4,2.31L956,683.37l4,2.31,4-2.31,191-110.25,4-2.31V341.07l-4-2.31L964,228.51l-4-2.31Z"/><polygon class="cls-25" points="352.81 568.5 352.81 343.38 547.77 230.82 742.74 343.38 742.74 568.5 547.77 681.06 352.81 568.5"/><path class="cls-25" d="M547.77,235.44l191,110.25v220.5l-191,110.25-191-110.25V345.69l191-110.25m0-9.24-4,2.31-191,110.25-4,2.31V570.81l4,2.31,191,110.25,4,2.31,4-2.31,191-110.25,4-2.31V341.07l-4-2.31-191-110.25-4-2.31Z"/><g class="cls-27"><image width="452" height="352" transform="translate(1045.43 221.71) scale(1.33)" xlink:href="../../PNG/Demo3.png"/></g><g class="cls-28"><image width="452" height="352" transform="translate(245.54 211.82) scale(1.39)" xlink:href="../../PNG/Demo1.png"/></g><g class="cls-29"><image width="1968" height="1020" transform="translate(554.37 122.79) scale(0.55)" xlink:href="../../PNG/shangshouculture.png"/></g><g class="cls-30"><image width="2376" height="1292" transform="translate(378.65 568.33) scale(0.36)" xlink:href="../../PNG/snooker.png"/></g><g class="cls-31"><image width="2376" height="1292" transform="translate(711.9 549.63) scale(0.38)" xlink:href="../../PNG/gcapsarena.png"/></g><polygon class="cls-25" points="558.58 1638.6 558.58 1413.47 753.54 1300.91 948.51 1413.47 948.51 1638.6 753.54 1751.15 558.58 1638.6"/><path class="cls-25" d="M753.54,1305.53l191,110.25v220.5l-191,110.26-191-110.26v-220.5l191-110.25m0-9.24-4,2.31-191,110.25-4,2.31V1640.9l4,2.31,191,110.25,4,2.31,4-2.31,191-110.25,4-2.31V1411.16l-4-2.31-191-110.25-4-2.31Z"/><polygon class="cls-25" points="970.77 1638.6 970.77 1413.47 1165.73 1300.91 1360.69 1413.47 1360.69 1638.6 1165.73 1751.15 970.77 1638.6"/><path class="cls-25" d="M1165.73,1305.53l191,110.25v220.5l-191,110.26-191-110.26v-220.5l191-110.25m0-9.24-4,2.31-191,110.25-4,2.31V1640.9l4,2.31,191,110.25,4,2.31,4-2.31,191-110.25,4-2.31V1411.16l-4-2.31-191-110.25-4-2.31Z"/><polygon class="cls-25" points="1177.18 1281.9 1177.18 1056.78 1372.14 944.21 1567.1 1056.78 1567.1 1281.9 1372.14 1394.46 1177.18 1281.9"/><path class="cls-25" d="M1372.14,948.83l191,110.25v220.51l-191,110.25-191-110.25V1059.08l191-110.25m0-9.23-4,2.31-191,110.25-4,2.31v229.74l4,2.31,191,110.25,4,2.31,4-2.31,191-110.25,4-2.31V1054.47l-4-2.31-191-110.25-4-2.31Z"/><polygon class="cls-25" points="765 1281.9 765 1056.78 959.96 944.21 1154.92 1056.78 1154.92 1281.9 959.96 1394.46 765 1281.9"/><path class="cls-25" d="M960,948.83l191,110.25v220.51L960,1389.84,769,1279.59V1059.08L960,948.83m0-9.23-4,2.31L765,1052.16l-4,2.31v229.74l4,2.31,191,110.25,4,2.31,4-2.31,191-110.25,4-2.31V1054.47l-4-2.31L964,941.91l-4-2.31Z"/><polygon class="cls-25" points="352.81 1281.9 352.81 1056.78 547.77 944.21 742.74 1056.78 742.74 1281.9 547.77 1394.46 352.81 1281.9"/><path class="cls-25" d="M547.77,948.83l191,110.25v220.51l-191,110.25-191-110.25V1059.08l191-110.25m0-9.23-4,2.31-191,110.25-4,2.31v229.74l4,2.31,191,110.25,4,2.31,4-2.31,191-110.25,4-2.31V1054.47l-4-2.31-191-110.25-4-2.31Z"/><polygon class="cls-25" points="558.58 2352.01 558.58 2126.89 753.54 2014.32 948.51 2126.89 948.51 2352.01 753.54 2464.57 558.58 2352.01"/><path class="cls-25" d="M753.54,2018.94l191,110.25V2349.7L753.54,2460l-191-110.25V2129.19l191-110.25m0-9.23-4,2.31-191,110.25-4,2.31v229.74l4,2.31,191,110.25,4,2.31,4-2.31,191-110.25,4-2.31V2124.58l-4-2.31L757.54,2012l-4-2.31Z"/><polygon class="cls-25" points="970.77 2352.01 970.77 2126.89 1165.73 2014.32 1360.69 2126.89 1360.69 2352.01 1165.73 2464.57 970.77 2352.01"/><path class="cls-25" d="M1165.73,2018.94l191,110.25V2349.7l-191,110.25-191-110.25V2129.19l191-110.25m0-9.23-4,2.31-191,110.25-4,2.31v229.74l4,2.31,191,110.25,4,2.31,4-2.31,191-110.25,4-2.31V2124.58l-4-2.31-191-110.25-4-2.31Z"/><polygon class="cls-25" points="1177.18 1995.31 1177.18 1770.19 1372.14 1657.63 1567.1 1770.19 1567.1 1995.31 1372.14 2107.87 1177.18 1995.31"/><path class="cls-25" d="M1372.14,1662.25l191,110.25V1993l-191,110.25-191-110.25V1772.5l191-110.25m0-9.24-4,2.31-191,110.25-4,2.31v229.74l4,2.31,191,110.25,4,2.31,4-2.31,191-110.25,4-2.31V1767.88l-4-2.31-191-110.25-4-2.31Z"/><polygon class="cls-25" points="765 1995.31 765 1770.19 959.96 1657.63 1154.92 1770.19 1154.92 1995.31 959.96 2107.87 765 1995.31"/><path class="cls-25" d="M960,1662.25l191,110.25V1993L960,2103.25,769,1993V1772.5l191-110.25m0-9.24-4,2.31L765,1765.57l-4,2.31v229.74l4,2.31,191,110.25,4,2.31,4-2.31,191-110.25,4-2.31V1767.88l-4-2.31L964,1655.32l-4-2.31Z"/><polygon class="cls-25" points="352.81 1995.31 352.81 1770.19 547.77 1657.63 742.74 1770.19 742.74 1995.31 547.77 2107.87 352.81 1995.31"/><path class="cls-25" d="M547.77,1662.25l191,110.25V1993l-191,110.25L356.81,1993V1772.5l191-110.25m0-9.24-4,2.31-191,110.25-4,2.31v229.74l4,2.31,191,110.25,4,2.31,4-2.31,191-110.25,4-2.31V1767.88l-4-2.31-191-110.25-4-2.31Z"/><text class="cls-32" transform="translate(379.36 190.4)"><tspan class="cls-33">B</tspan><tspan class="cls-34" x="22.68" y="0">A</tspan><tspan class="cls-35" x="44.52" y="0">B</tspan><tspan x="66.36" y="0">Y</tspan><tspan class="cls-36" x="86.38" y="0">L</tspan><tspan x="104.32" y="0">O</tspan><tspan class="cls-36" x="127.14" y="0">N</tspan><tspan class="cls-37" x="151.64" y="0">.</tspan><tspan class="cls-38" x="161.52" y="0">J</tspan><tspan class="cls-39" x="174.46" y="0">S DEM</tspan><tspan class="cls-40" x="277.48" y="0">O</tspan><tspan class="cls-39" x="300.88" y="0">S</tspan></text><image width="382" height="442" transform="translate(356.41 948.89)" xlink:href="../../PNG/Demo4.png"/><image width="382" height="442" transform="translate(768.93 948.2)" xlink:href="../../PNG/Demo5.png"/><image width="382" height="442" transform="translate(1180.47 948.57)" xlink:href="../../PNG/Demo6.png"/><image width="382" height="442" transform="translate(562.8 1304.16)" xlink:href="../../PNG/Demo7.png"/><image width="382" height="442" transform="translate(974 1304.57)" xlink:href="../../PNG/Demo8.png"/><image width="382" height="442" transform="translate(356.21 1661.62)" xlink:href="../../PNG/Demo9.png"/><image width="382" height="442" transform="translate(769.28 1661.28)" xlink:href="../../PNG/Demo10.png"/><image width="382" height="442" transform="translate(561.24 2018.94)" xlink:href="../../PNG/Demo12.png"/><image width="382" height="442" transform="translate(1181.57 1661.96)" xlink:href="../../PNG/Demo13.png"/><image width="382" height="442" transform="translate(974.43 2018.18)" xlink:href="../../PNG/Demo14.png"/><path class="cls-25" d="M960,2446l-51.74,29.87v59.74L960,2565.44l51.73-29.87v-59.74Z"/><text class="cls-41" transform="translate(923.37 2517.22)">SUBM<tspan class="cls-42" x="56.03" y="0">I</tspan><tspan class="cls-43" x="62.58" y="0">T</tspan></text></g><g id="Header_Bar" data-name="Header Bar"><path class="cls-44" d="M427.1,24.94h3.41v7.65c.61-1,1.82-2,4.21-2,3.74,0,5.78,3.08,5.78,7.13s-2.12,7.67-6.16,7.67c-2.15,0-3.17-.71-3.86-1.84a11.5,11.5,0,0,1-.13,1.51h-3.28c0-1.54,0-3.11,0-4.68Zm6.63,8.42c-2.48,0-3.38,1.65-3.38,4.68,0,2.58.79,4.59,3.32,4.59,2.15,0,3.33-1.93,3.33-4.84C437,35.2,436,33.36,433.73,33.36Z"/><path class="cls-44" d="M454.42,41.59a28.94,28.94,0,0,0,.19,3.46h-3.27a7.26,7.26,0,0,1-.22-1.54c-.5.85-1.51,1.87-4.1,1.87-3.39,0-4.82-2.23-4.82-4.4,0-3.19,2.56-4.68,6.72-4.68h2.14v-1c0-1.1-.35-2.26-2.47-2.26-1.87,0-2.26.86-2.45,1.9h-3.28c.2-2.31,1.66-4.43,5.87-4.4,3.68,0,5.69,1.48,5.69,4.79Zm-3.33-3.14h-1.84c-2.51,0-3.61.74-3.61,2.34a2.05,2.05,0,0,0,2.29,2.09c2.8,0,3.16-1.93,3.16-4Z"/><path class="cls-44" d="M457.5,24.94h3.41v7.65c.61-1,1.82-2,4.21-2,3.75,0,5.78,3.08,5.78,7.13s-2.12,7.67-6.16,7.67c-2.15,0-3.17-.71-3.85-1.84a11.3,11.3,0,0,1-.14,1.51h-3.28c0-1.54,0-3.11,0-4.68Zm6.63,8.42c-2.47,0-3.38,1.65-3.38,4.68,0,2.58.8,4.59,3.33,4.59,2.14,0,3.33-1.93,3.33-4.84C467.41,35.2,466.36,33.36,464.13,33.36Z"/><path class="cls-44" d="M475.19,30.91c1.77,5.53,3,9.66,3.31,11h0c.36-1.48,1.24-4.67,3.14-11h3.41L480.2,45.55c-1.37,4.1-2.47,5.25-5.69,5.25a13.53,13.53,0,0,1-1.74-.11v-2.8c.31,0,.72,0,1.08,0,1.54,0,2.25-.58,2.89-2.42l-5.21-14.61Z"/><path class="cls-44" d="M486.59,45.05V24.94H490V45.05Z"/><path class="cls-44" d="M506.15,38c0,4.21-2.48,7.43-6.91,7.43s-6.79-3.13-6.79-7.37,2.55-7.43,7-7.43C503.51,30.58,506.15,33.52,506.15,38Zm-10.24,0c0,2.86,1.3,4.68,3.41,4.68s3.33-1.79,3.33-4.65c0-3.06-1.18-4.71-3.38-4.71S495.91,34.9,495.91,38Z"/><path class="cls-44" d="M508.62,34.46c0-1.21,0-2.48,0-3.55h3.3a15.64,15.64,0,0,1,.14,2,4.32,4.32,0,0,1,4.21-2.31c2.78,0,4.7,1.81,4.7,5.45v9h-3.41V36.41c0-1.76-.63-3-2.5-3s-3,1.29-3,3.9v7.76h-3.42Z"/><path class="cls-44" d="M524.2,45.05V40.48h3.66v4.57Z"/><path class="cls-44" d="M533.5,31.21V45.79c0,3.77-.91,5-3.61,5l-.85,0V49.12a3.89,3.89,0,0,0,.58,0c1.84,0,2-1,2-3.08V31.21Zm-1.85-3.58V24.8h1.85v2.83Z"/><path class="cls-44" d="M537.68,41.17a3.46,3.46,0,0,0,3.69,2.67c2.25,0,3.16-1,3.16-2.45s-.63-2.14-3.52-2.83c-3.77-.91-4.62-2.07-4.62-3.91s1.46-3.77,4.76-3.77,4.81,2,5,3.94h-1.81a3,3,0,0,0-3.28-2.4c-2.2,0-2.83,1.08-2.83,2.09,0,1.16.6,1.74,3.24,2.37,4,1,5,2.31,5,4.37,0,2.48-2,4.13-5.15,4.13-3.35,0-5.12-1.73-5.47-4.21Z"/><polygon class="cls-26" points="420.62 24.97 415.18 21.83 409.94 24.85 415.38 28 420.62 24.97"/><polygon class="cls-26" points="391.07 28 408.46 17.95 403.23 14.93 385.83 24.97 391.07 28"/><polygon class="cls-26" points="397.78 38.16 403.23 41.3 408.67 38.16 403.23 35.02 397.78 38.16"/><polygon class="cls-45" points="415.38 28 415.38 42.04 403.23 49.06 391.07 42.04 391.07 28 385.83 24.97 385.83 45.06 403.23 55.11 420.62 45.06 420.62 24.97 415.38 28"/><polygon class="cls-45" points="403.23 28.73 397.78 31.87 397.78 38.16 403.23 35.02 408.67 38.16 408.67 31.87 403.23 28.73"/><polygon class="cls-46" points="415.38 28 408.67 31.87 408.67 38.16 403.23 41.3 403.23 49.06 415.38 42.04 415.38 28"/><polygon class="cls-44" points="391.07 28 397.78 31.87 397.78 38.16 403.23 41.3 403.23 49.06 391.07 42.04 391.07 28"/><polygon class="cls-47" points="408.46 17.95 415.18 21.83 409.94 24.85 415.38 28 408.67 31.87 403.23 28.73 397.78 31.87 391.07 28 408.46 17.95"/></g><g id="Icons"><polygon class="cls-47" points="1635.25 33.07 1633.21 30.87 1626.59 37.01 1626.59 20.63 1623.59 20.63 1623.59 36.96 1617.32 31 1615.25 33.17 1625.08 42.51 1635.25 33.07"/><polygon class="cls-47" points="1633.39 45.17 1633.39 46.98 1616.9 46.98 1616.9 45.17 1613.9 45.17 1613.9 49.98 1636.39 49.98 1636.39 45.17 1633.39 45.17"/><rect class="cls-47" x="283.5" y="25.58" width="22.9" height="3.01"/><rect class="cls-47" x="283.5" y="33.53" width="22.9" height="3.01"/><rect class="cls-47" x="283.5" y="41.47" width="22.9" height="3.01"/></g><g id="Footer_Logos" data-name="Footer Logos"><g class="cls-48"><g class="cls-48"><path class="cls-47" d="M552,2724.35a4.41,4.41,0,0,0-3.13-3.15c-2.76-.75-13.84-.75-13.84-.75s-11.08,0-13.84.75a4.45,4.45,0,0,0-3.13,3.15c-.74,2.78-.74,8.58-.74,8.58s0,5.8.74,8.58a4.46,4.46,0,0,0,3.13,3.16c2.76.74,13.84.74,13.84.74s11.08,0,13.84-.74a4.43,4.43,0,0,0,3.13-3.16c.74-2.78.74-8.58.74-8.58s0-5.8-.74-8.58m-20.59,13.85v-10.54l9.26,5.27Z"/></g></g><path class="cls-47" d="M302.79,2747.51c14.21,0,22-11.78,22-22,0-.34,0-.67,0-1a15.78,15.78,0,0,0,3.86-4,15.56,15.56,0,0,1-4.44,1.21,7.76,7.76,0,0,0,3.4-4.27,15.76,15.76,0,0,1-4.91,1.88,7.73,7.73,0,0,0-13.17,7,22,22,0,0,1-15.93-8.07,7.74,7.74,0,0,0,2.4,10.32,7.7,7.7,0,0,1-3.51-1v.1a7.72,7.72,0,0,0,6.2,7.57,7.63,7.63,0,0,1-3.49.13,7.73,7.73,0,0,0,7.22,5.37,15.55,15.55,0,0,1-9.6,3.32,16.22,16.22,0,0,1-1.84-.11,21.93,21.93,0,0,0,11.85,3.46"/><path class="cls-49" d="M366.64,2716a16.26,16.26,0,0,0-5.14,31.69c.81.14,1.11-.35,1.11-.78s0-1.66,0-3c-4.08.75-5.14-1-5.46-1.92a6,6,0,0,0-1.67-2.29c-.57-.31-1.38-1.06,0-1.08a3.24,3.24,0,0,1,2.5,1.67,3.48,3.48,0,0,0,4.74,1.34,3.41,3.41,0,0,1,1-2.18c-3.62-.4-7.4-1.8-7.4-8A6.3,6.3,0,0,1,358,2727a5.88,5.88,0,0,1,.16-4.31s1.37-.43,4.47,1.66a15.57,15.57,0,0,1,8.13,0c3.11-2.11,4.48-1.66,4.48-1.66a5.88,5.88,0,0,1,.16,4.31,6.26,6.26,0,0,1,1.67,4.37c0,6.24-3.81,7.62-7.42,8a3.86,3.86,0,0,1,1.09,3c0,2.18,0,3.93,0,4.47s.31.94,1.12.78a16.27,16.27,0,0,0-5.18-31.69Z"/><path class="cls-47" d="M421.68,2715.77a16.26,16.26,0,0,0-16.3,16v16.59h16.3a16.3,16.3,0,0,0,0-32.6Z"/><path class="cls-50" d="M421.84,2722a10,10,0,0,0-8.74,14.67l-1.79,5.78,6.45-1.46a9.93,9.93,0,1,0,4.08-19Z"/><path class="cls-51" d="M429.71,2725.86a9.92,9.92,0,0,1-11.95,15.08l-6.45,1.48,6.57-.78a9.92,9.92,0,0,0,11.83-15.78Z"/><path class="cls-52" d="M427.89,2724a9.93,9.93,0,0,1-10.32,16.25l-6.26,2.14,6.45-1.46A9.93,9.93,0,0,0,427.89,2724Z"/><path class="cls-53" d="M413.7,2736.85a9.93,9.93,0,0,1,16-11,9.93,9.93,0,0,0-16.62,10.78l-1.79,5.78Z"/><path class="cls-54" d="M413.1,2736.64A9.94,9.94,0,0,1,427.89,2724a9.93,9.93,0,0,0-15.4,12.45l-1.18,5.94Z"/><g id="Monogram"><rect id="Rectangle-path" class="cls-47" x="462.79" y="2716.44" width="30.62" height="30.62"/><path id="Shape" class="cls-4" d="M470.1,2726.68a.84.84,0,0,0-.26-.67l-1.93-2.31v-.35h6l4.61,10.11,4.05-10.11h5.69v.35l-1.64,1.57a.47.47,0,0,0-.19.46v11.57a.46.46,0,0,0,.19.46l1.6,1.58v.35h-8.07v-.35l1.66-1.61c.17-.17.17-.21.17-.46v-9.36l-4.62,11.74h-.63l-5.38-11.74v7.87a1.11,1.11,0,0,0,.3.9l2.16,2.62v.35h-6.12v-.35l2.16-2.62a1.06,1.06,0,0,0,.28-.9Z"/></g><path class="cls-47" d="M579.7,2722.4a2.81,2.81,0,0,0-4.14-.39,2.9,2.9,0,0,0-.29,3.84l5.62,7.53-5.65,7.6a2.89,2.89,0,0,0,.29,3.85,2.8,2.8,0,0,0,4.13-.4l7.89-10.6a.74.74,0,0,0,0-.87Z"/><path class="cls-47" d="M597,2722.4a2.81,2.81,0,0,1,4.14-.39,2.9,2.9,0,0,1,.29,3.84l-5.62,7.53,5.65,7.6a2.89,2.89,0,0,1-.29,3.85,2.8,2.8,0,0,1-4.13-.4l-7.87-10.62a.74.74,0,0,1,0-.87Z"/></g><g id="Pointer"><path class="cls-55" d="M562.58,804.11V922.89l191,110.25,191-110.25V804.11Z"/><text class="cls-56" transform="translate(591.33 850.43)">PCOL<tspan class="cls-57"><tspan x="0" y="30">b</tspan><tspan class="cls-20" x="12.89" y="30">y </tspan><tspan class="cls-58" x="29.48" y="30">Z</tspan><tspan class="cls-20" x="42.96" y="30">hen</tspan><tspan class="cls-59" x="80.03" y="30">g</tspan><tspan class="cls-60" x="92.88" y="30">x</tspan><tspan class="cls-20" x="103.24" y="30">i </tspan><tspan class="cls-58" x="114.46" y="30">Z</tspan><tspan class="cls-61" x="127.95" y="30">h</tspan><tspan class="cls-20" x="140.49" y="30">ang</tspan></tspan></text><polygon class="cls-47" points="796.03 905.8 794.81 905.8 794.81 888.65 796.03 888.65 796.03 889.87 797.26 889.87 797.26 891.1 798.49 891.1 798.49 892.32 799.71 892.32 799.71 893.55 800.94 893.55 800.94 894.77 802.16 894.77 802.16 896 803.39 896 803.39 897.23 804.61 897.23 804.61 898.45 805.84 898.45 805.84 899.68 807.06 899.68 807.06 900.9 802.16 900.9 802.16 903.35 803.39 903.35 803.39 905.8 804.61 905.8 804.61 908.25 802.16 908.25 802.16 905.8 800.94 905.8 800.94 903.35 799.71 903.35 799.71 902.13 798.49 902.13 798.49 903.35 797.26 903.35 797.26 904.58 796.03 904.58 796.03 905.8"/><polygon class="cls-62" points="900.5 712.5 901.72 712.5 901.72 711.27 900.5 711.27 900.5 710.05 899.27 710.05 899.27 729.66 899.27 730.88 900.5 730.88 901.72 730.88 901.72 729.66 900.5 729.66 900.5 712.5"/><rect class="cls-62" x="901.72" y="712.5" width="1.23" height="1.23"/><rect class="cls-62" x="902.95" y="713.73" width="1.23" height="1.23"/><rect class="cls-62" x="904.17" y="714.95" width="1.23" height="1.23"/><rect class="cls-62" x="905.4" y="716.18" width="1.23" height="1.23"/><rect class="cls-62" x="906.62" y="717.4" width="1.23" height="1.23"/><rect class="cls-62" x="907.85" y="718.63" width="1.23" height="1.23"/><rect class="cls-62" x="909.07" y="719.85" width="1.23" height="1.23"/><rect class="cls-62" x="910.3" y="721.08" width="1.23" height="1.23"/><rect class="cls-62" x="911.53" y="722.3" width="1.23" height="1.23"/><polygon class="cls-62" points="912.75 723.53 912.75 724.76 911.53 724.76 910.3 724.76 909.08 724.76 907.85 724.76 907.85 725.98 907.85 727.21 909.08 727.21 909.08 725.98 910.3 725.98 911.53 725.98 912.75 725.98 913.98 725.98 913.98 724.76 913.98 723.53 912.75 723.53"/><polygon class="cls-62" points="909.08 729.66 910.3 729.66 910.3 728.43 910.3 727.21 909.08 727.21 909.08 728.43 909.08 729.66"/><polygon class="cls-62" points="910.3 732.11 911.53 732.11 911.53 730.88 911.53 729.66 910.3 729.66 910.3 730.88 910.3 732.11"/><polygon class="cls-62" points="907.85 732.11 907.85 733.33 909.08 733.33 910.3 733.33 910.3 732.11 909.08 732.11 907.85 732.11"/><polygon class="cls-62" points="907.85 729.66 906.62 729.66 906.62 730.88 906.62 732.11 907.85 732.11 907.85 730.88 907.85 729.66"/><polygon class="cls-62" points="906.62 727.21 905.4 727.21 905.4 728.43 905.4 729.66 906.62 729.66 906.62 728.43 906.62 727.21"/><rect class="cls-62" x="904.17" y="725.98" width="1.23" height="1.23"/><rect class="cls-62" x="902.95" y="727.21" width="1.23" height="1.23"/><rect class="cls-62" x="901.72" y="728.43" width="1.23" height="1.23"/></g><g id="Redlines"><text class="cls-63" transform="translate(710.27 155.76)">A<tspan class="cls-64" x="6.6" y="0">c</tspan><tspan class="cls-65" x="11.61" y="0">umin </tspan><tspan class="cls-66" x="36.2" y="0">P</tspan><tspan class="cls-67" x="42.3" y="0">r</tspan><tspan x="45.74" y="0">o </tspan><tspan class="cls-68" x="53.77" y="0">E</tspan><tspan class="cls-69" x="60.05" y="0">x</tspan><tspan class="cls-67" x="64.85" y="0">t</tspan><tspan class="cls-70" x="67.96" y="0">r</tspan><tspan class="cls-71" x="71.31" y="0">a Conde</tspan><tspan class="cls-72" x="108.09" y="0">n</tspan><tspan class="cls-73" x="113.7" y="0">s</tspan><tspan class="cls-74" x="118.46" y="0">e</tspan><tspan x="123.75" y="0">d</tspan><tspan x="0" y="12">R</tspan><tspan class="cls-20" x="6.42" y="12">e</tspan><tspan class="cls-71" x="11.75" y="12">gu</tspan><tspan class="cls-75" x="22.99" y="12">l</tspan><tspan class="cls-71" x="25.3" y="12">ar</tspan><tspan class="cls-76" x="0" y="24">6</tspan><tspan x="5.54" y="24">5 </tspan><tspan class="cls-64" x="13.52" y="24">p</tspan><tspan class="cls-65" x="19.17" y="24">x s</tspan><tspan class="cls-77" x="30.96" y="24">i</tspan><tspan class="cls-78" x="33.39" y="24">z</tspan><tspan x="37.84" y="24">e</tspan><tspan class="cls-77" x="0" y="36">6</tspan><tspan class="cls-65" x="5.55" y="36">0 </tspan><tspan class="cls-72" x="13.67" y="36">p</tspan><tspan x="19.32" y="36">x line h</tspan><tspan class="cls-12" x="50.2" y="36">e</tspan><tspan x="55.47" y="36">ig</tspan><tspan class="cls-78" x="63.51" y="36">h</tspan><tspan class="cls-71" x="69.11" y="36">t</tspan><tspan x="0" y="48">#</tspan><tspan class="cls-79" x="5.91" y="48">fffff</tspan><tspan class="cls-65" x="16.65" y="48">f</tspan></text><line class="cls-80" x1="959.08" y1="2778.26" x2="959.08" y2="8.35"/><line class="cls-81" x1="267.05" y1="109.93" x2="952.9" y2="109.93"/><polygon class="cls-82" points="259.99 109.93 269.94 114 267.58 109.93 269.94 105.87 259.99 109.93"/><polygon class="cls-82" points="959.96 109.93 950.01 114 952.37 109.93 950.01 105.87 959.96 109.93"/><line class="cls-81" x1="967.02" y1="109.93" x2="1652.86" y2="109.93"/><polygon class="cls-82" points="959.96 109.93 969.91 114 967.55 109.93 969.91 105.87 959.96 109.93"/><polygon class="cls-82" points="1659.92 109.93 1649.97 114 1652.33 109.93 1649.97 105.87 1659.92 109.93"/><text class="cls-63" transform="translate(559.39 104.1)"><tspan class="cls-12">70</tspan><tspan x="10.43" y="0">0 </tspan><tspan class="cls-72" x="18.55" y="0">p</tspan><tspan x="24.2" y="0">x</tspan></text><text class="cls-63" transform="translate(1258.42 104.1)"><tspan class="cls-12">70</tspan><tspan x="10.43" y="0">0 </tspan><tspan class="cls-72" x="18.55" y="0">p</tspan><tspan x="24.2" y="0">x</tspan></text><text class="cls-63" transform="translate(768.46 2483.75)">A<tspan class="cls-64" x="6.6" y="0">c</tspan><tspan class="cls-65" x="11.61" y="0">umin </tspan><tspan class="cls-66" x="36.2" y="0">P</tspan><tspan class="cls-67" x="42.3" y="0">r</tspan><tspan x="45.74" y="0">o </tspan><tspan class="cls-68" x="53.77" y="0">E</tspan><tspan class="cls-69" x="60.05" y="0">x</tspan><tspan class="cls-67" x="64.85" y="0">t</tspan><tspan class="cls-70" x="67.96" y="0">r</tspan><tspan class="cls-71" x="71.31" y="0">a Conde</tspan><tspan class="cls-72" x="108.09" y="0">n</tspan><tspan class="cls-73" x="113.7" y="0">s</tspan><tspan class="cls-74" x="118.46" y="0">e</tspan><tspan x="123.75" y="0">d</tspan><tspan class="cls-12" x="87.95" y="12">S</tspan><tspan x="94.05" y="12">emi</tspan><tspan class="cls-74" x="110.11" y="12">b</tspan><tspan class="cls-71" x="115.88" y="12">old</tspan><tspan x="86.43" y="24">35 </tspan><tspan class="cls-72" x="99.91" y="24">p</tspan><tspan x="105.56" y="24">x s</tspan><tspan class="cls-77" x="117.35" y="24">i</tspan><tspan class="cls-78" x="119.78" y="24">z</tspan><tspan x="124.23" y="24">e</tspan><tspan class="cls-77" x="57.16" y="36">6</tspan><tspan class="cls-65" x="62.71" y="36">0 </tspan><tspan class="cls-72" x="70.83" y="36">p</tspan><tspan x="76.48" y="36">x line h</tspan><tspan class="cls-12" x="107.36" y="36">e</tspan><tspan x="112.63" y="36">ig</tspan><tspan class="cls-78" x="120.67" y="36">h</tspan><tspan class="cls-71" x="126.27" y="36">t</tspan><tspan x="107.26" y="48">#</tspan><tspan class="cls-83" x="113.17" y="48">fffff</tspan><tspan class="cls-65" x="123.91" y="48">f</tspan></text><text class="cls-63" transform="translate(652.19 261.88)">8 <tspan class="cls-72" x="8.04" y="0">p</tspan><tspan x="13.69" y="0">x </tspan><tspan class="cls-84" x="20.75" y="0">s</tspan><tspan class="cls-67" x="25.44" y="0">tr</tspan><tspan class="cls-71" x="31.99" y="0">o</tspan><tspan class="cls-85" x="37.49" y="0">k</tspan><tspan x="42.45" y="0">e</tspan><tspan x="0" y="12">#3f</tspan><tspan class="cls-86" x="14.24" y="12">3</tspan><tspan class="cls-15" x="19.85" y="12">4</tspan><tspan class="cls-73" x="25.37" y="12">6</tspan><tspan class="cls-65" x="30.89" y="12">1</tspan></text><text class="cls-63" transform="translate(799.5 279.94)"><tspan class="cls-12">1</tspan><tspan x="3.68" y="0">4 </tspan><tspan class="cls-72" x="11.6" y="0">p</tspan><tspan x="17.25" y="0">x</tspan></text><text class="cls-63" transform="translate(282.32 423.94)"><tspan class="cls-15">4</tspan><tspan class="cls-77" x="5.52" y="0">6</tspan><tspan x="11.07" y="0">0 </tspan><tspan class="cls-72" x="19.19" y="0">p</tspan><tspan x="24.84" y="0">x</tspan></text><text class="cls-63" transform="translate(201.76 2510.72)"><tspan class="cls-22">1</tspan><tspan class="cls-77" x="3.69" y="0">2</tspan><tspan x="9" y="0">0 </tspan><tspan class="cls-64" x="17.12" y="0">p</tspan><tspan class="cls-65" x="22.77" y="0">x</tspan></text><text class="cls-63" transform="translate(201.59 2639.75)"><tspan class="cls-12">1</tspan><tspan class="cls-10" x="3.68" y="0">4</tspan><tspan class="cls-65" x="9.17" y="0">0 </tspan><tspan class="cls-72" x="17.29" y="0">p</tspan><tspan x="22.94" y="0">x</tspan></text><text class="cls-63" transform="translate(205.45 2404.59)">96 <tspan class="cls-72" x="13.43" y="0">p</tspan><tspan x="19.08" y="0">x</tspan></text><text class="cls-63" transform="translate(205.25 2328.41)"><tspan class="cls-74">5</tspan><tspan x="5.51" y="0">0 </tspan><tspan class="cls-64" x="13.63" y="0">p</tspan><tspan x="19.28" y="0">x</tspan></text><text class="cls-63" transform="translate(321.76 423.94)">3<tspan class="cls-10" x="5.5" y="0">5</tspan><tspan x="11.05" y="0">7 </tspan><tspan class="cls-72" x="18.34" y="0">p</tspan><tspan x="23.99" y="0">x</tspan></text><text class="cls-63" transform="translate(322.88 79.79)"><tspan class="cls-12">1</tspan><tspan class="cls-15" x="3.68" y="0">4</tspan><tspan x="9.2" y="0">6 </tspan><tspan class="cls-72" x="17.22" y="0">p</tspan><tspan x="22.87" y="0">x</tspan></text><text class="cls-63" transform="translate(326.47 187.46)">80 <tspan class="cls-64" x="13.63" y="0">p</tspan><tspan x="19.28" y="0">x</tspan></text><line class="cls-81" x1="238.47" y1="2453.02" x2="238.47" y2="2558.38"/><polygon class="cls-82" points="238.47 2445.96 234.4 2455.91 238.47 2453.55 242.53 2455.91 238.47 2445.96"/><polygon class="cls-82" points="238.47 2565.44 234.4 2555.49 238.47 2557.85 242.53 2555.49 238.47 2565.44"/><line class="cls-81" x1="238.47" y1="2572.5" x2="238.47" y2="2698.62"/><polygon class="cls-82" points="238.47 2565.44 234.4 2575.39 238.47 2573.03 242.53 2575.39 238.47 2565.44"/><polygon class="cls-82" points="238.47 2705.68 234.4 2695.73 238.47 2698.09 242.53 2695.73 238.47 2705.68"/><line class="cls-81" x1="238.47" y1="2357.49" x2="238.47" y2="2438.9"/><polygon class="cls-82" points="238.47 2350.43 234.4 2360.38 238.47 2358.02 242.53 2360.38 238.47 2350.43"/><polygon class="cls-82" points="238.47 2445.96 234.4 2436.01 238.47 2438.37 242.53 2436.01 238.47 2445.96"/><line class="cls-81" x1="238.47" y1="2308.4" x2="238.47" y2="2343.37"/><polygon class="cls-82" points="238.47 2301.34 234.4 2311.29 238.47 2308.93 242.53 2311.29 238.47 2301.34"/><polygon class="cls-82" points="238.47 2350.43 234.4 2340.48 238.47 2342.84 242.53 2340.48 238.47 2350.43"/><line class="cls-81" x1="316.96" y1="232.94" x2="316.96" y2="678.56"/><polygon class="cls-82" points="316.96 225.88 312.9 235.83 316.96 233.47 321.03 235.83 316.96 225.88"/><polygon class="cls-82" points="316.96 685.62 312.9 675.67 316.96 678.03 321.03 675.67 316.96 685.62"/><line class="cls-81" x1="353.51" y1="232.94" x2="353.51" y2="575.41"/><polygon class="cls-82" points="353.51 225.88 349.45 235.83 353.51 233.47 357.58 235.83 353.51 225.88"/><polygon class="cls-82" points="353.51 582.47 349.45 572.52 353.51 574.88 357.58 572.52 353.51 582.47"/><line class="cls-81" x1="353.51" y1="7.06" x2="353.51" y2="139.22"/><polygon class="cls-82" points="353.51 0 349.45 9.95 353.51 7.59 357.58 9.95 353.51 0"/><polygon class="cls-82" points="353.51 146.28 349.45 136.34 353.51 138.7 357.58 136.34 353.51 146.28"/><line class="cls-81" x1="353.51" y1="153.34" x2="353.51" y2="218.82"/><polygon class="cls-82" points="353.51 146.28 349.45 156.23 353.51 153.87 357.58 156.23 353.51 146.28"/><polygon class="cls-82" points="353.51 225.88 349.45 215.93 353.51 218.29 357.58 215.93 353.51 225.88"/><line class="cls-81" x1="677.62" y1="225.88" x2="291.7" y2="225.88"/><line class="cls-81" x1="677.62" y1="146.28" x2="291.7" y2="146.28"/><line class="cls-81" x1="560.71" y1="685.62" x2="288.23" y2="685.62"/><line class="cls-81" x1="771.09" y1="582.47" x2="332.49" y2="582.47"/><circle class="cls-82" cx="615.82" cy="269.26" r="2.64"/><line class="cls-81" x1="616.36" y1="269.26" x2="648.89" y2="259.02"/><line class="cls-81" x1="747.64" y1="332.23" x2="747.64" y2="271.46"/><line class="cls-81" x1="761.68" y1="332.23" x2="761.68" y2="271.46"/><line class="cls-81" x1="768.74" y1="276.74" x2="796.03" y2="276.74"/><polygon class="cls-82" points="761.68 276.74 771.63 280.81 769.27 276.74 771.63 272.68 761.68 276.74"/><line class="cls-81" x1="740.5" y1="276.74" x2="713.21" y2="276.74"/><polygon class="cls-82" points="747.56 276.74 737.61 272.68 739.97 276.74 737.61 280.81 747.56 276.74"/><line class="cls-81" x1="985.85" y1="2445.96" x2="210.03" y2="2445.96"/><line class="cls-81" x1="985.85" y1="2565.44" x2="210.03" y2="2565.44"/><line class="cls-81" x1="985.85" y1="2705.68" x2="210.03" y2="2705.68"/><line class="cls-81" x1="542.38" y1="2350.43" x2="210.03" y2="2350.43"/><text class="cls-63" transform="translate(1037.13 2532.97)">#3f<tspan class="cls-86" x="14.24" y="0">3</tspan><tspan class="cls-15" x="19.85" y="0">4</tspan><tspan class="cls-73" x="25.37" y="0">6</tspan><tspan class="cls-65" x="30.89" y="0">1</tspan></text><circle class="cls-82" cx="1001.08" cy="2529.78" r="2.64"/><line class="cls-81" x1="1001.62" y1="2529.78" x2="1034.16" y2="2529.78"/><text class="cls-63" transform="translate(860.17 905.98)"><tspan class="cls-10">#</tspan><tspan class="cls-12" x="6.01" y="0">00000</tspan><tspan x="34.16" y="0">0</tspan><tspan x="0" y="12">80% opa</tspan><tspan class="cls-87" x="38.9" y="12">c</tspan><tspan class="cls-88" x="44.04" y="12">i</tspan><tspan class="cls-89" x="46.45" y="12">t</tspan><tspan class="cls-65" x="49.88" y="12">y</tspan></text><circle class="cls-82" cx="844.28" cy="902.78" r="2.64"/><line class="cls-81" x1="844.82" y1="902.78" x2="857.2" y2="902.78"/><circle class="cls-82" cx="595.04" cy="831.89" r="2.64"/><line class="cls-81" x1="443.51" y1="831.89" x2="594.16" y2="831.89"/><circle class="cls-82" cx="593.9" cy="870.26" r="2.64"/><polyline class="cls-81" points="443.51 897.61 517 897.61 517 870.26 593.02 870.26"/><text class="cls-63" transform="translate(499.99 717.07)">#e0<tspan class="cls-12" x="16.73" y="0">6</tspan><tspan class="cls-87" x="22.26" y="0">8</tspan><tspan x="27.85" y="0">4b</tspan></text><circle class="cls-47" cx="554.93" cy="713.88" r="2.64"/><line class="cls-90" x1="542.59" y1="713.88" x2="554.97" y2="713.88"/><text class="cls-63" transform="translate(390.28 834.86)">A<tspan class="cls-64" x="6.6" y="0">c</tspan><tspan class="cls-65" x="11.61" y="0">umin </tspan><tspan class="cls-66" x="36.2" y="0">P</tspan><tspan class="cls-67" x="42.3" y="0">r</tspan><tspan x="45.74" y="0">o</tspan><tspan class="cls-12" x="9.73" y="12">S</tspan><tspan x="15.83" y="12">emi</tspan><tspan class="cls-74" x="31.89" y="12">b</tspan><tspan class="cls-71" x="37.66" y="12">old</tspan><tspan x="8.4" y="24">28 </tspan><tspan class="cls-72" x="21.69" y="24">p</tspan><tspan x="27.34" y="24">x s</tspan><tspan class="cls-77" x="39.13" y="24">i</tspan><tspan class="cls-78" x="41.56" y="24">z</tspan><tspan x="46.01" y="24">e</tspan><tspan x="-21.01" y="36">30 </tspan><tspan class="cls-72" x="-7.39" y="36">p</tspan><tspan x="-1.74" y="36">x line h</tspan><tspan class="cls-12" x="29.14" y="36">e</tspan><tspan x="34.41" y="36">ig</tspan><tspan class="cls-78" x="42.45" y="36">h</tspan><tspan class="cls-71" x="48.05" y="36">t</tspan><tspan x="29.04" y="48">#</tspan><tspan class="cls-83" x="34.95" y="48">fffff</tspan><tspan class="cls-65" x="45.69" y="48">f</tspan></text><text class="cls-63" transform="translate(390.28 899.95)">A<tspan class="cls-64" x="6.6" y="0">c</tspan><tspan class="cls-65" x="11.61" y="0">umin </tspan><tspan class="cls-66" x="36.2" y="0">P</tspan><tspan class="cls-67" x="42.3" y="0">r</tspan><tspan x="45.74" y="0">o</tspan><tspan x="17.13" y="12">R</tspan><tspan class="cls-20" x="23.55" y="12">e</tspan><tspan class="cls-71" x="28.88" y="12">gu</tspan><tspan class="cls-75" x="40.12" y="12">l</tspan><tspan class="cls-71" x="42.43" y="12">ar</tspan><tspan class="cls-91" x="8.45" y="24">2</tspan><tspan class="cls-71" x="13.91" y="24">2 </tspan><tspan class="cls-72" x="21.69" y="24">p</tspan><tspan x="27.34" y="24">x s</tspan><tspan class="cls-77" x="39.13" y="24">i</tspan><tspan class="cls-78" x="41.56" y="24">z</tspan><tspan x="46.01" y="24">e</tspan><tspan x="-21.01" y="36">30 </tspan><tspan class="cls-72" x="-7.39" y="36">p</tspan><tspan x="-1.74" y="36">x line h</tspan><tspan class="cls-12" x="29.14" y="36">e</tspan><tspan x="34.41" y="36">ig</tspan><tspan class="cls-78" x="42.45" y="36">h</tspan><tspan class="cls-71" x="48.05" y="36">t</tspan><tspan x="29.04" y="48">#</tspan><tspan class="cls-83" x="34.95" y="48">fffff</tspan><tspan class="cls-65" x="45.69" y="48">f</tspan></text><text class="cls-63" transform="translate(495.11 927.89)"><tspan class="cls-75">2</tspan><tspan class="cls-65" x="5.19" y="0">30 </tspan><tspan class="cls-72" x="18.81" y="0">p</tspan><tspan x="24.46" y="0">x</tspan></text><line class="cls-81" x1="543.48" y1="801.51" x2="518.69" y2="801.51"/><line class="cls-81" x1="742.96" y1="1033.14" x2="523.53" y2="1033.14"/><line class="cls-81" x1="530.6" y1="808.57" x2="530.6" y2="1026.08"/><polygon class="cls-82" points="530.6 801.51 526.53 811.46 530.6 809.1 534.66 811.46 530.6 801.51"/><polygon class="cls-82" points="530.6 1033.14 526.53 1023.19 530.6 1025.55 534.66 1023.19 530.6 1033.14"/></g></svg>