<svg xmlns="http://www.w3.org/2000/svg" xmlns:xlink="http://www.w3.org/1999/xlink" viewBox="0 0 1920 236.97"><defs><style>.cls-1,.cls-39,.cls-41{fill:none;}.cls-2{clip-path:url(#clip-path);}.cls-3{fill:url(#radial-gradient);}.cls-4{fill:#2a2342;}.cls-5{font-size:65px;font-family:AcuminProExtraCond-Regular, Acumin Pro ExtraCondensed;}.cls-24,.cls-5{fill:#fff;}.cls-6{letter-spacing:0em;}.cls-7{letter-spacing:0.01em;}.cls-8{letter-spacing:0em;}.cls-9{letter-spacing:0.03em;}.cls-10{letter-spacing:0.04em;}.cls-11{letter-spacing:0em;}.cls-12{letter-spacing:0.01em;}.cls-13{letter-spacing:0em;}.cls-14{letter-spacing:0em;}.cls-15{letter-spacing:0.01em;}.cls-16{letter-spacing:-0.01em;}.cls-17{letter-spacing:0em;}.cls-18{letter-spacing:0em;}.cls-19{letter-spacing:0.02em;}.cls-20{letter-spacing:0.01em;}.cls-21{letter-spacing:0em;}.cls-22{clip-path:url(#clip-path-2);}.cls-23{fill:#201936;}.cls-25{fill:#e0684b;}.cls-26{fill:#bb464b;}.cls-27{fill:#e0ded8;}.cls-28{fill:#d5d2ca;}.cls-29{font-size:10px;font-family:AcuminPro-Regular, Acumin Pro;}.cls-29,.cls-40{fill:red;}.cls-30{letter-spacing:0em;}.cls-31{letter-spacing:-0.01em;}.cls-32{letter-spacing:0em;}.cls-33{letter-spacing:0.01em;}.cls-34{letter-spacing:-0.01em;}.cls-35{letter-spacing:0em;}.cls-36{letter-spacing:0em;}.cls-37{letter-spacing:0.02em;}.cls-38{letter-spacing:0.01em;}.cls-39,.cls-41{stroke:red;stroke-miterlimit:10;}.cls-41{stroke-dasharray:12 6 6 6;}</style><clipPath id="clip-path"><rect class="cls-1" width="1920" height="237.83"/></clipPath><radialGradient id="radial-gradient" cx="-1768.81" cy="-559.96" fx="-1901.3868496887355" fy="-897.0459462060757" r="574.26" gradientTransform="translate(3467.98 2177.04) scale(1.42 1.91)" gradientUnits="userSpaceOnUse"><stop offset="0.2" stop-color="#2d2547"/><stop offset="0.93" stop-color="#2d2547" stop-opacity="0"/></radialGradient><clipPath id="clip-path-2"><rect class="cls-1" width="1920" height="350"/></clipPath></defs><title>HeaderScaledLogo</title><g id="Carousel"><g class="cls-2"><rect class="cls-3" y="0.82" width="1920" height="2208.88"/></g><rect class="cls-4" width="1920" height="237.33"/></g><g id="Intro_and_Links" data-name="Intro and Links"><text class="cls-5" transform="translate(379.36 152.62)">WE<tspan class="cls-6" x="53.1" y="0">L</tspan><tspan class="cls-7" x="71.04" y="0">C</tspan><tspan x="92.36" y="0">OME TO </tspan><tspan class="cls-8" x="224.11" y="0">T</tspan><tspan x="241.99" y="0">HE N</tspan><tspan class="cls-9" x="318.88" y="0">E</tspan><tspan class="cls-10" x="340.01" y="0">X</tspan><tspan x="361.85" y="0">T</tspan><tspan x="0" y="60">CH</tspan><tspan class="cls-11" x="45.04" y="60">A</tspan><tspan class="cls-12" x="66.88" y="60">P</tspan><tspan class="cls-13" x="89.11" y="60">T</tspan><tspan x="106.99" y="60">ER </tspan><tspan class="cls-14" x="156.97" y="60">F</tspan><tspan x="175.88" y="60">OR </tspan><tspan class="cls-15" x="229.64" y="60">B</tspan><tspan class="cls-11" x="252.32" y="60">A</tspan><tspan class="cls-16" x="274.16" y="60">B</tspan><tspan class="cls-17" x="296" y="60">Y</tspan><tspan class="cls-6" x="316.02" y="60">L</tspan><tspan class="cls-17" x="333.96" y="60">O</tspan><tspan class="cls-18" x="356.78" y="60">N</tspan><tspan class="cls-19" x="381.28" y="60">.</tspan><tspan class="cls-20" x="391.16" y="60">J</tspan><tspan class="cls-21" x="404.09" y="60">S</tspan></text></g><g id="Header_Bar" data-name="Header Bar"><g class="cls-22"><polygon class="cls-23" points="260 -331.06 260 -261.06 959.96 143.06 1659.92 -261.06 1659.92 -331.06 260 -331.06"/></g><rect class="cls-23" x="260.04" width="1399.92" height="70"/><polygon class="cls-24" points="1635.25 33.07 1633.21 30.87 1626.59 37.01 1626.59 20.63 1623.59 20.63 1623.59 36.96 1617.32 31 1615.25 33.17 1625.08 42.51 1635.25 33.07"/><polygon class="cls-24" points="1633.39 45.17 1633.39 46.98 1616.9 46.98 1616.9 45.17 1613.9 45.17 1613.9 49.98 1636.39 49.98 1636.39 45.17 1633.39 45.17"/><rect class="cls-24" x="283.5" y="25.58" width="22.9" height="3.01"/><rect class="cls-24" x="283.5" y="33.53" width="22.9" height="3.01"/><rect class="cls-24" x="283.5" y="41.47" width="22.9" height="3.01"/><polygon class="cls-25" points="977.4 24.97 971.95 21.83 966.71 24.85 972.16 28 977.4 24.97"/><polygon class="cls-25" points="947.84 28 965.24 17.95 960 14.93 942.6 24.97 947.84 28"/><polygon class="cls-25" points="954.55 38.16 960 41.3 965.45 38.16 960 35.02 954.55 38.16"/><polygon class="cls-26" points="972.16 28 972.16 42.04 960 49.06 947.84 42.04 947.84 28 942.6 24.97 942.6 45.06 960 55.11 977.4 45.06 977.4 24.97 972.16 28"/><polygon class="cls-26" points="960 28.73 954.55 31.87 954.55 38.16 960 35.02 965.45 38.16 965.45 31.87 960 28.73"/><polygon class="cls-27" points="972.16 28 965.45 31.87 965.45 38.16 960 41.3 960 49.06 972.16 42.04 972.16 28"/><polygon class="cls-28" points="947.84 28 954.55 31.87 954.55 38.16 960 41.3 960 49.06 947.84 42.04 947.84 28"/><polygon class="cls-24" points="965.24 17.95 971.95 21.83 966.71 24.85 972.16 28 965.45 31.87 960 28.73 954.55 31.87 947.84 28 965.24 17.95"/></g><g id="Redlines"><text class="cls-29" transform="translate(1008.83 37.39)"><tspan class="cls-30">M</tspan><tspan x="8.63" y="0">ini</tspan><tspan class="cls-31" x="19.03" y="0">m</tspan><tspan class="cls-32" x="27.44" y="0">um s</tspan><tspan class="cls-33" x="48.73" y="0">i</tspan><tspan class="cls-34" x="51.16" y="0">z</tspan><tspan x="55.61" y="0">e on </tspan><tspan class="cls-35" x="77.06" y="0">s</tspan><tspan class="cls-36" x="81.82" y="0">cal</tspan><tspan class="cls-37" x="94.54" y="0">e</tspan><tspan x="99.98" y="0">: </tspan><tspan class="cls-38" x="105.01" y="0">4</tspan><tspan x="110.5" y="0">0</tspan><tspan class="cls-30" x="116.09" y="0">p</tspan><tspan x="121.74" y="0">x</tspan></text><text class="cls-29" transform="translate(783.81 20.65)">35 <tspan class="cls-30" x="13.48" y="0">p</tspan><tspan x="19.13" y="0">x</tspan></text><text class="cls-29" transform="translate(783.81 55)">35 <tspan class="cls-30" x="13.48" y="0">p</tspan><tspan x="19.13" y="0">x</tspan></text><line class="cls-39" x1="966.17" y1="55.11" x2="1007.15" y2="55.11"/><line class="cls-39" x1="966.17" y1="14.93" x2="1007.15" y2="14.93"/><line class="cls-39" x1="997.9" y1="21.99" x2="997.9" y2="48.04"/><polygon class="cls-40" points="997.9 14.93 993.83 24.88 997.9 22.52 1001.96 24.88 997.9 14.93"/><polygon class="cls-40" points="997.9 55.1 993.83 45.16 997.9 47.52 1001.96 45.16 997.9 55.1"/><line class="cls-39" x1="776.28" y1="7.06" x2="776.28" y2="27.94"/><polygon class="cls-40" points="776.28 0 772.22 9.95 776.28 7.59 780.35 9.95 776.28 0"/><polygon class="cls-40" points="776.28 35 772.22 25.05 776.28 27.41 780.35 25.05 776.28 35"/><line class="cls-39" x1="776.28" y1="42.06" x2="776.28" y2="62.94"/><polygon class="cls-40" points="776.28 35 772.22 44.95 776.28 42.59 780.35 44.95 776.28 35"/><polygon class="cls-40" points="776.28 70 772.22 60.05 776.28 62.41 780.35 60.05 776.28 70"/><line class="cls-41" x1="1137.83" y1="35" x2="1661.31" y2="35"/><line class="cls-41" x1="259.62" y1="35" x2="936.36" y2="35"/></g></svg>