<svg xmlns="http://www.w3.org/2000/svg" xmlns:xlink="http://www.w3.org/1999/xlink" viewBox="0 0 1920 565.6"><defs><style>.cls-1,.cls-11,.cls-69{fill:none;}.cls-2{fill:#2a2342;}.cls-3{clip-path:url(#clip-path);}.cls-4{fill:url(#radial-gradient);}.cls-5{clip-path:url(#clip-path-2);}.cls-6{fill:url(#radial-gradient-2);}.cls-7{fill:#201936;}.cls-8{clip-path:url(#clip-path-3);}.cls-9{clip-path:url(#clip-path-4);}.cls-10{fill:url(#radial-gradient-3);}.cls-11{stroke:red;}.cls-11,.cls-69{stroke-miterlimit:10;}.cls-12,.cls-64{fill:red;}.cls-13,.cls-35{font-size:65px;}.cls-13,.cls-34,.cls-39{fill:#fff;}.cls-13{font-family:AcuminProExtraCond-Regular, Acumin Pro ExtraCondensed;}.cls-14{letter-spacing:0em;}.cls-15{letter-spacing:0.01em;}.cls-16{letter-spacing:0em;}.cls-17{letter-spacing:0.03em;}.cls-18{letter-spacing:0.04em;}.cls-19{letter-spacing:0em;}.cls-20{letter-spacing:0.01em;}.cls-21{letter-spacing:0em;}.cls-22{letter-spacing:0em;}.cls-23{letter-spacing:0.01em;}.cls-24{letter-spacing:-0.01em;}.cls-25{letter-spacing:0em;}.cls-26{letter-spacing:0em;}.cls-27{letter-spacing:0.02em;}.cls-28{letter-spacing:0.01em;}.cls-29{letter-spacing:0em;}.cls-30,.cls-35{fill:#e0684b;}.cls-31{fill:#bb464b;}.cls-32{fill:#e0ded8;}.cls-33{fill:#d5d2ca;}.cls-35{font-family:AcuminProWide-Bold, Acumin Pro Wide;font-weight:700;}.cls-36{letter-spacing:-0.02em;}.cls-37{font-family:AcuminProWide-Regular, Acumin Pro Wide;font-weight:400;letter-spacing:-0.04em;}.cls-38{fill:#ff7656;}.cls-39{font-size:30px;font-family:AcuminProExtraCond-Medium, Acumin Pro ExtraCondensed;font-weight:500;}.cls-40{letter-spacing:0.01em;}.cls-41{letter-spacing:0.01em;}.cls-42{letter-spacing:-0.04em;}.cls-43{letter-spacing:0em;}.cls-44{letter-spacing:0em;}.cls-45{letter-spacing:0.02em;}.cls-46{letter-spacing:0em;}.cls-47{letter-spacing:0.02em;}.cls-48{letter-spacing:0em;}.cls-49{letter-spacing:0em;}.cls-50{letter-spacing:0.01em;}.cls-51{letter-spacing:0em;}.cls-52{letter-spacing:0.04em;}.cls-53{letter-spacing:0.02em;}.cls-54{letter-spacing:-0.04em;}.cls-55{letter-spacing:0.01em;}.cls-56{letter-spacing:0.01em;}.cls-57{letter-spacing:0.01em;}.cls-58{letter-spacing:0.02em;}.cls-59{letter-spacing:0.01em;}.cls-60{letter-spacing:0.02em;}.cls-61{letter-spacing:0em;}.cls-62{letter-spacing:0.02em;}.cls-63{letter-spacing:0.01em;}.cls-64{font-size:10px;font-family:AcuminPro-Regular, Acumin Pro;}.cls-65{letter-spacing:0.01em;}.cls-66{letter-spacing:-0.01em;}.cls-67{letter-spacing:-0.01em;}.cls-68{letter-spacing:0em;}.cls-69{stroke:#fff;}.cls-70{letter-spacing:0.01em;}.cls-71{letter-spacing:0.01em;}.cls-72{letter-spacing:0.01em;}.cls-73{letter-spacing:-0.02em;}.cls-74{letter-spacing:0.03em;}.cls-75{letter-spacing:0.03em;}.cls-76{letter-spacing:-0.02em;}.cls-77{letter-spacing:0em;}.cls-78{letter-spacing:0em;}.cls-79{letter-spacing:-0.01em;}.cls-80{letter-spacing:0.01em;}.cls-81{letter-spacing:-0.01em;}.cls-82{letter-spacing:-0.02em;}.cls-83{letter-spacing:-0.02em;}.cls-84{letter-spacing:0em;}.cls-85{letter-spacing:0.01em;}.cls-86{letter-spacing:0em;}.cls-87{letter-spacing:-0.02em;}.cls-88{letter-spacing:-0.01em;}.cls-89{letter-spacing:-0.02em;}.cls-90{letter-spacing:-0.01em;}.cls-91{letter-spacing:-0.01em;}.cls-92{letter-spacing:-0.01em;}.cls-93{letter-spacing:0em;}.cls-94{letter-spacing:-0.01em;}.cls-95{letter-spacing:0.01em;}.cls-96{letter-spacing:0.01em;}</style><clipPath id="clip-path"><rect class="cls-1" x="-2.58" y="2.06" width="1922.58" height="563.87"/></clipPath><radialGradient id="radial-gradient" cx="-1858.84" cy="-952.71" fx="-1991.4172727766022" fy="-1289.7926869110497" r="574.26" gradientTransform="translate(3595.63 2928.76) scale(1.42 1.91)" gradientUnits="userSpaceOnUse"><stop offset="0.2" stop-color="#2d2547"/><stop offset="0.93" stop-color="#2d2547" stop-opacity="0"/></radialGradient><clipPath id="clip-path-2"><rect class="cls-1" x="-1.28" y="-728.02" width="1920" height="237.83"/></clipPath><radialGradient id="radial-gradient-2" cx="-1770.1" cy="-1287.98" fx="-1902.6712533584598" fy="-1625.0642948299287" r="574.26" gradientTransform="translate(3468.51 2842.46) scale(1.42 1.91)" xlink:href="#radial-gradient"/><clipPath id="clip-path-3"><rect class="cls-1" x="-2.57" y="-418.88" width="1920" height="327.86"/></clipPath><clipPath id="clip-path-4"><rect class="cls-1" x="-2.25" y="-417.89" width="1920.88" height="326.97"/></clipPath><radialGradient id="radial-gradient-3" cx="-1726.18" cy="-1145.61" fx="-1858.7511726957623" fy="-1482.69828806991" r="574.26" gradientTransform="translate(3404.96 2879.11) scale(1.42 1.91)" xlink:href="#radial-gradient"/></defs><title>MenuRedLine</title><g id="Carousel"><rect class="cls-2" width="1920" height="565.93"/><g class="cls-3"><rect class="cls-4" y="0.82" width="1920" height="2208.88"/></g><g class="cls-5"><rect class="cls-6" x="-1.28" y="-727.2" width="1920" height="2208.88"/></g><polygon class="cls-7" points="260 0 260 70 959.96 474.12 1659.92 70 1659.92 0 260 0"/><g class="cls-8"><rect class="cls-2" x="-2.57" y="-418.88" width="1920" height="2975.65"/></g><g class="cls-9"><rect class="cls-10" x="-2.57" y="-418.06" width="1920" height="2208.88"/></g><line class="cls-11" x1="451.22" y1="328.37" x2="580.89" y2="328.37"/><polygon class="cls-12" points="587.95 328.37 578 332.43 580.37 328.37 578 324.3 587.95 328.37"/></g><g id="Intro_and_Links" data-name="Intro and Links"><text class="cls-13" transform="translate(379.36 483.68)">WE<tspan class="cls-14" x="53.1" y="0">L</tspan><tspan class="cls-15" x="71.04" y="0">C</tspan><tspan x="92.36" y="0">OME TO </tspan><tspan class="cls-16" x="224.11" y="0">T</tspan><tspan x="241.99" y="0">HE N</tspan><tspan class="cls-17" x="318.88" y="0">E</tspan><tspan class="cls-18" x="340.01" y="0">X</tspan><tspan x="361.85" y="0">T</tspan><tspan x="0" y="60">CH</tspan><tspan class="cls-19" x="45.04" y="60">A</tspan><tspan class="cls-20" x="66.88" y="60">P</tspan><tspan class="cls-21" x="89.11" y="60">T</tspan><tspan x="106.99" y="60">ER </tspan><tspan class="cls-22" x="156.97" y="60">F</tspan><tspan x="175.88" y="60">OR </tspan><tspan class="cls-23" x="229.64" y="60">B</tspan><tspan class="cls-19" x="252.32" y="60">A</tspan><tspan class="cls-24" x="274.16" y="60">B</tspan><tspan class="cls-25" x="296" y="60">Y</tspan><tspan class="cls-14" x="316.02" y="60">L</tspan><tspan class="cls-25" x="333.96" y="60">O</tspan><tspan class="cls-26" x="356.78" y="60">N</tspan><tspan class="cls-27" x="381.28" y="60">.</tspan><tspan class="cls-28" x="391.16" y="60">J</tspan><tspan class="cls-29" x="404.09" y="60">S</tspan></text></g><g id="Page_Logo" data-name="Page Logo"><polygon class="cls-30" points="1050.09 176.35 1021.89 160.07 994.76 175.73 1022.96 192.01 1050.09 176.35"/><polygon class="cls-30" points="897.04 192.01 987.12 140 960 124.34 869.91 176.35 897.04 192.01"/><polygon class="cls-30" points="931.8 244.64 960 260.92 988.2 244.64 960 228.36 931.8 244.64"/><polygon class="cls-31" points="1022.96 192.01 1022.96 264.71 960 301.06 897.04 264.71 897.04 192.01 869.91 176.35 869.91 280.37 960 332.38 1050.09 280.37 1050.09 176.35 1022.96 192.01"/><polygon class="cls-31" points="960 195.81 931.8 212.09 931.8 244.64 960 228.36 988.2 244.64 988.2 212.09 960 195.81"/><polygon class="cls-32" points="1022.96 192.01 988.2 212.09 988.2 244.64 960 260.92 960 301.06 1022.96 264.71 1022.96 192.01"/><polygon class="cls-33" points="897.04 192.01 931.8 212.09 931.8 244.64 960 260.92 960 301.06 897.04 264.71 897.04 192.01"/><polygon class="cls-34" points="987.12 140 1021.89 160.07 994.76 175.73 1022.96 192.01 988.2 212.09 960 195.81 931.8 212.09 897.04 192.01 987.12 140"/><text class="cls-35" transform="translate(911.45 404.4)"><tspan class="cls-36">4</tspan><tspan class="cls-37" x="41.4" y="0">.</tspan><tspan x="53.23" y="0">0</tspan></text></g><g id="Menu"><rect class="cls-31" x="260" width="70" height="70"/><rect class="cls-31" x="260" y="70" width="175" height="250"/><rect class="cls-30" x="435" y="70" width="151.22" height="200"/><rect class="cls-30" x="260" y="120" width="175" height="50"/><rect class="cls-38" x="435" y="70" width="151.22" height="50"/><text class="cls-39" transform="translate(283.59 105.18)">SP<tspan class="cls-40" x="19.62" y="0">E</tspan><tspan x="28.8" y="0">CIFI</tspan><tspan class="cls-41" x="57.51" y="0">C</tspan><tspan class="cls-42" x="67.65" y="0">A</tspan><tspan x="76.92" y="0">TIO</tspan><tspan class="cls-43" x="101.19" y="0">N</tspan><tspan x="112.92" y="0">S</tspan><tspan x="0" y="50">T</tspan><tspan class="cls-44" x="8.43" y="50">O</tspan><tspan x="19.26" y="50">O</tspan><tspan class="cls-45" x="30" y="50">L</tspan><tspan x="39.18" y="50">S</tspan><tspan class="cls-46" x="0" y="100">L</tspan><tspan class="cls-47" x="8.49" y="100">E</tspan><tspan class="cls-48" x="18.06" y="100">A</tspan><tspan class="cls-49" x="28.35" y="100">R</tspan><tspan x="38.82" y="100">N</tspan><tspan class="cls-50" x="0" y="150">C</tspan><tspan x="10.02" y="150">OMMUN</tspan><tspan class="cls-51" x="73.32" y="150">I</tspan><tspan class="cls-52" x="78.57" y="150">T</tspan><tspan x="88.17" y="150">Y</tspan><tspan x="0" y="200">G</tspan><tspan class="cls-53" x="10.71" y="200">E</tspan><tspan x="20.31" y="200">T</tspan></text><text class="cls-39" transform="translate(457.71 105.18)">P<tspan class="cls-53" x="10.2" y="0">L</tspan><tspan class="cls-54" x="19.44" y="0">A</tspan><tspan x="28.62" y="0">YG</tspan><tspan class="cls-55" x="48.78" y="0">R</tspan><tspan x="59.34" y="0">OUND</tspan><tspan class="cls-56" x="0" y="50">S</tspan><tspan class="cls-48" x="9.72" y="50">A</tspan><tspan x="20.01" y="50">ND</tspan><tspan class="cls-57" x="42.66" y="50">B</tspan><tspan class="cls-50" x="53.34" y="50">O</tspan><tspan x="64.35" y="50">X</tspan><tspan x="0" y="100">SP</tspan><tspan class="cls-40" x="19.62" y="100">E</tspan><tspan class="cls-58" x="28.8" y="100">C</tspan><tspan x="39.03" y="100">TO</tspan><tspan class="cls-59" x="58.2" y="100">R</tspan><tspan class="cls-60" x="69.03" y="100">.</tspan><tspan class="cls-61" x="73.8" y="100">J</tspan><tspan x="79.89" y="100">S</tspan><tspan class="cls-62" x="0" y="150">C</tspan><tspan x="10.26" y="150">Y</tspan><tspan class="cls-63" x="19.71" y="150">O</tspan><tspan x="30.69" y="150">S</tspan></text></g><g id="Icons"><polygon class="cls-34" points="1635.25 33.07 1633.21 30.87 1626.59 37.01 1626.59 20.63 1623.59 20.63 1623.59 36.96 1617.32 31 1615.25 33.17 1625.08 42.51 1635.25 33.07"/><polygon class="cls-34" points="1633.39 45.17 1633.39 46.98 1616.9 46.98 1616.9 45.17 1613.9 45.17 1613.9 49.98 1636.39 49.98 1636.39 45.17 1633.39 45.17"/><rect class="cls-34" x="283.5" y="25.58" width="22.9" height="3.01"/><rect class="cls-34" x="283.5" y="33.53" width="22.9" height="3.01"/><rect class="cls-34" x="283.5" y="41.47" width="22.9" height="3.01"/></g><g id="Redlines"><text class="cls-64" transform="translate(204.14 96.84)"><tspan class="cls-65">5</tspan><tspan x="5.51" y="0">0 </tspan><tspan class="cls-66" x="13.63" y="0">p</tspan><tspan x="19.28" y="0">x</tspan></text><text class="cls-64" transform="translate(648.03 96.84)"><tspan class="cls-65">5</tspan><tspan x="5.51" y="0">0 </tspan><tspan class="cls-66" x="13.63" y="0">p</tspan><tspan x="19.28" y="0">x</tspan></text><text class="cls-64" transform="translate(260.88 359.08)"><tspan class="cls-67">2</tspan><tspan x="5.17" y="0">5 </tspan><tspan class="cls-66" x="13.15" y="0">p</tspan><tspan class="cls-68" x="18.8" y="0">x</tspan></text><text class="cls-64" transform="translate(410.49 359.08)"><tspan class="cls-67">2</tspan><tspan x="5.17" y="0">5 </tspan><tspan class="cls-66" x="13.15" y="0">p</tspan><tspan class="cls-68" x="18.8" y="0">x</tspan></text><text class="cls-64" transform="translate(438.57 310.86)"><tspan class="cls-67">2</tspan><tspan x="5.17" y="0">5 </tspan><tspan class="cls-66" x="13.15" y="0">p</tspan><tspan class="cls-68" x="18.8" y="0">x</tspan></text><text class="cls-64" transform="translate(563.74 310.86)"><tspan class="cls-67">2</tspan><tspan x="5.17" y="0">5 </tspan><tspan class="cls-66" x="13.15" y="0">p</tspan><tspan class="cls-68" x="18.8" y="0">x</tspan></text><text class="cls-64" transform="translate(338.22 24.83)">#bb<tspan class="cls-41" x="17.33" y="0">4</tspan><tspan class="cls-62" x="22.85" y="0">6</tspan><tspan x="28.51" y="0">4b</tspan></text><circle class="cls-34" cx="322.32" cy="21.64" r="2.64"/><line class="cls-69" x1="322.86" y1="21.64" x2="335.25" y2="21.64"/><text class="cls-64" transform="translate(594.44 93.53)">#ff7<tspan class="cls-70" x="16.22" y="0">6</tspan><tspan class="cls-71" x="21.76" y="0">5</tspan><tspan x="27.28" y="0">6</tspan></text><circle class="cls-34" cx="578.54" cy="90.34" r="2.64"/><line class="cls-69" x1="579.08" y1="90.34" x2="591.47" y2="90.34"/><text class="cls-64" transform="translate(594.44 143.29)">#e0<tspan class="cls-43" x="16.73" y="0">6</tspan><tspan class="cls-72" x="22.26" y="0">8</tspan><tspan x="27.85" y="0">4b</tspan></text><circle class="cls-34" cx="578.54" cy="140.1" r="2.64"/><line class="cls-69" x1="579.08" y1="140.1" x2="591.47" y2="140.1"/><line class="cls-11" x1="254" y1="70" x2="225.97" y2="70"/><line class="cls-11" x1="254" y1="120" x2="225.97" y2="120"/><line class="cls-11" x1="656.28" y1="70" x2="595.22" y2="70"/><line class="cls-11" x1="656.28" y1="120" x2="595.22" y2="120"/><line class="cls-11" x1="260" y1="326" x2="260" y2="348.02"/><line class="cls-11" x1="284.98" y1="326" x2="284.98" y2="348.02"/><line class="cls-11" x1="410.02" y1="326" x2="410.02" y2="348.02"/><line class="cls-11" x1="435" y1="326" x2="435" y2="348.02"/><line class="cls-11" x1="561.09" y1="278" x2="561.09" y2="300.02"/><line class="cls-11" x1="586.07" y1="278" x2="586.07" y2="300.02"/><line class="cls-11" x1="459.98" y1="278" x2="459.98" y2="300.02"/><line class="cls-11" x1="267.05" y1="336.29" x2="277.7" y2="336.29"/><polygon class="cls-12" points="259.99 336.29 269.94 340.36 267.58 336.29 269.94 332.23 259.99 336.29"/><polygon class="cls-12" points="284.76 336.29 274.81 340.36 277.17 336.29 274.81 332.23 284.76 336.29"/><line class="cls-11" x1="417" y1="336.29" x2="427.65" y2="336.29"/><polygon class="cls-12" points="409.94 336.29 419.88 340.36 417.52 336.29 419.88 332.23 409.94 336.29"/><polygon class="cls-12" points="434.71 336.29 424.76 340.36 427.12 336.29 424.76 332.23 434.71 336.29"/><line class="cls-11" x1="442.1" y1="287.08" x2="452.75" y2="287.08"/><polygon class="cls-12" points="435.04 287.08 444.99 291.15 442.63 287.08 444.99 283.02 435.04 287.08"/><polygon class="cls-12" points="459.81 287.08 449.86 291.15 452.22 287.08 449.86 283.02 459.81 287.08"/><line class="cls-11" x1="568.26" y1="287.08" x2="578.91" y2="287.08"/><polygon class="cls-12" points="561.2 287.08 571.15 291.15 568.79 287.08 571.15 283.02 561.2 287.08"/><polygon class="cls-12" points="585.97 287.08 576.02 291.15 578.38 287.08 576.02 283.02 585.97 287.08"/><text class="cls-64" transform="translate(597.2 175.78)">A<tspan class="cls-66" x="6.6" y="0">c</tspan><tspan class="cls-68" x="11.61" y="0">umin </tspan><tspan class="cls-73" x="36.2" y="0">P</tspan><tspan class="cls-67" x="42.3" y="0">r</tspan><tspan x="45.74" y="0">o </tspan><tspan class="cls-74" x="53.77" y="0">E</tspan><tspan class="cls-75" x="60.05" y="0">x</tspan><tspan class="cls-67" x="64.85" y="0">t</tspan><tspan class="cls-76" x="67.96" y="0">r</tspan><tspan class="cls-77" x="71.31" y="0">a Conde</tspan><tspan class="cls-78" x="108.09" y="0">n</tspan><tspan class="cls-44" x="113.7" y="0">s</tspan><tspan class="cls-65" x="118.46" y="0">e</tspan><tspan x="123.75" y="0">d</tspan><tspan class="cls-79" x="0" y="12">M</tspan><tspan class="cls-80" x="8.61" y="12">e</tspan><tspan x="13.9" y="12">dium</tspan><tspan x="0" y="24">30 </tspan><tspan class="cls-78" x="13.62" y="24">p</tspan><tspan x="19.27" y="24">x s</tspan><tspan class="cls-80" x="31.06" y="24">i</tspan><tspan class="cls-81" x="33.49" y="24">z</tspan><tspan x="37.94" y="24">e</tspan><tspan class="cls-65" x="0" y="36">5</tspan><tspan x="5.51" y="36">0 </tspan><tspan class="cls-66" x="13.63" y="36">p</tspan><tspan x="19.28" y="36">x line h</tspan><tspan class="cls-43" x="50.16" y="36">e</tspan><tspan class="cls-68" x="55.43" y="36">ig</tspan><tspan class="cls-81" x="63.47" y="36">h</tspan><tspan class="cls-77" x="69.07" y="36">t</tspan><tspan x="0" y="48">#</tspan><tspan class="cls-82" x="5.91" y="48">fffff</tspan><tspan class="cls-68" x="16.65" y="48">f</tspan></text><line class="cls-11" x1="238.81" y1="77.06" x2="238.81" y2="112.94"/><polygon class="cls-12" points="238.81 70 234.74 79.95 238.81 77.59 242.87 79.95 238.81 70"/><polygon class="cls-12" points="238.81 120 234.74 110.05 238.81 112.41 242.87 110.05 238.81 120"/><line class="cls-11" x1="188.61" y1="70.66" x2="188.61" y2="309.42"/><polygon class="cls-12" points="188.6 316.48 184.54 306.53 188.6 308.89 192.67 306.53 188.6 316.48"/><line class="cls-11" x1="641.08" y1="77.06" x2="641.08" y2="112.94"/><polygon class="cls-12" points="641.08 70 637.02 79.95 641.08 77.59 645.15 79.95 641.08 70"/><polygon class="cls-12" points="641.08 120 637.02 110.05 641.08 112.41 645.15 110.05 641.08 120"/><text class="cls-64" transform="translate(199.55 163.23)"><tspan class="cls-83">M<tspan class="cls-84" x="8.52" y="0">ain me</tspan><tspan class="cls-78" x="38.06" y="0">n</tspan><tspan class="cls-84" x="43.67" y="0">u</tspan></tspan><tspan x="0" y="12">o</tspan><tspan class="cls-85" x="5.5" y="12">p</tspan><tspan x="11.26" y="12">e</tspan><tspan class="cls-78" x="16.49" y="12">n</tspan><tspan class="cls-86" x="22.1" y="12">s in a</tspan><tspan x="0" y="24">d</tspan><tspan class="cls-78" x="5.71" y="24">o</tspan><tspan class="cls-87" x="11.16" y="24">w</tspan><tspan class="cls-88" x="18.64" y="24">n</tspan><tspan class="cls-89" x="24.17" y="24">w</tspan><tspan class="cls-84" x="31.64" y="24">a</tspan><tspan class="cls-90" x="36.93" y="24">r</tspan><tspan x="40.37" y="24">d</tspan><tspan x="0" y="36">ani</tspan><tspan class="cls-91" x="13.32" y="36">m</tspan><tspan class="cls-92" x="21.72" y="36">a</tspan><tspan class="cls-93" x="26.94" y="36">t</tspan><tspan x="30.09" y="36">ion</tspan></text><text class="cls-64" transform="translate(483.59 346.2)"><tspan class="cls-67">S</tspan><tspan x="5.98" y="0">ubme</tspan><tspan class="cls-78" x="30.95" y="0">n</tspan><tspan x="36.56" y="0">u</tspan><tspan x="0" y="12">o</tspan><tspan class="cls-85" x="5.5" y="12">p</tspan><tspan x="11.26" y="12">e</tspan><tspan class="cls-78" x="16.49" y="12">n</tspan><tspan class="cls-86" x="22.1" y="12">s in a</tspan><tspan class="cls-94" x="0" y="24">r</tspan><tspan x="3.45" y="24">ig</tspan><tspan class="cls-91" x="11.49" y="24">h</tspan><tspan x="17.09" y="24">t di</tspan><tspan class="cls-67" x="30.89" y="24">r</tspan><tspan class="cls-95" x="34.33" y="24">e</tspan><tspan class="cls-96" x="39.62" y="24">c</tspan><tspan class="cls-93" x="44.78" y="24">t</tspan><tspan class="cls-84" x="47.93" y="24">ion</tspan><tspan x="0" y="36">ani</tspan><tspan class="cls-91" x="13.32" y="36">m</tspan><tspan class="cls-92" x="21.72" y="36">a</tspan><tspan class="cls-93" x="26.94" y="36">t</tspan><tspan x="30.09" y="36">ion</tspan></text></g></svg>