<svg width="179" height="60" viewBox="0 0 179 60" fill="none" xmlns="http://www.w3.org/2000/svg">
<path d="M20.5731 26.6401L25.2271 25.3201V37.8241L38.1389 33.3841L39.4993 21.4801L43.5328 20.4241L41.4803 35.8081L21.2891 43.4401L20.5731 26.6401Z" fill="white"/>
<path d="M21.5277 19.752L30.6209 17.712L37.4229 21.528L36.3728 31.968L26.6591 35.208L26.6113 23.568L21.5277 19.752Z" fill="white"/>
<path d="M15.7281 39.7921L20.406 45.3121L41.2416 37.4401L40.6927 40.8961L20.7163 49.0321L15.8713 42.9361L15.7281 39.7921Z" fill="white"/>
<path d="M14.32 40.824L14.0813 35.568L19.7377 42.336L19.1172 26.496L14.2723 22.2L15.0599 33.96L9.97626 28.392L10.9548 36.408L14.32 40.824Z" fill="white"/>
<path d="M13.4369 30.096L13.4131 29.976L12.5539 20.064L13.6995 19.776L17.8761 18.864L13.1505 15.36L8.32947 16.152L9.61827 25.776" fill="white"/>
<path d="M15.0599 20.952L19.4513 20.016L24.7259 23.952L19.9525 25.296L15.0599 20.952Z" fill="white"/>
<path d="M19.7616 18.456L30.7641 16.08L38.5447 20.232L42.7452 19.128L29.0457 12.24L15.0121 14.928L19.7616 18.456Z" fill="white"/>
<path d="M52.5783 38.7601V40.9921H50.8599V20.4241H52.5783V29.7601H52.626C53.1272 28.8001 53.8193 28.0561 54.6785 27.5281C55.5377 27.0241 56.5163 26.7601 57.5903 26.7601C58.4733 26.7601 59.2609 26.9281 59.9531 27.2401C60.6452 27.5521 61.2419 28.0321 61.7192 28.6081C62.1965 29.2081 62.5784 29.9281 62.8171 30.7681C63.0796 31.6081 63.1989 32.5441 63.1989 33.5761C63.1989 34.7281 63.0557 35.7841 62.7693 36.7201C62.4829 37.6561 62.0533 38.4721 61.5283 39.1681C60.9793 39.8401 60.3349 40.3681 59.5712 40.7521C58.8075 41.1361 57.9483 41.3041 56.9936 41.3041C55.0365 41.3041 53.5807 40.4401 52.626 38.7361L52.5783 38.7601ZM52.5783 35.2321C52.5783 35.8561 52.6737 36.4561 52.8885 37.0081C53.1033 37.5601 53.3897 38.0641 53.7716 38.4721C54.1535 38.9041 54.6069 39.2161 55.132 39.4801C55.6571 39.7201 56.2537 39.8401 56.8981 39.8401C57.5903 39.8401 58.2108 39.6961 58.7836 39.4081C59.3325 39.1201 59.8099 38.6881 60.2156 38.1601C60.6213 37.6321 60.9077 36.9601 61.1225 36.1921C61.3373 35.4241 61.4328 34.5601 61.4328 33.6001C61.4328 32.7841 61.3373 32.0401 61.1464 31.3921C60.9555 30.7441 60.6691 30.1681 60.3111 29.7121C59.9531 29.2561 59.4996 28.8961 58.9984 28.6561C58.4733 28.4161 57.9005 28.2961 57.2561 28.2961C56.5401 28.2961 55.8957 28.4401 55.3229 28.7041C54.7501 28.9681 54.2489 29.3281 53.8432 29.8081C53.4375 30.2641 53.1272 30.8161 52.9124 31.4401C52.6976 32.0641 52.5783 32.7121 52.5783 33.4081V35.2321Z" fill="white"/>
<path d="M72.9366 41.016V38.544H72.8888C72.4353 39.432 71.8148 40.128 71.0511 40.608C70.2635 41.088 69.3804 41.352 68.4019 41.352C67.7336 41.352 67.1369 41.256 66.588 41.064C66.0629 40.872 65.6095 40.608 65.2276 40.248C64.8457 39.888 64.5593 39.48 64.3684 39C64.1775 38.52 64.0581 37.968 64.0581 37.392C64.0581 36.144 64.44 35.136 65.2276 34.392C65.9913 33.648 67.1608 33.168 68.736 32.928L72.9366 32.328C72.9366 29.664 71.9103 28.32 69.8339 28.32C68.2109 28.32 66.7312 28.92 65.3469 30.096V28.2C65.6333 27.984 65.9675 27.792 66.3255 27.648C66.6835 27.504 67.0653 27.336 67.4711 27.216C67.8768 27.096 68.2825 27 68.7121 26.928C69.1417 26.856 69.5475 26.832 69.9532 26.832C71.5045 26.832 72.6502 27.264 73.4378 28.128C74.2254 28.992 74.6311 30.288 74.6311 32.016V41.064L72.9366 41.016ZM69.3804 34.248C68.7599 34.344 68.2348 34.464 67.7813 34.584C67.3517 34.728 66.9699 34.896 66.6835 35.136C66.3971 35.376 66.1823 35.64 66.0391 36C65.8959 36.336 65.8243 36.768 65.8243 37.248C65.8243 37.608 65.8959 37.968 66.0152 38.28C66.1345 38.592 66.3255 38.88 66.588 39.096C66.8267 39.336 67.1369 39.504 67.4949 39.624C67.8529 39.744 68.2587 39.816 68.7121 39.816C69.3327 39.816 69.8816 39.696 70.4067 39.456C70.9079 39.216 71.3613 38.904 71.7432 38.472C72.1251 38.064 72.4115 37.56 72.6263 36.984C72.8411 36.408 72.9366 35.784 72.9366 35.088V33.72L69.3804 34.248Z" fill="white"/>
<path d="M79.1896 38.7601V40.9921H77.4712V20.4241H79.1896V29.7601H79.2373C79.7624 28.8001 80.4307 28.0561 81.2899 27.5281C82.1491 27.0241 83.1276 26.7601 84.2016 26.7601C85.0847 26.7601 85.8723 26.9281 86.5644 27.2401C87.2565 27.5521 87.8532 28.0321 88.3305 28.6081C88.8079 29.2081 89.1897 29.9281 89.4284 30.7681C89.6909 31.6081 89.8103 32.5441 89.8103 33.5761C89.8103 34.7281 89.6671 35.7841 89.3807 36.7201C89.0943 37.6561 88.6647 38.4721 88.1396 39.1681C87.5907 39.8401 86.9463 40.3681 86.1825 40.7521C85.4188 41.1361 84.5596 41.3041 83.6049 41.3041C81.6479 41.3041 80.192 40.4401 79.2373 38.7361L79.1896 38.7601ZM79.1896 35.2321C79.1896 35.8561 79.2851 36.4561 79.4999 37.0081C79.7147 37.5601 80.0011 38.0641 80.3829 38.4721C80.7648 38.9041 81.2183 39.2161 81.7433 39.4801C82.2684 39.7201 82.8651 39.8401 83.5095 39.8401C84.2016 39.8401 84.8221 39.6961 85.3949 39.4081C85.9677 39.1201 86.4212 38.6881 86.8269 38.1601C87.2088 37.6081 87.5191 36.9601 87.7339 36.1921C87.9487 35.4241 88.0441 34.5601 88.0441 33.6001C88.0441 32.7841 87.9487 32.0401 87.7577 31.3921C87.5668 30.7441 87.2804 30.1681 86.9224 29.7121C86.5644 29.2561 86.1109 28.8961 85.6097 28.6561C85.0847 28.4161 84.5119 28.2961 83.8675 28.2961C83.1515 28.2961 82.5071 28.4401 81.9343 28.7041C81.3615 28.9681 80.8603 29.3281 80.4545 29.8081C80.0488 30.2641 79.7385 30.8161 79.5237 31.4401C79.3089 32.0641 79.1896 32.7121 79.1896 33.4081V35.2321Z" fill="white"/>
<path d="M95.944 43.5361C95.3951 44.9041 94.7745 45.9121 94.0824 46.5601C93.3903 47.2081 92.5311 47.5441 91.5287 47.5441C91.0275 47.5441 90.6217 47.4961 90.2637 47.3761V45.7441C90.4547 45.8161 90.6695 45.8641 90.8604 45.9121C91.0752 45.9361 91.2661 45.9601 91.4809 45.9601C92.0537 45.9601 92.5311 45.7921 92.9607 45.4321C93.3903 45.0721 93.7483 44.5441 94.0585 43.8001L95.2519 40.9441L89.9296 27.0961H91.8389L95.8008 38.1121C95.8485 38.2561 95.8963 38.4241 95.944 38.6161C95.9917 38.8081 96.0395 38.9761 96.0872 39.1681H96.1588C96.2065 39.0241 96.2543 38.8561 96.2781 38.6881C96.302 38.5201 96.3736 38.3521 96.4452 38.1601L100.646 27.0961H102.46L95.944 43.5361Z" fill="white"/>
<path d="M103.51 41.0161V20.4241H105.228V41.0161H103.51Z" fill="white"/>
<path d="M113.963 41.328C112.937 41.328 112.006 41.16 111.195 40.824C110.383 40.488 109.691 39.984 109.118 39.36C108.546 38.736 108.092 37.968 107.806 37.104C107.495 36.216 107.352 35.256 107.352 34.176C107.352 33.024 107.519 31.992 107.83 31.056C108.164 30.144 108.617 29.376 109.214 28.728C109.811 28.08 110.527 27.6 111.386 27.264C112.221 26.928 113.176 26.76 114.226 26.76C115.228 26.76 116.135 26.928 116.923 27.264C117.734 27.6 118.403 28.08 118.951 28.704C119.5 29.328 119.93 30.096 120.24 30.984C120.527 31.872 120.694 32.904 120.694 34.032C120.694 35.112 120.551 36.096 120.216 37.008C119.906 37.896 119.453 38.664 118.88 39.312C118.307 39.96 117.591 40.464 116.78 40.8C115.944 41.16 115.013 41.328 113.963 41.328ZM114.107 28.272C113.343 28.272 112.675 28.392 112.054 28.656C111.433 28.92 110.908 29.304 110.479 29.808C110.049 30.312 109.715 30.936 109.476 31.656C109.238 32.376 109.118 33.216 109.118 34.128C109.118 34.992 109.238 35.784 109.476 36.48C109.715 37.176 110.049 37.776 110.479 38.28C110.908 38.784 111.433 39.168 112.03 39.432C112.651 39.696 113.319 39.84 114.083 39.84C114.846 39.84 115.539 39.72 116.135 39.456C116.732 39.192 117.233 38.832 117.639 38.328C118.045 37.824 118.355 37.224 118.57 36.504C118.784 35.784 118.88 34.968 118.88 34.056C118.88 32.184 118.474 30.744 117.639 29.76C116.827 28.776 115.634 28.272 114.107 28.272Z" fill="white"/>
<path d="M132.126 41.0161V33.0001C132.126 29.8561 130.98 28.2961 128.713 28.2961C128.116 28.2961 127.543 28.4161 127.042 28.6561C126.517 28.8961 126.088 29.2321 125.706 29.6641C125.324 30.0961 125.037 30.6001 124.823 31.1761C124.608 31.7521 124.512 32.4001 124.512 33.0721V41.0401H122.794V27.1441H124.512V29.5201H124.56C125.586 27.6961 127.138 26.7841 129.19 26.7841C130.694 26.7841 131.863 27.2881 132.651 28.2721C133.439 29.2561 133.844 30.6961 133.844 32.5441V41.0161H132.126Z" fill="white"/>
<path d="M152.556 33.2881C152.556 35.9041 151.959 37.8961 150.742 39.2881C149.549 40.6801 147.806 41.3761 145.515 41.3761C144.489 41.3761 143.558 41.2081 142.699 40.8481V36.7441C143.439 37.3201 144.274 37.6081 145.205 37.6081C147.186 37.6081 148.188 36.1201 148.188 33.1441V21.5281H152.532L152.556 33.2881Z" fill="white"/>
<path d="M154.513 40.2721V35.9281C155.3 36.6001 156.136 37.0801 157.067 37.4161C157.997 37.7521 158.904 37.9201 159.859 37.9201C160.408 37.9201 160.885 37.8721 161.291 37.7761C161.697 37.6801 162.031 37.5361 162.317 37.3681C162.604 37.2001 162.795 36.9841 162.938 36.7441C163.081 36.5041 163.129 36.2401 163.129 35.9521C163.129 35.5681 163.009 35.2321 162.795 34.9441C162.58 34.6561 162.293 34.3681 161.911 34.1041C161.53 33.8401 161.1 33.6001 160.575 33.3601C160.05 33.1201 159.501 32.8801 158.904 32.6401C157.401 32.0161 156.255 31.2241 155.515 30.3121C154.775 29.4001 154.393 28.2961 154.393 27.0001C154.393 25.9921 154.584 25.1041 154.99 24.3841C155.396 23.6641 155.945 23.0641 156.637 22.5841C157.329 22.1041 158.141 21.7681 159.071 21.5521C159.978 21.3361 160.957 21.2161 161.983 21.2161C162.985 21.2161 163.892 21.2881 164.656 21.4081C165.444 21.5281 166.16 21.7201 166.804 21.9601V26.0161C166.47 25.8001 166.136 25.5841 165.754 25.4161C165.372 25.2481 164.966 25.1041 164.561 24.9841C164.155 24.8641 163.749 24.7921 163.343 24.7441C162.938 24.6961 162.556 24.6721 162.198 24.6721C161.697 24.6721 161.243 24.7201 160.837 24.8161C160.432 24.9121 160.098 25.0561 159.811 25.2241C159.525 25.3921 159.31 25.6081 159.167 25.8481C159.024 26.0881 158.928 26.3521 158.928 26.6641C158.928 27.0001 159.024 27.2881 159.191 27.5521C159.358 27.8161 159.596 28.0561 159.931 28.2961C160.265 28.5361 160.623 28.7521 161.076 28.9681C161.53 29.1841 162.031 29.4241 162.604 29.6641C163.367 30.0001 164.083 30.3361 164.68 30.6961C165.301 31.0561 165.826 31.4881 166.279 31.9441C166.709 32.4001 167.067 32.9281 167.281 33.5281C167.52 34.1281 167.639 34.8001 167.639 35.5921C167.639 36.6721 167.425 37.5841 167.019 38.3281C166.613 39.0721 166.064 39.6721 165.348 40.1281C164.656 40.5841 163.821 40.9201 162.89 41.1121C161.959 41.3041 160.981 41.4001 159.931 41.4001C158.857 41.4001 157.854 41.3041 156.899 41.1361C156.064 40.8961 155.229 40.6321 154.513 40.2721Z" fill="white"/>
<path d="M138.403 41.7601C140.143 41.7601 141.553 40.3417 141.553 38.5921C141.553 36.8424 140.143 35.4241 138.403 35.4241C136.663 35.4241 135.252 36.8424 135.252 38.5921C135.252 40.3417 136.663 41.7601 138.403 41.7601Z" fill="white"/>
</svg>
