<?xml version="1.0" encoding="utf-8"?>
<!-- Generator: Adobe Illustrator 26.3.1, SVG Export Plug-In . SVG Version: 6.00 Build 0)  -->
<svg version="1.1" id="Layer_1" xmlns="http://www.w3.org/2000/svg" xmlns:xlink="http://www.w3.org/1999/xlink" x="0px" y="0px"
	 viewBox="0 0 306 144" style="enable-background:new 0 0 306 144;" xml:space="preserve">
<style type="text/css">
	.st0{fill:#737373;}
	.st1{fill:#F25022;}
	.st2{fill:#7FBA00;}
	.st3{fill:#00A4EF;}
	.st4{fill:#FFB900;}
</style>
<path class="st0" d="M131.6,56.2v31.6h-5.5V63H126l-9.8,24.8h-3.6l-10-24.8h-0.1v24.8h-5.1V56.2h7.9l9.1,23.4h0.1l9.6-23.4
	C124.1,56.2,131.6,56.2,131.6,56.2z M136.2,58.6c0-0.9,0.3-1.6,1-2.2c0.6-0.6,1.4-0.9,2.3-0.9c0.9,0,1.7,0.3,2.3,0.9
	c0.6,0.6,0.9,1.3,0.9,2.2c0,0.9-0.3,1.6-0.9,2.2s-1.4,0.9-2.3,0.9s-1.7-0.3-2.3-0.9C136.5,60.2,136.2,59.5,136.2,58.6z M142.1,65.2
	v22.6h-5.3V65.2H142.1z M158.2,83.9c0.8,0,1.7-0.2,2.6-0.6c1-0.4,1.8-0.9,2.6-1.5v5c-0.9,0.5-1.8,0.9-2.9,1.1
	c-1.1,0.2-2.3,0.4-3.6,0.4c-3.3,0-6-1.1-8.1-3.2c-2.1-2.1-3.1-4.8-3.1-8.1c0-3.6,1.1-6.6,3.2-9c2.1-2.4,5.1-3.5,9.1-3.5
	c1,0,2,0.1,3,0.4c1,0.3,1.8,0.6,2.4,0.9V71c-0.8-0.6-1.7-1.1-2.5-1.4c-0.9-0.3-1.7-0.5-2.6-0.5c-2.1,0-3.8,0.7-5.1,2
	c-1.3,1.4-1.9,3.2-1.9,5.5c0,2.3,0.6,4.1,1.9,5.4C154.4,83.3,156.1,83.9,158.2,83.9L158.2,83.9z M178.7,64.8c0.4,0,0.8,0,1.1,0.1
	c0.3,0.1,0.6,0.1,0.9,0.2v5.4c-0.3-0.2-0.7-0.4-1.2-0.6c-0.5-0.2-1.2-0.3-1.9-0.3c-1.3,0-2.4,0.6-3.3,1.7c-0.9,1.1-1.4,2.8-1.4,5.1
	v11.4h-5.3V65.2h5.3v3.6h0.1c0.5-1.2,1.2-2.2,2.2-2.9C176.1,65.1,177.3,64.8,178.7,64.8L178.7,64.8z M181,76.8
	c0-3.7,1.1-6.7,3.2-8.9c2.1-2.2,5.1-3.3,8.8-3.3c3.5,0,6.3,1.1,8.3,3.2c2,2.1,3,5,3,8.5c0,3.7-1.1,6.6-3.2,8.8
	c-2.1,2.2-5,3.3-8.6,3.3c-3.5,0-6.3-1-8.4-3.1C182,83.2,181,80.4,181,76.8z M186.5,76.6c0,2.4,0.5,4.2,1.6,5.4
	c1.1,1.2,2.6,1.9,4.6,1.9c1.9,0,3.4-0.6,4.4-1.9c1-1.2,1.5-3.1,1.5-5.5c0-2.4-0.5-4.3-1.6-5.5c-1-1.2-2.5-1.9-4.4-1.9
	c-2,0-3.5,0.6-4.5,1.9C187.1,72.4,186.5,74.2,186.5,76.6L186.5,76.6z M212.1,71.1c0,0.8,0.2,1.4,0.7,1.8c0.5,0.4,1.6,1,3.2,1.6
	c2.1,0.9,3.6,1.8,4.5,2.9c0.9,1.1,1.3,2.4,1.3,3.9c0,2.1-0.8,3.8-2.5,5.1c-1.6,1.3-3.9,1.9-6.6,1.9c-0.9,0-2-0.1-3.1-0.3
	s-2.1-0.5-2.9-0.9v-5.2c1,0.7,2,1.2,3.1,1.6c1.1,0.4,2.1,0.6,3,0.6c1.2,0,2.1-0.2,2.7-0.5c0.6-0.3,0.9-0.9,0.9-1.7
	c0-0.7-0.3-1.4-0.9-1.9c-0.6-0.5-1.7-1.1-3.4-1.8c-2-0.8-3.4-1.7-4.2-2.8c-0.8-1-1.2-2.3-1.2-3.9c0-2,0.8-3.7,2.4-5
	c1.6-1.3,3.7-2,6.3-2c0.8,0,1.7,0.1,2.7,0.3c1,0.2,1.8,0.4,2.5,0.7v5.1c-0.7-0.5-1.5-0.9-2.5-1.2c-0.9-0.3-1.9-0.5-2.8-0.5
	c-1,0-1.8,0.2-2.4,0.6C212.4,69.9,212.1,70.4,212.1,71.1L212.1,71.1z M224.1,76.8c0-3.7,1.1-6.7,3.2-8.9s5.1-3.3,8.8-3.3
	c3.5,0,6.3,1.1,8.3,3.2c2,2.1,3,5,3,8.5c0,3.7-1.1,6.6-3.2,8.8c-2.1,2.2-5,3.3-8.6,3.3c-3.5,0-6.3-1-8.4-3.1
	C225.2,83.2,224.1,80.4,224.1,76.8L224.1,76.8z M229.7,76.6c0,2.4,0.5,4.2,1.6,5.4c1.1,1.2,2.6,1.9,4.6,1.9c1.9,0,3.4-0.6,4.4-1.9
	s1.5-3.1,1.5-5.5c0-2.4-0.5-4.3-1.6-5.5c-1-1.2-2.5-1.9-4.4-1.9c-2,0-3.5,0.6-4.5,1.9C230.2,72.4,229.7,74.2,229.7,76.6L229.7,76.6z
	 M265.1,69.5h-7.9v18.3h-5.4V69.5H248v-4.4h3.8V62c0-2.4,0.8-4.3,2.3-5.8c1.5-1.5,3.5-2.3,6-2.3c0.6,0,1.2,0,1.7,0.1
	c0.5,0.1,0.9,0.2,1.3,0.3v4.6c-0.2-0.1-0.5-0.2-0.9-0.4s-0.9-0.2-1.5-0.2c-1.1,0-2,0.3-2.6,1s-0.9,1.7-0.9,3.1v2.7h7.9v-5.1l5.4-1.6
	v6.7h5.4v4.4h-5.4v10.6c0,1.4,0.3,2.4,0.8,3c0.5,0.6,1.3,0.9,2.4,0.9c0.3,0,0.7-0.1,1.1-0.2c0.4-0.1,0.8-0.3,1.1-0.5v4.4
	c-0.3,0.2-0.9,0.4-1.7,0.5c-0.8,0.2-1.6,0.2-2.3,0.2c-2.2,0-3.9-0.6-5.1-1.8c-1.1-1.2-1.7-3-1.7-5.4L265.1,69.5L265.1,69.5z"/>
<path class="st1" d="M29,45.7h25.1v25.1H29V45.7z"/>
<path class="st2" d="M81.6,70.8H56.5l0.1-25.1h25V70.8z"/>
<path class="st3" d="M29,73.2h25.1v25.1H29V73.2z"/>
<path class="st4" d="M56.5,73.2h25.1v25.1H56.5V73.2z"/>
</svg>
