<?xml version="1.0" standalone="no"?>
<!DOCTYPE svg PUBLIC "-//W3C//DTD SVG 20010904//EN"
 "http://www.w3.org/TR/2001/REC-SVG-20010904/DTD/svg10.dtd">
<svg version="1.0" xmlns="http://www.w3.org/2000/svg"
 width="700.000000pt" height="700.000000pt" viewBox="0 0 700.000000 700.000000"
 preserveAspectRatio="xMidYMid meet">
<metadata>
Created by potrace 1.11, written by Peter Selinger 2001-2013
</metadata>
<g transform="translate(0.000000,700.000000) scale(0.100000,-0.100000)"
fill="#000000" stroke="none">
<path d="M2971 6818 c-247 -27 -528 -136 -741 -287 -154 -108 -326 -287 -428
-444 -171 -265 -262 -604 -249 -927 10 -219 57 -427 138 -599 21 -46 39 -87
39 -91 0 -4 -27 3 -60 17 -407 164 -891 69 -1218 -241 -476 -450 -481 -1192
-11 -1659 l99 -99 -22 -111 c-20 -97 -23 -143 -23 -337 0 -196 3 -240 23 -340
161 -797 778 -1379 1577 -1486 157 -21 426 -14 569 15 198 41 400 112 542 193
l55 30 114 -51 c328 -146 653 -214 1020 -214 288 0 528 38 785 124 901 301
1554 1079 1695 2019 22 148 30 439 16 590 -105 1110 -923 2019 -2006 2231
l-112 22 -7 121 c-52 939 -863 1628 -1795 1524z m2319 -2669 c271 -37 527
-152 715 -323 l60 -55 -168 -168 -168 -169 -52 49 c-73 69 -200 151 -290 187
-129 51 -197 64 -357 63 -152 0 -239 -14 -342 -52 -107 -41 -178 -133 -157
-204 28 -98 143 -145 684 -282 143 -36 289 -75 325 -87 291 -95 489 -269 554
-487 10 -35 16 -91 16 -155 0 -84 -5 -114 -28 -181 -75 -215 -261 -369 -542
-449 -165 -47 -427 -66 -625 -47 -358 35 -656 156 -896 364 l-43 38 167 167
c126 126 170 164 180 157 8 -6 50 -37 93 -70 197 -150 448 -235 690 -235 247
0 433 63 491 165 26 46 30 113 9 154 -33 62 -142 136 -261 175 -27 9 -176 47
-330 85 -411 102 -564 155 -711 247 -86 53 -182 153 -218 226 -79 161 -67 359
30 519 42 70 153 176 231 221 235 138 594 194 943 147z m-1420 -759 c0 -466
-4 -787 -11 -847 -50 -450 -327 -707 -811 -755 -334 -32 -635 78 -853 313
l-57 62 163 163 162 162 39 -49 c83 -106 233 -197 359 -220 85 -15 190 -3 284
32 83 31 173 121 204 203 41 110 44 188 37 959 l-6 727 245 0 245 0 0 -750z"/>
</g>
</svg>
