<!DOCTYPE svg PUBLIC "-//W3C//DTD SVG 1.0//EN" "http://www.w3.org/TR/2001/REC-SVG-20010904/DTD/svg10.dtd">
<svg version="1.0" id="Layer_1" xmlns="http://www.w3.org/2000/svg" xmlns:xlink="http://www.w3.org/1999/xlink"
   x="0px"
   y="0px"
   width="300px"
   height="175px"
   viewBox="0 0 2194.7949 1155.719"
   enable-background="new 0 0 3000 3000"
   xml:space="preserve">
<path
   d="m 132.008,0 v 222.37296 c 0,46.829 16.821,70.24 50.474,70.24 14.351,0 26.528,-4.881 36.532,-14.648 9.999,-9.762 15.001,-21.586 15.001,-35.473 0,-14.35 -4.71,-26.412 -14.118,-36.179 -9.414,-9.762 -20.946,-14.648 -34.591,-14.648 -9.651,0 -20.709,4.236 -33.179,12.707 V 58.95 c 15.53,-1.412 27.294,-2.118 35.297,-2.118 49.646,0 92.179,17.88496 127.597,53.65096 35.412,35.771 53.121,78.833 53.121,129.185 0,51.533 -18.001,94.948 -54.004,130.244 -36.002,35.297 -80.244,52.945 -132.715,52.945 -26.356,0 -52.063,-5.769 -77.123,-17.295 -25.060999,-11.527 -45.709,-27.057 -61.945,-46.592 C 14.118,325.08596 0,281.20196 0,227.31396 V 0 h 132.008 z"
   id="path3013" />
<path
   d="m 880.669,0 v 222.37296 c 0,46.829 16.82,70.24 50.474,70.24 14.351,0 26.527,-4.881 36.532,-14.648 9.99803,-9.762 15.00103,-21.586 15.00103,-35.473 0,-14.35 -4.71,-26.412 -14.11903,-36.179 -9.414,-9.762 -20.946,-14.648 -34.591,-14.648 -9.651,0 -20.709,4.236 -33.179,12.707 V 58.95 c 15.531,-1.412 27.295,-2.118 35.297,-2.118 49.64603,0 92.18,17.88496 127.597,53.65096 35.413,35.771 53.122,78.833 53.122,129.185 0,51.533 -18.002,94.948 -54.004,130.244 -36.003,35.297 -80.24497,52.945 -132.715,52.945 -26.356,0 -52.063,-5.769 -77.123,-17.295 -25.061,-11.527 -45.709,-27.057 -61.945,-46.592 -28.237,-33.884 -42.356,-77.768 -42.356,-131.656 V 0 h 132.009 z"
   id="path3015" />
<path
   d="m 1173.276,565.16296 v -111.084 c 17.313,7.29 32.471,10.938 45.459,10.938 41.47,0 68.359,-23.36 80.664,-70.068 -22.335,13.218 -44.21,19.824 -65.625,19.824 -31.675,0 -57.764,-11.792 -78.271,-35.376 -20.507,-23.584 -30.762,-53.604 -30.762,-90.063 v -214.308 h 127.832 v 183.203 c 0,20.284 8.427,30.42 25.293,30.42 16.177,0 24.268,-11.162 24.268,-33.496 v -180.127 h 127.832 v 304.199 c 0,56.738 -15.952,102.539 -47.852,137.402 -38.058,41.47 -84.082,62.207 -138.086,62.207 -23.702,10e-4 -47.286,-4.56 -70.752,-13.671 z"
   id="path3017" />
<path
   d="m 1572.704,0 v 415.79796 h -132.01 V 0 h 132.01 z"
   id="path3019" />
<path
   d="m 2194.795,415.79796 h -132.01 v -198.72 c 0,-20.235 -8.354,-30.355 -25.061,-30.355 -16.473,0 -24.707,10.12 -24.707,30.355 v 198.72 h -132.009 v -196.249 c 0,-45.885 15.177,-84.535 45.532,-115.949 30.354,-31.41396 67.532,-47.12096 111.537,-47.12096 50.353,0 90.712,18.23796 121.067,54.70896 23.765,28.475 35.649,68.123 35.649,118.95 v 185.66 z"
   id="path3021" />
<path
   d="m 1827.319,540.92296 v 404.297 c 0,60.94004 -17.289,111.25604 -51.855,150.95204 -34.572,39.703 -78.373,59.547 -131.396,59.547 -15.531,0 -33.693,-3.371 -54.492,-10.107 V 972.906 c 8.789,3.811 16.844,5.713 24.17,5.713 23.436,0 35.156,-18.89604 35.156,-56.68904 v -381.006 h 178.417 z"
   id="path3023" />
<path
   d="m 2151.401,538.28696 v 170.947 c -12.896,-4.395 -22.852,-6.592 -29.883,-6.592 -13.479,0 -25.049,4.985 -34.717,14.941 -9.668,9.963 -14.502,21.973 -14.502,36.035 0,12.017 5.273,27.246 15.82,45.703 l 13.623,23.73 c 24.609,42.778 36.914,84.087 36.914,123.926 0,58.30304 -20.729,107.66704 -62.183,148.09604 -41.46,40.43 -92.065,60.645 -151.831,60.645 -28.715,0 -57.129,-6.592 -85.254,-19.775 V 962.35896 c 16.988,10.84204 32.08,16.26004 45.264,16.26004 15.525,0 28.488,-4.463 38.892,-13.40304 10.396,-8.934 15.601,-20.14 15.601,-33.618 0,-8.789 -8.35,-27.974 -25.049,-57.568 -26.662,-46.87 -39.99,-93.748 -39.99,-140.625 0,-56.539 20.139,-105.249 60.425,-146.118 40.278,-40.869 88.398,-61.304 144.36,-61.304 24.61,-0.001 48.78,4.105 72.51,12.304 z"
   id="path3025" />
<path
   d="m 610.133,482.56696 v -222.372 c 0,-46.829 -16.821,-70.24 -50.474,-70.24 -14.351,0 -26.528,4.881 -36.532,14.648 -9.999,9.762 -15.001,21.586 -15.001,35.473 0,14.35 4.71,26.412 14.118,36.179 9.414,9.762 20.946,14.648 34.591,14.648 9.651,0 20.709,-4.236 33.179,-12.707 v 145.422 c -15.53,1.412 -27.294,2.118 -35.297,2.118 -49.646,0 -92.179,-17.885 -127.597,-53.651 -35.412,-35.771 -53.121,-78.833 -53.121,-129.185 0,-51.533 18.001,-94.948 54.004,-130.244 36.002,-35.297 80.244,-52.94496 132.715,-52.94496 26.356,0 52.063,5.77 77.123,17.29496 25.061,11.527 45.709,27.057 61.945,46.592 28.237,33.884 42.355,77.768 42.355,131.656 v 227.314 H 610.133 z"
   id="path3027" />
<path
   d="m 1731.285,217.29896 c -80.05,0 -144.942,64.893 -144.942,144.941 0,80.049 64.893,144.942 144.942,144.942 80.048,0 144.942,-64.893 144.942,-144.942 0,-80.048 -64.894,-144.941 -144.942,-144.941 z m 0,257.674 c -62.26,0 -112.732,-50.472 -112.732,-112.732 0,-62.26 50.473,-112.732 112.732,-112.732 62.259,0 112.733,50.472 112.733,112.732 0,62.26 -50.473,112.732 -112.733,112.732 z"
   id="path3029" />
<path
   d="m 1786.809,299.22096 c 3.578,6.182 5.638,13.353 5.638,21.01 0,23.196 -18.804,42 -42,42 -23.196,0 -42,-18.804 -42,-42 0,-20.47 14.647,-37.511 34.032,-41.235 -3.665,-0.488 -7.396,-0.765 -11.194,-0.765 -46.396,0 -84.01,37.612 -84.01,84.01 0,46.397 37.613,84.009 84.01,84.009 46.397,0 84.01,-37.612 84.01,-84.009 0,-25.107 -11.028,-47.625 -28.486,-63.02 z"
   id="path3031" />
</svg>