<?xml version="1.0" encoding="utf-8"?>
<!-- Generator: Adobe Illustrator 16.0.3, SVG Export Plug-In . SVG Version: 6.00 Build 0)  -->
<!DOCTYPE svg PUBLIC "-//W3C//DTD SVG 1.0//EN" "http://www.w3.org/TR/2001/REC-SVG-20010904/DTD/svg10.dtd">
<svg version="1.0" id="Layer_1" xmlns="http://www.w3.org/2000/svg" xmlns:xlink="http://www.w3.org/1999/xlink" x="0px" y="0px"
	 width="100.5px" height="98px" viewBox="0 0 100.5 98" enable-background="new 0 0 100.5 98" xml:space="preserve">
<g>
	<circle fill="#FFFFFF" cx="50.376" cy="50.125" r="42.792"/>
	<path fill="#00AEEF" d="M50.376,9.334c-1.07,0-2.127,0.054-3.177,0.135c2.095,2.264,3.782,4.909,4.954,7.817
		c2.338-1.082,4.934-1.703,7.681-1.703c10.126,0,18.333,8.208,18.333,18.333S69.959,52.25,59.833,52.25
		c-5.662,0-10.722-2.569-14.085-6.603c-4.558,4.201-10.644,6.77-17.332,6.77c-7.249,0-13.789-3.02-18.444-7.864
		c-0.249,1.823-0.389,3.681-0.389,5.572c0,22.528,18.263,40.792,40.792,40.792c22.528,0,40.793-18.264,40.793-40.792
		S72.904,9.334,50.376,9.334z"/>
	<path fill="#50C7E4" d="M45.748,45.647c3.363,4.033,8.423,6.603,14.085,6.603c10.126,0,18.333-8.208,18.333-18.333
		s-8.207-18.333-18.333-18.333c-2.747,0-5.343,0.621-7.681,1.703C53.34,20.237,54,23.458,54,26.833
		C54,34.275,50.82,40.972,45.748,45.647z"/>
	<path fill="#066685" d="M28.417,52.417c6.688,0,12.773-2.568,17.332-6.77c-2.651-3.18-4.249-7.268-4.249-11.73
		c0-7.379,4.369-13.723,10.653-16.63c-1.172-2.909-2.859-5.553-4.954-7.817C28.011,10.949,12.55,25.694,9.973,44.553
		C14.628,49.397,21.167,52.417,28.417,52.417z"/>
	<path fill="#1EA3C1" d="M41.5,33.917c0,4.463,1.598,8.551,4.249,11.73C50.82,40.972,54,34.275,54,26.833
		c0-3.376-0.66-6.596-1.848-9.547C45.868,20.194,41.5,26.538,41.5,33.917z"/>
	<ellipse fill="#A5DFF9" cx="50" cy="76.667" rx="22.5" ry="11.147"/>
	<path d="M23.847,33.036"/>
	<polyline fill="#FFFFFF" stroke="#164579" stroke-linecap="round" stroke-miterlimit="10" points="50.318,69.793 77.568,34.125 
		64.629,34.098 54.787,48.131 54.787,24.5 45.787,24.5 45.787,48.068 35.944,34.036 23.005,34.063 50.255,69.73 	"/>
	<path fill="#FFFFFF" stroke="#164579" stroke-miterlimit="10" d="M50.311,69.803"/>
</g>
</svg>
