<?xml version="1.0" encoding="utf-8"?>
<!-- Generator: Adobe Illustrator 16.0.3, SVG Export Plug-In . SVG Version: 6.00 Build 0)  -->
<!DOCTYPE svg PUBLIC "-//W3C//DTD SVG 1.0//EN" "http://www.w3.org/TR/2001/REC-SVG-20010904/DTD/svg10.dtd">
<svg version="1.0" id="Layer_1" xmlns="http://www.w3.org/2000/svg" xmlns:xlink="http://www.w3.org/1999/xlink" x="0px" y="0px"
	 width="100px" height="134px" viewBox="0 0 100 134" enable-background="new 0 0 100 134" xml:space="preserve">
<g>
	<linearGradient id="SVGID_1_" gradientUnits="userSpaceOnUse" x1="49.7495" y1="122.9976" x2="49.7495" y2="75.334">
		<stop  offset="0.1201" style="stop-color:#003245"/>
		<stop  offset="0.2576" style="stop-color:#002331"/>
		<stop  offset="0.4801" style="stop-color:#001016"/>
		<stop  offset="0.6781" style="stop-color:#000406"/>
		<stop  offset="0.8303" style="stop-color:#000000"/>
	</linearGradient>
	<path fill="url(#SVGID_1_)" stroke="#000000" stroke-miterlimit="10" d="M50.167,76.633v-0.299l-24-1v44.833c0,0,0.667,3.833,4.5,2
		c3.321-1.588,15.515-7.176,18.718-8.643c0.967,0.443,15.74,7.204,19.448,8.977c3.833,1.833,4.5-2,4.5-2V75.668L50.167,76.633z"/>
	<circle fill="#FFFFFF" cx="50" cy="50.667" r="42.833"/>
	<path fill="#CE3749" d="M26.25,61.333c-1.648,0-3.257-0.17-4.811-0.492C20.52,63.133,20,65.629,20,68.25
		c0,11,8.917,19.917,19.917,19.917c11,0,19.917-8.917,19.917-19.917c0-8.624-5.492-15.946-13.16-18.716
		C42.597,56.585,34.98,61.333,26.25,61.333z"/>
	<path fill="#BE1E2D" d="M50.083,9.833c-6.937,0-13.465,1.738-19.182,4.794c10.796,2.16,18.932,11.69,18.932,23.123
		c0,4.294-1.153,8.316-3.159,11.784c7.667,2.77,13.16,10.092,13.16,18.716c0,11-8.917,19.917-19.917,19.917
		C28.917,88.167,20,79.25,20,68.25c0-2.621,0.52-5.117,1.439-7.409c-4.611-0.956-8.729-3.258-11.925-6.478
		c1.908,20.731,19.338,36.969,40.569,36.969c22.505,0,40.75-18.244,40.75-40.749C90.833,28.077,72.589,9.833,50.083,9.833z"/>
	<path fill="#E9442C" d="M21.437,60.84c2.942-7.327,10.1-12.507,18.479-12.506c2.376,0,4.644,0.438,6.757,1.202
		c2.006-3.468,3.16-7.49,3.16-11.784C49.834,26.32,41.7,16.789,30.904,14.627C18.07,21.487,9.334,35.011,9.332,50.581
		c0,1.275,0.066,2.535,0.181,3.78C12.708,57.581,16.826,59.883,21.437,60.84z"/>
	<path fill="#EA726C" d="M21.439,60.841c1.553,0.322,3.162,0.492,4.811,0.492c8.73,0,16.347-4.748,20.424-11.799
		c-2.113-0.764-4.381-1.201-6.757-1.201C31.538,48.333,24.381,53.513,21.439,60.841z"/>
	<g>
		<path fill="#FFFFFF" stroke="#63151E" stroke-miterlimit="10" d="M59.645,53.573c-0.262,0.26-1.953,0.586-2.082,0.846
			c-3.516,1.431-4.361,2.928-4.361,7.289v2.668H42.528v-3.385c0-8.915,3.775-12.82,11.063-15.619c0.131-0.195,1.236-0.39,1.432-0.52
			c3.123-1.171,4.686-2.343,4.686-4.491c0-2.733-3.97-4.75-7.809-4.75c-5.207,0-8.98,2.018-12.56,6.573l-8.005-7.224
			c5.792-6.052,12.3-8.916,20.565-8.916c10.152,0,19.068,5.531,19.068,14.317C70.968,47.456,65.695,51.1,59.645,53.573z
			 M47.865,80.061c-3.904,0-5.987-2.604-5.987-6.443s2.083-6.443,5.987-6.443c3.97,0,6.052,2.604,6.052,6.443
			S51.77,80.061,47.865,80.061z"/>
	</g>
</g>
</svg>
