<?xml version="1.0" encoding="utf-8"?>
<!-- Generator: Adobe Illustrator 24.0.2, SVG Export Plug-In . SVG Version: 6.00 Build 0)  -->
<svg version="1.1" xmlns="http://www.w3.org/2000/svg" xmlns:xlink="http://www.w3.org/1999/xlink" x="0px" y="0px"
	 viewBox="0 0 550 400" style="enable-background:new 0 0 550 400;" xml:space="preserve">
<style type="text/css">
	.st0{display:none;}
	.st1{display:inline;}
	.st2{fill:#201F2D;}
	.st3{fill:#C8C8C8;}
	.st4{fill:#45455B;}
	.st5{fill:#FFFFFF;}
</style>
<g id="Layer_2" class="st0">
	<g class="st1">
		
			<image style="overflow:visible;" width="161" height="118" xlink:href="1FE6C1CC.png"  transform="matrix(2.5088 0 0 2.5069 63 50)">
		</image>
	</g>
</g>
<g id="Layer_1">
	<rect class="st2" width="550" height="400"/>
	<g>
		<path class="st3" d="M416.4,248.6h-235c-2.8,0-5-2.2-5-5v-151c0-2.8,2.2-5,5-5h235c2.8,0,5,2.2,5,5v151
			C421.4,246.4,419.1,248.6,416.4,248.6z"/>
		<path class="st4" d="M411.4,229.5h-225c-1.1,0-2-0.9-2-2v-130c0-1.1,0.9-2,2-2h225c1.1,0,2,0.9,2,2v130
			C413.4,228.6,412.5,229.5,411.4,229.5z"/>
		<rect x="224" y="273.6" class="st3" width="153.9" height="9.9"/>
		<polygon class="st3" points="320.4,252.2 273.9,252.2 259.6,270 334.6,270 		"/>
	</g>
	<g>
		<path class="st5" d="M244.2,286.4h-153c-2.8,0-5-2.2-5-5v-111c0-2.8,2.2-5,5-5h153c2.8,0,5,2.2,5,5v111
			C249.2,284.2,246.9,286.4,244.2,286.4z"/>
		<path class="st4" d="M242.2,280.9h-149c-1.1,0-2-0.9-2-2v-106c0-1.1,0.9-2,2-2h149c1.1,0,2,0.9,2,2v106
			C244.2,280,243.3,280.9,242.2,280.9z"/>
		<path class="st5" d="M251.9,303H83.4c-5.2,0-9.5-4.3-9.5-9.5v-2.7h187.4v2.7C261.4,298.8,257.1,303,251.9,303z"/>
		<rect x="146.7" y="290.8" class="st4" width="41.9" height="5.8"/>
	</g>
	<g>
		<path class="st5" d="M442.4,191.7h-82.5c-1.7,0-3,1.3-3,3v113.2c0,1.7,1.3,3,3,3h82.5c1.7,0,3-1.3,3-3V194.7
			C445.4,193.1,444,191.7,442.4,191.7z"/>
		<rect x="360" y="195.2" class="st4" width="82.1" height="104.9"/>
		<g>
			<path class="st5" d="M336.5,315.3h-42.9c-1.7,0-3-1.3-3-3v-83.3c0-1.7,1.3-3,3-3h42.9c1.7,0,3,1.3,3,3v83.3
				C339.5,313.9,338.1,315.3,336.5,315.3z"/>
			<rect x="293.3" y="232" class="st4" width="43.5" height="70.4"/>
			<path class="st4" d="M318.7,230.1h-7.4c-0.6,0-1-0.4-1-1l0,0c0-0.6,0.4-1,1-1h7.4c0.6,0,1,0.4,1,1l0,0
				C319.7,229.7,319.3,230.1,318.7,230.1z"/>
			<circle class="st4" cx="315" cy="308.5" r="3.5"/>
			<circle class="st4" cx="401.1" cy="305.8" r="3.5"/>
		</g>
	</g>
</g>
</svg>
