<svg xmlns="http://www.w3.org/2000/svg" viewBox="0 0 550 400"><defs><style>.cls-1{fill:#565042;}.cls-2{fill:#6d675e;}.cls-3{fill:#847c6f;}.cls-4{fill:#777065;}.cls-5{fill:#91897d;}.cls-6{fill:#5f685d;}.cls-7{fill:#3f4c3e;}.cls-8{fill:#4b5649;}.cls-9{fill:#8e4f58;}.cls-10{fill:#6b2b2f;}.cls-11{fill:#7c3940;}.cls-12{fill:#656593;}.cls-13{fill:#534d7c;}.cls-14{fill:#5e5b89;}.cls-15{fill:#7698a8;}.cls-16{fill:#5b7b8e;}.cls-17{fill:#688a9b;}</style></defs><title>optimizedPackage</title><g id="background"><rect class="cls-1" width="550" height="400"/></g><g id="box"><polygon class="cls-2" points="408.43 289.22 285.73 357.99 163.04 289.22 285.73 220.45 408.43 289.22"/><polygon class="cls-3" points="163.04 289.22 285.73 220.45 285.73 104.02 163.04 172.78 163.04 289.22"/><polygon class="cls-4" points="285.73 357.99 163.04 289.22 163.04 172.78 285.73 241.55 285.73 357.99"/><polygon class="cls-4" points="408.43 289.22 285.73 220.45 285.73 104.02 408.43 172.78 408.43 289.22"/><polygon class="cls-3" points="285.73 357.99 408.43 289.22 408.43 172.78 285.73 241.55 285.73 357.99"/><polygon class="cls-5" points="227.15 274.39 104.46 205.62 163.04 172.78 285.73 241.55 227.15 274.39"/><polygon class="cls-3" points="408.43 172.78 285.73 104.02 344.31 71.18 467 139.95 408.43 172.78"/><polygon class="cls-5" points="340.02 271.98 462.71 203.21 408.43 172.78 285.73 241.55 340.02 271.98"/><polygon class="cls-3" points="163.04 172.78 285.73 104.02 231.44 73.59 108.75 142.35 163.04 172.78"/></g><g id="icon"><polygon class="cls-6" points="285.73 124.4 347.04 90.08 285.73 55.76 224.43 90.08 285.73 124.4"/><polygon class="cls-7" points="285.73 182.51 224.43 148.19 224.43 90.08 285.73 124.4 285.73 182.51"/><polygon class="cls-8" points="285.73 182.51 347.04 148.19 347.04 90.08 285.73 124.4 285.73 182.51"/><polygon class="cls-9" points="224.43 168.09 285.73 133.76 224.43 99.44 163.13 133.76 224.43 168.09"/><polygon class="cls-10" points="224.43 207.1 163.13 172.78 163.13 133.76 224.43 168.09 224.43 207.1"/><polygon class="cls-11" points="224.43 207.1 285.73 172.78 285.73 133.76 224.43 168.09 224.43 207.1"/><polygon class="cls-12" points="347.04 177.46 408.34 143.14 347.04 108.82 285.73 143.14 347.04 177.46"/><polygon class="cls-13" points="347.04 207.1 285.73 172.78 285.73 143.14 347.04 177.46 347.04 207.1"/><polygon class="cls-14" points="347.04 207.1 408.34 172.78 408.34 143.14 347.04 177.46 347.04 207.1"/><polygon class="cls-15" points="285.73 222.78 347.04 188.46 285.73 154.14 224.43 188.46 285.73 222.78"/><polygon class="cls-16" points="285.73 241.55 224.43 207.23 224.43 188.46 285.73 222.78 285.73 241.55"/><polygon class="cls-17" points="285.73 241.55 347.04 207.23 347.04 188.46 285.73 222.78 285.73 241.55"/></g></svg>