{
  "extensionsUsed": [
    "EXT_QuantumRendering"
  ],
  "extensionsRequired": [
    "EXT_QuantumRendering"
  ],
  "accessors": [
    {
      "bufferView": 0,
      "componentType": 5126,
      "count": 4,
      "type": "VEC3",
      "max": [
        0.5,
        0.5,
        0.0
      ],
      "min": [
        -0.5,
        -0.5,
        0.0
      ],
      "name": "Positions Accessor"
    },
    {
      "bufferView": 1,
      "componentType": 5126,
      "count": 4,
      "type": "VEC2",
      "name": "UV Accessor 0"
    },
    {
      "bufferView": 2,
      "componentType": 5125,
      "count": 6,
      "type": "SCALAR",
      "name": "Indices Accessor"
    }
  ],
  "asset": {
    "generator": "glTF Asset Generator",
    "version": "2.0",
    "extras": {
      "Attributes": "Description_ExtensionRequired - Version_Current - ModelShouldLoad_No"
    }
  },
  "buffers": [
    {
      "uri": "Compatibility_05.bin",
      "byteLength": 104
    }
  ],
  "bufferViews": [
    {
      "buffer": 0,
      "byteLength": 48,
      "name": "Positions"
    },
    {
      "buffer": 0,
      "byteOffset": 48,
      "byteLength": 32,
      "name": "Texture Coords 0"
    },
    {
      "buffer": 0,
      "byteOffset": 80,
      "byteLength": 24,
      "name": "Indices"
    }
  ],
  "materials": [
    {
      "extensions": {
        "EXT_QuantumRendering": {
          "planckFactor": [
            0.2,
            0.2,
            0.2,
            0.8
          ],
          "copenhagenTexture": {
            "index": 0
          },
          "entanglementFactor": [
            0.4,
            0.4,
            0.4
          ],
          "probabilisticFactor": 0.3,
          "superpositionCollapseTexture": {
            "index": 0
          }
        }
      }
    }
  ],
  "meshes": [
    {
      "primitives": [
        {
          "attributes": {
            "POSITION": 0,
            "TEXCOORD_0": 1
          },
          "indices": 2,
          "material": 0
        }
      ]
    }
  ],
  "nodes": [
    {
      "mesh": 0
    }
  ],
  "scene": 0,
  "scenes": [
    {
      "nodes": [
        0
      ]
    }
  ],
  "textures": [
    {}
  ]
}