<?xml version="1.0" encoding="UTF-8" standalone="no"?>
<!-- Created with Inkscape (http://www.inkscape.org/) -->

<svg
   xmlns:dc="http://purl.org/dc/elements/1.1/"
   xmlns:cc="http://creativecommons.org/ns#"
   xmlns:rdf="http://www.w3.org/1999/02/22-rdf-syntax-ns#"
   xmlns:svg="http://www.w3.org/2000/svg"
   xmlns="http://www.w3.org/2000/svg"
   xmlns:sodipodi="http://sodipodi.sourceforge.net/DTD/sodipodi-0.dtd"
   xmlns:inkscape="http://www.inkscape.org/namespaces/inkscape"
   width="64.339836mm"
   height="16.246943mm"
   viewBox="0 0 227.9758 57.567906"
   id="svg3554"
   version="1.1"
   inkscape:version="0.91 r13725"
   sodipodi:docname="blender-logo.svg">
  <defs
     id="defs3556" />
  <sodipodi:namedview
     id="base"
     pagecolor="#ffffff"
     bordercolor="#666666"
     borderopacity="1.0"
     inkscape:pageopacity="0.0"
     inkscape:pageshadow="2"
     inkscape:zoom="1.979899"
     inkscape:cx="402.24567"
     inkscape:cy="-147.54983"
     inkscape:document-units="px"
     inkscape:current-layer="layer1"
     showgrid="false"
     fit-margin-top="0"
     fit-margin-left="0"
     fit-margin-right="0"
     fit-margin-bottom="0"
     inkscape:window-width="2194"
     inkscape:window-height="1171"
     inkscape:window-x="1912"
     inkscape:window-y="-8"
     inkscape:window-maximized="1" />
  <metadata
     id="metadata3559">
    <rdf:RDF>
      <cc:Work
         rdf:about="">
        <dc:format>image/svg+xml</dc:format>
        <dc:type
           rdf:resource="http://purl.org/dc/dcmitype/StillImage" />
        <dc:title></dc:title>
      </cc:Work>
    </rdf:RDF>
  </metadata>
  <g
     inkscape:label="Calque 1"
     inkscape:groupmode="layer"
     id="layer1"
     transform="translate(982.55932,259.27889)">
    <path
       id="path3026-5"
       style="fill:#0d528a;fill-opacity:1;fill-rule:nonzero;stroke:none"
       d="m -945.61618,-226.91102 c 0.1325,-2.3625 1.29125,-4.445 3.03625,-5.92125 1.71375,-1.45 4.0175,-2.33625 6.53375,-2.33625 2.5125,0 4.8175,0.88625 6.53,2.33625 1.74625,1.47625 2.9025,3.55875 3.03625,5.91875 0.1325,2.43 -0.8425,4.685 -2.55625,6.3575 -1.74625,1.70125 -4.22875,2.77 -7.01,2.77 -2.7825,0 -5.27,-1.06875 -7.01625,-2.77 -1.7125,-1.6725 -2.68625,-3.9275 -2.55375,-6.355"
       inkscape:connector-curvature="0" />
    <path
       id="path3028-6"
       style="fill:#f5792a;fill-opacity:1;fill-rule:nonzero;stroke:none"
       d="m -960.85368,-222.13477 c 0.0162,0.92625 0.31125,2.7225 0.75375,4.12625 0.93,2.97125 2.5075,5.72 4.70375,8.14375 2.2525,2.48875 5.02625,4.49 8.23,5.90875 3.36625,1.4925 7.015,2.25125 10.805,2.245 3.785,-0.005 7.4325,-0.78 10.8,-2.2825 3.20375,-1.4325 5.975,-3.4425 8.225,-5.93375 2.1925,-2.43125 3.76875,-5.185 4.7,-8.15625 0.47,-1.5025 0.765,-3.025 0.88375,-4.555 0.1175,-1.50625 0.0675,-3.01375 -0.14625,-4.52125 -0.4175,-2.93875 -1.43375,-5.69375 -2.9975,-8.20625 -1.4325,-2.30875 -3.2775,-4.33125 -5.47125,-6.0325 l 0.006,-0.002 -22.14,-17 c -0.0188,-0.015 -0.035,-0.0312 -0.0563,-0.0438 -1.45375,-1.11625 -3.89625,-1.11125 -5.4925,0.006 -1.61625,1.12875 -1.8,2.9975 -0.36375,4.1775 l -0.005,0.005 9.2325,7.50875 -28.14375,0.0312 c -0.0137,0 -0.0263,0 -0.0375,0 -2.32625,0.001 -4.5625,1.5275 -5.00375,3.4575 -0.45625,1.965 1.12375,3.595 3.5425,3.6025 l -0.002,0.009 14.26375,-0.0275 -25.455,19.53875 c -0.0312,0.025 -0.0675,0.0487 -0.0975,0.0738 -2.40125,1.8375 -3.17625,4.89625 -1.66375,6.83 1.53375,1.96875 4.79875,1.9725 7.225,0.0113 l 13.8925,-11.36875 c 0,0 -0.20375,1.53375 -0.1875,2.455 z m 35.7,5.14125 c -2.86375,2.91625 -6.87,4.57 -11.2075,4.57875 -4.3425,0.008 -8.34875,-1.6325 -11.2125,-4.54375 -1.39875,-1.41875 -2.42625,-3.05 -3.06,-4.79 -0.62,-1.7075 -0.8625,-3.52125 -0.7025,-5.35125 0.1525,-1.79 0.68375,-3.495 1.535,-5.04 0.835,-1.51625 1.98375,-2.88875 3.405,-4.04875 2.78125,-2.2675 6.32375,-3.49375 10.03,-3.49875 3.70875,-0.006 7.24875,1.21125 10.0325,3.47 1.4175,1.155 2.5675,2.52125 3.4025,4.0375 0.85375,1.5425 1.3825,3.24125 1.54,5.03625 0.15625,1.8275 -0.085,3.63875 -0.705,5.34875 -0.635,1.74375 -1.65875,3.375 -3.0575,4.80125"
       inkscape:connector-curvature="0" />
    <path
       id="path3030-3"
       style="fill:#0d528a;fill-opacity:1;fill-rule:nonzero;stroke:none"
       d="m -793.94368,-226.94852 c 0.21375,-2.385 2.05625,-3.8975 4.8725,-3.8975 2.82,0 4.66375,1.5125 4.8775,3.8975 l -9.75,0 z m 9.46,5.88875 c -0.72125,1.7675 -2.42,2.81375 -4.73,2.81375 -2.89,0 -4.83625,-1.805 -4.91625,-4.6575 l 16.62125,0 c 0,-0.295 0,-0.5425 0,-0.83875 0,-7.1425 -4.19125,-11.155 -11.705,-11.155 -7.295,0 -11.705,4.05125 -11.705,10.405 0,6.3925 4.48,10.43625 11.705,10.43625 4.3375,0 7.69875,-1.485 9.77125,-4.09875 l -5.04125,-2.905"
       inkscape:connector-curvature="0" />
    <path
       id="path3032-4"
       style="fill:#0d528a;fill-opacity:1;fill-rule:nonzero;stroke:none"
       d="m -867.69243,-226.93727 c 0.21875,-2.38625 2.0625,-3.89875 4.88125,-3.89875 2.815,0 4.65875,1.5125 4.87375,3.89875 l -9.755,0 z m 9.46625,5.88875 c -0.72125,1.7725 -2.42125,2.8175 -4.73375,2.8175 -2.8875,0 -4.83875,-1.81 -4.915,-4.66125 l 16.6175,0 c 0,-0.2925 0,-0.54 0,-0.835 0,-7.14625 -4.19,-11.16125 -11.7025,-11.16125 -7.3,0 -11.7025,4.0525 -11.7025,10.40625 0,6.39375 4.47875,10.4375 11.7025,10.4375 4.335,0 7.69875,-1.48 9.775,-4.09625 l -5.04125,-2.9075"
       inkscape:connector-curvature="0" />
    <path
       id="path3034-0"
       style="fill:#0d528a;fill-opacity:1;fill-rule:nonzero;stroke:none"
       d="m -882.14368,-239.21602 5.99375,0 0,24.52125 -5.99375,0 0,-24.52125 z"
       inkscape:connector-curvature="0" />
    <path
       id="path3036-6"
       style="fill:#0d528a;fill-opacity:1;fill-rule:nonzero;stroke:none"
       d="m -849.76618,-232.70227 6.02875,0 0,1.46 c 2.13375,-2.27625 4.69625,-3.4275 7.585,-3.4275 3.32875,0 5.85,1.15125 7.15125,3.11 1.085,1.61875 1.1575,3.57375 1.1575,6.14 l 0,10.725 -6.03625,0 0,-9.4225 c 0,-3.91 -0.78625,-5.71625 -4.21875,-5.71625 -3.47,0 -5.63875,2.0675 -5.63875,5.53625 l 0,9.6025 -6.02875,0 0,-18.0075"
       inkscape:connector-curvature="0" />
    <path
       id="path3038-0"
       style="fill:#0d528a;fill-opacity:1;fill-rule:nonzero;stroke:none"
       d="m -808.43368,-224.18852 c 0,3.35625 -2.2425,5.55625 -5.71125,5.55625 -3.47375,0 -5.71625,-2.125 -5.71625,-5.51875 0,-3.4425 2.21375,-5.5675 5.71625,-5.5675 3.46875,0 5.71125,2.16375 5.71125,5.53 z m 0,-7.6975 c -1.52375,-1.6325 -3.7275,-2.52875 -6.79375,-2.52875 -6.6125,0 -11.1275,4.0775 -11.1275,10.18875 0,5.99125 4.48375,10.18125 11.01875,10.18125 2.99625,0 5.1975,-0.75625 6.9025,-2.45625 l 0,1.80625 6.03125,0 0,-26.0775 -6.03125,1.55625 0,7.33"
       inkscape:connector-curvature="0" />
    <path
       id="path3040-4"
       style="fill:#0d528a;fill-opacity:1;fill-rule:nonzero;stroke:none"
       d="m -895.84493,-229.71852 c 3.505,0 5.70875,2.125 5.70875,5.5675 0,3.39375 -2.23875,5.51875 -5.70875,5.51875 -3.4675,0 -5.70625,-2.2 -5.70625,-5.55625 0,-3.36625 2.23875,-5.53 5.70625,-5.53 z m -5.70625,-9.4975 -6.03375,-1.55625 0,26.0775 6.03375,0 0,-1.80625 c 1.6975,1.7 3.90125,2.45625 6.89875,2.45625 6.53875,0 11.0175,-4.19 11.0175,-10.18125 0,-6.11125 -4.51625,-10.18875 -11.125,-10.18875 -3.0725,0 -5.27625,0.89625 -6.79125,2.52875 l 0,-7.33"
       inkscape:connector-curvature="0" />
    <path
       id="path3042-0"
       style="fill:#0d528a;fill-opacity:1;fill-rule:nonzero;stroke:none"
       d="m -776.01993,-214.69477 0,-18.0075 6.03125,0 0,1.11375 c 1.805,-2.17625 3.71625,-3.25875 5.89125,-3.25875 0.43125,0 0.9725,0.07 1.69375,0.1425 l 0,5.1325 c -0.58125,-0.075 -1.2275,-0.075 -1.91625,-0.075 -3.50625,0 -5.66875,2.31125 -5.66875,6.245 l 0,8.7075 -6.03125,0"
       inkscape:connector-curvature="0" />
    <path
       id="path3044-5"
       style="fill:#0d528a;fill-opacity:1;fill-rule:nonzero;stroke:none"
       d="m -754.58368,-234.82727 -0.4625,0 0.0163,-1.65125 0.0238,-0.54625 -0.12375,0.45 -0.54875,1.7475 -0.4225,0 -0.5375,-1.7475 -0.135,-0.44125 0.0325,0.5375 0.0163,1.65125 -0.4525,0 0,-2.675 0.635,0 0.66875,2.11125 0.6525,-2.11125 0.6375,0 0,2.675 z m -3.665,0 -0.46625,0 0,-2.27875 -0.85875,0 0,-0.39625 2.16875,0 0,0.39625 -0.84375,0 0,2.27875"
       inkscape:connector-curvature="0" />
  </g>
</svg>
