<?xml version="1.0" encoding="utf-8"?>
<!-- Generator: Adobe Illustrator 21.0.2, SVG Export Plug-In . SVG Version: 6.00 Build 0)  -->
<svg version="1.1" id="Layer_1" xmlns="http://www.w3.org/2000/svg" xmlns:xlink="http://www.w3.org/1999/xlink" x="0px" y="0px"
	 viewBox="0 0 571 346.7" style="enable-background:new 0 0 571 346.7;" xml:space="preserve">
<style type="text/css">
	.st0{fill:url(#SVGID_1_);}
	.st1{fill:#F69332;}
	.st2{fill:#F26F54;}
	.st3{fill:#EE4D7A;}
	.st4{fill:#A066A9;}
	.st5{fill:#4F72B7;}
	.st6{fill:#0B97AC;}
	.st7{fill:#00B199;}
	.st8{fill:#6DB981;}
	.st9{fill:#C54033;}
	.st10{fill:#00718F;}
	.st11{fill:url(#SVGID_2_);}
	.st12{fill:#007D81;}
	.st13{fill:url(#SVGID_3_);}
	.st14{fill:url(#SVGID_4_);}
	.st15{fill:url(#SVGID_5_);}
	.st16{fill:url(#SVGID_6_);}
	.st17{fill:url(#SVGID_7_);}
	.st18{fill:url(#SVGID_8_);}
	.st19{fill:url(#SVGID_9_);}
	.st20{fill:url(#SVGID_10_);}
	.st21{fill:url(#SVGID_11_);}
	.st22{fill:url(#SVGID_12_);}
	.st23{fill:url(#SVGID_13_);}
	.st24{fill:url(#SVGID_14_);}
	.st25{fill:url(#SVGID_15_);}
	.st26{fill:#C12C4F;}
	.st27{fill:url(#SVGID_16_);}
	.st28{fill:url(#SVGID_17_);}
	.st29{fill:url(#SVGID_18_);}
	.st30{fill:#2C9570;}
	.st31{fill:url(#SVGID_19_);}
	.st32{fill:#483A86;}
	.st33{fill:url(#SVGID_20_);}
	.st34{fill:url(#SVGID_21_);}
	.st35{fill:url(#SVGID_22_);}
</style>
<linearGradient id="SVGID_1_" gradientUnits="userSpaceOnUse" x1="208.1352" y1="-89.3414" x2="214.9389" y2="-89.3414" gradientTransform="matrix(1 0 0 1 0 166)">
	<stop  offset="0" style="stop-color:#72B08F"/>
	<stop  offset="1" style="stop-color:#6DB981"/>
</linearGradient>
<path class="st0" d="M213.3,74.5c-0.5-0.2-0.8-0.3-0.8-0.3c-0.4-0.2-0.8-0.3-1.2-0.5c-1.1,1.4-2.2,2.9-3.2,4.4
	c0.8,0.3,1.6,0.6,2.3,1c0,0,0.3,0.1,0.8,0.3h0.1c1.3,0.6,2.9-0.1,3.4-1.4C215.3,76.6,214.7,75,213.3,74.5z"/>
<path class="st1" d="M488.1,89.9c-2.2-3.9-2.2-4.6,0-8.5c0.6-1.1,0.4-2.5-0.5-3.4s-2.3-1.1-3.4-0.5c-3.9,2.2-4.6,2.2-8.5,0
	c-1.1-0.6-2.5-0.4-3.4,0.5s-1.1,2.3-0.5,3.4c2.2,3.9,2.2,4.6,0,8.5c-0.6,1.1-0.4,2.5,0.5,3.4c0.5,0.5,1.3,0.8,2,0.8
	c0.5,0,1-0.1,1.4-0.4c3.9-2.2,4.6-2.2,8.5,0c1.1,0.6,2.5,0.4,3.4-0.5C488.5,92.4,488.7,91.1,488.1,89.9z"/>
<path class="st2" d="M443.2,63.4c-3.3-1-3.5-1.2-4.3-4.5c-0.3-1.2-1.4-2.1-2.7-2.1c-1.3,0-2.4,0.8-2.8,2c-1,3.3-1.2,3.5-4.5,4.3
	c-1.2,0.3-2.1,1.4-2.1,2.7s0.8,2.4,2,2.8c3.3,1,3.5,1.2,4.3,4.5c0.3,1.2,1.4,2.1,2.7,2.1c0,0,0,0,0.1,0c1.3,0,2.4-0.8,2.7-2
	c1-3.3,1.2-3.5,4.5-4.3c1.2-0.3,2.1-1.4,2.1-2.7C445.2,64.9,444.4,63.8,443.2,63.4z"/>
<path class="st3" d="M113.9,154.9c-1.7-3-1.7-3.3,0-6.2c0.6-1.1,0.4-2.5-0.5-3.4s-2.3-1.1-3.4-0.5c-3,1.7-3.3,1.7-6.2,0
	c-1.1-0.6-2.5-0.4-3.4,0.5s-1.1,2.3-0.5,3.4c1.7,3,1.7,3.3,0,6.2c-0.6,1.1-0.4,2.5,0.5,3.4c0.5,0.5,1.3,0.8,2,0.8
	c0.5,0,1-0.1,1.4-0.4c3-1.7,3.3-1.7,6.2,0c1.1,0.6,2.5,0.4,3.4-0.5C114.3,157.4,114.5,156,113.9,154.9z"/>
<path class="st1" d="M79.8,179.4c-5.4-1.5-6.1-2.2-7.6-7.6c-0.3-1.2-1.5-2.1-2.7-2.1l0,0c-1.3,0-2.4,0.9-2.7,2.1
	c-1.5,5.4-2.2,6.1-7.6,7.6c-1.2,0.3-2.1,1.5-2.1,2.7c0,1.3,0.9,2.4,2.1,2.7c5.4,1.5,6.1,2.2,7.6,7.6c0.3,1.2,1.5,2.1,2.7,2.1l0,0
	c1.3,0,2.4-0.9,2.7-2.1c1.5-5.4,2.2-6.1,7.6-7.6c1.2-0.3,2.1-1.5,2.1-2.7C81.9,180.8,81.1,179.7,79.8,179.4z"/>
<path class="st1" d="M39.4,328.8c0,9.5-8,17.3-17.6,17.3h-5.2c-9,0-16.6-7.2-16.6-16.4v-35.9c0-1.4,0.8-2.2,2.2-2.2h4.6
	c2.1,0,2.2,1.3,2.2,2.7v35.5c0,4.2,3.5,7.5,7.6,7.5h5.2c4.7,0,8.6-3.7,8.6-8.4v-34.6c0-1.4,0.1-2.7,2.2-2.7h4.5
	c1.5,0,2.2,0.8,2.2,2.2L39.4,328.8L39.4,328.8z"/>
<path class="st2" d="M122.4,343.9c0,1.1-1,2.2-2.2,2.2h-4.6c-0.9,0-1.5-0.3-1.9-1c-8.2-12.2-15.3-22.7-23.7-35.1v34
	c0,1.1-1,2.2-2.2,2.2H83c-1.3,0-2-1.1-2-2.2l-0.1-50.2c0-1.1,0.9-2.2,2.2-2.2h5c0.8,0,1.4,0.3,1.8,1.1v-0.1l23.4,35.2v-34
	c0-1.1,1-2.2,2.2-2.2h4.6c1.3,0,2.2,1.1,2.2,2.2v50.1H122.4z"/>
<path class="st3" d="M173,343.9c0,1.1-1,2.2-2.2,2.2h-4.6c-1.3,0-2-1.1-2-2.2l-0.1-50.2c0-1.1,0.9-2.2,2.2-2.2h4.6
	c1.3,0,2.2,1.1,2.2,2.2L173,343.9L173,343.9z"/>
<path class="st4" d="M255.5,301.4l-7.3,20.2l-7,19.4l-1.2,3.2c-0.5,1.1-0.8,1.8-2.2,1.8h-6c-1.6,0-1.9-0.8-2.2-1.7l-4.7-13.6
	c-4.3-12.3-8-23.7-13-35.9c-0.3-0.5-0.3-1-0.3-1.2c0-1.4,0.8-2.2,2.2-2.2h5.3c1.4,0,1.7,0.9,2.2,1.8l13.4,39.7l13.3-39.7l-0.1,0.4
	c0-0.2,0.1-0.2,0.1-0.3c0.4-1.3,1.2-1.9,2.2-1.9h5.4c1.1,0,2.2,1.1,2.2,2.2C257.9,293.9,257.1,297,255.5,301.4z"/>
<path class="st5" d="M299,346.1c-1.3,0-2.2-0.9-2.2-2.2l-0.1-50.2c0-1.3,1-2.2,2.3-2.2h32.9c2.3,0,2.3,1.3,2.3,2.7v3.7
	c0,2.5-0.3,2.7-2.7,2.7h-25.6v12.1h22.7c1.3,0,2.2,1,2.2,2.2v4.6c0,1.3-0.9,2.3-2.2,2.3h-22.7V337h26.5c2.4,0,2.7,0.2,2.7,2.7v3.7
	c0,1.4,0,2.7-2.2,2.7L299,346.1L299,346.1z"/>
<path class="st6" d="M401,291.6c6.1,0,11.5,5.4,11.5,11.6c0,5.2-2.8,8.2-6.7,10.8c1.4,3.8,2.8,7.4,4.2,11.2c2.2,6,4.4,12.1,6.8,18.1
	c0.8,1.8-0.3,2.8-2.1,2.8h-5.2c-1.4,0-1.8-0.8-2.2-1.7l-9.8-26c-4.7,2.5-8.9,4.8-13.8,7.3v17.7c0,1.4-0.1,2.7-2.2,2.7h-4.8
	c-1.3,0-2.1-1.1-2.1-2.2l-0.1-50.2c0-1.1,1-2.2,2.3-2.2H401V291.6z M383.7,300.6v14.9c5.4-2.7,17.5-8.7,19-10.9v0.1
	c0.3-0.4,0.4-0.9,0.4-1.4c0-1.4-1.1-2.6-2.7-2.6h-16.7L383.7,300.6L383.7,300.6z"/>
<path class="st7" d="M487.6,342.8c-3.1,2.7-7.4,3.9-12.3,3.9h-5.2c-5.9,0-11.2-3-14.2-7.7c-1-1.5-1.6-3-1.9-4.4
	c-0.5-2.8-0.5-4-0.5-5.5v0.1c0-1.4,0.1-2.7,2.2-2.7h4.6c1.1,0,1.8,0.5,2,1.6c0.3,0.9,0.2,1.1,0.2,2.2c0,0.3,0.1,1,0.1,1.8
	c0.8,3.3,3.8,5.8,7.4,5.8h5.2c4.1,0,7.6-2.3,8.2-5.9c0.1-0.5,0.1-0.9,0.1-1.4c0.1-0.9,0.1-2.9-1-4c-1.9-1.6-6.1-2.3-11-3.5
	c-8.7-2-18.1-4.6-18.1-13.8v-1c0-1.4-0.1-2.9,0.4-4.7l-0.1,0.1c1.4-7.6,8.5-13.1,16.2-13.1h5.2c4.1,0,8,1.5,11,4
	c3.1,2.5,5,7.2,4.8,12.4c-0.1,1.4-0.1,2.7-2.2,2.7h-4.5c-1.3,0-2.1-1.1-2.2-2.2c-0.2-5.8-2.6-8-7-8h-5.2c-3.5,0-6.7,2.5-7.4,6v-0.1
	c-0.2,1.2-0.6,3.2,1.1,4.9c0.9,0.9,1.9,1.5,2.9,1.8l7.8,2.2c4.1,1.2,7,1.9,8.7,2.5c1.8,0.6,3.4,1.4,4.8,2.3c2.8,1.9,4.8,5.2,4.8,9.8
	C492.8,334.4,490.7,340.1,487.6,342.8z"/>
<path class="st8" d="M534.9,346.1c-1.3,0-2.2-0.9-2.2-2.2l-0.1-50.2c0-1.3,1-2.2,2.3-2.2h32.9c2.3,0,2.3,1.3,2.3,2.7v3.7
	c0,2.5-0.3,2.7-2.7,2.7h-25.6v12.1h22.7c1.3,0,2.2,1,2.2,2.2v4.6c0,1.3-0.9,2.3-2.2,2.3h-22.7V337h26.5c2.4,0,2.7,0.2,2.7,2.7v3.7
	c0,1.4,0,2.7-2.2,2.7L534.9,346.1L534.9,346.1z"/>
<path class="st9" d="M187,201.2c2.5-0.9,5-1.9,7.5-2.9c-1.3-1.3-2.6-2.7-3.9-4.1c-2.4,1-4.9,1.9-7.4,2.7
	C184.8,199.7,186.6,200.9,187,201.2z"/>
<path class="st10" d="M168.7,71.6c-0.5,1.2-1,2.5-1.5,3.8c2.2,0,4.4,0.7,5.3,0.9c0.3-0.9,0.7-1.8,1.1-2.7c0.9-2.1,1.8-4.1,2.7-6.1
	c-1.8-0.5-3.5-0.9-5.2-1.3C170.3,68,169.5,69.8,168.7,71.6z"/>
<linearGradient id="SVGID_2_" gradientUnits="userSpaceOnUse" x1="338.5247" y1="-52.25" x2="342.0264" y2="-52.25" gradientTransform="matrix(1 0 0 1 0 166)">
	<stop  offset="0" style="stop-color:#0B97AC"/>
	<stop  offset="1" style="stop-color:#68AB96"/>
</linearGradient>
<path class="st11" d="M339.3,111.2c0,0-0.3,0.1-0.8,0.2c0.2,0.9,0.3,1.3,0.3,1.3c0.1,0.4,0.2,0.9,0.3,1.3c0.1,0.4,0.2,0.9,0.3,1.3
	c0,0,0.1,0.4,0.3,1.3c0.6-0.1,0.9-0.2,0.9-0.2c0.5-0.1,1-0.2,1.5-0.4c-0.4-1.6-0.8-3.3-1.1-5.1C340.4,110.9,339.9,111,339.3,111.2z"
	/>
<path class="st12" d="M340.9,110.8c0.4,1.8,0.7,3.5,1.1,5.1c1.2-0.3,2.3-0.6,3.5-1c-0.4-1.6-0.8-4.3-1-5.2
	C343.3,110.1,342.1,110.5,340.9,110.8z"/>
<linearGradient id="SVGID_3_" gradientUnits="userSpaceOnUse" x1="190.5706" y1="25.3" x2="216.0363" y2="25.3" gradientTransform="matrix(1 0 0 1 0 166)">
	<stop  offset="0" style="stop-color:#F27354"/>
	<stop  offset="1" style="stop-color:#F68D39"/>
</linearGradient>
<path class="st13" d="M211.5,184.3c-2.6,1.2-5.2,2.5-7.7,3.8l0,0c-4.3,2.2-8.7,4.3-13.2,6.1c1.3,1.4,2.6,2.8,3.9,4.1
	c4-1.7,7.9-3.6,11.7-5.5l0,0c3.2-1.7,6.5-3.3,9.8-4.8C213.3,186.9,211.9,185,211.5,184.3z"/>
<linearGradient id="SVGID_4_" gradientUnits="userSpaceOnUse" x1="218.3711" y1="16.2811" x2="225.5464" y2="16.2811" gradientTransform="matrix(1 0 0 1 0 166)">
	<stop  offset="0" style="stop-color:#F27354"/>
	<stop  offset="1" style="stop-color:#F68D39"/>
</linearGradient>
<path class="st14" d="M225.3,181.1c-0.5-1.2-1.8-1.8-3-1.6l0,0c-0.3,0.1-0.4,0.2-0.4,0.2l-0.1,0.1c-0.1,0-0.2,0.1-0.3,0.1
	c-1.1,0.4-2.1,0.9-3.1,1.4c1.4,1.3,2.9,2.6,4.4,3.8c0.2-0.1,0.5-0.2,0.7-0.3c0.1-0.1,0.3-0.1,0.4-0.2c0,0,0.1-0.1,0.4-0.2l0,0
	C225.4,183.6,225.8,182.3,225.3,181.1z"/>
<path class="st9" d="M211.5,184.3c0.4,0.7,1.7,2.6,4.5,3.7c2.2-1,4.5-2,6.8-3c-1.5-1.2-3-2.5-4.4-3.8
	C216.1,182.2,213.8,183.2,211.5,184.3z"/>
<linearGradient id="SVGID_5_" gradientUnits="userSpaceOnUse" x1="288.5" y1="62.1" x2="288.5" y2="62.1" gradientTransform="matrix(1 0 0 1 0 166)">
	<stop  offset="1.129295e-03" style="stop-color:#4F72B7"/>
	<stop  offset="7.714172e-02" style="stop-color:#6A6EB2"/>
	<stop  offset="0.1646" style="stop-color:#826AAE"/>
	<stop  offset="0.2577" style="stop-color:#9368AB"/>
	<stop  offset="0.3595" style="stop-color:#9D66AA"/>
	<stop  offset="0.4862" style="stop-color:#A066A9"/>
	<stop  offset="1" style="stop-color:#4F72B7"/>
</linearGradient>
<path class="st15" d="M288.5,228.1L288.5,228.1L288.5,228.1L288.5,228.1L288.5,228.1L288.5,228.1z"/>
<linearGradient id="SVGID_6_" gradientUnits="userSpaceOnUse" x1="293.5634" y1="64" x2="293.672" y2="64" gradientTransform="matrix(1 0 0 1 0 166)">
	<stop  offset="1.129295e-03" style="stop-color:#4F72B7"/>
	<stop  offset="7.714172e-02" style="stop-color:#6A6EB2"/>
	<stop  offset="0.1646" style="stop-color:#826AAE"/>
	<stop  offset="0.2577" style="stop-color:#9368AB"/>
	<stop  offset="0.3595" style="stop-color:#9D66AA"/>
	<stop  offset="0.4862" style="stop-color:#A066A9"/>
	<stop  offset="1" style="stop-color:#4F72B7"/>
</linearGradient>
<path class="st16" d="M293.6,230.2c0-0.2,0-0.3,0.1-0.4c0,0,0,0,0-0.1c0,0.2-0.1,0.4-0.1,0.6V230.2z"/>
<linearGradient id="SVGID_7_" gradientUnits="userSpaceOnUse" x1="347" y1="-36.4" x2="347" y2="-36.4" gradientTransform="matrix(1 0 0 1 0 166)">
	<stop  offset="1.129295e-03" style="stop-color:#4F72B7"/>
	<stop  offset="7.714172e-02" style="stop-color:#6A6EB2"/>
	<stop  offset="0.1646" style="stop-color:#826AAE"/>
	<stop  offset="0.2577" style="stop-color:#9368AB"/>
	<stop  offset="0.3595" style="stop-color:#9D66AA"/>
	<stop  offset="0.4862" style="stop-color:#A066A9"/>
	<stop  offset="1" style="stop-color:#4F72B7"/>
</linearGradient>
<path class="st17" d="M347,129.6L347,129.6L347,129.6z"/>
<linearGradient id="SVGID_8_" gradientUnits="userSpaceOnUse" x1="220.5" y1="-102.1" x2="220.5" y2="-102.1" gradientTransform="matrix(1 0 0 1 0 166)">
	<stop  offset="1.129295e-03" style="stop-color:#4F72B7"/>
	<stop  offset="7.714172e-02" style="stop-color:#6A6EB2"/>
	<stop  offset="0.1646" style="stop-color:#826AAE"/>
	<stop  offset="0.2577" style="stop-color:#9368AB"/>
	<stop  offset="0.3595" style="stop-color:#9D66AA"/>
	<stop  offset="0.4862" style="stop-color:#A066A9"/>
	<stop  offset="1" style="stop-color:#4F72B7"/>
</linearGradient>
<path class="st18" d="M220.5,63.9L220.5,63.9L220.5,63.9L220.5,63.9L220.5,63.9L220.5,63.9L220.5,63.9L220.5,63.9L220.5,63.9z"/>
<linearGradient id="SVGID_9_" gradientUnits="userSpaceOnUse" x1="263.6" y1="35.8" x2="263.6" y2="35.8" gradientTransform="matrix(1 0 0 1 0 166)">
	<stop  offset="1.129295e-03" style="stop-color:#4F72B7"/>
	<stop  offset="7.714172e-02" style="stop-color:#6A6EB2"/>
	<stop  offset="0.1646" style="stop-color:#826AAE"/>
	<stop  offset="0.2577" style="stop-color:#9368AB"/>
	<stop  offset="0.3595" style="stop-color:#9D66AA"/>
	<stop  offset="0.4862" style="stop-color:#A066A9"/>
	<stop  offset="1" style="stop-color:#4F72B7"/>
</linearGradient>
<path class="st19" d="M263.6,201.8L263.6,201.8L263.6,201.8z"/>
<linearGradient id="SVGID_10_" gradientUnits="userSpaceOnUse" x1="293.5556" y1="64" x2="293.6723" y2="64" gradientTransform="matrix(1 0 0 1 0 166)">
	<stop  offset="1.129295e-03" style="stop-color:#4F72B7"/>
	<stop  offset="7.714172e-02" style="stop-color:#6A6EB2"/>
	<stop  offset="0.1646" style="stop-color:#826AAE"/>
	<stop  offset="0.2577" style="stop-color:#9368AB"/>
	<stop  offset="0.3595" style="stop-color:#9D66AA"/>
	<stop  offset="0.4862" style="stop-color:#A066A9"/>
	<stop  offset="1" style="stop-color:#4F72B7"/>
</linearGradient>
<path class="st20" d="M293.6,230.3c0.1-0.2,0.1-0.4,0.1-0.6l0,0C293.6,229.9,293.6,230.1,293.6,230.3L293.6,230.3z"/>
<linearGradient id="SVGID_11_" gradientUnits="userSpaceOnUse" x1="293.5491" y1="64.3625" x2="293.5634" y2="64.3625" gradientTransform="matrix(1 0 0 1 0 166)">
	<stop  offset="1.129295e-03" style="stop-color:#4F72B7"/>
	<stop  offset="7.714172e-02" style="stop-color:#6A6EB2"/>
	<stop  offset="0.1646" style="stop-color:#826AAE"/>
	<stop  offset="0.2577" style="stop-color:#9368AB"/>
	<stop  offset="0.3595" style="stop-color:#9D66AA"/>
	<stop  offset="0.4862" style="stop-color:#A066A9"/>
	<stop  offset="1" style="stop-color:#4F72B7"/>
</linearGradient>
<path class="st21" d="M293.5,230.4C293.5,230.4,293.6,230.3,293.5,230.4C293.6,230.3,293.6,230.3,293.5,230.4
	C293.6,230.3,293.6,230.4,293.5,230.4z"/>
<linearGradient id="SVGID_12_" gradientUnits="userSpaceOnUse" x1="293.7" y1="63.6375" x2="293.7" y2="63.6375" gradientTransform="matrix(1 0 0 1 0 166)">
	<stop  offset="1.129295e-03" style="stop-color:#4F72B7"/>
	<stop  offset="7.714172e-02" style="stop-color:#6A6EB2"/>
	<stop  offset="0.1646" style="stop-color:#826AAE"/>
	<stop  offset="0.2577" style="stop-color:#9368AB"/>
	<stop  offset="0.3595" style="stop-color:#9D66AA"/>
	<stop  offset="0.4862" style="stop-color:#A066A9"/>
	<stop  offset="1" style="stop-color:#4F72B7"/>
</linearGradient>
<path class="st22" d="M293.7,229.6C293.7,229.6,293.7,229.7,293.7,229.6C293.7,229.7,293.7,229.7,293.7,229.6
	C293.7,229.7,293.7,229.6,293.7,229.6z"/>
<g>
	
		<linearGradient id="SVGID_13_" gradientUnits="userSpaceOnUse" x1="172.9333" y1="288.45" x2="378.955" y2="288.45" gradientTransform="matrix(1 0 0 -1 0 346)">
		<stop  offset="0" style="stop-color:#0B97AC"/>
		<stop  offset="1" style="stop-color:#68AB96"/>
	</linearGradient>
	<path class="st23" d="M374.1,57.5c-2-5.5-4.8-10.7-8.2-15.4c-6.7-9.4-15.5-17.2-25.1-23.5s-20.2-10.9-31.2-14
		c-5.4-1.5-11-2.6-16.6-3.4c-5.7-0.8-11.4-1.1-17.1-1.2c-15.2,0-30.4,3-44.4,8.8S204.6,23.2,193.9,34c-9.3,9.4-17.1,20.3-22.8,32.3
		c1.7,0.4,3.5,0.8,5.2,1.3c5.4-11,12.6-21.2,21.3-29.8c10.3-10.3,22.5-18.5,35.9-24c13.4-5.6,27.9-8.4,42.4-8.4
		c5.5,0.1,10.9,0.4,16.4,1.1c5.4,0.8,10.8,1.9,16,3.3c10.5,3,20.6,7.4,29.7,13.4c9.1,5.9,17.4,13.3,23.6,22.1
		c3.1,4.4,5.7,9.1,7.5,14.1s2.8,10.2,2.7,15.5c-0.1,3.2-0.6,6.5-1.6,9.6c-2.1,6.9-6.1,13-11.6,17.6c-4.1,3.5-9,6-14.2,7.8
		c0.2,0.9,0.6,3.6,1,5.2c6-1.9,11.7-4.9,16.6-9c3.1-2.6,5.9-5.7,8.1-9.1s4-7.1,5.2-11c1.1-3.6,1.7-7.3,1.8-11
		C377.3,68.9,376.1,63,374.1,57.5z"/>
	
		<linearGradient id="SVGID_14_" gradientUnits="userSpaceOnUse" x1="170.7805" y1="153.1689" x2="236.0122" y2="153.1689" gradientTransform="matrix(1 0 0 -1 0 346)">
		<stop  offset="0" style="stop-color:#0B97AC"/>
		<stop  offset="1" style="stop-color:#68AB96"/>
	</linearGradient>
	<path class="st24" d="M233.8,218.3c-0.6-0.2-0.9-0.3-0.9-0.3c-4.9-1.9-9.7-4.5-14.3-7.4s-9-6.1-13.2-9.5
		c-8.3-6.9-15.8-15-21.8-23.9c-3-4.5-5.8-9.2-8.1-14c-0.1-0.3-0.3-0.6-0.4-0.9c-0.8,0.3-2.9,1.1-4.9,1.9c0.2,0.4,0.4,0.8,0.5,1.2
		c2.5,5.1,5.3,10,8.5,14.7c6.4,9.4,14.1,17.8,22.8,25c4.4,3.6,8.9,6.9,13.7,10c4.8,3,9.8,5.7,15.2,7.8c0,0,0.3,0.1,0.9,0.3
		c1.4,0.5,2.9-0.2,3.4-1.5C235.8,220.4,235.2,218.9,233.8,218.3z"/>
	
		<linearGradient id="SVGID_15_" gradientUnits="userSpaceOnUse" x1="159.9121" y1="230.75" x2="172.5121" y2="230.75" gradientTransform="matrix(1 0 0 -1 0 346)">
		<stop  offset="0" style="stop-color:#0B97AC"/>
		<stop  offset="1" style="stop-color:#68AB96"/>
	</linearGradient>
	<path class="st25" d="M169.7,148c-0.4-1.3-0.7-2.6-1.1-3.9c-0.3-1.3-0.6-2.6-0.9-4c-0.3-1.3-0.5-2.7-0.8-4c-0.2-1.3-0.5-2.7-0.6-4
		c-0.2-1.3-0.3-2.7-0.5-4c-0.1-1.3-0.2-2.7-0.3-4c-0.1-0.7-0.1-1.4-0.2-2c0-0.7,0-1.4-0.1-2c0-1.4-0.1-2.7-0.1-4.1
		c0-13.5,2.5-27.1,7.3-39.7c-0.8-0.3-3.1-0.9-5.3-0.9c-4.9,13-7.3,26.8-7.3,40.6c0,1.4,0.1,2.8,0.1,4.2c0,0.7,0,1.4,0.1,2.1
		s0.1,1.4,0.2,2.1c0.1,1.4,0.2,2.8,0.3,4.2c0.2,1.4,0.4,2.8,0.5,4.2s0.4,2.8,0.7,4.2s0.5,2.8,0.8,4.2s0.6,2.8,1,4.1
		c0.4,1.4,0.8,2.7,1.2,4.1c0.6,1.9,1.2,3.8,1.9,5.7c1.6-0.6,3.3-1.2,5-1.7C170.9,151.7,170.3,149.9,169.7,148z"/>
</g>
<path class="st10" d="M171.6,153.5c-1.7,0.5-3.4,1.1-5,1.7c1.1,3.1,2.3,6.1,3.7,9c2-0.8,4.1-1.6,4.9-1.9
	C173.8,159.4,172.6,156.4,171.6,153.5z"/>
<path class="st8" d="M424.1,205.9c-4.4-1.2-4.8-1.6-6-6c-0.3-1.2-1.5-2.1-2.7-2.1l0,0c-1.3,0-2.4,0.9-2.7,2.1c-1.2,4.4-1.6,4.8-6,6
	c-1.2,0.3-2.1,1.5-2.1,2.7c0,1.3,0.9,2.4,2.1,2.7c4.4,1.2,4.8,1.6,6,6c0.3,1.2,1.5,2.1,2.7,2.1l0,0c1.3,0,2.4-0.9,2.7-2.1
	c1.2-4.4,1.6-4.8,6-6c1.2-0.3,2.1-1.5,2.1-2.7S425.4,206.2,424.1,205.9z"/>
<path class="st6" d="M175.9,14.2c-4.4-1.2-4.8-1.6-6-6c-0.3-1.2-1.5-2.1-2.7-2.1l0,0c-1.3,0-2.4,0.9-2.7,2.1c-1.2,4.4-1.6,4.8-6,6
	c-1.2,0.3-2.1,1.5-2.1,2.7c0,1.3,0.9,2.4,2.1,2.7c4.4,1.2,4.8,1.6,6,6c0.3,1.2,1.5,2.1,2.7,2.1l0,0c1.3,0,2.4-0.9,2.7-2.1
	c1.2-4.4,1.6-4.8,6-6c1.2-0.3,2.1-1.5,2.1-2.7S177.2,14.6,175.9,14.2z"/>
<path class="st26" d="M333.2,191.8v0.1C333.3,191.8,333.3,191.8,333.2,191.8L333.2,191.8z"/>
<linearGradient id="SVGID_16_" gradientUnits="userSpaceOnUse" x1="371.9879" y1="-33.4652" x2="391.8516" y2="-33.4652" gradientTransform="matrix(1 0 0 1 0 166)">
	<stop  offset="1.203347e-03" style="stop-color:#EE4D7A"/>
	<stop  offset="1" style="stop-color:#EE5C6C"/>
</linearGradient>
<path class="st27" d="M391.8,113.6c0-0.2,0-0.3,0-0.5c0-1.4-0.1-2.8-0.2-4.2c-0.1-2-0.3-4-0.5-6c-0.2-2.2-0.6-4.4-0.9-6.7
	c0-0.1,0-0.3-0.1-0.4l0,0l0,0l0,0c0-0.1,0-0.1,0-0.2c0,0,0-0.1,0-0.2l0,0c-0.4-1.3-1.6-2.1-3-1.9c-1.3,0.2-2.3,1.5-2.2,2.8l0,0
	c0,0.1,0,0.2,0,0.2c0,0.2,0.1,0.4,0.1,0.6c1.1,6.2,1.6,12.5,1.6,18.8l0,0l0,0c0,1.2,0,2.3-0.1,3.5c-0.1,1.6-0.1,3.3-0.3,4.9
	c0,0.2,0,0.3,0,0.5c-0.1,1.3-0.2,2.6-0.4,3.9c0,0.2,0,0.4-0.1,0.6c-0.1,1.2-0.3,2.5-0.5,3.7c0,0.2-0.1,0.5-0.1,0.7
	c-0.2,1.2-0.4,2.3-0.6,3.5c-0.1,0.3-0.1,0.6-0.2,0.9c-0.2,1.1-0.5,2.2-0.8,3.4c-0.1,0.3-0.1,0.7-0.2,1c-0.3,1.1-0.6,2.2-0.9,3.3
	c-0.1,0.3-0.2,0.7-0.3,1c-0.3,1.1-0.7,2.2-1,3.2c-0.1,0.3-0.2,0.7-0.3,1c-0.4,1.1-0.7,2.1-1.1,3.1c-0.1,0.4-0.2,0.7-0.4,1.1
	c-0.4,1-0.8,2.1-1.2,3.1c-0.1,0.3-0.3,0.7-0.4,1c-0.4,1-0.9,2-1.4,3.1c-0.2,0.3-0.3,0.7-0.5,1c-0.5,1-1,2-1.5,3
	c-0.2,0.3-0.3,0.7-0.5,1c-0.5,1-1.1,2-1.6,3c-0.1,0.2-0.2,0.3-0.3,0.5c1.9,0.2,3.8,0.5,5.6,0.7c0.3-0.6,0.6-1.1,0.9-1.7
	c0.2-0.4,0.4-0.7,0.5-1.1c0.5-1,1.1-2.1,1.5-3.1c0.2-0.4,0.3-0.7,0.5-1.1c0.5-1,1-2.1,1.4-3.1c0.2-0.4,0.3-0.8,0.5-1.1
	c0.4-1.1,0.9-2.1,1.3-3.2c0.1-0.4,0.3-0.8,0.4-1.2c0.4-1,0.8-2,1.1-3.1c0-0.1,0-0.1,0.1-0.2c0,0,0,0,0-0.1c0.1-0.4,0.2-0.7,0.3-1.1
	c0.4-1.1,0.7-2.2,1-3.3c0.1-0.4,0.2-0.8,0.3-1.1c0.3-1.1,0.6-2.2,0.9-3.4c0.1-0.4,0.2-0.7,0.2-1.1c0.3-1.2,0.5-2.3,0.8-3.5
	c0.1-0.3,0.1-0.7,0.2-1c0.2-1.2,0.5-2.4,0.7-3.6c0-0.3,0.1-0.6,0.1-0.9c0.2-1.2,0.4-2.5,0.5-3.7c0-0.3,0-0.5,0.1-0.8
	c0.1-1.3,0.3-2.6,0.4-3.9c0-0.2,0-0.4,0-0.6c0.1-1.4,0.2-2.7,0.2-4.1c0.1-1.6,0.1-3.1,0.1-4.7l0,0l0,0
	C391.9,115.2,391.8,114.4,391.8,113.6z"/>
<path class="st26" d="M338.5,189.5c0-0.1,0-0.1,0-0.2l0,0c-0.4-1.9-1.2-3.7-2.3-5.4c0,0,0-0.1-0.1-0.1s-1.4-1.3-1.7-1.6
	c0,0-0.2-0.2-0.7-0.7c-0.6,0.6-0.9,1-0.9,1c-0.3,0.3-0.6,0.6-0.9,1c-0.3,0.3-0.6,0.6-0.9,1c0,0-0.3,0.3-0.9,1
	c0.3,0.4,0.5,0.5,0.5,0.5c0.3,0.3,0.8,1.2,0.8,1.2c0.5,0.7,0.9,1.4,1.3,2.2c0.4,0.9,0.6,1.7,0.6,2.7l0,0c0,0,0,0,0,0.1
	c0,0.3,0,0.6,0,0.9c2.6,0.3,4.7,0.4,5.2,0.4C338.6,192.4,338.7,190.8,338.5,189.5z"/>
<linearGradient id="SVGID_17_" gradientUnits="userSpaceOnUse" x1="304.0619" y1="37.8248" x2="371.4" y2="37.8248" gradientTransform="matrix(1 0 0 1 0 166)">
	<stop  offset="1.203347e-03" style="stop-color:#EE4D7A"/>
	<stop  offset="1" style="stop-color:#EE5C6C"/>
</linearGradient>
<path class="st28" d="M364.9,181.8c-0.2,0.2-0.3,0.5-0.5,0.7c-0.7,1-1.5,1.9-2.2,2.9c-0.2,0.2-0.3,0.4-0.5,0.6
	c-0.8,1-1.6,1.9-2.4,2.8c-0.2,0.2-0.3,0.4-0.5,0.5c-0.8,1-1.7,1.9-2.6,2.8c-0.1,0.2-0.3,0.3-0.4,0.5c-0.9,0.9-1.8,1.9-2.8,2.8
	c-0.1,0.1-0.3,0.3-0.4,0.4c-1,0.9-1.9,1.8-2.9,2.7c-0.1,0.1-0.2,0.2-0.3,0.3c-1,0.9-2,1.8-3.1,2.6c-0.1,0.1-0.2,0.2-0.3,0.2
	c-1.1,0.9-2.2,1.7-3.3,2.6c-0.1,0.1-0.2,0.1-0.2,0.2c-1.1,0.9-2.3,1.7-3.4,2.5c-0.1,0-0.1,0.1-0.2,0.1c-1.2,0.8-2.4,1.6-3.6,2.4
	c0,0-0.1,0-0.1,0.1c-1.2,0.8-2.5,1.6-3.8,2.3l0,0c-1.3,0.7-2.5,1.4-3.8,2.1c0,0,0,0-0.1,0c-1.3,0.7-2.6,1.3-3.9,1.9
	c0,0-0.1,0-0.1,0.1c-0.1,0-0.1,0-0.2,0.1c1.2-1,2.3-2.1,3.5-3.2c2.8-2.8,5.5-5.8,7.8-9.2c1.1-1.8,2.2-3.6,2.9-5.7
	c0.3-0.8,0.5-1.7,0.7-2.6l0,0l0,0c0.1-0.3,0.1-0.8,0.1-0.8c0.1-0.7,0.2-1.7,0.3-1.8c0-0.3-5.3-0.2-5.3-0.2l-0.2,1.6
	c-0.5,2.2-1.5,4.5-2.9,6.6c-1.9,3-4.4,5.7-7.1,8.3s-5.5,5-8.5,7.3s-6.1,4.5-9.2,6.4l0,0c0,0,0,0-0.1,0c-1,0.6-1.5,1.8-1.1,3
	c0.4,1.4,1.9,2.2,3.3,1.7l0,0c0.6-0.2,0.9-0.3,0.9-0.3l0,0c1.5-0.4,2.9-0.9,4.4-1.4c0.1,0,0.2-0.1,0.3-0.1c1.4-0.5,2.8-1,4.1-1.5
	c0.1,0,0.2-0.1,0.3-0.1c1.3-0.5,2.7-1.1,4-1.6c0.1,0,0.2-0.1,0.3-0.1c1.3-0.6,2.6-1.2,4-1.8c0.1,0,0.2-0.1,0.2-0.1
	c1.3-0.6,2.6-1.3,3.9-2c0.1,0,0.1-0.1,0.2-0.1c1.3-0.7,2.6-1.4,3.9-2.2c0,0,0.1,0,0.1-0.1c1.3-0.8,2.6-1.5,3.9-2.3
	c0.1,0,0.1-0.1,0.2-0.1c1.1-0.7,2.1-1.4,3.2-2.1c0.2-0.1,0.3-0.2,0.5-0.4l0,0c0.1,0,0.1-0.1,0.2-0.2c1.2-0.8,2.4-1.7,3.5-2.6
	c0.1-0.1,0.2-0.2,0.3-0.2c1.1-0.9,2.2-1.7,3.3-2.6c0.1-0.1,0.2-0.2,0.4-0.3c1.1-0.9,2.1-1.8,3.2-2.7c0.1-0.1,0.3-0.3,0.4-0.4
	c1-0.9,2-1.8,3-2.8c0.2-0.2,0.3-0.3,0.5-0.5c1-0.9,1.9-1.9,2.8-2.8c0.2-0.2,0.3-0.4,0.5-0.5c0.9-1,1.8-1.9,2.7-2.9
	c0.2-0.2,0.3-0.4,0.5-0.6c0.8-1,1.7-1.9,2.5-2.9c0.2-0.2,0.4-0.5,0.6-0.7c0.7-0.9,1.4-1.8,2.1-2.7c0.1-0.1,0.1-0.2,0.2-0.3
	c0,0,0,0,0.1-0.1c0.2-0.2,0.3-0.5,0.5-0.7c0.7-1,1.5-2,2.2-3l0,0c-1-0.2-3.2-0.7-5.4-1.5C365.6,180.8,365.2,181.3,364.9,181.8z"/>
<path class="st26" d="M375.9,171.5c-1.3-0.1-2.7-0.3-4-0.5c-0.5,0.8-3.9,6.4-6,9.3c2.2,0.7,4.3,1.2,5.3,1.4
	c2.2-3.4,4.9-7.8,6.3-10.2C377,171.6,376.5,171.6,375.9,171.5L375.9,171.5z"/>
<linearGradient id="SVGID_18_" gradientUnits="userSpaceOnUse" x1="88.1808" y1="-76.35" x2="200.9202" y2="-76.35" gradientTransform="matrix(1 0 0 1 0 166)">
	<stop  offset="0" style="stop-color:#72B08F"/>
	<stop  offset="1" style="stop-color:#6DB981"/>
</linearGradient>
<path class="st29" d="M174.7,61.5c-12.9-3.2-26.2-5.2-39.7-5.2c-7.9,0.1-15.8,0.7-23.6,3c-3.9,1.1-7.7,2.7-11.2,4.9
	s-6.7,5.3-8.9,9.1l0,0c-1,1.9-1.9,3.9-2.4,6.1s-0.8,4.4-0.7,6.7c0.1,2.6,0.7,5.1,1.7,7.4s2.3,4.5,3.8,6.4c3.1,3.9,7,6.8,11.1,9.1
	c8,4.4,16.9,6.6,25.9,6.7c0.1,0.2,0.2,0.5,0.3,0.7c0.1,0.3,0.2,0.5,0.4,0.8c1.3,2.5,3.6,4.4,6.3,5.3c1.1,0.3,2.1,0.5,3.2,0.5
	c4.6,0,8.8-2.9,10.2-7.5c0.9-2.7,0.6-5.6-0.7-8.2c-1.3-2.5-3.6-4.4-6.3-5.3s-5.6-0.6-8.2,0.7c-2.5,1.3-4.4,3.6-5.3,6.3
	c-0.1,0.3-0.1,0.5-0.2,0.8c0,0.2-0.1,0.4-0.1,0.6l0,0c-8-0.2-16-2.2-22.9-6c-3.7-2.1-7-4.6-9.5-7.8c-2.5-3.2-4.2-6.9-4.3-10.8
	c-0.1-1.7,0.2-3.4,0.6-5.1s1.2-3.3,2-4.9l0,0c1.6-2.9,4.1-5.3,7.1-7.2c3-1.9,6.4-3.3,9.9-4.3c7.1-2.1,14.6-2.8,22.1-2.8
	c12.9,0,25.8,2,38.4,5.1c8.3,2.1,16.5,4.6,24.6,7.5c0.9-2.1,2.4-4.1,2.8-4.6C192.4,66.4,183.6,63.7,174.7,61.5z M135.6,110.7
	c0.7-2.3,2.9-3.8,5.2-3.8c0.5,0,1.1,0.1,1.6,0.3c1.4,0.4,2.5,1.4,3.2,2.7c0.7,1.3,0.8,2.8,0.4,4.2c-0.9,2.9-4,4.5-6.9,3.6
	c-1.4-0.4-2.5-1.4-3.2-2.7c-0.3-0.5-0.4-1-0.5-1.6v-0.1c0-0.2,0-0.5-0.1-0.7C135.3,111.9,135.4,111.3,135.6,110.7z"/>
<path class="st30" d="M200.9,69.6c-0.4,0.5-1.9,2.4-2.8,4.6c3.4,1.2,6.7,2.5,10,3.9c1-1.5,2.1-3,3.2-4.4
	C207.9,72.2,204.4,70.9,200.9,69.6z"/>
<linearGradient id="SVGID_19_" gradientUnits="userSpaceOnUse" x1="280.9848" y1="34.55" x2="348.8999" y2="34.55" gradientTransform="matrix(1 0 0 1 0 166)">
	<stop  offset="1.129295e-03" style="stop-color:#4F72B7"/>
	<stop  offset="7.714172e-02" style="stop-color:#6A6EB2"/>
	<stop  offset="0.1646" style="stop-color:#826AAE"/>
	<stop  offset="0.2577" style="stop-color:#9368AB"/>
	<stop  offset="0.3595" style="stop-color:#9D66AA"/>
	<stop  offset="0.4862" style="stop-color:#A066A9"/>
	<stop  offset="1" style="stop-color:#4F72B7"/>
</linearGradient>
<path class="st31" d="M336.2,177.1c-7.2,5.4-15.3,9.8-23.6,13.4l0,0c-8.8,3.8-18.3,6-27.9,6.7l0,0c-1,0.1-2,0.6-2.7,1.4
	c-0.7,0.8-1.1,1.8-1,2.9c0,0.7,0.3,1.5,0.7,2l0,0l0,0l0,0c2.1,3.1,3.7,6.8,4.8,10.6c1.2,3.8,1.8,7.7,2,11.6c0,0.5,0,0.9,0,1.4
	c0,0.2,0,0.5,0,0.7c0,0.1,0,0.1,0,0.2l0,0c0.9,0.5,1.3,0.7,1.3,0.7c0.4,0.2,0.9,0.5,1.3,0.7c0.4,0,0.9,0.1,1.3,0.1
	c0,0,0.4,0,1.3,0.1c0-0.1,0-0.2,0-0.2c0-0.4,0-0.9,0.1-1.3c0-0.3,0-0.5,0-0.8c0-0.5,0-1.1,0-1.6c-0.2-4.5-0.9-8.8-2.2-13
	c-0.6-2.1-1.4-4.2-2.3-6.2c-0.2-0.5-0.5-1-0.7-1.5c-0.3-0.5-0.5-1-0.8-1.5c-0.2-0.4-0.4-0.8-0.7-1.2c0.6-0.1,1.2-0.1,1.8-0.2
	c1.3-0.2,2.5-0.3,3.8-0.5c2.5-0.4,5-0.9,7.5-1.5c4.9-1.2,9.8-2.8,14.5-4.8l0,0c8.7-3.7,17-8.3,24.7-14c3.4-2.5,6.6-5.3,9.5-8.4
	c-0.7-0.1-3.8-0.3-6-1.4C340.7,173.5,338.5,175.4,336.2,177.1z"/>
<path class="st32" d="M346.1,168.2c-1,1.2-2.2,2.3-3.3,3.3c2.2,1.1,5.3,1.4,6,1.4c0.4-0.4,0.8-0.8,1.2-1.2c1.1-1.3,2.2-2.6,3.2-4
	c-1.9-0.4-3.7-0.9-5.5-1.4C347.2,167,346.7,167.6,346.1,168.2z"/>
<linearGradient id="SVGID_20_" gradientUnits="userSpaceOnUse" x1="194.2029" y1="-63.4" x2="360.2663" y2="-63.4" gradientTransform="matrix(1 0 0 1 0 166)">
	<stop  offset="1.129295e-03" style="stop-color:#4F72B7"/>
	<stop  offset="7.714172e-02" style="stop-color:#6A6EB2"/>
	<stop  offset="0.1646" style="stop-color:#826AAE"/>
	<stop  offset="0.2577" style="stop-color:#9368AB"/>
	<stop  offset="0.3595" style="stop-color:#9D66AA"/>
	<stop  offset="0.4862" style="stop-color:#A066A9"/>
	<stop  offset="1" style="stop-color:#4F72B7"/>
</linearGradient>
<path class="st33" d="M360.3,145.7c-0.5-1.7-1.1-3.4-1.9-5.1c-0.4-0.8-1-1.6-1.5-2.4c-0.2-0.2-0.3-0.4-0.5-0.6
	c-0.1-0.1-0.2-0.2-0.2-0.3l0,0l0,0v-0.1c0-0.1,0-0.3,0.1-0.4c0-0.3,0-0.6,0-0.9c0-1.1-0.3-2.1-0.7-3c-0.5-1-1.2-1.9-2.2-2.5l0,0
	c-1-0.7-2.2-1.1-3.4-1.2c-0.9-0.1-1.9,0-2.7,0.3h-0.1l0,0l0,0l0,0c-0.1-0.1-0.1-0.2-0.2-0.3c-0.1-0.2-0.3-0.4-0.4-0.7l0,0
	c-0.8-1.5-1.6-3.5-2.2-5.4c-0.7-1.9-1.2-4-1.7-6c-1-4.1-1.9-8.2-2.5-12.3c-0.6-4.2-1.1-8.3-1.4-12.5s-0.4-8.4-0.3-12.6l0,0l0,0
	c0,0,0,0,0-0.1c0-0.2,0-0.3,0-0.5c-0.6-3.2-1.8-6.3-3.4-9.1c-1.6-2.8-3.6-5.3-5.8-7.5c-4.5-4.5-9.6-7.9-15-10.7l0,0
	c-5.9-3.1-12.2-5.5-18.7-7.1s-13.2-2.4-19.9-2.4c-6.5,0.1-12.9,0.9-19.2,2.4c-0.8,0.2-1.7,0.4-2.5,0.7c-0.2,0-0.3,0.1-0.5,0.1l0,0
	l0,0c-0.1-0.1-0.1-0.2-0.2-0.3c-0.4-0.7-0.9-1.4-1.4-2c-1-1.3-2-2.6-3.2-3.9l0,0c-1.1-1.1-2.7-1.8-4.2-1.8c-0.9,0-1.9,0.2-2.8,0.6
	l0,0c-5.3,2.5-10,6.2-13.8,10.7c-1.9,2.3-3.5,4.8-4.7,7.5c-0.6,1.4-1.1,2.8-1.6,4.2c-0.2,0.7-0.4,1.5-0.5,2.2
	c-0.1,0.4-0.1,0.8-0.2,1.1v0.1l0,0l0,0l0,0l0,0l0,0l0,0l0,0l0,0l0,0l-0.1,0.1c-0.3,0.2-0.5,0.5-0.8,0.7c-0.5,0.5-1.1,1-1.6,1.5
	c-1,1-2,2.1-3,3.1c-2,2.1-3.7,4.4-5.4,6.7c-3.4,4.7-6.2,9.7-8.6,15c-2.3,5.3-4,10.8-5.2,16.5c-1.1,5.7-1.7,11.4-1.6,17.2
	c0.1,7.8,1.3,15.6,3.6,23.1c1.7-0.2,3.5-0.4,5.3-0.6c-2.3-7.3-3.6-14.9-3.7-22.5c0-5.4,0.5-10.8,1.5-16.1c1.1-5.3,2.7-10.5,4.9-15.4
	s4.9-9.7,8-14c3.2-4.4,6.8-8.4,10.8-12l0,0l0.9-1.7l0,0l0,0l0,0c0.5-4.8,2.8-9.5,6-13.4s7.3-7.1,11.9-9.3l0,0
	c0.1-0.1,0.3-0.1,0.4-0.1c0.2,0,0.5,0.1,0.6,0.3l0,0c1.9,2,3.7,4.5,5.1,6.9l0,0l3.1,1.2l0,0l0,0l0,0l0,0l0,0c1.5-0.4,3-0.9,4.6-1.3
	c5.9-1.4,11.9-2.2,17.9-2.3c6.3,0,12.5,0.7,18.6,2.2s12,3.8,17.5,6.7l0,0c5,2.7,9.8,5.9,13.7,9.8c2,2,3.7,4.1,5,6.4
	c0.7,1.2,1.2,2.4,1.7,3.6c0.3,0.6,0.4,1.3,0.6,1.9c0.1,0.3,0.2,0.6,0.2,1c0.1,0.3,0.1,0.5,0.2,0.8c0,1,0,2,0,3c0,1.1,0,2.2,0.1,3.3
	c0,2.2,0.2,4.4,0.3,6.5c0.3,4.3,0.8,8.7,1.5,13s1.5,8.6,2.6,12.8c0.6,2.1,1.1,4.2,1.8,6.3c0.3,1.1,0.7,2.1,1.1,3.2
	c0.2,0.5,0.5,1.1,0.7,1.6s0.6,1.1,0.9,1.7l0,0c0.8,1.3,1.8,2.6,2.9,3.6c1.3-0.1,2.6-0.2,3.9-0.4l0,0l0,0c-0.1,0,0.3-0.2,0.7-0.1
	c0.3,0,0.7,0.1,0.9,0.3l0,0c0.1,0.1,0.3,0.3,0.4,0.5s0.2,0.5,0.2,0.8c0,0.1,0,0.3,0,0.4v0.1l0,0l0,0c0.1,1.1,0.3,2.3,0.4,3.4l0,0
	c1,0.9,1.8,1.9,2.4,3.1c0.4,0.7,0.7,1.5,1,2.3l-1.3,2.9l0,0l0,0l0,0v0.1l0,0c0,0.2,0.1,0.3,0.1,0.5s0.1,0.4,0.1,0.7
	c0,0.4,0.1,0.9,0.1,1.3c0.1,2.3-0.1,4.5-0.8,6.5l0,0c0,0,0,0,0,0.1s0,0.2-0.1,0.3c-1.2,3.1-3,5.9-5.1,8.6c1.8,0.5,3.7,1,5.5,1.4
	c1.9-2.6,3.5-5.5,4.7-8.6l0,0c0.1-0.2,0.1-0.4,0.2-0.7c0.8-2.6,1-5.3,0.9-7.8c0-0.6-0.1-1.2-0.1-1.7c0.2-0.2,0.5-0.3,0.7-0.6l0,0
	l0,0l0,0l0,0l0,0L360.3,145.7L360.3,145.7z"/>
<linearGradient id="SVGID_21_" gradientUnits="userSpaceOnUse" x1="200.3" y1="27.2" x2="293.7621" y2="27.2" gradientTransform="matrix(1 0 0 1 0 166)">
	<stop  offset="1.129295e-03" style="stop-color:#4F72B7"/>
	<stop  offset="7.714172e-02" style="stop-color:#6A6EB2"/>
	<stop  offset="0.1646" style="stop-color:#826AAE"/>
	<stop  offset="0.2577" style="stop-color:#9368AB"/>
	<stop  offset="0.3595" style="stop-color:#9D66AA"/>
	<stop  offset="0.4862" style="stop-color:#A066A9"/>
	<stop  offset="1" style="stop-color:#4F72B7"/>
</linearGradient>
<path class="st34" d="M291.1,229.4c-0.4-0.2-0.9-0.5-1.3-0.7c0,0-0.4-0.2-1.3-0.7l0,0l0,0l0,0l0,0c-13.2,0-26.5,0-39.7,0l0,0l0,0
	c0.4-0.6,0.7-1.2,1.1-1.8c0.7-1.2,1.5-2.4,2.3-3.6c1.6-2.3,3.3-4.6,5-6.8c3.5-4.4,7.5-8.5,11.8-11.7l0,0l0,0l0,0
	c0.5-0.3,0.9-0.8,1.2-1.4c0.3-0.6,0.4-1.2,0.4-1.8c0-1-0.3-1.9-1-2.7c-0.6-0.8-1.6-1.2-2.5-1.3c0,0-0.1,0,0,0
	c-11.5-1.3-22.8-4.8-32.7-10.6c-10-5.8-18.5-13.9-24.3-23.8l0,0c-1.8-3-3.3-6-4.6-9.2c-1,0.2-3.8,0.8-5.2,1
	c1.5,3.7,3.3,7.4,5.4,10.8l0,0c6.3,10.7,15.5,19.5,26.2,25.7c5.3,3.1,11,5.6,16.8,7.4c1.5,0.4,2.9,0.9,4.4,1.3
	c1.5,0.4,3,0.7,4.5,1.1c1.5,0.3,3,0.6,4.5,0.8c0.5,0.1,1.1,0.2,1.6,0.2l0,0l0,0l0,0c-0.1,0.1-0.2,0.2-0.4,0.3
	c-0.3,0.2-0.6,0.5-0.9,0.7c-1.1,1-2.2,2-3.3,3.1c-2.1,2.1-4.1,4.4-6,6.7c-3.7,4.6-7.1,9.5-10,14.7l0,0l0,0l0,0
	c-0.3,0.6-0.5,1.3-0.5,2.1c0,1.1,0.5,2,1.2,2.7s1.8,1.1,2.8,1.2c0,0,0.1,0,0,0c14.3,0,28.7,0,43,0l0,0c0,0,0.1,0,0.4,0
	c0.2,0,0.6-0.1,1.1-0.3s1-0.5,1.5-1c0.4-0.4,0.7-1,0.9-1.7c0-0.2,0.1-0.4,0.1-0.7l0,0c-0.9-0.1-1.3-0.1-1.3-0.1
	C291.9,229.5,291.5,229.5,291.1,229.4z"/>
<path class="st32" d="M203.1,147.2c-1.8,0.2-3.6,0.4-5.3,0.6c0.7,2.2,1.5,4.5,2.4,6.6c1.4-0.3,4.3-0.8,5.2-1
	C204.6,151.4,203.8,149.3,203.1,147.2z"/>
<linearGradient id="SVGID_22_" gradientUnits="userSpaceOnUse" x1="130.6917" y1="-10.6795" x2="469.7" y2="-10.6795" gradientTransform="matrix(1 0 0 1 0 166)">
	<stop  offset="0" style="stop-color:#F27354"/>
	<stop  offset="1" style="stop-color:#F68D39"/>
</linearGradient>
<path class="st35" d="M469.7,136.5c-0.1-4.7-1.9-9.3-4.8-12.9s-6.5-6.2-10.4-8.2s-8-3.4-12.2-4.4c-4.2-0.9-8.5-1.4-12.8-1.3
	c-2.2,0-4.5,0.2-6.7,0.6c-1.4-3.1-4.3-5.5-8-6.2c-2.8-0.5-5.7,0.2-8,1.8c-2.3,1.7-3.9,4.1-4.4,6.9s0.2,5.7,1.8,8
	c1.7,2.3,4.1,3.9,6.9,4.4c0.6,0.1,1.2,0.2,1.8,0.2c2.2,0,4.3-0.7,6.2-2c2.3-1.7,3.9-4.1,4.4-6.9c0.1-0.4,0.1-0.7,0.1-1.1
	c1.9-0.3,3.9-0.5,5.9-0.5c7.7-0.1,15.6,1.6,22.4,5.1c3.4,1.8,6.4,4.1,8.7,6.9c2.3,2.8,3.6,6.2,3.7,9.7c0,1.7-0.2,3.4-0.7,5.1l0,0
	l0,0c-0.2,0.5-0.3,0.7-0.3,0.7c-0.9,2.8-2.7,5.3-4.9,7.5c-0.5,0.5-1.1,1-1.7,1.5c-0.1,0.1-0.2,0.2-0.3,0.2c-0.4,0.4-0.9,0.7-1.3,1
	c-1.2,0.9-2.4,1.6-3.7,2.4c-0.2,0.1-0.5,0.3-0.7,0.4c-0.7,0.4-1.4,0.8-2.1,1.2c0,0,0,0-0.1,0c-0.8,0.4-1.6,0.8-2.3,1.1
	c-0.3,0.2-0.7,0.3-1,0.5c-0.2,0.1-0.4,0.2-0.7,0.3c-0.2,0.1-0.4,0.2-0.6,0.3c-0.6,0.3-1.3,0.5-1.9,0.7s-1.2,0.5-1.8,0.7
	c-0.2,0.1-0.4,0.2-0.7,0.2c-0.2,0.1-0.3,0.1-0.5,0.2c-0.5,0.2-1,0.3-1.5,0.5c-1.1,0.4-2.3,0.7-3.4,1c-0.6,0.2-1.2,0.3-1.8,0.5
	c-0.5,0.1-0.9,0.2-1.4,0.3c-1.2,0.3-2.3,0.6-3.5,0.8c-0.7,0.2-1.4,0.3-2.2,0.4c-0.9,0.2-1.8,0.4-2.8,0.5c-1,0.2-1.9,0.3-2.9,0.5
	c-0.7,0.1-1.4,0.2-2.1,0.3c-1.2,0.2-2.4,0.3-3.6,0.4c-0.5,0.1-1,0.1-1.5,0.2c-1.4,0.2-2.8,0.3-4.2,0.4c-0.3,0-0.6,0.1-0.8,0.1
	c-1.6,0.1-3.2,0.2-4.8,0.3c-0.1,0-0.2,0-0.3,0c-1.7,0.1-3.4,0.1-5.1,0.2l0,0c-1.6,0-3.3,0-4.9,0c-0.1,0-0.1,0-0.2,0
	c-0.6,0-1.2,0-1.7,0s-0.9,0-1.4,0c-0.6,0-1.2-0.1-1.8-0.1c-0.4,0-0.9,0-1.3-0.1c-0.6,0-1.3-0.1-1.9-0.1c-0.4,0-0.8,0-1.2-0.1
	c-0.7,0-1.4-0.1-2-0.2c-0.4,0-0.7-0.1-1.1-0.1c-0.7-0.1-1.5-0.1-2.2-0.2c-0.3,0-0.6-0.1-0.9-0.1c-0.8-0.1-1.6-0.2-2.4-0.3
	c-0.2,0-0.5,0-0.7-0.1c-0.9-0.1-1.8-0.2-2.7-0.3c-0.1,0-0.3,0-0.4-0.1c-0.3,0-0.7-0.1-1-0.1c-0.7-0.1-1.4-0.2-2.1-0.3
	c-1-0.2-2.1-0.3-3.1-0.5c-0.3-0.1-0.6-0.1-1-0.2c-1.7-0.3-3.5-0.7-5.2-1c-0.5-0.1-1.1-0.2-1.6-0.4c-0.5-0.1-1-0.2-1.4-0.3
	c-4.1-1-8.1-2.1-12-3.4l0,0l0,0c-2-0.7-4.1-1.3-6.1-2c-0.3-0.1-0.5-0.2-0.8-0.3c-1.3-0.4-2.7-0.8-4-1.2c-1-0.3-2-0.6-3-0.9
	c-0.8-0.2-1.7-0.5-2.6-0.7c-1.5-0.4-3-0.9-4.5-1.3c-1.3-0.4-2.6-0.7-3.9-1c-1.1-0.3-2.1-0.6-3.2-0.8c-1.8-0.5-3.7-0.9-5.5-1.3
	c-0.5-0.1-1-0.3-1.6-0.4c-1.2-0.3-2.4-0.5-3.6-0.8s-2.4-0.5-3.6-0.8c-0.5-0.1-1.1-0.2-1.6-0.3c-1.9-0.4-3.7-0.7-5.6-1.1
	c-0.7-0.1-1.3-0.2-2-0.3c-1.7-0.3-3.5-0.6-5.2-0.9c-2.4-0.4-4.8-0.8-7.2-1.1c-0.3,0-0.6-0.1-0.9-0.1c-2.1-0.3-4.2-0.6-6.3-0.9
	c-0.9-0.1-1.8-0.2-2.7-0.3c-1.5-0.2-3.1-0.4-4.6-0.5c-1.8-0.2-3.7-0.4-5.5-0.5c-0.6-0.1-1.2-0.1-1.7-0.2c-0.9-0.1-1.9-0.1-2.8-0.2
	c-3.9-0.3-7.9-0.5-11.8-0.7c-0.1,0-0.3,0-0.4,0c-4.7-0.2-9.5-0.3-14.3-0.2l0,0l0,0c-1.1,0-2.1,0-3.2,0l0,0c-1,0-2.1,0-3.1,0.1
	c-0.2,0-0.4,0-0.5,0c-0.9,0-1.7,0.1-2.6,0.1c-0.4,0-0.8,0-1.2,0.1c-0.6,0-1.3,0.1-1.9,0.1c-0.6,0-1.2,0.1-1.8,0.1
	c-0.4,0-0.9,0.1-1.3,0.1c-0.7,0-1.5,0.1-2.2,0.2c-0.3,0-0.6,0-0.9,0.1c-0.8,0.1-1.7,0.1-2.5,0.2c-0.2,0-0.4,0-0.6,0.1
	c-0.9,0.1-1.8,0.2-2.7,0.3c-0.1,0-0.3,0-0.4,0c-0.9,0.1-1.9,0.2-2.8,0.3c-0.1,0-0.2,0-0.3,0c-1,0.1-1.9,0.2-2.9,0.4
	c-0.1,0-0.2,0-0.3,0c-0.9,0.1-1.9,0.3-2.8,0.4c-0.1,0-0.2,0-0.3,0c-0.9,0.1-1.8,0.3-2.7,0.4c-0.1,0-0.3,0-0.4,0.1
	c-0.9,0.2-1.7,0.3-2.6,0.5c-0.2,0-0.3,0.1-0.5,0.1c-0.8,0.2-1.6,0.3-2.5,0.5c-0.2,0-0.4,0.1-0.7,0.1c-0.8,0.2-1.5,0.3-2.3,0.5
	c-0.3,0.1-0.6,0.1-0.8,0.2c-0.7,0.2-1.4,0.3-2.1,0.5c-0.3,0.1-0.6,0.1-0.9,0.2H178c-0.1,0-0.2,0-0.3,0.1c-0.6,0.2-1.3,0.3-1.9,0.5
	c-0.3,0.1-0.6,0.1-0.9,0.2c-0.7,0.2-1.3,0.4-2,0.6c-0.4,0.1-0.8,0.2-1.1,0.3c-0.6,0.2-1.1,0.4-1.7,0.5c-0.5,0.2-0.9,0.3-1.4,0.5
	s-1,0.3-1.4,0.5c-0.5,0.2-1.1,0.4-1.6,0.6c-0.4,0.2-0.8,0.3-1.2,0.5c-0.6,0.2-1.2,0.5-1.8,0.7c-0.4,0.1-0.7,0.3-1.1,0.5
	c-0.6,0.3-1.3,0.5-1.9,0.8c-0.3,0.2-0.7,0.3-1,0.5c-0.6,0.3-1.3,0.6-1.9,0.9c-0.3,0.2-0.7,0.3-1,0.5c-0.5,0.3-1,0.5-1.5,0.8
	c-0.1,0.1-0.2,0.1-0.3,0.2c-0.1,0.1-0.2,0.1-0.3,0.1c-0.7,0.4-1.3,0.8-2,1.2c-0.1,0.1-0.2,0.1-0.4,0.2c-0.8,0.5-1.6,1-2.4,1.5
	c-0.1,0.1-0.3,0.2-0.4,0.3c-0.8,0.5-1.5,1.1-2.3,1.6c-0.1,0.1-0.2,0.2-0.4,0.3c-0.8,0.6-1.5,1.2-2.3,1.8l-0.1,0.1
	c-0.1,0.1-0.2,0.2-0.3,0.3s-0.2,0.2-0.3,0.2s-0.1,0.1-0.2,0.1c-0.3,0.3-0.6,0.5-0.9,0.8c-0.2,0.1-0.3,0.3-0.4,0.4
	c-0.2,0.2-0.4,0.4-0.6,0.6c-0.3,0.3-0.5,0.5-0.8,0.8c-0.1,0.1-0.2,0.2-0.3,0.3c-0.3,0.3-0.5,0.6-0.8,0.9c-0.1,0.1-0.1,0.1-0.2,0.2
	c-0.1,0.1-0.2,0.2-0.3,0.4s-0.3,0.3-0.4,0.5c-0.3,0.4-0.6,0.7-0.8,1.1l-0.1,0.1c-0.3,0.4-0.5,0.8-0.8,1.1c-0.1,0.1-0.2,0.3-0.3,0.4
	c-0.2,0.3-0.3,0.5-0.5,0.8c-0.2,0.4-0.4,0.7-0.6,1.1l0,0c0,0-0.1,0.3-0.4,0.8l0,0l0,0l0,0l0,0l0,0c-2,4-3.6,8.4-3.7,13.3
	c-0.1,3.2,0.7,6.6,2.5,9.5c1.7,2.9,4.3,5.2,7.1,6.7c2.8,1.6,5.8,2.6,8.7,3.2c3,0.6,6,0.8,9,0.9c4.3,0,8.6-0.5,12.8-1.2
	c4.2-0.8,8.3-1.8,12.4-3.1c1.4-0.4,2.7-0.9,4.1-1.4c-0.5-0.3-2.2-1.6-3.8-4.2c-0.6,0.2-1.2,0.4-1.8,0.6c-3.8,1.2-7.8,2.2-11.7,2.9
	s-7.9,1.1-11.9,1.1c-2.7-0.1-5.4-0.3-8-0.8s-5-1.4-7.2-2.6c-2.2-1.2-4-2.9-5.2-4.9s-1.8-4.3-1.7-6.8c0.1-3.7,1.3-7.4,3.1-10.9l0,0
	l0,0l0.1-0.2c0.2-0.3,0.3-0.5,0.3-0.5c0.2-0.3,0.4-0.6,0.6-1c0.1-0.2,0.3-0.4,0.4-0.7c0.1-0.1,0.1-0.2,0.2-0.3
	c0.2-0.3,0.5-0.7,0.7-1l0,0c0.2-0.3,0.5-0.7,0.8-1c0.1-0.1,0.2-0.3,0.3-0.4c0.1-0.2,0.3-0.3,0.4-0.5c0.2-0.3,0.5-0.5,0.7-0.8
	c0.1-0.1,0.1-0.2,0.2-0.2c0.2-0.2,0.4-0.5,0.7-0.7c0.2-0.2,0.3-0.4,0.5-0.5c0.1-0.1,0.2-0.2,0.4-0.4c0.3-0.3,0.5-0.5,0.8-0.7
	c0.1-0.1,0.1-0.1,0.2-0.2c0.4-0.4,0.9-0.7,1.3-1.1c0.4-0.3,0.8-0.6,1.2-0.9c0.4-0.3,0.9-0.6,1.3-0.9c0.4-0.3,0.7-0.5,1.1-0.8
	c0.4-0.3,0.9-0.6,1.4-0.9c0.4-0.2,0.8-0.5,1.2-0.7c0.4-0.3,0.9-0.5,1.3-0.8c0.4-0.2,0.8-0.5,1.3-0.7c0.6-0.3,1.1-0.6,1.7-0.9
	c0.3-0.2,0.6-0.3,0.9-0.5c0.6-0.3,1.2-0.6,1.8-0.9c0.3-0.1,0.6-0.3,0.9-0.4c0.6-0.3,1.2-0.5,1.8-0.8c0.3-0.1,0.7-0.3,1-0.4
	c0.6-0.2,1.1-0.4,1.7-0.7c0.4-0.1,0.8-0.3,1.2-0.4c0.5-0.2,1-0.4,1.5-0.5c0.5-0.2,0.9-0.3,1.4-0.5c0.4-0.1,0.9-0.3,1.3-0.4
	c0.5-0.2,1.1-0.4,1.6-0.5c0.4-0.1,0.7-0.2,1.1-0.3c0.6-0.2,1.3-0.4,1.9-0.6c0.3-0.1,0.6-0.1,0.8-0.2c0.7-0.2,1.4-0.4,2.1-0.6
	c0.3-0.1,0.6-0.1,0.9-0.2c0.7-0.2,1.4-0.3,2.1-0.5c0.3-0.1,0.5-0.1,0.8-0.2c0.7-0.2,1.5-0.3,2.2-0.5c0.2,0,0.4-0.1,0.6-0.1
	c0.8-0.2,1.6-0.3,2.4-0.5c0.2,0,0.3-0.1,0.5-0.1c0.9-0.2,1.7-0.3,2.6-0.5c0.1,0,0.2,0,0.4-0.1c0.9-0.2,1.8-0.3,2.7-0.4
	c0.1,0,0.2,0,0.3,0c0.9-0.1,1.8-0.3,2.7-0.4c0.1,0,0.2,0,0.3,0c0.9-0.1,1.8-0.2,2.8-0.4c0.1,0,0.2,0,0.4,0c0.9-0.1,1.8-0.2,2.7-0.3
	c0.1,0,0.3,0,0.4,0c0.9-0.1,1.8-0.2,2.7-0.3c0.2,0,0.4,0,0.6,0c0.8-0.1,1.7-0.1,2.5-0.2c0.3,0,0.6,0,0.9-0.1
	c0.7-0.1,1.5-0.1,2.2-0.2c0.4,0,0.8,0,1.2-0.1c0.6,0,1.2-0.1,1.9-0.1c0.6,0,1.1-0.1,1.7-0.1c0.5,0,0.9,0,1.4-0.1
	c0.7,0,1.5-0.1,2.2-0.1c0.3,0,0.6,0,0.9,0c0.9,0,1.8-0.1,2.7-0.1c0.1,0,0.2,0,0.4,0c1,0,2.1,0,3.1,0c1.6,0,3.2,0,4.8,0
	c0.8,0,1.6,0,2.4,0c2.1,0,4.2,0.1,6.3,0.2c0.3,0,0.6,0,0.9,0c1.6,0.1,3.3,0.2,4.9,0.2c0.8,0,1.5,0.1,2.3,0.1c1,0.1,2,0.1,2.9,0.2
	c1.4,0.1,2.8,0.2,4.3,0.3c0.5,0,1,0.1,1.6,0.1c1.9,0.2,3.7,0.3,5.6,0.5c1.2,0.1,2.5,0.3,3.7,0.4c1.2,0.1,2.3,0.3,3.5,0.4
	c1,0.1,1.9,0.3,2.9,0.4c1.4,0.2,2.9,0.4,4.3,0.6h0.1c2.3,0.3,4.7,0.7,7,1.1c4.2,0.7,8.5,1.5,12.7,2.3c0.5,0.1,1,0.2,1.5,0.3
	c1.7,0.4,3.5,0.7,5.2,1.1c0.6,0.1,1.2,0.3,1.9,0.4c1.9,0.4,3.7,0.9,5.6,1.3c0.5,0.1,1,0.2,1.4,0.3c1.2,0.3,2.4,0.6,3.6,0.9
	c1.1,0.3,2.2,0.6,3.3,0.9c0.6,0.2,1.3,0.4,1.9,0.5c1.7,0.5,3.3,0.9,5,1.4c0.4,0.1,0.9,0.3,1.3,0.4c4.2,1.2,8.3,2.5,12.4,3.9l0,0l0,0
	c2.1,0.7,4.1,1.3,6.2,1.9c0.1,0,0.1,0,0.2,0.1c1,0.3,2,0.5,2.9,0.8c0.4,0.1,0.9,0.2,1.3,0.3c0.6,0.2,1.2,0.3,1.9,0.5
	c0.7,0.2,1.5,0.3,2.3,0.5c0.3,0.1,0.6,0.1,0.9,0.2c0.8,0.2,1.7,0.4,2.5,0.5c0.2,0,0.4,0.1,0.6,0.1c2.1,0.4,4.2,0.8,6.4,1.2
	c0.9,0.1,1.8,0.3,2.8,0.4c0.1,0,0.3,0,0.4,0.1c0.4,0.1,0.9,0.1,1.3,0.2c0.4,0,0.8,0.1,1.1,0.1c1.3,0.2,2.6,0.3,4,0.5l0,0
	c0.6,0.1,1.1,0.1,1.7,0.2c0.5,0,1,0.1,1.5,0.1c0.2,0,0.4,0,0.6,0c0.9,0.1,1.7,0.1,2.6,0.2c0.3,0,0.6,0,0.9,0.1
	c0.8,0,1.6,0.1,2.3,0.1c0.4,0,0.7,0,1.1,0c0.7,0,1.4,0.1,2.1,0.1c0.4,0,0.9,0,1.3,0c0.6,0,1.3,0,1.9,0l0,0l0,0h0.1
	c7,0.1,14-0.2,21-1c0.1,0,0.2,0,0.3,0c0.8-0.1,1.5-0.2,2.3-0.3c0.2,0,0.4-0.1,0.6-0.1c0.7-0.1,1.3-0.2,2-0.3c0.3,0,0.6-0.1,0.9-0.1
	c0.6-0.1,1.1-0.2,1.7-0.3c0.4-0.1,0.8-0.1,1.3-0.2c0.4-0.1,0.9-0.1,1.3-0.2c0.5-0.1,1.1-0.2,1.6-0.3c0.3-0.1,0.6-0.1,0.9-0.2
	c0.7-0.1,1.3-0.3,2-0.4c0.2,0,0.4-0.1,0.6-0.1c0.8-0.2,1.5-0.3,2.3-0.5c0.1,0,0.2,0,0.2-0.1c1-0.2,2-0.5,3-0.7
	c0.5-0.1,1-0.3,1.5-0.4c0.4-0.1,0.7-0.2,1.1-0.3l0,0c0.7-0.2,1.4-0.4,2.1-0.6c0.1-0.1,0.3-0.1,0.4-0.1c0.4-0.1,0.8-0.3,1.2-0.4
	c0.3-0.1,0.6-0.2,0.9-0.3c0.2-0.1,0.5-0.2,0.7-0.2c0.6-0.2,1.2-0.4,1.7-0.6c0.1,0,0.2-0.1,0.2-0.1c0.1,0,0.2-0.1,0.3-0.1
	c0.6-0.2,1.2-0.4,1.7-0.7c0.2-0.1,0.4-0.2,0.6-0.3c0.3-0.2,0.7-0.3,1-0.5c0.3-0.1,0.5-0.2,0.8-0.4c0.2-0.1,0.5-0.2,0.7-0.3
	c0.6-0.3,1.2-0.6,1.8-0.9h0.1c0.8-0.4,1.6-0.8,2.3-1.3l0,0l0,0c0.2-0.1,0.4-0.2,0.6-0.3s0.5-0.3,0.7-0.4c0.6-0.4,1.3-0.8,1.9-1.2
	c0.3-0.2,0.7-0.5,1-0.7c0.2-0.1,0.4-0.3,0.6-0.4c1.6-1.2,3.2-2.5,4.6-3.9c2.6-2.7,4.9-6.1,6-10l0,0l0,0l0,0
	C469.4,140.9,469.7,138.7,469.7,136.5z M418.4,115.6c-0.2,1.4-1,2.7-2.2,3.5s-2.6,1.2-4.1,0.9c-1.4-0.2-2.7-1-3.5-2.2
	s-1.2-2.7-0.9-4.1c0.2-1.4,1-2.7,2.2-3.5c0.9-0.7,2-1,3.2-1c0.3,0,0.6,0,0.9,0.1C416.9,109.7,418.9,112.6,418.4,115.6z"/>
</svg>
