<svg xmlns="http://www.w3.org/2000/svg" viewBox="0 0 30.62 30.62"><defs><style>.cls-1{fill:#fff;}.cls-2{fill:#151221;}</style></defs><title>MediumIcon</title><g id="Layer_2" data-name="Layer 2"><g id="Footer_Logos" data-name="Footer Logos"><g id="Monogram"><rect id="Rectangle-path" class="cls-1" width="30.62" height="30.62"/><path id="Shape" class="cls-2" d="M7.31,10.24a.81.81,0,0,0-.26-.67L5.13,7.26V6.91h6L15.7,17,19.76,6.91h5.68v.35L23.8,8.83a.49.49,0,0,0-.18.46V20.86a.48.48,0,0,0,.18.46l1.6,1.58v.34H17.33V22.9L19,21.28c.16-.16.16-.21.16-.46V11.47L14.54,23.2h-.62L8.54,11.47v7.86a1.08,1.08,0,0,0,.29.91L11,22.86v.34H4.87v-.34L7,20.24a1.08,1.08,0,0,0,.28-.91Z"/></g></g></g></svg>