<svg xmlns="http://www.w3.org/2000/svg" viewBox="0 0 25.84 25.84"><defs><style>.cls-1{fill:#fff;}</style></defs><title>TryIcon</title><g id="Layer_2" data-name="Layer 2"><g id="Intro_and_Links" data-name="Intro and Links"><path class="cls-1" d="M25.84,4.23a4.27,4.27,0,0,1-.31,1.61,4.16,4.16,0,0,1-.92,1.39L8,23.85l-8,2,2-8L18.61,1.24A4.11,4.11,0,0,1,20,.32,4.29,4.29,0,0,1,21.62,0a4.14,4.14,0,0,1,1.64.33,4.47,4.47,0,0,1,1.34.91,4.34,4.34,0,0,1,.91,1.35A4.11,4.11,0,0,1,25.84,4.23ZM2.22,23.62l4.15-1A4,4,0,0,0,6,21.49a4.18,4.18,0,0,0-.69-.92,3.76,3.76,0,0,0-.92-.69,4.22,4.22,0,0,0-1.09-.41ZM4.11,18a5.66,5.66,0,0,1,2.31,1.41,5.71,5.71,0,0,1,1.4,2.3L21.46,8.08l-3.69-3.7ZM22.61,6.93l.61-.6a5.67,5.67,0,0,0,.52-.58,2.89,2.89,0,0,0,.36-.67,2.65,2.65,0,0,0,.13-.84,2.52,2.52,0,0,0-.21-1,2.76,2.76,0,0,0-1.4-1.4,2.48,2.48,0,0,0-1-.2,2.39,2.39,0,0,0-.84.13,2.64,2.64,0,0,0-.66.36,4.07,4.07,0,0,0-.59.51l-.59.61Z"/></g></g></svg>