<svg xmlns="http://www.w3.org/2000/svg" viewBox="0 0 37.67 30.61"><defs><style>.cls-1{fill:#fff;}</style></defs><title>TwitterIcon</title><g id="Layer_2" data-name="Layer 2"><g id="Footer_Logos" data-name="Footer Logos"><path class="cls-1" d="M11.85,30.61c14.21,0,22-11.78,22-22,0-.34,0-.67,0-1a15.78,15.78,0,0,0,3.86-4,15.56,15.56,0,0,1-4.44,1.21A7.76,7.76,0,0,0,36.63.56a15.76,15.76,0,0,1-4.91,1.88,7.73,7.73,0,0,0-13.17,7A22,22,0,0,1,2.62,1.41,7.75,7.75,0,0,0,5,11.73a7.66,7.66,0,0,1-3.5-1v.1a7.72,7.72,0,0,0,6.2,7.57,7.77,7.77,0,0,1-3.49.14,7.73,7.73,0,0,0,7.22,5.36,15.55,15.55,0,0,1-9.6,3.32A16.08,16.08,0,0,1,0,27.14,21.91,21.91,0,0,0,11.85,30.6"/></g></g></svg>