{"asset":{"version":"2.0","generator":"babylon.js glTF exporter for maya 2018 v1.2.30"},"scene":0,"scenes":[{"nodes":[0],"extensions":{}}],"nodes":[{"mesh":0,"translation":[0.0,0.0,0.0],"rotation":[0.0,0.0,0.0,1.0],"scale":[1.0,1.0,1.0],"name":"pCylinder1"}],"meshes":[{"primitives":[{"attributes":{"POSITION":1,"NORMAL":2,"TEXCOORD_0":3},"indices":0,"mode":4,"material":0}],"name":"pCylinder1"}],"accessors":[{"bufferView":0,"componentType":5123,"count":18,"type":"SCALAR","name":"accessorIndices"},{"bufferView":1,"componentType":5126,"count":7,"max":[1.73205078,0.0,2.0],"min":[-1.7320509,0.0,-2.0],"type":"VEC3","name":"accessorPositions"},{"bufferView":1,"byteOffset":84,"componentType":5126,"count":7,"type":"VEC3","name":"accessorNormals"},{"bufferView":2,"componentType":5126,"count":7,"type":"VEC2","name":"accessorUVs"}],"bufferViews":[{"buffer":0,"byteLength":36,"name":"bufferViewScalar"},{"buffer":0,"byteOffset":36,"byteLength":168,"byteStride":12,"name":"bufferViewFloatVec3"},{"buffer":0,"byteOffset":204,"byteLength":56,"byteStride":8,"name":"bufferViewFloatVec2"}],"buffers":[{"uri":"ground.bin","byteLength":260}],"materials":[{"pbrMetallicRoughness":{"baseColorFactor":[0.0838,0.2375,0.0862,1.0],"metallicFactor":0.0,"roughnessFactor":0.6923077},"emissiveFactor":[0.0,0.0,0.0],"alphaMode":"OPAQUE","name":"groundMat"}]}