{
  "accessors": [
    {
      "bufferView": 0,
      "componentType": 5126,
      "count": 3,
      "type": "VEC3",
      "max": [
        0.5,
        0.5,
        0.0
      ],
      "min": [
        -0.5,
        -0.5,
        0.0
      ],
      "name": "Positions Accessor"
    },
    {
      "bufferView": 1,
      "componentType": 5126,
      "count": 3,
      "type": "VEC3",
      "name": "Normals Accessor"
    },
    {
      "bufferView": 2,
      "componentType": 5126,
      "count": 3,
      "type": "VEC4",
      "name": "Tangents Accessor"
    },
    {
      "bufferView": 3,
      "componentType": 5126,
      "count": 3,
      "type": "VEC3",
      "name": "Colors Accessor"
    },
    {
      "bufferView": 4,
      "componentType": 5126,
      "count": 3,
      "type": "VEC2",
      "name": "UV Accessor 0"
    },
    {
      "bufferView": 5,
      "componentType": 5125,
      "count": 3,
      "type": "SCALAR",
      "name": "Indices Accessor"
    },
    {
      "bufferView": 6,
      "componentType": 5126,
      "count": 3,
      "type": "VEC3",
      "max": [
        0.5,
        0.5,
        0.0
      ],
      "min": [
        -0.5,
        -0.5,
        0.0
      ],
      "name": "Positions Accessor"
    },
    {
      "bufferView": 7,
      "componentType": 5126,
      "count": 3,
      "type": "VEC3",
      "name": "Normals Accessor"
    },
    {
      "bufferView": 8,
      "componentType": 5126,
      "count": 3,
      "type": "VEC4",
      "name": "Tangents Accessor"
    },
    {
      "bufferView": 9,
      "componentType": 5126,
      "count": 3,
      "type": "VEC3",
      "name": "Colors Accessor"
    },
    {
      "bufferView": 10,
      "componentType": 5126,
      "count": 3,
      "type": "VEC2",
      "name": "UV Accessor 0"
    },
    {
      "bufferView": 11,
      "componentType": 5125,
      "count": 3,
      "type": "SCALAR",
      "name": "Indices Accessor"
    }
  ],
  "asset": {
    "generator": "glTF Asset Generator",
    "version": "2.0",
    "extras": {
      "Attributes": "VertexNormal - VertexTangent - VertexColor_Vector4_Float - NormalTexture - BaseColorTexture - Primitive0VertexUV0 - Primitive1VertexUV0"
    }
  },
  "buffers": [
    {
      "uri": "Mesh_Primitives_01.bin",
      "byteLength": 384
    }
  ],
  "bufferViews": [
    {
      "buffer": 0,
      "byteLength": 36,
      "name": "Positions"
    },
    {
      "buffer": 0,
      "byteOffset": 36,
      "byteLength": 36,
      "name": "Normals"
    },
    {
      "buffer": 0,
      "byteOffset": 72,
      "byteLength": 48,
      "name": "Tangents"
    },
    {
      "buffer": 0,
      "byteOffset": 120,
      "byteLength": 36,
      "name": "Colors"
    },
    {
      "buffer": 0,
      "byteOffset": 156,
      "byteLength": 24,
      "name": "Texture Coords 0"
    },
    {
      "buffer": 0,
      "byteOffset": 180,
      "byteLength": 12,
      "name": "Indices"
    },
    {
      "buffer": 0,
      "byteOffset": 192,
      "byteLength": 36,
      "name": "Positions"
    },
    {
      "buffer": 0,
      "byteOffset": 228,
      "byteLength": 36,
      "name": "Normals"
    },
    {
      "buffer": 0,
      "byteOffset": 264,
      "byteLength": 48,
      "name": "Tangents"
    },
    {
      "buffer": 0,
      "byteOffset": 312,
      "byteLength": 36,
      "name": "Colors"
    },
    {
      "buffer": 0,
      "byteOffset": 348,
      "byteLength": 24,
      "name": "Texture Coords 0"
    },
    {
      "buffer": 0,
      "byteOffset": 372,
      "byteLength": 12,
      "name": "Indices"
    }
  ],
  "images": [
    {
      "uri": "Texture_baseColor.png"
    },
    {
      "uri": "Texture_normal.png"
    }
  ],
  "materials": [
    {
      "pbrMetallicRoughness": {
        "baseColorTexture": {
          "index": 0
        }
      },
      "normalTexture": {
        "index": 1
      }
    },
    {
      "pbrMetallicRoughness": {
        "baseColorTexture": {
          "index": 0
        }
      },
      "normalTexture": {
        "index": 1
      }
    }
  ],
  "meshes": [
    {
      "primitives": [
        {
          "attributes": {
            "POSITION": 0,
            "NORMAL": 1,
            "TANGENT": 2,
            "COLOR_0": 3,
            "TEXCOORD_0": 4
          },
          "indices": 5,
          "material": 0
        },
        {
          "attributes": {
            "POSITION": 6,
            "NORMAL": 7,
            "TANGENT": 8,
            "COLOR_0": 9,
            "TEXCOORD_0": 10
          },
          "indices": 11,
          "material": 1
        }
      ]
    }
  ],
  "nodes": [
    {
      "mesh": 0
    }
  ],
  "scene": 0,
  "scenes": [
    {
      "nodes": [
        0
      ]
    }
  ],
  "textures": [
    {
      "source": 0
    },
    {
      "source": 1
    }
  ]
}