<?xml version="1.0" encoding="UTF-8"?>
<svg id="Layer_1" data-name="Layer 1" xmlns="http://www.w3.org/2000/svg" width="1200" height="1200" viewBox="0 0 1200 1200">
  <defs>
    <style>
      .cls-1 {
        fill: #9b9b9b;
      }
    </style>
  </defs>
  <path class="cls-1" d="M901.32,816.89c15.21,15.21,36.26,22.74,57.73,21.45,27.57-1.66,57.46,5.4,81.59,29.53,27.2,27.2,48.35,70.21,36.98,111.64-.21.78-.94,3.46-2.26,4.78l-.56.56c-3.92,3.92-10.29,3.92-14.21,0l-54.07-54.07c-9-9-23.58-9-32.58,0l-43.82,43.82c-9,9-9,23.58,0,32.58l54.07,54.07c3.92,3.92,3.92,10.29,0,14.21l-.56.56c-1.32,1.32-4,2.05-4.78,2.26-41.43,11.37-84.45-9.78-111.64-36.98-24.13-24.13-31.19-54.02-29.53-81.59,1.29-21.47-6.24-42.52-21.45-57.73l-181.5-181.5c-15.21-15.21-36.26-22.74-57.73-21.45-27.57,1.66-57.46-5.4-81.59-29.53-27.2-27.2-48.35-70.21-36.98-111.64.21-.78.94-3.46,2.26-4.78l.56-.56c3.92-3.92,10.29-3.92,14.21,0l54.07,54.07c9,9,23.58,9,32.58,0l43.82-43.82c9-9,9-23.58,0-32.58l-54.07-54.07c-3.92-3.92-3.92-10.29,0-14.21l.56-.56c1.32-1.32,4-2.05,4.78-2.26,41.43-11.37,84.45,9.78,111.64,36.98,24.13,24.13,31.19,54.02,29.53,81.59-1.29,21.47,6.24,42.52,21.45,57.73l181.5,181.5Z"/>
  <path class="cls-1" d="M624.61,762.24c-23.25,8.22-48.27,12.71-74.34,12.71-123.18,0-223.04-99.86-223.04-223.04s99.86-223.04,223.04-223.04,223.04,99.86,223.04,223.04c0,25.52-4.3,50.04-12.19,72.88l85.8,85.8c.23-.49.45-.98.71-1.46,10-18.88,18.25-38.83,24.54-59.63,3.42-11.29,13.2-19.49,24.92-20.83,21.38-2.44,45.46-6.4,64.79-10.25,13.97-2.79,24.02-15.07,24.02-29.32v-74.38c0-14.25-10.04-26.53-24.02-29.32-19.32-3.86-43.4-7.82-64.79-10.25-11.72-1.34-21.5-9.54-24.92-20.83-6.29-20.8-14.54-40.75-24.54-59.63-5.5-10.39-4.38-23.05,2.94-32.25,13.37-16.82,27.55-36.58,38.46-52.93,7.91-11.85,6.32-27.64-3.75-37.71l-52.59-52.59c-10.07-10.07-25.86-11.66-37.71-3.76-16.11,10.75-35.53,24.67-52.18,37.86-9.28,7.35-22.06,8.42-32.47,2.78-19.15-10.38-39.41-18.95-60.57-25.5-11.18-3.46-19.25-13.19-20.61-24.81-2.45-20.98-6.31-44.35-10.07-63.2-2.79-13.97-15.07-24-29.32-24h-74.38c-14.24,0-26.53,10.03-29.31,23.99-3.68,18.43-7.45,41.18-9.91,61.8-1.4,11.74-9.64,21.54-20.98,24.88-21.84,6.43-42.75,15.01-62.5,25.5-10.34,5.49-22.94,4.36-32.14-2.88-16.21-12.74-34.78-26.03-50.29-36.38-11.88-7.93-27.69-6.4-37.79,3.7l-52.59,52.59c-10.1,10.1-11.63,25.9-3.71,37.78,10.19,15.27,23.23,33.51,35.79,49.54,7.28,9.29,8.36,22,2.72,32.36-10.88,20.01-19.79,41.24-26.47,63.44-3.37,11.22-13.11,19.35-24.74,20.77-20.16,2.45-42.19,6.12-60.13,9.7-14,2.79-24.09,15.06-24.09,29.33v74.38c0,14.28,10.09,26.54,24.09,29.33,17.94,3.58,39.97,7.24,60.13,9.7,11.63,1.42,21.36,9.54,24.74,20.77,6.68,22.2,15.59,43.44,26.47,63.44,5.64,10.36,4.55,23.08-2.72,32.36-12.56,16.03-25.6,34.27-35.79,49.54-7.92,11.88-6.39,27.68,3.71,37.78l52.59,52.59c10.1,10.1,25.91,11.63,37.79,3.7,15.51-10.35,34.08-23.64,50.29-36.38,9.2-7.23,21.8-8.37,32.14-2.88,19.75,10.49,40.66,19.08,62.5,25.5,11.34,3.34,19.58,13.13,20.98,24.88,2.46,20.62,6.23,43.38,9.91,61.8,2.79,13.96,15.08,23.99,29.31,23.99h74.38c14.24,0,26.53-10.04,29.32-24,3.76-18.85,7.62-42.22,10.07-63.2,1.36-11.62,9.43-21.36,20.61-24.81,21.11-6.53,41.32-15.07,60.42-25.42l-85.56-85.56Z"/>
</svg>