{
  "extensionsUsed": [
    "KHR_materials_pbrSpecularGlossiness"
  ],
  "accessors": [
    {
      "bufferView": 0,
      "componentType": 5126,
      "count": 4,
      "type": "VEC3",
      "max": [
        0.5,
        0.5,
        0.0
      ],
      "min": [
        -0.5,
        -0.5,
        0.0
      ],
      "name": "Positions Accessor"
    },
    {
      "bufferView": 1,
      "componentType": 5126,
      "count": 4,
      "type": "VEC3",
      "name": "Colors Accessor"
    },
    {
      "bufferView": 2,
      "componentType": 5126,
      "count": 4,
      "type": "VEC2",
      "name": "UV Accessor 0"
    },
    {
      "bufferView": 3,
      "componentType": 5125,
      "count": 6,
      "type": "SCALAR",
      "name": "Indices Accessor"
    }
  ],
  "asset": {
    "generator": "glTF Asset Generator",
    "version": "2.0",
    "extras": {
      "Attributes": "VertexColor_Vector3_Float - DiffuseTexture - SpecularFactor_Override - SpecularGlossinessAppliedToMesh_Yes - BaseColorTexture - ExtensionUsed_SpecularGlossiness"
    }
  },
  "buffers": [
    {
      "uri": "Material_SpecularGlossiness_03.bin",
      "byteLength": 152
    }
  ],
  "bufferViews": [
    {
      "buffer": 0,
      "byteLength": 48,
      "name": "Positions"
    },
    {
      "buffer": 0,
      "byteOffset": 48,
      "byteLength": 48,
      "name": "Colors"
    },
    {
      "buffer": 0,
      "byteOffset": 96,
      "byteLength": 32,
      "name": "Texture Coords 0"
    },
    {
      "buffer": 0,
      "byteOffset": 128,
      "byteLength": 24,
      "name": "Indices"
    }
  ],
  "images": [
    {
      "uri": "X.png"
    },
    {
      "uri": "Texture_diffuse.png"
    }
  ],
  "materials": [
    {
      "extensions": {
        "KHR_materials_pbrSpecularGlossiness": {
          "diffuseTexture": {
            "index": 1
          },
          "specularFactor": [
            0.0,
            0.0,
            0.0
          ]
        }
      },
      "pbrMetallicRoughness": {
        "baseColorTexture": {
          "index": 0
        }
      }
    }
  ],
  "meshes": [
    {
      "primitives": [
        {
          "attributes": {
            "POSITION": 0,
            "COLOR_0": 1,
            "TEXCOORD_0": 2
          },
          "indices": 3,
          "material": 0
        }
      ]
    }
  ],
  "nodes": [
    {
      "mesh": 0
    }
  ],
  "scene": 0,
  "scenes": [
    {
      "nodes": [
        0
      ]
    }
  ],
  "textures": [
    {
      "source": 0
    },
    {
      "source": 1
    }
  ]
}