<svg xmlns="http://www.w3.org/2000/svg" width="550" height="400" viewBox="0 0 550 400"><circle cx="275.33" cy="124.53" r="57.8" style="fill:#4473c5"/><circle cx="362.53" cy="275.47" r="57.8" style="fill:#4473c5"/><circle cx="187.47" cy="275.47" r="57.8" style="fill:#4473c5"/><polygon points="259.44 275.53 272.02 255.33 272.02 264.2 288.5 264.2 288.5 286.86 272.02 286.86 272.02 295.73 259.44 275.53" style="fill:#b0bcdc"/><polygon points="327.81 213.8 304.06 212.27 311.88 208.07 304.08 193.55 324.03 182.84 331.83 197.35 339.65 193.16 327.81 213.8" style="fill:#b0bcdc"/><polygon points="237.32 187.87 248.15 209.07 240.54 204.49 232.04 218.62 212.63 206.94 221.13 192.82 213.52 188.24 237.32 187.87" style="fill:#b0bcdc"/><path d="M261.68,128.53c-.09,1-.48,6.27-6.09,6.27-5.79,0-6.44-5.07-6.44-10.53,0-6.57,1.91-10.44,6.65-10.44,5.37,0,5.79,4.62,5.88,6.24h-3.6c-.06-.69-.09-3.18-2.34-3.18s-2.85,2.79-2.85,7.44c0,3.84.39,7.44,2.76,7.44,2.16,0,2.34-2.46,2.43-3.24Z" style="fill:#fff"/><path d="M274.49,126.55c0,5.64-2.07,8.19-5.88,8.19s-5.78-2.43-5.78-8.1c0-5.52,2.3-8,6-8S274.49,121.36,274.49,126.55Zm-8,.06c0,3.33.53,5.13,2.27,5.13,1.59,0,2.16-1.77,2.16-5.1s-.57-5-2.19-5S266.46,123.28,266.46,126.61Z" style="fill:#fff"/><path d="M287.93,113.14v17c0,1.83,0,3.42,0,4.32h-3.45a14.21,14.21,0,0,1-.12-1.65c-.45,1.11-1.38,1.92-3.45,1.92-3.27,0-4.59-2.94-4.59-8.16,0-4.77,1.56-7.89,5.19-7.89,1.68,0,2.49.6,2.79,1.2v-6.72Zm-5.76,18.54c1.86,0,2.28-1.44,2.28-5.19,0-3.6-.3-4.8-2.13-4.8-1.44,0-2.31,1.11-2.31,4.92C280,130.21,280.67,131.68,282.17,131.68Z" style="fill:#fff"/><path d="M293.91,127.6c0,2,.23,4.17,2.22,4.17a2.06,2.06,0,0,0,2.09-2h3.42a5.23,5.23,0,0,1-5.55,5c-5,0-5.75-4.23-5.75-8.16,0-4.92,1.88-7.92,5.82-7.92,4.49,0,5.6,3.36,5.6,7.41,0,.54,0,1.26-.05,1.53Zm4.31-2.58c0-1.53-.18-3.45-2.06-3.45-2.07,0-2.2,2.31-2.2,3.45Z" style="fill:#fff"/><path d="M143.45,285.38l-5-20.31h3.93l1.86,8.61c.6,2.73,1.14,5.73,1.38,7.83h.06c.24-2,1-5.07,1.56-7.74l1.8-8.7h3.81l-5.1,20.31Z" style="fill:#fff"/><path d="M154.28,269.84h3.57v15.54h-3.57Zm0-2.22v-3.54h3.57v3.54Z" style="fill:#fff"/><path d="M163.46,280.67a2,2,0,0,0,2,2.25,1.53,1.53,0,0,0,1.74-1.65c0-1.08-.48-1.68-2.31-2.37-3.66-1.35-4.59-2.64-4.59-4.89,0-2.1,1.35-4.44,5-4.44,4.08,0,5.07,2.79,5.07,4.83H167c0-.57-.06-2.1-1.74-2.1a1.34,1.34,0,0,0-1.44,1.44c0,1,.54,1.44,2.4,2.13,3.3,1.23,4.53,2.46,4.53,5,0,3.06-1.92,4.8-5.43,4.8-3.72,0-5.37-2.22-5.37-5Z" style="fill:#fff"/><path d="M183.83,280.82c0,2.25,0,3.75,0,4.56h-3.42a10.43,10.43,0,0,1-.12-1.71,3.42,3.42,0,0,1-3.48,2c-2.19,0-3.87-1.08-3.87-4.65V269.84h3.57v10.35c0,1.53.33,2.4,1.65,2.4s2.07-.75,2.07-3.21v-9.54h3.57Z" style="fill:#fff"/><path d="M197.18,282c0,.78.06,2.7.12,3.39h-3.24a9.25,9.25,0,0,1-.15-1.44,3.71,3.71,0,0,1-3.51,1.71c-3,0-4.14-2.37-4.14-4.59,0-3.18,2.19-5.13,6.12-5.13.54,0,.93,0,1.29,0v-1.68c0-.9-.12-2-1.68-2s-1.65,1-1.74,2h-3.42c.06-2.28,1.14-4.71,5.31-4.71,3.33,0,5,1.5,5,4.47Zm-3.42-3.42a7.08,7.08,0,0,0-1.17-.06c-2,0-2.79,1-2.79,2.22a1.79,1.79,0,0,0,1.8,2c1.83,0,2.16-1.38,2.16-3.66Z" style="fill:#fff"/><path d="M200.39,285.38v-21.3H204v21.3Z" style="fill:#fff"/><path d="M207.14,269.84h3.57v15.54h-3.57Zm0-2.22v-3.54h3.57v3.54Z" style="fill:#fff"/><path d="M212.84,282.8c1.62-2.52,4.08-6.6,6.09-9.93h-5.67v-3H223v2.7c-1.38,2.25-4.2,7-6,9.84h6.06l-.36,3h-9.87Z" style="fill:#fff"/><path d="M227.84,278.54c0,2,.24,4.17,2.22,4.17a2.06,2.06,0,0,0,2.1-2h3.42a5.24,5.24,0,0,1-5.55,5c-5,0-5.76-4.23-5.76-8.16,0-4.92,1.89-7.92,5.82-7.92,4.5,0,5.61,3.36,5.61,7.41,0,.54,0,1.26-.06,1.53Zm4.32-2.58c0-1.53-.18-3.45-2.07-3.45-2.07,0-2.19,2.31-2.19,3.45Z" style="fill:#fff"/><path d="M340.64,279.71c.18,1.68.87,3.15,2.73,3.15s2.43-1.11,2.43-2.64-.81-2.64-3.36-3.84c-3.48-1.65-4.86-3.12-4.86-6.15,0-3.24,2.1-5.46,5.76-5.46,4.59,0,5.7,3.09,5.76,5.73h-3.57c-.09-1.17-.39-2.88-2.25-2.88-1.44,0-2.07.93-2.07,2.31s.66,2.16,3,3.27c3.63,1.68,5.28,3.3,5.28,6.69,0,3.21-2,5.85-6.27,5.85-4.68,0-6.09-3-6.21-6Z" style="fill:#fff"/><path d="M361.88,282c0,.78.06,2.7.12,3.39h-3.24a9.25,9.25,0,0,1-.15-1.44,3.71,3.71,0,0,1-3.51,1.71c-3,0-4.14-2.37-4.14-4.59,0-3.18,2.19-5.13,6.12-5.13.54,0,.93,0,1.29,0v-1.68c0-.9-.12-2-1.68-2s-1.65,1-1.74,2h-3.42c.06-2.28,1.14-4.71,5.31-4.71,3.33,0,5,1.5,5,4.47Zm-3.42-3.42a7.08,7.08,0,0,0-1.17-.06c-2,0-2.79,1-2.79,2.22a1.79,1.79,0,0,0,1.8,2c1.83,0,2.16-1.38,2.16-3.66Z" style="fill:#fff"/><path d="M367.07,269.84c1,4.41,2,9.21,2.34,11.82h0c.3-2.4,1.59-7.35,2.52-11.82h3.6l-4.35,15.54h-3.87l-4.11-15.54Z" style="fill:#fff"/><path d="M380,278.54c0,2,.24,4.17,2.22,4.17a2.06,2.06,0,0,0,2.1-2h3.42a5.24,5.24,0,0,1-5.55,5c-5,0-5.76-4.23-5.76-8.16,0-4.92,1.89-7.92,5.82-7.92,4.5,0,5.61,3.36,5.61,7.41,0,.54,0,1.26-.06,1.53Zm4.32-2.58c0-1.53-.18-3.45-2.07-3.45-2.07,0-2.19,2.31-2.19,3.45Z" style="fill:#fff"/></svg>